<?xml version="1.0" standalone="no"?>
<!DOCTYPE svg PUBLIC "-//W3C//DTD SVG 20010904//EN"
 "http://www.w3.org/TR/2001/REC-SVG-20010904/DTD/svg10.dtd">
<svg version="1.0" xmlns="http://www.w3.org/2000/svg"
 width="512.000000pt" height="512.000000pt" viewBox="0 0 512.000000 512.000000"
 preserveAspectRatio="xMidYMid meet">
<metadata>
Created by potrace 1.11, written by Peter Selinger 2001-2013
</metadata>
<g transform="translate(0.000000,512.000000) scale(0.100000,-0.100000)"
fill="#000000" stroke="none">
<path d="M0 2560 l0 -2560 2560 0 2560 0 0 2560 0 2560 -2560 0 -2560 0 0
-2560z m3315 1872 c-27 -25 -225 -215 -439 -422 -213 -206 -392 -375 -396
-375 -4 0 -196 182 -426 404 -230 222 -428 412 -439 423 -19 17 5 18 865 18
l885 0 -50 -48z m678 -1704 c478 -298 865 -544 860 -545 -4 -1 -647 -77 -1428
-169 -1357 -158 -1421 -165 -1449 -149 -16 9 -410 253 -874 543 -636 396 -839
528 -821 530 89 13 2790 330 2813 331 23 1 234 -127 899 -541z m-1071 -1663
l434 -420 -438 -3 c-241 -1 -636 -1 -877 0 l-439 3 437 422 c240 232 439 421
442 420 3 -1 202 -191 441 -422z"/>
<path d="M2133 2831 c-496 -58 -904 -108 -907 -111 -3 -3 187 -125 422 -271
l427 -266 907 106 c498 58 909 108 912 111 4 5 -848 542 -856 539 -2 -1 -409
-49 -905 -108z"/>
</g>
</svg>
