<svg xmlns="http://www.w3.org/2000/svg" xmlns:xlink="http://www.w3.org/1999/xlink" width="1920" height="1080" viewBox="0 0 1920 1080"><defs><style>.cls-1{isolation:isolate;}.cls-2{fill:#006837;}.cls-3{fill:#e5e0b7;}.cls-4{fill:#b5c480;}.cls-5{fill:url(#linear-gradient);}.cls-6{fill:#282722;}.cls-7{fill:#a57c60;}.cls-8{fill:#cec8ab;}.cls-9{fill:#633922;}.cls-10{fill:#fff;}.cls-11{fill:#a39f89;}.cls-12{fill:#828281;}.cls-13{fill:#dfa000;}.cls-14{fill:#aa5b26;}.cls-15{fill:#512f16;}.cls-16{fill:#c6a279;}.cls-17{fill:#00fc0c;}.cls-18{fill:#ff6700;}.cls-19{fill:#492c0d;}.cls-20{fill:#933131;}.cls-21{fill:#3a0f0f;}.cls-22{fill:#998675;}.cls-23{fill:#534741;}.cls-24{fill:#174c27;}.cls-25{fill:#5e663a;}.cls-26{fill:#42210b;}.cls-27{fill:#c66414;}.cls-28{mix-blend-mode:screen;}.cls-29{fill:#603813;}</style><linearGradient id="linear-gradient" x1="1154.67" y1="411.67" x2="1339.33" y2="411.67" gradientUnits="userSpaceOnUse"><stop offset="0.06" stop-color="#6386a1"/><stop offset="0.23" stop-color="#cce0f4"/><stop offset="0.28" stop-color="#c3d8ed"/><stop offset="0.36" stop-color="#a9c2d8"/><stop offset="0.45" stop-color="#809fb8"/><stop offset="0.52" stop-color="#6386a1"/><stop offset="0.69" stop-color="#cce0f4"/><stop offset="0.79" stop-color="#cce0f4"/><stop offset="0.83" stop-color="#c3d8ed"/><stop offset="0.88" stop-color="#a9c2d8"/><stop offset="0.96" stop-color="#809fb8"/><stop offset="1" stop-color="#6386a1"/></linearGradient></defs><title>baggrund_mark</title><g class="cls-1"><g id="mellemgrund-2_-_uden_gulerødder_til_spil" data-name="mellemgrund-2 - uden gulerødder til spil"><path class="cls-2" d="M1923.33,481.77c-1.88-.42-5.12.38-6.4-.74a2.85,2.85,0,0,1-.68-.84c.06-.62.1-1.31.1-2.05a4,4,0,0,0,.16-1.94c-.74-3.66-2.41-6.33,0-10.16a8,8,0,0,1-4.16.65c-.83-1-6.82-2-8-3,.15-.59,5.53-1.28,6.21-2.06-5.26-3.47-14.64-5.94-20.81-4.67a5,5,0,0,1,1.61,1.15,18.82,18.82,0,0,0-16.22,6.06,30.26,30.26,0,0,0-2.37-2.5,6,6,0,0,1,.17-1.15l-1.14.29a19.79,19.79,0,0,0-5.21-3.29c2.12-2,3.55-5.09,4.82-7.54-8.33-.1-18.2,4.79-23.35,11a4.66,4.66,0,0,0-.79,1.33,35.73,35.73,0,0,0-5.2,5.63,36,36,0,0,0-8.36-4.16c-.9-2.81-3.13-2.42-5.65-1.1a15.93,15.93,0,0,0-9,2.17c0-1.54,0-3.09-.06-4.61-4.45,3.15-5.43,6.39-7.66,10.84-1.21,2.39-3.13,2-3.29,5.15a2.68,2.68,0,0,0,.61,2,30.32,30.32,0,0,0-1.24,3.66,31.93,31.93,0,0,0-10.76.41c-.36-.51-.37-.61-1.85.52a16.37,16.37,0,0,0-5.47,3,4.65,4.65,0,0,0-4.24-2.3c-.19,4.71-.16,8.43-1.64,12.92a35.14,35.14,0,0,1-4.49-4.34c-4.37,6.7,1.71,12.05,4.56,16.89a58,58,0,0,0,1,5.76,6.93,6.93,0,0,1-.79,3.06c-32.3,2.88-20.69,35-20.69,35l160,5.81V546.08c.12,0,.22.12.33.17Z"/><path class="cls-2" d="M730.31,455.85c.07-1.77-1.47-4-1.49-5.75-7.23-.24-16.06,1.37-22.77-1.3-5.1-2-8-4.34-11.75-5.72-2.67-10.4-.92-15.28-18.87-15.94C676.51,414,666,414.26,658,408.86c-12.26-8.27-24.26-12.1-42.86-15.95-23.52-4.86-30.53-.59-36.62,22.57-2.44-1-7.07-1.87-9.09-3-8.91,8.82-27.35-9.38-29.8,8-11.16-2.3-23.58-2.64-34.63.05.84,3.92-1.18,9.31-.31,13.28-12.21-.45-31.6,2.81-27.47,18.06-8.17-7.27-26.44,6.8-27.67,17.59-2.16-10-24.73,9.74-28.14,18.92a7.44,7.44,0,0,0-.18-4,5.46,5.46,0,0,0-3-.77c-7.08,4.67-10.05,14.19-10.42,22l4.86-.34c-9.58,11.55-9.05,44,4.25,56.56,10.1,9.57,20.77,5.48,32.51-.06,18.89-8.92,30.88-15.08,52.92-18.32,17.46-2.57,33.77-5.44,51-11,26.42-8.57,54.91-8,82.16-13.61,15.6-3.19,69-16.69,62.28-44.74a22.61,22.61,0,0,0,4.93-5.46,59.87,59.87,0,0,0,6.9,1.91c17.19,3.58,36.31-1.81,54.07-1.5C754.87,463.86,740,456,730.31,455.85Z"/><path class="cls-3" d="M1924,923.13q-1-3.74-2.11-7.58c-8-27.8-23.5-51.34-37-77.3-7.26-14-12.41-29.57-20.43-43.19-8.72-14.8-22.14-25.3-33.27-38.26-24.67-28.74-64.21-39.95-97.1-58.78-22.13-12.68-37.87-32-59.32-46.18-17.36-11.46-20.73-16.1-21.82-36.45-1.44-26.88,14.72-72.37-13.26-84.81-23.36-10.4-68.43-6.41-94.89-7.63-33.58-1.54-66.36-5-99.94-6-123.1-3.45-192.12-12-315.91-12-44.13-3.05-79,10.66-76,26.5,3.29,17.57-18.74,30.35-32.67,43.47-23.6,22.24-58.8,44.39-87.16,62.06-26.24,16.35-43.07,16.52-59.66,45.92-12.66,22.44-11.28,48.33-34.28,62.71-68.86,43.05-156.33,24.59-232,41.35-41.07,9.09-84.62,36.78-72.66,86.52,13.46,56,89.77,77.34,135.28,95.68,53.4,21.52,111.32,38.61,168.5,46.52,50.93,7,102.28,10.83,152.74,19.65,66.57,11.64,132,29.8,199.53,37.62,72.84,8.44,142.3,2.72,214.62,0,77.18-3,153-10.78,229.55-14.39,29-1.37,60.89-1,88.65-7,22.13-4.8,43.44-13.2,65.56-16.48,43-6.35,93.45-6.21,124.15-41.64a67.82,67.82,0,0,0,10.9-16.68Z"/><path class="cls-4" d="M1630.33,502.53a9.42,9.42,0,0,0,0,3A11.16,11.16,0,0,0,1630.33,502.53Z"/><path class="cls-4" d="M1513.47,896c13.67-.33,17.38-3.32,28.31-8.26-12-2.52-25.87-3.31-38.34-5.74-16.48-3.21-28.54-8-45.51-8-9.72,0-16,2.85-25,4-11.52,1.51-24.13-.07-35.58.66,2.31-.34,4.17-1.64,6.12-2.56A59.34,59.34,0,0,0,1384,866c-4.33-1.15-7.9.7-12-1.8,10.83-.21,20.53-7.88,30.75-10.2-21.21-3.57-42.2-6.47-63.14-11-11.17-2.41-20.71-3.78-31.23-7.35-10.19-3.45-21.1-7-31.38-10.22-17.35-5.34-37-2.67-55.48-4.45-16.67-1.6-34.22-11.48-51-10.92,4.92,10.28,16.22,12.26,24.48,16.72-13.64,1.29-25.56-4.64-38.78-6.85s-24.46-1.85-36.83-1c9.59,2.25,4.66,9.64-3.2,9.2.19,3.83-7.22,8-13.72,11.57a65.56,65.56,0,0,0-15.9-2.14c-3.87.07-8.93,1.51-14,3.08-4.14-.33-8.56.12-12.84-.33-12.84-1.36-26.71-2-40.63-2.78.44-.59.85-2.52,1.24-3.09-4.22-1.44-8.9-.69-13.25-.9-.08-.39-.15-.79-.2-1.19,6.19-5.43,15.34-3.24,22.86-4,5.87-.62,10.71-2.28,16.89-2.66,8.25-.51,16.72-1.6,24.38-4.93a35.4,35.4,0,0,0,3.84-2.07,56.39,56.39,0,0,0,6.35-2c.55-.21,1.1-.4,1.65-.58,4.16-.54,8.42-.43,12.23-2a29.34,29.34,0,0,0-3.82-1.11,10.31,10.31,0,0,0,5-6.34c.34-1.13-4-19.34-4.72-19.94-12.19-10.71-42.45-7.76-58.25-13.87-.74-6,2.24-11.93,5.51-16.35-13.84-6.69-13.82-18.07-29.28-22.39-10.47-2.92-22.39-4.47-32.76-6.89-18.56-4.33-38.13-1.83-56-6.45,24.33-17.16,80.22,4.73,96.3-17-3.29-4.8-7.47-9.37-9.63-14.9,5.93-3,12.36-4.91,13.81-11.41,3-13.23-10.65-11.92-14.44-20.87-9.83-23.16,27.2-8.52,36.2-15.95,14.9-12.29-16.57-21.63,5.59-35.61,12.47-7.86,43-7.38,58.52-7.5,16.41-.14,32.76.67,49-1.69-.36-5.43.63-7.83-2.81-12.17,9.24-7.06,28.31-1.47,40-5.65-7.82-6.85-18.17-4.11-28-4.79-20.33-1.41-42.76-3-62.5-8.51-33.81-9.41-29.61-18.16-.75-22.75,13.89-2.21,27.87-2.64,33.4-16.86,4.56-11.68-2-19.37-4.55-28.77a6.58,6.58,0,0,0,.13-.89c.38-6.74-6.16-10.54-6.48-17.47-11,1.51-21.81.3-33-.47-.14-.62.28-1.14.2-1.76-13.79-2.78-27.21-5-40.83-7.54-11.7-2.18-22-.6-33.29-3a14,14,0,0,1-.73,1.7c-3.65-.29-8.07-1.65-10.52-.39-3.85-.32-17.46-4.42-15.31,3.55-5-.89-9.51-3.58-14.1-5.75-.16.84-.6,1.61-.77,2.56-20.05-3.1-42.74-5.56-63.27-3.88-8,.65-43.86-8.11-46.71-.16-5.57.39-11.11,1.38-16.7,1.85q-6.59-.19-13.18-.34c-6.42-1.17-12.19-5.11-18.54-6.06-6.53-1-10,2.24-15.5,2.7-4.19.35-7.83-1.71-12.64-.7-4.56,1-8,2.12-12.7,2.67a112.9,112.9,0,0,1-11.52.68c-4.77-1.59-9.64-2.88-14.3-4-11.53-2.72-22.42,1.91-33.95,2.29a327.15,327.15,0,0,0-48.15,5.7c-8.79,1.09-17.48,2.46-26,4.19-8.86,1.78-18,4.2-27.3,6.85a244.68,244.68,0,0,0-25.94,6.51c-14.17,4.6-26.68,4.46-41.65,5.9-.27.92-.1,1.77-.29,2.71-14.43,3.51-27.66,12.79-41.9,2-2.37,4-6.71,4.8-9.13,8-5.72-.65-5.77,2.64-9.61,4.37s-8.61,3.95-14.17,4.81c-8.85,1.36-17.61,1.66-26.88,2.12C444.83,524.42,435,524.56,428,526c-9.18,1.87-17.46,5.22-26,8.45-2,.74-3.67,1.66-5.48,2.54-2.23.7-4.45,1.41-6.65,2.15-1.65-.11-3.47-.68-4.88-.16s-2,1.77-2.72,2.79c-29.68,10.63-57.8,24.61-87.7,37-26.69,11-52.69,22.86-77.13,34.64-16.62,8-49.75,13.07-57.31,27.65-5.31,10.23,2.1,23,4.52,31.6,9.51,33.92,38.16,53.94,68.71,71.26,46.63,26.42,98,47.82,150.7,64.51,33.34,10.55,59.33,33.77,91.76,45.75,10.55,3.89,26.83,9.07,38.26,9,13.12-.12,23.27-7.19,36-9.05,16.27-2.39,45.51,35.45,60,29.94,11-4.18,78,36.22,89,37,3.06.22,6.12.36,9.19.44A106,106,0,0,0,719.33,930c24,16.76,54.29,25.73,83.35,29.26,45.06,5.47,92,7.5,137.46,4.85,13.11-.76,24.08-2.07,23.86-9.74,7.57,0,14.94-1.17,20.76-4.13,4.75-2.41,10-7.84,15.18-8.27,9.06-.76,24.39,4.89,33.89,6.45-1.14,2-.83,5.47-2.92,7.38,11.24,3.44,35.65-.38,46,5.45-2.95,3.49-7.38,5.36-9.92,9.52,10.6,6.27,32.71-1.93,39.4,8.33-21.41,11.86,45.13,20.86,45.1,20.82,8.34-4.56,4.88-9,6.53-16.88,3.8-18,20.88-5.36,34.78-2.23,22.08,5,43-10,64.23-5.66-1.71,5-12.52,11.47-12.06,17.92.64,9.22,17.77,6,24.62,6,37.57,0,70.72-7.24,107.09-7-7,.37-11-5.61-14.65-10.35,7-2.34,18.28-2.9,23.44-7.84-4.72-5.62-1.92-9.16-8.22-14.27-10.29-8.36-27.35-4.32-36.27-13.42,17.19-.66,29.93-2.13,46.81,1.86,13.39,3.17,26.47,3.81,39.94,6.5s42.19,6.08,54.22-2.4c-.05-3.59,2.74-5.68,6.84-6.84q13.68.25,27.45.34-5.57-.69-11.18-1.57c6.69.25,12.8,1,15,1-8.06-4.69-23.15-4-32.89-6.09-11.65-2.53-24.45-6.19-36.43-8a6.35,6.35,0,0,0,.84-3.76c9.26-1.8,21.58,1.38,29.91-2.37-4.23-3.1-5.82-7.22-1.57-10.89-2-2.92-5.08-4.3-8.88-4.29,6.06-3.87,13.08-4.89,11.11-13.52C1492.52,895.68,1503,896.28,1513.47,896ZM1194,850c13.81-.8,23.36,2.69,36.66,6.34-.12,4.77,3.85,6.64,8.34,7.7a17.42,17.42,0,0,0-1.26,2.86c-17.67,1-36.7,2.21-51.92-2.12-9.54-2.72-13.35-7.78-20-12.88C1175.3,851.54,1184.51,850.53,1194,850Zm105.73,84.65c-19.58,7.68-49.09,10.13-69,3.44,1.37-1.14,1.79-3.59,4.51-5-7.21-11.09-57.29-5-74.79-4.09a3.34,3.34,0,0,0,.35-.45c-13.18-4-32.19-2.67-43.22-10.77,2-1.6,2.37-3.33,4.83-4.67-4.81-7.37-22.3-5.35-31-6.86a49.39,49.39,0,0,1-6-1.44c-1.3-8.24-10-13.55-1.32-20.79,4-3.36,17.07-1.4,22-1.17,20.79,1,41,6,60.8,10.37,42.28,9.38,87.62,9.41,130.41,12.13-10.7,8.51-27,13.13-39.48,19.61,12.41,7.13,31.24,7.53,47.72,8C1303.32,933.49,1301.27,934,1299.75,934.63Zm18-57c-12-2.76-22.66-6.19-33.82-8.6.11-.31.23-.62.34-.95,3.3-9.82.74-13.39,11.82-14.07,14.82-.9,47.58,8,58.71,15.1a63.06,63.06,0,0,0,2.22,10.69C1343.25,879.19,1328.33,880.06,1317.73,877.62Z"/><path class="cls-4" d="M1923.84,548.17c-12.62-2.5-30.21-9.58-43.79-12.29-11.94-2.38-23.3-4.9-35.72-6.1-21.62-2.09-43.19-5.27-64.75-8.52-2.09-.74-4.19-1.55-6.35-2.49-9.71-4.19-14.76-4.75-24.56-5.22-6.82-.32-31.59.54-33.5-8.56.08,1.43-.76,3.18-.9,4.64-3.71-.55-7.33-2.61-11.23-2.58.07.83-.23,1.78-.17,2.59-4.22-2-12.25.45-14.57-4.26.43,2.21-.54,3.54-.89,5.54-7.91.34-32.14,3.43-35.59-5.05a9.91,9.91,0,0,0-.12,2.21c-2.71-1-5.89-2.16-8.78-3.11,1.61,8.1-8.06,2.79-12.48,1.93,0-.41-.06-.88-.11-1.37a23.07,23.07,0,0,1-.75,3.37c-7.43,0-10.63,5.64-18.58,4.77a31,31,0,0,0-.09,5.7c-2.76,3.37-3.66,8.62-5.91,15.55-2.39,7.36-.58,8.78-1,16.08-.17,3-3.08,5-3.07,7,0,2.75,3.53,5.23,3.1,7.49-1.45,7.71-9.3,5.07-11.32,10.22-2.79,7.1,11,10.44,16.14,11.46-.39,11.46-30.67,6.23-37.85,12.61,6,2.54,31.38,6.9,28,13.8-4.07,8.21-29.21,9.1-35.14,14.52,2.83,4.21,11.62,4.9,8.64,11.85-1.9,4.43-14.84,7.78-19.53,9.63-20.68,8.13-42.34,8.93-64.46,9.43-7.53.17-38.78.88-41,8.58s9.53,10.84,15,12.92c23.77,9,48.59,4.66,73.39,4.51,18.67-.11,36.81-4,56.11-4,6.87,0,37.62-4.21,40.06,4.48,4.73,16.81-41.66,14.61-17,30.35,6.79,4.33,36.74,7.75,38.64,16.57,1.67,7.75-11.59,9.54-17.07,11.1-9.09,2.59-37.66,4-33.55,16.5,4.29,13,39.2,11.25,50.28,12,19,1.34,38.18.75,57.25,1.75,7.52.4,13.6.1,20.2,4,8.29,4.91,4.79,2.6,6.34,9.28,1,4.23-6.53.68.24,7.73,5.77,6,25.12,5.44,31.9,6,21.14,1.79,43.37,4.46,64.09,9.41,1.28,23.9-26,17.3-38,30.86-12.18,13.8,8.93,17.7,19.81,20.21,12.05,2.79,24.79,5.8,33.69,14.7-2.92,2.58-7,5-9.76,7.71-6.09,5.93-9.51,17.95-16.63,22.54,9.55.79,17.64,5.92,27,6.53,17.11,1.12,34.42,2.21,51.82,2.22,4.14,0,15.9.17,22.79-.18V548.32Z"/><path class="cls-4" d="M1378.61,704.08c23.41,0,43.06,4.87,66.59,5.92,11.26.51,21,3,32.3-1.08,6.31-2.29,14.3-6.07,13.06-10.84-25.1,3.23-46.16-19.94-68.19-22.48-18.68-2.16-32.77,2.57-51.16,4.61-15.84,1.76-35.56-.05-51.38,3.17-10,2-20,7.84-31.68,8.72-12.83,1-28.73-3-40.63,1.45,14.47,11.09,44.2,9.59,62.42,11.62C1333.31,707.78,1354.84,704.08,1378.61,704.08Z"/><rect class="cls-5" x="1154.67" y="341.67" width="184.67" height="140"/><rect class="cls-6" x="1405.67" y="308.33" width="166.67" height="206.67"/><path class="cls-7" d="M1570.81,508.5c-.21.2-.42.46-.66.69-1.94-2.59-6.15-.61-8.76.22-5.18,1.64-10.24,1.24-15.58,1.57-8,.51-15.41,2.12-23.1-.49-8.73-3-21.61-1.62-30.85-.82-3.64.31-8.64,2.47-11.68,1.37-2-.73-3.11-1.92-5.19-2.37-2.68-.58-5.71.11-8.22.58-5.22,1-9.56-.25-14.85-.25-4.47,0-8.4.33-12.59-.67-4.36-1.05-7,0-11,1.25a9,9,0,0,1-5.32.28c-2.11-.73-2.1-2.52-3.56-3.53-3.08-2.14-10-1.77-13.79-1.33-11.93,1.38-22.21,13.54-33.94,17.64-10.47,3.66-35.75,11.63-16.56,21.74,14.9,7.86,28.74,5.71,44.85,7.14,23.08,2,45.42,8.35,68.73,9.46,26.16,1.25,52.7,3.27,78.92,1.34,6.83-.51,16.13-.45,22.53-2.68,6.12-2.13,9.74-9.67,10.83-16.26,1.29-7.76-1.88-12.73-5.32-19.23C1573.08,519.25,1573.4,513.34,1570.81,508.5Z"/><path class="cls-8" d="M1744.89,869.71a155.75,155.75,0,0,0-23.72-18.23c-24.31-15.41-50.12-30-77.06-39.78-61.33-22.34-146.09-34.8-210.9-46.36-56.55-10.09-134.64-19.29-184.7-45.34-12.62-6.56-25.9-18.68-20.77-31.09,4.07-9.86,17.29-13.14,28.67-15,52.61-8.61,123.79-8.78,174.53-24.15,50.14-15.2,98.44-39.15,132.64-75.86,4.64-2.74,9.2-6.29,9.42-10.9.3-6.4-19.09-22.94-24-26-28.15-17.55,11.55-.47-82.67-7.33-9.39-.69-13.43-5.4-21.33-1.67-9.09,4.3-30,20.26-41.33,19a43.65,43.65,0,0,0-4,17.23c-.22.1-.45.19-.67.3-5.9,2.8-11,6.91-16.75,9.9-7.75,4-16.57,5.88-25.24,7.7l-133.36,28.08c-32.88,6.92-87.33,1-116.07,18.48-3.62,2.2-2.59,6.26-6.61,9.06-3.06,2.12-9.43,1.94-12,4.18-6.29,5.39-7.91,14.64-14.08,19.35-10.49,8-23,6.85-28.85,21.7-5.15,13.07-1.28,26.94,5.21,38.86,14.48,26.63,48.12,41.57,76.76,52,38.14,13.89,93.42,32.47,134.79,39.57,33.14,5.68,68.17,10.45,100.76,17.41,27.6,5.9,53.34,18.63,81,23.8,24.15,4.51,69.31-5,90.39,8.28,17.95,11.32,40.11,17.25,54.51,33.64,11.36,12.93,16.49,34.53,2.09,46.37-6,5-11.65,10.57-17.25,15.32-7.29,6.19-16.35,7.16-24.8,11.24-10.36,5-17.74,11.32-29,14-11.7,2.83-47.3,11.3-58.46,15.5-10,3.75-19.33,5.37-29.52,8-15.58,4-28.46,11.14-44.82,13.4q-27.78,3.84-55.7,6.5-57.09,5.43-114.52,5.91-47.25.39-94.44-2.57c-7.8-.49-84-8.55-51.31,13,25.45,16.73,54.07,34.82,84.07,43.32h343.53c7.22,0,14.44-.06,21.66,0,7.91.07,11.23-7.2,18.2-11.21,10.1-5.8,21.23-9.46,31.75-14.37,6.09-2.85,11.88-1.35,18.08-3.31,5.12-1.62,9.9-6.09,15.06-6.66,14.14-1.58,26.85-8.8,39.25-13.93,6.5-2.68,12.78-2.89,18.69-6.72,5.29-3.43,10.84-7.56,15-12.39,11.25-13.05,50.64-31.18,60.36-45.64,4.59-6.82,6.85-13.91,12.08-20.47,6-7.59,13-14.93,16.56-24.14,4.17-10.88-4.34-31.58-9.22-42.5C1754.46,880.05,1750.09,874.73,1744.89,869.71Z"/><path class="cls-9" d="M1236,345.5v92c0,9.5.59,19.1.61,28.4,0,5.32-2.56,15.57,3.16,17.14,6.66,1.82,11.7-1.64,12.24-8,.33-3.9-1-7.68-1.51-11.43-.75-5.15-.5-10.47-.5-15.71,0-17.14-.1-33.71-2.4-50.45-1.29-9.38-1.08-20.1-.6-29.63.27-5.49-.16-21.22,3.35-24.77-4.36-1.56-12.7-1.05-17.27-.31C1233,345.32,1235.57,347.7,1236,345.5Z"/><path class="cls-9" d="M1158,412c18.1-1.82,39.07.53,57.21,1.5,29.69,1.59,59.29,3.91,89,6,11.6.83,25.23,1.22,36.62-.21.9-3.61,3.34-14.57,1.68-17.84-2.2-4.33-11-1.11-15.24-.21-13.36,2.84-28,3.27-41.73,3.24-16.83,0-33.85,1.78-50.84,1s-33-3.61-49.31-6c-6.56-1-19.44-3.28-25.5-.59C1156,400.59,1153.87,411.64,1158,412Z"/><path class="cls-3" d="M1924,748.83c-8.36-.05-21.76.17-30.09.17-17.07,0-39.64-.14-53.41-11.38-5.58-4.55-11-21.7-18.6-19-8.17,2.86-5.2,16.85-7.07,23.25-6.26,2.36-4.29,9.51-11.83,10.17,1.15,5.72-39.57,12.77-47.92,20.12,17.07.18,32.18-7.24,48.82-9.12,9-1,13.64,2.18,21.68,3.91,7.59,1.63,16.41.61,24.21,1.08,5.22.32,16.92.43,20.48,4.74,4.58,5.54-3.29,14.63,1.38,19.84,6.72,7.48,20.35-14.81,26.7-18.44,4.75-2.72,18.41-4.72,25.65-8Z"/><path class="cls-10" d="M1611.2,308.38c0-1.9.06-3.91-.84-5.54-1.76-3.23-5.95-3.44-9.43-3.27-82.87,4.09-163.48,11.39-246.36,7.54-70.5-3.28-157.35-3.78-227.85-7.05-11.71,80.53-1.86,159.16-3.11,240.66,0,3.37,0,7.09,2.09,9.62s5.71,3.1,8.94,3.4c88.82,8.4,281.15,7.59,281.15,7.59,11.13-69.77-1.64-141.6-5-212.31a1320.86,1320.86,0,0,1,144-2.37c2,.08,4.06.22,5.56,1.57,1.82,1.63,2.13,4.45,2.31,7,3.18,44.57,6.35,89.31,3.9,133.93-1.54,28-3.43,43-1.45,71,.17,2.37-.45,5,1.17,6.57s4.56,1.73,6.56,1.92c9.39.9,20.63-1,30-.1,2.56.25,5.52.34,7.27-1.68,1.41-1.62,1.54-4,1.58-6.27C1613.63,475,1609.36,394,1611.2,308.38Zm-264.31,79.9a816.53,816.53,0,0,0-5.16,100,292.85,292.85,0,0,1-79.09-3.61c-7.66-1.4-15.27-3.11-22.93-4.49a272.46,272.46,0,0,0-43.77-4.29c-11.5-.2-23.36.27-34.09-3.88a5.57,5.57,0,0,1-2.6-1.68,5.92,5.92,0,0,1-.76-3.46q-.24-20.06-.47-40.1-.21-18-.41-36.1c-.13-11.1,1-23-.9-34-1.33-7.84-3-12.52,2.44-19.45,6.37-8.11,16.55-11.6,26.28-13.72,19.66-4.27,40-4.06,60.1-3.82l53.8.62c14.82.17,30.72.68,42.68,9.44a8.36,8.36,0,0,1,2.9,3.16,10.39,10.39,0,0,1,.39,4.75c-.75,12.4,2.85,24.71,2.7,37.13A133.37,133.37,0,0,1,1346.89,388.28Z"/><path class="cls-11" d="M1572.49,566.07c1,.74,1.59,1.84,2.63,2.44a6.9,6.9,0,0,0,3.44.6l25.44,0a3.19,3.19,0,0,0,2.24-.57,3.05,3.05,0,0,0,.65-2.31c0-5.79-1.86-12.58-7.3-14.57-2.06-.76-4.4-.69-6.34-1.73-2.81-1.5-4-5-3.72-8.2a23.15,23.15,0,0,1,2.47-7.25l8-17c-3-1.16-6.41-3-6.49-6.16-.1-3.82,4.74-5.85,6.06-9.43A11.23,11.23,0,0,0,1600,498l-.06-20.28a4.8,4.8,0,0,0-.38-2.23,5,5,0,0,0-2.8-1.88,44.24,44.24,0,0,1-12.59-7.53,25.22,25.22,0,0,0-4.53-3.47,10,10,0,0,0-7-.85,4.39,4.39,0,0,0-2.38,1.31,5.57,5.57,0,0,0-1,2.58,297.56,297.56,0,0,0-1.77,97.26C1568.14,567,1570.23,564.29,1572.49,566.07Z"/><path class="cls-11" d="M1374.51,377.29c-.56,1-.35,2.33-.5,3.52-.64,4.8-7,6.81-8.6,11.38-1,2.7,0,5.65.88,8.35a30,30,0,0,0,3,6.88c1.14,1.73,2.67,3.29,3.2,5.28,1.12,4.24-2.63,8.54-1.79,12.84.71,3.61,4.38,5.82,7.87,7a26.5,26.5,0,0,0,16.46.56,6.54,6.54,0,0,0,3-1.74,7.64,7.64,0,0,0,1.25-2.36c1.42-3.65,2.86-7.4,2.9-11.32.11-11.21-11-20.05-11.31-31.25-.07-2.47.39-5-.46-7.34C1389,375.17,1376.51,373.52,1374.51,377.29Z"/><path class="cls-11" d="M1308.75,514.73c1.34-.39,1.63-2.13,2.52-3.21a6.19,6.19,0,0,1,3.79-1.71c12.9-2.43,26.16-1.92,39.26-1a1.8,1.8,0,0,0,2.4-2,64.46,64.46,0,0,1,1.29-10.09c.6-2.47,1.52-4.86,2.2-7.32a39.89,39.89,0,0,0-3.43-29.57c-2.15-3.91-5.07-7.89-4.57-12.32.53-4.62,4.75-8.41,4.52-13.06a7.11,7.11,0,0,0-10.86-5.69c-3.28,2-4.33,6.29-4.85,10.12-1.37,10-1.17,20.19-3.52,30a116.86,116.86,0,0,1-5,14.86c-.8,2.07-1.7,4.27-3.55,5.49s-4.56,1.18-6.93,1l-13.34-1c-3.67-.28-9.48-1.9-13-.81-4.55,1.39-3.72,11.84-5.15,15.75C1298.09,504.35,1305.35,507.45,1308.75,514.73Z"/><path class="cls-11" d="M1127.44,378.31a10.1,10.1,0,0,0,.41,3.95c.69,1.77,2.3,3,3.72,4.25a30.45,30.45,0,0,1,6.86,8.88c2.24,4.39,3.38,9.25,4.49,14.06l1.32,5.66c1.58,6.83,3.18,13.92,1.8,20.8a8.57,8.57,0,0,1-1.55,3.8c-1.58,1.93-4.31,2.48-6.14,4.17-2.6,2.4-2.76,6.39-2.73,9.93l.1,11.26a2.51,2.51,0,0,0,.54,1.87,2.24,2.24,0,0,0,1.21.48,21,21,0,0,0,5.2.15c3.82-.3,8-1.57,9.86-4.91,1.24-2.21,1.22-4.89,1.16-7.43l-.65-28.37a102.34,102.34,0,0,1,.32-14.12c.36-3.17,1-6.3,1.54-9.45a106.64,106.64,0,0,0-3.37-48.6c-1.28-4.12-3.25-8.62-7.29-10.13-3.68-1.37-7.74.26-11.33,1.87-6.2,2.77-4.78,7.37-5,13.46Z"/><path class="cls-11" d="M1137.42,476.08a18.78,18.78,0,0,0,.24,6.21,17.59,17.59,0,0,1,5.16,1.94,5.85,5.85,0,0,0-.4,7.84c.92.57,1.54-1.06,2.36-1.75s2.19-.36,3.16.23a7,7,0,0,0,3,1.43,6.27,6.27,0,0,0,1.72-.3c3.5-.88,7.17-.34,10.73.21l9.06,1.38c3.26.5,6.65,1,9.8.05a2.66,2.66,0,0,0,1.57-1,2.94,2.94,0,0,0,.33-1.55c.09-2.6.15-5.19.18-7.79,0-1.1-22.31-2.59-24.45-3C1152.3,478.64,1145.14,477,1137.42,476.08Z"/><path class="cls-9" d="M1420.58,437.87c.65,5.83,1.3,11.67,1.6,17.52.35,7,.21,14,.06,21L1421.12,529c-.27,12.58-.58,25.38-4.53,37.33l-23.15-1.47a5.44,5.44,0,0,1-2.93-.77,4.91,4.91,0,0,1-1.49-2.41c-2-5.59-2.23-11.62-2.24-17.55,0-25.15,4-50.38,1-75.37-.68-5.85-1.74-11.67-2.17-17.55-.51-7.15-.08-14.32-.25-21.48-.63-27-9.77-53.86-6-80.61.24-1.73.62-3.59,1.93-4.73a7.61,7.61,0,0,1,4.45-1.36c4.54-.39,9.16-.68,13.6.32,16.63,3.77,13.43,25,14.91,38.26Q1417.44,409.74,1420.58,437.87Z"/><path class="cls-9" d="M1574.6,567.82l7-54.38c1.29-10.06,2.58-20.16,2.65-30.31.13-18.5-3.65-37.93,3.73-54.91,3.6-8.3,9.67-17.53,6.16-25.87-3.71-8.81-.19-20.11-4.64-28.26-7.88-14.43-14.44-25.63-22.32-40.06a107.29,107.29,0,0,0-22.2-4.13c-.22,11.12-.38,22.65,4,32.86,3.28,7.58,5.94,13.53,8,21.52a67.07,67.07,0,0,1,.91,29c-2.08,10.91-2.87,22-3.65,33.11l-1,14.5c-2.49,35.26-5,70.55-4.86,105.89a2.75,2.75,0,0,0,1.12,2,5,5,0,0,0,2,.66,89,89,0,0,0,21.2,1.09A4.25,4.25,0,0,1,1574.6,567.82Z"/><path class="cls-9" d="M1399.67,362a7.89,7.89,0,0,0,3,2.24,8.26,8.26,0,0,0,4.1-.06c17.87-3.24,36-5.2,54-6.93,31.55-3,63.19-5.38,94.89-6.06,2.82-.06,6.17-.4,7.55-2.87,1.54-2.77-.55-6.16-2.88-8.3-9.52-8.7-23.48-10-36.36-10.44a654.9,654.9,0,0,0-67.34,1.08q-17,1.15-33.82,3.18c-8.48,1-23.58.36-30.76,5.29C1383,345.39,1394.84,357,1399.67,362Z"/><path class="cls-9" d="M1352.91,379.47c-1.57-11.24-.21-22.68-.63-34a5.46,5.46,0,0,0-.68-2.92,5.21,5.21,0,0,0-2.59-1.65c-6.32-2.27-13.14-2.63-19.85-2.95-59.78-2.8-119.63-3.79-179.47-4.79-1.47,5.55-1.39,11.37-1.29,17.11q.22,14.47.47,29c.53,32.82,1.06,65.68-1,98.43a5.56,5.56,0,0,0,.42,3.14,5.19,5.19,0,0,0,2.43,1.85c7.19,3.33,15.22,4.33,23.11,5a366.81,366.81,0,0,0,46.17,1.21c7-.25,14.29-.64,20.61,2.34,2.12,1,4.06,2.34,6.21,3.26,3.29,1.39,6.94,1.7,10.51,1.95a479.88,479.88,0,0,0,56.38.65c8.86-.41,19.15,0,27.78-2.12,7.13-1.78,5.53-11.69,5.81-18.24,1.06-24.89-.85-50.18,4.92-74.41.86-3.6,1.89-7.19,2-10.89C1354.38,387.41,1353.46,383.45,1352.91,379.47Zm-13.8-22.05c-2.16,7.25-1.86,15-1.84,22.53.06,33.91-6,67.52-8.23,101.36-5.68-2.27-12-2.17-18.09-2.05l-35.17.72a12.29,12.29,0,0,1-5.66-.78c-1.38-.68-2.47-1.85-3.88-2.47a11,11,0,0,0-4.52-.61l-44.41.18c-3.84,0-7.79,0-11.35-1.43-1.92-.77-3.67-1.94-5.64-2.6-5.55-1.86-11.52.66-17.36,1.07-4.35.31-20-.17-22.6-3.71s.22-17.46.31-21.95a23.72,23.72,0,0,0-.77-8.15c-.66-1.93-1.81-3.69-2.17-5.69-.44-2.45.37-4.93.94-7.36,3-12.45-.1-25.44-.61-38.23-.24-6.08.11-12.18.45-18.26l1.41-25.07,72.68,2a39.17,39.17,0,0,1,8.1.78c2.68.65,5.19,1.86,7.81,2.73,11.26,3.7,23.45.78,35.2-.78a150.49,150.49,0,0,1,51.4,2.06c1.81.39,3.93,1.11,4.37,2.91A5.46,5.46,0,0,1,1339.11,357.42Z"/><path class="cls-10" d="M1438.91,249.91c-3.69,3.74-12.15.74-17.16-.43-9-2.12-16.14,1.53-25,1.53-4.57,0-9.19.23-13.75,0-6.22-.31-9,.38-10.82-5.62-3.67-11.92.44-27.55.44-39.84V171.32H1440v68.37c0,2.13.9,6.73,0,8.67A5.39,5.39,0,0,1,1438.91,249.91Z"/><path class="cls-10" d="M1457.42,164.59c-.17-1.66-2-2.51-3.3-3.56a9.6,9.6,0,0,1-3.13-7.47,28.12,28.12,0,0,1,1.59-8.18c-3.51-.1-7-.26-10.51-.45-5-2-12.38-2-19.41-1.56l.21.34c-5.4,0-10.71.78-16.17.8-15.3.06-30.66-.38-45.78-3-3,8.21-1.83,17.28-.62,25.93a7.21,7.21,0,0,0,1.22,3.68c1.28,1.58,3.58,1.78,5.4,2.68,3.37,1.66,5.48,5.86,9.23,6.15a10.84,10.84,0,0,0,4.69-1.14,49.86,49.86,0,0,1,22.16-3.18,98.09,98.09,0,0,1,11.66,1.93c9.22,1.9,21.43,6.86,29.94,1.92,1.1.57,2.21,1.13,3.35,1.62a2.85,2.85,0,0,0,1.47.35c1.4-.15,1.84-1.93,2.06-3.32a23.17,23.17,0,0,1,4.45-10.32C1456.67,166.88,1457.55,165.81,1457.42,164.59Z"/><path class="cls-12" d="M1440,181.55c-1.45-.45-3.44-.62-4.51-1-1.44-.47-2.94-1.42-3.18-2.92l-7.46,0a3.43,3.43,0,0,0-2.45.63c-.35.34-.55.82-.91,1.15a2.59,2.59,0,0,1-3-.13,11.55,11.55,0,0,0-2.76-1.67,6,6,0,0,0-1.75-.14l-21.29.42c-1.14,0-2.53.2-3,1.25-.18.42-.19,1-.55,1.24a1.46,1.46,0,0,1-.9.2c-5.11,0-10.23-.24-15.32-.73l-.28-.19v10.7c.51,0,1.11,0,1.8,0,6.49.11,13,.48,19.45.22a16.3,16.3,0,0,0,6.44-1.14c1.43-.68,2.65-1.78,4.15-2.3a11.18,11.18,0,0,1,2.37-.47q3.56-.43,7.13-.68a5.49,5.49,0,0,1,2.1.13,9,9,0,0,1,1.91,1.18c2.49,1.66,5.74,1.65,8.71,1.21s5.93-1.26,8.92-1a22.82,22.82,0,0,0,4.37.19Z"/><path class="cls-13" d="M1648.89,304.17c9.51,7.34,19.6,16.75,22.11,23.51-.68-13-9.29-29.15-17.44-43.7,2.81-3,3-8.29,1.3-12.27-.18-.43-.4-.83-.61-1.24a109.77,109.77,0,0,1,12.43,7.74,76.5,76.5,0,0,0-9.53-23.93l1.3-.82a75.5,75.5,0,0,0-8.8-17.32,66.48,66.48,0,0,1,10.28,5.52c3.29,2.3,6.09,5.22,7.36,8.65-1-8.55-6.37-17.21-14.3-22.65S1636.5,218,1633,210a37.57,37.57,0,0,0,10.58,1.49c-17.57-8-38.53-17.59-57.7-12.87-4.93,1.21-9.67,3-14.73,3.73-8.43,1.19-17-.68-25.43-1.75a135.09,135.09,0,0,0-28-.6,11.44,11.44,0,0,0-4.66,1.1,7.81,7.81,0,0,0-3,3.59c-2.64-.45-5.33-.73-7.9-1.39-3.85-1-7.69-3.28-8.31-6.62a46.21,46.21,0,0,0-19.2,4.22,34,34,0,0,0-10.44-8.91,4.39,4.39,0,0,0,.07,7.34c-8.88-1.1-17.88-2.2-26.79-1.35s-17.89,3.91-23.49,9.79c8.73-8.46,25.64-9.76,36.06-2.78-6.1,1.84-13.48.25-18.87,3.27a11.44,11.44,0,0,0-2.22,1.65l-32.09,5.76a12,12,0,0,1-4.58.22c-3-.66-4.57-3.4-7.24-4.7-3-1.46-6.76-.88-10.13-1.53-7.57-1.46-13.28-9.06-20.86-7.6-3.9.74-6.69,3.79-10.09,5.46-8.66-4.77-20.65-5.86-31-3.53a13.33,13.33,0,0,0-4.33,1.58c-1,.67-1.82,1.59-2.87,2.26a11.37,11.37,0,0,1-4.73,1.47c-9.66,1.19-18.73-3.4-27.87-6.17a77.22,77.22,0,0,0-32.4-2.54,22.55,22.55,0,0,1,12.42,5.93c-2.86,3.24-8.78,3.7-13.57,2.66s-9.11-3.21-13.92-4.2a58.26,58.26,0,0,0-11-.85l-23-.35c-3.39-.05-7.56.28-8.92,2.77-.62,1.14-.44,2.45-.88,3.64s-2.06,2.32-3.42,1.72q-4-5.28-8.69-10.25c-3.41,2,.6,6.32-.13,9.67-.86,3.95-7.35,4.67-12.14,5.88-6.64,1.69-12.06,6.17-13.94,11.53a36.81,36.81,0,0,1,15.74.1,42.83,42.83,0,0,0-5.43,2l7.77,6.59c-6.5.43-7.92,12.69-1.71,14.83l0,0a90.36,90.36,0,0,0-26.89,3.46l16.09,6.24c-1.51,1.24-3,2.44-4.59,3.62a108.86,108.86,0,0,0-29.86,6.55c5.92-.15,12.48-.06,17.67,1.83q-6.06,3.75-12.42,6.9c-15.54,4.87-28.84,14.44-36,26.55-9.79,16.64-7.57,37.41,5.62,52.47.17-1.18.37-2.37.58-3.55q7.82-8.1,15.64-16.21a18.71,18.71,0,0,0,1,12.41c2.07-3.2,6.1-4.18,9.71-3.4a37.82,37.82,0,0,0,6.59,7.53,29.58,29.58,0,0,1-2.59-5.83c3,1.85,5.51,4.64,7.9,7.39a16.3,16.3,0,0,1,1.18-1.93,82.11,82.11,0,0,0,15.11,24.49c-2.71-9.43-5-19-4.58-28.71,0-.81.08-1.62.16-2.42a16.14,16.14,0,0,1,15.19,4.79,25.61,25.61,0,0,1,6.79-10.14,22.13,22.13,0,0,0,8.5,4.06l.33.92c3.32,8.56,8.88,16.44,14.61,24.14-.81-8.65-1.49-17.7,0-26.26a17.63,17.63,0,0,0,14.06.13c.68.92,1.4,1.82,2.18,2.69.24-1.42.51-2.83.8-4.24a18.15,18.15,0,0,0,5.69-5.68q.93,3.6,1.87,7.2c5.71,2.19,12,1.2,17.31-1.87.86,6.73,2.84,13.25,7.26,18.84a62.27,62.27,0,0,1-2.51-22.38A24.52,24.52,0,0,0,1238,334a100.71,100.71,0,0,0,23.94,42.47,43.34,43.34,0,0,1-2.78-11,61.58,61.58,0,0,0,6.8,5.93,44.89,44.89,0,0,0,7.57-12.69c.13.18.27.35.4.52l.09-1.81a46.6,46.6,0,0,0,1.42-4.67,18.77,18.77,0,0,1,7.89-1.94l4.24,4.64c0-1.41.08-2.81.18-4.22a19.06,19.06,0,0,1,2.77.8,11.59,11.59,0,0,0,3.5-2.37c.81,1.47,1.65,2.93,2.56,4.36a60.74,60.74,0,0,1,1.44-7.15c1.37,10.3,9.36,19.4,18.87,21.31.45.91.92,1.82,1.4,2.72l.06-2.48a16.38,16.38,0,0,0,1.72.13c.35-1.1.69-2.21,1-3.32a45.47,45.47,0,0,0,8.25,12.88q.53-8.47,1-16.95l1.91-.32q3.65,10.5,7.27,21a88.75,88.75,0,0,1,1.51-22.52l15.34-2.62a35.66,35.66,0,0,0,6.53-1.55,85,85,0,0,0,7.1,13.2,82,82,0,0,1-.92-11.91,12.49,12.49,0,0,0,12.72-1.43A90.35,90.35,0,0,0,1395,377.7a72,72,0,0,1,.64-21.13,13.92,13.92,0,0,0,10.86,1.08l4-10.6c1.24.48,2.49.94,3.74,1.37a111.56,111.56,0,0,0,5.72,10.13,58.15,58.15,0,0,1-1-8.61,94.91,94.91,0,0,0,12.89,2.8,28.61,28.61,0,0,1,2-4.81c.71.63,1.45,1.24,2.21,1.83.8-2.79,1.61-5.58,2.41-8.37a28.64,28.64,0,0,1,2.78-2.62,13.48,13.48,0,0,0,9,5.61c.34-2.63.59-5.31,1.15-7.89,2.91,3.49,5.07,7.47,8,10.95,1.59-4.31,3.12-8.13,5.66-11.64l.13,0a7.13,7.13,0,0,1,3.55,2.53c5.15,16.13,7.57,32.15,9.14,48.84a138,138,0,0,0,8.21-21.13l6.8-5.25a15.34,15.34,0,0,0,6.62-4.83,23.22,23.22,0,0,0,2.38,5.75q1.32-3.47,2.42-7l.21,3.14a22,22,0,0,1,17.88,11l1.31-23.24a11.47,11.47,0,0,1,2.4,7.16l1.41-10.89c.18,3.3.37,6.6.55,9.91l5.51-8.06,15.06,4.5,6,17.44q1.44-4.94,2.87-9.88a40.45,40.45,0,0,0,16.42,7.8,6.68,6.68,0,0,0,6.13,2.72l3.32-8.49,1,8.85,3.39-9.19a86.28,86.28,0,0,1,10.48,23.69,196.3,196.3,0,0,0-.17-31.8c.87.53,1.73,1.08,2.57,1.67a64.6,64.6,0,0,0,5.75,11.1c6.57,9.88,17.12,17.85,21.9,28.44a115.37,115.37,0,0,0-1.6-19,53.85,53.85,0,0,0,3.87-21.93c4.29,3.71,7.56,8.14,8.9,13.08a74.73,74.73,0,0,0-3.22-27.22,30.92,30.92,0,0,0-.46-10.51c.3,1,1.62.95,2.53.57h0l10.95,7.44c-2.1-4-4-8-5.65-12.16,2.33-3.6,3.54-8.42,4.43-12.83Z"/><path class="cls-11" d="M1181.06,526.88l24.45-.16c5.2,0,13.33.69,15.24-5.65a3.92,3.92,0,0,0,.18-1.52,8.33,8.33,0,0,0-.72-2,5.86,5.86,0,0,1,.24-4.73c.38-.74.91-1.39,1.25-2.14a4.86,4.86,0,0,0-.53-4.82c-3.87-5.16-17.14-2.25-22.57-2.13-6.34.14-15.27-1.33-21.23,1.09-4.31,1.74-5.36,5.29-5.77,9.63-.21,2.13-1.11,9.24.23,10.88C1173.49,527.39,1178.76,526.88,1181.06,526.88Z"/><path class="cls-11" d="M1232.79,529.31c-.22,2.36,2.64,3.61,4.91,4.26a73.69,73.69,0,0,1,15.32,6.25c-1.75,1.43-1.55,4.18-.72,6.28s2.12,4.13,2.08,6.39c-2.72-.82-4.68,2.48-7,4.06-4.06,2.73-9.44.14-14.33,0-3.58-.11-7,1.15-10.55,1.93a39.25,39.25,0,0,1-12.7.69,8.84,8.84,0,0,1-4.72-1.57,10.13,10.13,0,0,1-2.49-3.84l-4.1-9.21c-1.15-2.59-3.73-8.18-1.37-10.81,2-2.27,7.15-.41,9.83-.28A63.3,63.3,0,0,0,1232.79,529.31Z"/><path class="cls-11" d="M1187.09,532l-9.1.61a3.14,3.14,0,0,0-2.56,1,5.17,5.17,0,0,0-.38,2.3c-.23,2.06-2,3.56-2.88,5.44-1.61,3.48.12,7.6,2.48,10.61,1,1.31,2.35,2.61,4,2.76,5.09.46,11.86-3.54,12.54-8.68C1191.64,542.76,1190.73,531.77,1187.09,532Z"/><path class="cls-11" d="M1245.11,528.66l4.38-8a3.15,3.15,0,0,0,.52-2.7c-.32-.72-1.12-1.06-1.73-1.56-1.61-1.3-1.93-3.61-3-5.36-2.06-3.22-6.47-4-10.28-3.6-1.66.16-3.46.57-4.47,1.89-3.13,4-3.39,11.91.57,15.24C1233.6,526.72,1243.36,531.86,1245.11,528.66Z"/><path class="cls-11" d="M1165.58,528.86c-3.41-2-8.34.07-9.66,3.8a6.79,6.79,0,0,0,.77,6.12,5.89,5.89,0,0,0,5.58,2.43c3.47-.56,5.46-4.18,6.81-7.43.65-1.58.87-4-.81-4.4Z"/><path class="cls-11" d="M1384.1,193.64a1.27,1.27,0,0,0-.77.19,1.53,1.53,0,0,0-.4.86,5.09,5.09,0,0,1-5.76,3.53,1,1,0,0,0-.74,0,.91.91,0,0,0-.31.78,19.61,19.61,0,0,0,.69,4.93,6.5,6.5,0,0,0,.84,2.29,2.21,2.21,0,0,0,2.09,1c.83-.16,1.4-.92,2.16-1.31a4.87,4.87,0,0,1,1.6-.43,10.68,10.68,0,0,1,5.06,0,4,4,0,0,0,1,.28,2.42,2.42,0,0,0,1-.25c2-.83,3.92-2.55,4-4.72a5,5,0,0,0-2.12-3.85C1390.48,195.51,1386.61,193.62,1384.1,193.64Z"/><path class="cls-11" d="M1397.32,203.74a3.3,3.3,0,0,0,2.54.76l2.58,0a3.41,3.41,0,0,0,1.46-.19,3.54,3.54,0,0,0,1.51-1.82,2.53,2.53,0,0,0,.37-1.83,2.24,2.24,0,0,0-.73-1c-1.49-1.27-5-3.25-7-2C1396.63,198.67,1396.22,202.47,1397.32,203.74Z"/><path class="cls-14" d="M550.5,613.16c3.86-4.09,6.64-10.45,13.29-12.35,6.15-1.76,11.39,1.91,17.23,1.6,11.46-.6,11.8-13.15,25.52-14.31,12.34-1.05,20.53,6.87,33.58,6.29,16.15-.7,28.22-1.56,41.83,5.36,10.89,5.53,25.3,4,36.82,8.87,15.86,6.74,27.66,2.58,44.75,5.63,8.22,1.46,10.94,6.3,18.14,9.45,6.61,2.89,14.92,3,21.41,5.95,15.76,7.17,17.49,23.11,33.14,29.18,16.16,6.28,25.18,10.5,32.52,25.35,2.23,4.49,3.51,9.24,7.8,12.3,6.78,4.84,14,4,18.26,11.42,1.21,2.14,5,12.55,4.05,15.18-2.21,5.81-9.77,4.24-14.78,6.21-6.15,2.43-7.49,8-12.47,10.94-8.68,5.22-28,8.67-37.31,3.45-2.85-1.59-5.72-5.72-8.29-8-6.9-6.18-14.73-6.95-23.14-10.5-7-3-13.74-8.5-20.24-12.69a86.13,86.13,0,0,1-12.75-9.84c-1.77-1.75-2.51-4.43-4.35-5.95-3.32-2.75-8.86-.9-13.51-1.19-7-.43-7.6-3.21-12.12-7.37-2-1.87-4.12-2-6.63-3.13-3.92-1.79-2.39-1.34-4-5-1.72-4-1.32-3.68-5.76-5-4.91-1.45-8.14-1.09-13-1.31a51,51,0,0,1-15.43-2.78c-6.25-2.34-5.82-4.58-8.46-9.55-4.75-8.92-12.2-9.6-21-11.05-10.57-1.75-20.35-8.12-30.65-11-12.84-3.65-22.31,3.8-35,.3-8.2-2.25-14.24-5.79-22.52-7.78-6.31-1.51-14.77-3.5-20.28-6.13C552.26,623.28,546.11,620.69,550.5,613.16Z"/><path class="cls-14" d="M641,570.46c5.22,5.73,12.55,4.34,19,7.54,2.49,1.23,3.57,4.64,6.45,5.2,2.2.42,4.89-1.48,7.14-1.89,5.66-1,12.25.37,17.73,1.81,7.44,2,14.73,4.62,22.47,5.15,6,.41,9.67-.45,15.54,1.84,5.41,2.11,10.47,4.95,16.24,6.07,10.29,2,19.57,2.28,29,7.51,6,3.33,10.66,9.48,17.42,10.67,9.41,1.65,18.86-2.4,27,3.81a33.33,33.33,0,0,1,6.34,7.16c3.63,5,1.06,4.26,8.54,7.18,3.23,1.27,6,2,8.49,4.21,3,2.62,3.29,5.87,5.74,7.61,3.29,2.35,9.09,1.48,12.59,3.5,2.81,1.62,4.93,4.4,7.25,6.61,5.22,5,9.75,4.23,16.06,7.3,5.12,2.5,9.49,6.8,14.83,9.41,11.89,5.82,21.93,2.68,25.79-10,9.15-1.71,20.17.18,27.19-7,7.88-8,8.22-17.76,1-26-6.57-7.54-17.57-11.14-25.29-17.55-8-6.69-15.74-14.05-24.56-19.77-14.37-9.31-29.18-11.87-45.14-17.51-15.13-5.35-28-12.32-44-14.17-13.45-1.55-24-9.94-37.1-11.27-15.59-1.59-32,.25-47.56-3.12-18.47-4-31.77-.66-49.73,5.72C671.79,553.18,644.33,560.35,641,570.46Z"/><path class="cls-14" d="M760.51,529.3c10.17,5.7,22.72,5.09,34.28,5.7,3,8.12,9.21,12.78,17.61,14.24,4.21.73,8.47-.32,12.58.16,3.87.46,6.24,2.29,10,3.49,2.88.91,6.36.26,9.21,1.57,5.93,2.74,9.69,7.47,16.29,9.06,3.13.75,7.64-.22,10.53,1,3.16,1.27,2.72,3.52,6.89,5,6.57,2.41,15.42.49,22.43.85,6.27.31,8.72,1.51,11.17,8.13,2.56,6.92,2,8.08,9.37,10.66,11,3.89,18.7,10.85,28.8,16.49,12.83,7.16,38.12,5,51.5.05,12.26-4.53,11.15-18,4.76-29.81-7.16-13.29-20.73-13.46-32.16-23.14-26.88-22.75-62.54-32.6-97.4-38-9.64-1.49-18.81-9-28.42-11.22-12.5-2.82-32.22-.89-44.33,2.51-8.92,2.51-45.53,10.48-45.18,21.93C759.47,528.33,760.51,528.38,760.51,529.3Z"/><path class="cls-15" d="M661.91,533.78a2.82,2.82,0,0,1,3.55-.37c-.58-.62-.05-1.72.74-2.06a6.25,6.25,0,0,1,2.52-.2c3.07,0,5.77-1.86,8.6-3.06a21.21,21.21,0,0,1,4.83-1.39l-58.8-193c-.94-1.71,0-.69,0-2.64a5.22,5.22,0,0,1,2.68-4.85L610,328.88c-2,.32-4.31,1-4.74,2.94a2.21,2.21,0,0,1-.3,1c-.37.45-1.06.35-1.62.21l-7.18-1.81c2.42,2.86,4.29,6,6.71,8.82Z"/><path class="cls-16" d="M541.5,366q24.19-5.85,48.36-11.76,32.14-7.86,64.24-15.85c8.34-2.09,16.68-4.18,25-6.35,2.7-.71,5.48-1.74,8.23-2.19,1.75-.29,3.49-1.57,5-.24,1.15,1,.49,10.61-.82,10.81,1.33-.21,3,.37,4.31.16.36,3.3,2.87,11.62,1.89,14.18-1.28,3.36-10.88,7.95-14,7.74,4.8,0,14.64-2.37,16.9-.39,3.36,3,1.35,8.61,5.23,11.24a24.68,24.68,0,0,0-2.8,8c1.45-.08,2.93.69,4.39.74-.38,1,0,2.87-.33,3.84,1,0,1.49.68,2.73.55a7.84,7.84,0,0,0-1.76,4.35c2.22.91,1.71,2.23,3.79,3.69-5.5,3.05-16.16,11.72-22.17,11,7.61.88,16.16-3.26,23.54-4.45,1.68,3.81,6.71,9.38,3.94,13.79.52,0,1.52.29,2.15.22-.64,1.1-.7,2.91-1.25,3.85.88-.09,2,.3,2.89.19a24.22,24.22,0,0,1-3.92,3.7,11.58,11.58,0,0,1,6.77-1.2,7.32,7.32,0,0,1,.68,2.85c-18.52,7.1-39.55,10.31-58.72,15.67-15.65,4.39-31.25,8.94-46.69,14-5.37,1.76-38.78,16.26-42.46,13.51-1.84-1.38-2.38-10.15,0-11.42-.36-2.76-3.22-3.44-5.84-3.82,1.08-2.91,3.65-6,3.82-9.28-1.14.2-2.68-.37-3.83-.24a28.45,28.45,0,0,1,3.2-6.41c-1.87-1-7.36-1.59-8.64-3.27-1.4-1.83,0-4.53-.76-6.72-1.17-3.22-3.47-4-3.86-7.74-.27-2.56.77-5.31,1.45-7.78-1.6-.14-3.12-1.61-4.69-2.08.63-4.09,4.39-6.11,6.5-9.21-1.56-.14-3.31-1-5.21-.77.88-2.36,3.76-3.74,5.22-5.78-10.37,0-14.07-1.38-16-11.29-.46-2.38,1.25-7,.58-8.81-1.2-3.29-5.4-4.08-7.22-7.33"/><path class="cls-17" d="M649.29,371.31c.25,1.54,2.75,6.51,3,8.05,3.3-3.32,4.35-10.06,7.65-13.38a2.53,2.53,0,0,0,.35,2.93l13.05-18c.71-1,2.16-2,2.83-1a35.48,35.48,0,0,1-5.34,11.55,56.53,56.53,0,0,1,5.94-6.79,22.83,22.83,0,0,1-4,7.34,23.38,23.38,0,0,0,6.8-4.87,32.2,32.2,0,0,1-6.26,10.71,15.18,15.18,0,0,0,5.56-5.07,36,36,0,0,1-5.83,8.15c-.42-.31.54-.88.77-.39s-.17,1.06-.54,1.46c-3,3.33-10,5.87-13,9.19.91.38,5.78,1.55,6.69,1.93.07.93-1,1.52-1.85,1.64s-6-.66-6.62,0,4,2.93,4.78,2.51c-1.71,3.61-7.25,3-11,3.71-1.24.23-.38,3.53-1.63,3.55l-5,.09c-1.83,0,1.68,1.22.37-.08C641.93,390.33,650,375.9,649.29,371.31Z"/><path class="cls-18" d="M632.31,388.45l-6.43,9.68c-3.51,5.3-7.09,10.73-8.62,16.9a10.41,10.41,0,0,1-1.59,4.17c-.93,1.14-2.36,1.73-3.61,2.53a21.79,21.79,0,0,0-5.53,5.79,161.13,161.13,0,0,0-11.18,17.58c13-3.76,24-12.42,34.59-20.89l19.38-15.5a18.94,18.94,0,0,0,4.11-4c2.41-3.56,2.13-8.42.29-12.3C649.11,382.69,639,378.37,632.31,388.45Z"/><path class="cls-19" d="M631.94,389c7.11.24,12.58,3.18,15.78,7.46l-.08,0c-4.32-3.6-11.53-6.66-17-5.85Z"/><path class="cls-19" d="M644.22,412.88c.7-.38-.11-1.9-.15-2.29a3.42,3.42,0,0,0-.45-1.23,11.28,11.28,0,0,0-2-2.36,19.33,19.33,0,0,0-5.28-3.66l0-.08a19.67,19.67,0,0,1,6,2.84c.46.32.91.67,1.34,1a8.88,8.88,0,0,1,1.27,1.26,5.58,5.58,0,0,1,.95,1.74c.22.68.62.5.29,1.27Z"/><path class="cls-19" d="M621.18,405.87a15.24,15.24,0,0,1,8.3,3l-.06.06a21.12,21.12,0,0,0-9.64-.87Z"/><path class="cls-19" d="M626.12,427.32a7.07,7.07,0,0,0-.39-3.37,3.92,3.92,0,0,0-1.84-2l0-.1c1-.18,1.71.58,2.78,1.2s.77,1.45,1.31,2.87Z"/><polygon class="cls-19" points="605.38 429.19 609.72 432.79 609.69 432.89 604.13 430.88 605.38 429.19"/><path class="cls-2" d="M1781.67,520.33c2.94,1.26,5.25,5.25,8,6,3.39,1,5.89-1,9.2-2,.24,4.23,4.74,7.46,7.33,3.3,0,4.6,6.91,7.36,10.18,9.93,4.16-6.78,22-1.41,30-1.18.58,3.11,2.81,6,5.85,6.45,1.17-5.53,32.78.41,38.28,2.73-.44,3.22,1.71,2.28,3.52,4.87.16-2.28,1.65.32,2.39-1.43,8.57,3.26,20.95,6.74,30.31,5-.7-3.12,1.66-5.65,1-8.09-.86-3.22-4.61-6.35-7-8.38-13.6-11.27-38.19-8.38-54.1-13-7.27-2.12-13.27-5.61-21.07-6.22-8-.64-15.59,1.39-23.53,1.8C1809.77,520.8,1797.93,521.67,1781.67,520.33Z"/><path class="cls-20" d="M1827,604.91v-21.1a3.17,3.17,0,0,0,2.06-2.91,3.29,3.29,0,0,0-3.38-3.17h-10a3.29,3.29,0,0,0-3.38,3.17,3.17,3.17,0,0,0,1.91,2.84v21.17c-5.4.43-9.69,4.7-9.69,9.88v55c0,5.45,4.76,9.92,10.58,9.92h11c5.82,0,10.58-4.47,10.58-9.92v-55C1836.67,609.61,1832.38,605.34,1827,604.91Z"/><path class="cls-21" d="M1807.38,659.38v11.37s.62,5.13,5,5.5,14.75,0,14.75,0,6.25-.75,6.25-6.62v-10S1807.38,659.75,1807.38,659.38Z"/><rect class="cls-22" x="1804.5" y="617" width="18.75" height="30"/><polygon class="cls-23" points="1814.92 628.97 1807.72 627.65 1804.5 619.38 1804.5 640.21 1810.94 644.5 1809.71 635.41 1814.92 628.97"/><path class="cls-24" d="M1717.76,734.55c.86-8,0-14.59,6.69-19.72,7.74-5.89,18.09-6.6,27.67-6.62,9.84,0,28.37,1.27,31.3,11.35,3,10.23,2.33,19.72,2.33,30.39,0,9.33,3.12,19.58-5,26.15-5.45,4.44-17.68,2.69-24.44,3-8.67.41-19.07,1.33-27.68,0-13.09-2-6.71-11.91-11.4-20.77-2-3.82-9.49-5-14.14-2.14,0,1.32.48,3.71-.55,4.55s-7.84.22-8.72,0c-4.7-1.17-3.42-6.91-3.42-10.86,0-5.11-2.35-18.24,3.53-20.43,4.1-1.53,10.47.46,10.33,4.83C1705.37,734.23,1714.46,734.72,1717.76,734.55Z"/><rect class="cls-25" x="1730.17" y="726.53" width="43.86" height="38.45" transform="translate(2497.86 -1006.34) rotate(90)"/><path d="M1739.12,740h6.52v1.13l5.28,2.94,5.62-3.23v-1.15h6.86v6.12h-6.86v-1.36l-3.44,2.08,3.44,2.17v-1.43h6.86v5.37h-6.86v-1.12l-5.62-3.13-5.28,3.13v1.12h-6.52v-6.11h6.52V748l3.23-2.15-3.23-1.74v1.31h-6.52Z"/><path d="M1746.09,729.29h2.78v.48l2.25,1.25,2.39-1.37v-.49h2.92v2.61h-2.92v-.58l-1.47.88,1.47.93v-.61h2.92v2.29h-2.92v-.48l-2.39-1.33-2.25,1.33v.48h-2.78v-2.61h2.78v.61l1.37-.91-1.37-.75v.56h-2.78Z"/><path d="M1746.09,757.86h2.78v.48l2.25,1.25,2.39-1.37v-.49h2.92v2.6h-2.92v-.58l-1.47.89,1.47.93V761h2.92v2.29h-2.92v-.47l-2.39-1.34-2.25,1.34v.47h-2.78v-2.6h2.78v.61l1.37-.92-1.37-.74v.56h-2.78Z"/><rect x="1758.55" y="726.2" width="1" height="10.75" rx="0.5" ry="0.5"/><rect x="1758.55" y="755.08" width="1" height="10.75" rx="0.5" ry="0.5"/><path class="cls-24" d="M1364.64,556.68c3.95.42,7.18,0,9.71,3.29,2.9,3.81,3.25,8.9,3.26,13.62s-.63,14-5.59,15.41-9.71,1.15-15,1.15c-4.59,0-9.63,1.53-12.87-2.44-2.18-2.69-1.32-8.71-1.48-12-.2-4.27-.65-9.39,0-13.63,1-6.45,5.86-3.3,10.22-5.61,1.88-1,2.46-4.68,1-7-.65,0-1.82.23-2.23-.27s-.11-3.86,0-4.3c.57-2.31,3.4-1.68,5.34-1.68,2.52,0,9-1.16,10.06,1.74.75,2-.23,5.15-2.38,5.08C1364.8,550.58,1364.56,555.06,1364.64,556.68Z"/><rect class="cls-25" x="1348.33" y="564.12" width="21.59" height="18.93" transform="translate(2718.25 1147.17) rotate(180)"/><path d="M1362,567.19v3.21h-.55L1360,573l1.59,2.77h.56v3.37h-3v-3.37h.67l-1-1.7-1.07,1.7h.7v3.37h-2.64v-3.37h.55l1.54-2.77-1.54-2.6h-.55v-3.21h3v3.21H1358l1.06,1.59.86-1.59h-.65v-3.21Z"/><path d="M1367.23,570.62V572H1367l-.62,1.11.68,1.17h.24v1.44H1366v-1.44h.29l-.44-.72-.45.72h.3v1.44h-1.13v-1.44h.24l.65-1.17-.65-1.11h-.24v-1.37h1.28V572h-.3l.45.68.37-.68h-.28v-1.37Z"/><path d="M1353.17,570.62V572h-.24l-.61,1.11.67,1.17h.24v1.44H1352v-1.44h.29l-.44-.72-.46.72h.31v1.44h-1.13v-1.44h.23l.66-1.17-.66-1.11h-.23v-1.37h1.28V572h-.3l.45.68.37-.68H1352v-1.37Z"/><rect x="1365.86" y="574.36" width="0.49" height="5.29" rx="0.22" ry="0.22" transform="translate(1943.11 -789.1) rotate(90)"/><rect x="1351.65" y="574.36" width="0.49" height="5.29" rx="0.22" ry="0.22" transform="translate(1928.9 -774.89) rotate(90)"/><rect class="cls-26" x="1581.83" y="663.78" width="123.84" height="27.35"/><rect class="cls-27" x="1571.1" y="633.48" width="142.46" height="34.98"/><rect class="cls-27" x="1571.1" y="673.72" width="142.46" height="34.98"/><g class="cls-28"><path class="cls-29" d="M1612.25,644.53l7.51,1.82c3.72.9,6,2.17,6.86,3.79s.75,4.58-.29,8.87q-1.15,4.74-2.5,6.18c-.9,1-2.4,1.4-4.49,1.3q3.2,1.78,3.72,3.6t-.74,7q-1.66,6.81-4,8.62t-7.66.51l-8.09-2,2.58-10.62,2,.47,4.6-18.94-2-.47Zm5,12-1.68,6.9,1.05.25q2.3.57,3.15-2.93t-1.62-4Zm-2.74,11.26-1.86,7.68.9.22q2.79.68,3.81-3.51c.56-2.33-.09-3.72-2-4.18Z"/><path class="cls-29" d="M1647.49,653.08,1643.63,669l-4.6-1.12,1.39-5.73-3.89-1-1.73,7.13,4.85,1.18-1,4.07-4.86-1.18-1.88,7.74,3.9.95,1.4-5.79,5,1.21-4,16.4-16.35-4,2.58-10.62,1.92.46,4.6-18.94-1.92-.46,2.46-10.16Z"/><path class="cls-29" d="M1666.1,657.6l-3.85,15.89-4.6-1.12,1.39-5.73-3.89-.95-1.74,7.13,4.86,1.18-1,4.07-4.85-1.18-1.88,7.74,3.9,1,1.4-5.79,5,1.21-4,16.4-16.35-4,2.58-10.62,1.92.46,4.6-18.94-1.92-.46,2.46-10.16Z"/><path class="cls-29" d="M1682.58,688q-.49,3.42-1.07,5.78c-1.52,6.27-3.77,9-6.76,8.31s-3.48-4.3-1.9-10.81l.66-2.61.67-2.65q.87-3.57-2.56-4.41l-.53-.09-1.87,7.68,2.1.5-2.58,10.62-9.63-2.33,2.58-10.62,2,.48,4.6-18.94-2-.48,2.46-10.16,9,2.19c3.28.8,5.3,2,6.06,3.71s.64,4.6-.37,8.77q-1.85,7.59-6.74,7.57c-.16,0-.4,0-.7,0q3.8,1.63,3.29,4.59l-.52,2.77-.41,2.21c-.21,1.12,0,1.75.53,1.89.79.19,1.51-1,2.14-3.64l.16-.64ZM1672,677.56l.64.15c2.49.61,4-.24,4.56-2.53.64-2.61-.25-4.22-2.65-4.8-.16,0-.41-.09-.77-.15Z"/></g><rect class="cls-26" x="1581.78" y="668.53" width="123.87" height="5.13"/></g></g></svg>
