<svg id="Layer_2" data-name="Layer 2" xmlns="http://www.w3.org/2000/svg" width="4800" height="400" viewBox="0 0 4800 400"><defs><style>.cls-1{fill:#bb000a;}.cls-2{fill:none;}</style></defs><title>blodspritesheet</title><path class="cls-1" d="M202,212.9c-1.22,1.12-4.26,2.37-5.92,1.45-2.47-1.36-.09-2.7,0-4.92a19.59,19.59,0,0,0-4.93-2.19c-1.94-.67-1.26-.71-3.36-.17-4.24,1.1-7.81,0-3.18-3.07,2.9-1.92,6.87-1.88,3.51-5.43-1.25-1.32-5.48-5-1.66-6.21,3.67-1.17,5.3,5.62,7-.38,1.2-4.37-1.34-7-2-10.88-1.21-6.82,3.77.07,5.77,1.17,4.89,2.68,7.7-3.55,9.44-7.1,1.14-2.33,5-10.06,8.36-8.67,3.61,1.51,1.83,6.63,1,9.35-.35,1.22-1.79,4.22-1.32,5.44.68,1.8,3.54,1.38,4.92.94s3.33-.4,4.47-1.35c1.53-1.29,2-3.52,4.48-3.08,3,.52,1.21,6.52.14,8.06-2,2.91-2.46,2.61-.66,5.55a9.09,9.09,0,0,0,3.84,3.92c1.44.85,6.05,2,5.67,4.27-.65,3.93-8.25.69-10.15,1.14-5,1.19,2.28,6.58,2,9.24-5.64.58-11.77-6.76-16.06-1.39-.89,1.12-1.51,2.1-1.27,3.41.19,1,2.71,1.72,1.72,3.34-1.36,2.24-5.78-1-7.16-1.55a7.85,7.85,0,0,0-.39,3.13C203.55,217.44,200.85,215.39,202,212.9Z"/><path class="cls-1" d="M595.69,217.3c-.78,1.71-.81,5-2.47,6.39-3.1,2.6-4.25-.67-4.76-2.91-2.62-1.76-3.37-1.07-4.66.54-.59.74-.48,1.74-1.43,2.64-.78.74-2.36,1.15-3.33,1.74-4.33,2.66-4.27,7.27-10.22,7.19-2-4.43,4.3-7.29,6.92-9.84s3.39-5.77,5.27-8.44c1.54-2.18,6.54-5.15,1.57-6.83-3.83-1.3-7,1-10.35,2.35-2.89,1.14-11.75,4-13.2,0-.66-1.79,2.35-1.87-1.13-3.26-2.59-1-7.34,0-9.91,0s-8.87.92-7.27-3c.8-2,4.52-2.64,6.26-3,5-1.15,10.1-.51,15.23-.87,2.27-.15,6.12-.67,8-1.87,2.42-1.58,1.51-2.11,1.06-4.09-.41-1.8-.92-3.95-2.27-5.34-1.12-1.16-3.15-1.68-4.52-2.69,2-1.79,4.29-1.25,5.88-3.46,1.42-2,1.77-4.57-.41-6.05-2.61-1.78-7.24-1.27-10.39-2.95A82.14,82.14,0,0,0,549,169c5.18-5.39,15.45,1.35,20.07,4.11a32.41,32.41,0,0,0,8.6,4c4.88,1.2,3.82-.26,5.29-3.78,1.88-4.46,4.16,1.15,7.21,2.82,5.82,3.19,9.16-4.22,11.23-8.45,1.72-3.51,4.91-6.47,6-10.22.94-3.1,1.24-4.47,3.44-7.08,3.47-4.14,3.72-10.68,6.35-15.49.75-1.39,7.76-8,9.45-7.84,2.31.21,2,5.61,1.61,7.22-.8,3.34-3.09,6.59-4.35,9.71-1.35,3.37-.84,5.9-1.61,9.39-.7,3.21-3.55,5.55-5.33,8.14-2,2.9-7.51,9.37-6,13.46.81,2.14,4.22,1.64,5.86,1.11s4-.48,5.32-1.61c3.93-3.29,5.27-10.54,11.13-11.39,2.7-.39,4.72,2.17,6.43,3.54.47.38.2,1.18.64,1.51.83.6,2,0,2.85.51,1.32.78,1.56.29,1.93,1.73.87,3.41-5.31,8.86-3.06,12.37,1.59,2.48,7.75.84,9,4s-3,3.47-3.58,5.34c-1.24,4.09,8.75,3.5,7.31,8.52-3.63,1.08-7.69,2.08-11.48,1.45-4.08-.69-7.64-3.25-11.63-4.16-3.29-.75-8.28-1.09-7.37,3.4.11.56,4.71,7.74,4.18,7.79-6.72.7-14-8-19.11-1.64-1.07,1.33-1.8,2.5-1.51,4.06.22,1.22,3.23,2,2,4-1.62,2.67-6.89-1.23-8.52-1.84-.08,0-.52,3.72-.93,4.09C599.25,218.88,597.05,217.8,595.69,217.3Z"/><path class="cls-1" d="M1123.28,214.58c-4.94-2.67-14.34-.8-19.8-1.33-4.46-.43-8.5-2.51-12.81-3.57-6.25-1.53-14.81-.71-19.67-5.39-1.86-1.79-2.28-4.08-4.27-5.62-1-.73-3.85-.94-4.2-2.23-.69-2.58,3.11-2.25,3.44-4.56.58-4-4.52-3.5-6.75-5-6.26-4.35.51-7.14,4.28-9.93,3.16-2.34,18.37-15.05,13.85-19.67-7.11-7.24-17.28,10.36-24,4.75-.36-6.44-1.12-14.09-6.44-5.44-2.1,3.41-1.53,4.8-2.62,8.44-.8,2.66-3.62,3.5-5.26,5.49s-2,4.65-4.28,6.52c-1.46,1.22-4,1.17-5.72,1.74s-5.43,1.1-6.3-1.2c-1.67-4.4,4.26-11.36,6.4-14.47,1.92-2.79,5-5.3,5.74-8.75.82-3.76.27-6.47,1.73-10.1,1.35-3.35,3.82-6.85,4.68-10.44.41-1.73.75-7.53-1.74-7.76-1.81-.17-9.34,6.94-10.16,8.43-2.83,5.17-3.09,12.2-6.83,16.65-2.36,2.81-2.69,4.28-3.69,7.62-1.21,4-4.63,7.21-6.49,11-2.22,4.55-5.81,12.52-12.07,9.09-1.54-.85-4.27-5.33-6.18-4.83-2.89.75-.4,5.06-2.73,5.92-2.86,1.07-5.58-5.63-7.27-7-4.4-3.7-13-4-18.58-6.85-8.58-4.33-17.77-10-27.65-5.14-11.07,5.43,9.21,11.79,14,13.7,4.05,1.63,7.25,3,11.28,3.69,3.1.53,10.51.05,10.2,4.94-.25,3.87-6.71,1.83-6,6.72.89,5.86,9.75,3.89,12.3,7.81,5.08,7.85-17.1,3-20.24,3-5.75-.07-15.51,1.79-18.63,5.75-6,7.6,1.22,10.81,8.74,10,3.31-.36,6.34-1.56,9.76-1.36,5.72.35,10.77,6.51,16.72,5.86,6.31-.69,11.33-10.49,17.62-9.59,5.2.76,1.25,4.9-1,7.37-3.6,3.88-5.34,9-9.91,11.88-4.22,2.64-9.92,3.05-13.64,6.59-2.45,2.33-5.35,12.67-2.46,14.26,4.93,2.72,12.42-4.37,15.72-7.08a54,54,0,0,0,6.4-6.05c1.58-1.8,2.4-4.61,4.8-5.72,3.45-1.59,7,.43,9.91-2.25,2.07-1.9,2.36-4.71,3.34-7,1.46.56,3.43,1.34,4.66.24,2.2-2.07-.9-5.63,3.56-4,3.48,1.27,3.49,7.86,9,5.3,4.87-2.28,2.81-8.5,10.36-7,5,1,9.4,3.77,14.9,3.48,8.93-.48-.07-5.39.86-8.94,1.54-5.8,12.74-1.42,15.53.41,4.94,3.23,8.08.94,12.89-.35,4.62-1.24,9.92,1.48,14.06,3.05,4.88,1.85,5.63,5.75,9.84,8.42s14.86,3.46,19.47,1.91c3-1,3.89-2,4.12-5.63C1126.12,217.62,1126,216,1123.28,214.58ZM995.88,225.7l-1.51.58A2,2,0,0,1,995.88,225.7Z"/><path class="cls-1" d="M1536.54,219a20.19,20.19,0,0,0-6.44-2.28c-5.24-.73-10.65.6-15.92.09-5.11-.5-9.74-2.89-14.68-4.1-7.16-1.76-17-.81-22.55-6.17-2.13-2.06-2.6-4.69-4.89-6.45-1.09-.83-4.41-1.08-4.81-2.55-.8-3,3.56-2.59,3.94-5.23.67-4.62-5.18-4-7.73-5.79-8.27-5.74,5.66-11.39,9.42-15.11,6.84-6.76,8.38-12.61,19.37-13.9,4.13-.49,11.21-4,11.17-8.9-7.67-2.53,0-8.38-.93-12.34-.57-2.55-4.08-3.43-6.38-3.75-5-.69-3.92,1-7,4-1.83,1.78-3.84,1.86-5.37,3.07-4.7,3.72-6.84,10.37-11.77,14.28-1.62,1.28-15.06,8.86-15.31,4.21-.42-7.38-1.28-16.16-7.39-6.24-2.4,3.9-1.75,5.5-3,9.68-.91,3-4.15,4-6,6.29s-2.35,5.33-4.91,7.48c-1.66,1.39-4.54,1.34-6.55,2s-6.23,1.26-7.23-1.37c-1.41-3.74,1.51-6.61,2.6-9.85,1.65-4.87,1.18-10.14,2.8-15,1.44-4.32,5.64-7.69,9-10.76,4.28-3.85,3.69-7.87,7.23-12,4.11-4.83,8.53-7,10.27-13.68a129.36,129.36,0,0,0,3-17.94c-8.74-.31-24.45,7.91-28.77,15.88-5.55,10.25,1.79,23.44-6.33,33.1-2.7,3.22-3.08,4.9-4.23,8.73-1.38,4.62-5.31,8.27-7.43,12.6-2.55,5.2-6.67,14.35-13.84,10.41-1.77-1-4.9-6.1-7.09-5.54-3.31.86-.46,5.81-3.12,6.8-3.29,1.21-6.4-6.46-8.34-8.08-5-4.24-14.89-4.62-21.29-7.85-6.81-3.43-16.11-7.59-20.51-14.11-3.11-4.61-6.5-7.42-13-5.4-6,1.84-8.65,9.19-15,10.9-4.52,1.22-17.36-5.87-17.5,1.26-.17,8,15.23,3.57,20.47,4.74,10.39,2.33,20,8.47,29.86,12.42,4.65,1.87,8.32,3.45,12.92,4.23,3.56.6,12.06.06,11.7,5.66-.28,4.44-7.69,2.1-6.83,7.71,1,6.71,11.18,4.45,14.1,8.95,4.69,7.25-12.4,4.78-15.24,4.43-10.61-1.28-19.88,1.23-30.46,1.6-6.52.23-11.27-.89-14.15,6-1.72,4.09-.11,11.22,4.64,12.93,5,1.78,9.85-4.11,14.24-4.93,5.72-1.07,11.86-.49,17.62-.14,6.56.4,12.34,7.46,19.17,6.71,7.23-.78,13-12,20.19-11,6,.86,1.43,5.61-1.19,8.43-4.13,4.46-6.12,10.34-11.36,13.62-8.23,5.17-19,9.54-28.22,12.76-4.68,1.64-12.12,3.87-15.78,7.24,3.13,2.95,9.58,4.81,13.74,3.41-.53,7.19,6.92,8,12,5,4-2.4,9.06-10.1,10.62-14.45,5.39,1.41,8.11,1.57,11.89-1.95,2.91-2.71,4.42-8,8.11-9.67,4-1.83,8,.5,11.35-2.58,2.38-2.17,2.71-5.4,3.84-8.07,6.6,2.57,4.65-4,9.6-3.69,4.19.26,2.78,4.35,3.61,7.4.59,2.18,5.24,8.85,7,9.41,5.7,1.84,6.13-7.62,7-10.68,2-7,5.53-4.19,10.69-2,5,2.13,13.54,2.62,18.73,1.18,2-.56-5.31-13.46-4.69-15,2.1-5.34,12.39-.65,15.51,1.39,5.66,3.7,9.25,1.07,14.76-.41,5.3-1.42,11.37,1.71,16.12,3.5,5.65,2.14,7.71,8.84,13.48,10.73,2.75.9,4.94-.54,7.42,0,3.77.9,5.42,4.29,8.12,6.72,6.29,5.7,7.28,1.59,13.37,0,2.19-.57,19,8.13,17.54-.86-.31-2-5.8-4.3-7.07-5.29-2.53-2-2.27-4-4.36-6.34-2.36-2.68-5.2-1.83-8.42-3A45.53,45.53,0,0,1,1536.54,219Zm-145.69,12.07-1.73.67A2.29,2.29,0,0,1,1390.85,231.06Z"/><path class="cls-1" d="M1964.76,236.28a33.88,33.88,0,0,1-8.82-5.79c-4.81-4.81-4.77-5.78-11.85-8.32a44.68,44.68,0,0,1-5.26-2.44,20.61,20.61,0,0,0-6.57-2.33c-5.35-.75-10.87.61-16.25.09-5.22-.5-9.94-2.94-15-4.18-7.32-1.79-17.34-.83-23-6.31-2.18-2.09-2.66-4.77-5-6.57-1.59-1.22-4.29-1-6.14-2-2.3-1.18-4.12-3.35-6.78-3.8-2-.34-8.91-.8-10.56.31a8,8,0,0,0-.41,3.2c.4,1.4,1.38.77,2,2,.91,1.87.8,3.74.69,5.9-.06,1.12-9.19,3.1-10.19,3.45-7.93,2.83-14.54,7-22.36,2.66.08-2.4,6.74-8.15,2.74-9.73-1.07-.43-5.1.84-6.55,1-2.15.26-4.1,1.31-6.3,1.25.94,0-3.79-5.95-4.85-6.43a13.41,13.41,0,0,0-7.56-.85c-5.14.94-10.16,6.52-15.6,5.57-.78-2.61,2.37-5.75,3.66-7.69,1.78-2.68,1.6-5.91,3.22-8.15,2.9-4,11.59-3.15,15.87-3.58a61.94,61.94,0,0,1,11.06-.36c2.38.19,5.54,1.32,7.9.85.83-.16,10.72-7,10.92-5.46.31,2.37-.82,4.6.14,6.74,3.07,6.87,8.42-.34,11.64-1.84,4.66-2.16,10.46-1.25,16.23.22-1.64-4.84,8.86-9.41,12.07-12.58,5.65-5.58,9.33-11.41,17.08-14.36,5.25-2,11.31-1.4,14.82-6.49,4-5.74-.11-6.83.18-12.84.36-7.36,8.76-15.26,13-20.48-3.41-4.55-13.36-1-16.78,2.71-2.14,2.31-1.86,5.88-3.56,8.2-2,2.72-5.71,5.18-8.2,7.6-1.87,1.81-3.92,1.9-5.48,3.13-4.8,3.8-7,10.59-12,14.58-1.65,1.31-15.37,9-15.63,4.3-.42-7.54-1.31-16.5-7.54-6.37-2.45,4-1.78,5.61-3.06,9.87-.93,3.11-4.23,4.1-6.15,6.42s-2.4,5.45-5,7.64c-1.69,1.42-4.63,1.37-6.69,2s-6.35,1.29-7.37-1.4c-1.45-3.81,1.54-6.74,2.66-10.05,1.68-5,1.2-10.35,2.85-15.32,1.47-4.41,5.76-7.85,9.23-11,4.36-3.93,3.76-8,7.38-12.3,4.19-4.94,8.7-7.15,10.48-14a133.46,133.46,0,0,0,3-18.31c-8.92-.32-25,8.07-29.37,16.2-5.66,10.46,1.83,23.93-6.45,33.79-2.76,3.28-3.15,5-4.32,8.91-1.42,4.72-5.42,8.43-7.59,12.86-2.61,5.31-6.81,14.64-14.12,10.63-1.81-1-5-6.24-7.24-5.66-3.38.88-.47,5.93-3.19,6.94-3.35,1.24-6.53-6.59-8.51-8.25-5.15-4.33-15.2-4.72-21.73-8-7-3.51-16.44-7.75-20.93-14.41-7.21-10.67-23-4.81-33.87-4.25-6.6.35-12.16,3.33-18.39.72-4.26-1.78-13.36-9.11-18.45-3.44-4.56,5.09,8.8,8.76,12.77,10.83,5.39,2.82,10.34,6,16.4,7.27,5.27,1.07,10.77-.54,16,.62,10.61,2.37,20.44,8.64,30.48,12.67,4.74,1.91,8.48,3.52,13.19,4.32,3.63.62,12.3.06,11.93,5.78-.28,4.53-7.84,2.14-7,7.87,1,6.85,11.42,4.54,14.39,9.13,4.8,7.4-12.65,4.88-15.55,4.53-11.68-1.41-23.19.66-35-.63-8.06-.88-22.14-3.93-27.61,4.28-4.9,7.34,2.08,15.7,9.64,17.18,6.48,1.27,14.43-2.29,20.75-3.49a92.93,92.93,0,0,1,23.89-1.57c6.7.41,12.6,7.62,19.57,6.86,7.38-.81,13.25-12.28,20.61-11.22,6.08.88,1.46,5.74-1.21,8.62-4.22,4.54-6.25,10.54-11.6,13.9-8.4,5.27-19.44,9.73-28.81,13-6,2.1-11.86,5.55-17.77,7.12-4.51,1.21-12.36-.15-13.86,6.06-2.06,8.51,9.45,4.07,13.5,5.13,5.34,1.39,8.54,4.24,14.76,2.22,4.79-1.56,11.29-4.14,15.41-7.05,1.46-1,10.16-12,9-12.29,5.5,1.43,8.28,1.59,12.14-2,3-2.77,4.51-8.13,8.27-9.87,4-1.86,8.15.51,11.59-2.63,2.43-2.22,2.76-5.52,3.92-8.24,6.73,2.62,4.75-4.08,9.79-3.77,4.29.27,2.85,4.44,3.69,7.56.6,2.22,5.35,9,7.13,9.6,5.83,1.88,6.27-7.77,7.17-10.9,2.06-7.16,5.65-4.28,10.92-2,5.09,2.18,13.81,2.67,19.12,1.2,2-.56-5.43-13.73-4.79-15.35,2.14-5.45,12.64-.66,15.82,1.42,5.78,3.78,9.45,1.1,15.08-.41,5.4-1.45,11.6,1.74,16.44,3.57,5.77,2.18,7.88,9,13.77,10.95,2.8.92,5-.56,7.57,0,7.53,1.79,9.85,12.36,16.75,14.55,3.28,1,7.83-2.09,11.3-1.42,6.94,1.34,11.62,8.53,17.33,11.46,4.41,2.26,17.13,2.61,19.79-3.15s-11.48-9.4-16.37-12.06C1970.76,239.1,1967.72,237.76,1964.76,236.28Zm-176.41-3.54a2.32,2.32,0,0,1,1.77-.69Z"/><path class="cls-2" d="M2188.35,232.74l1.77-.69A2.32,2.32,0,0,0,2188.35,232.74Z"/><path class="cls-1" d="M2373.32,240.49c-2.56-1.39-5.6-2.73-8.56-4.21a33.88,33.88,0,0,1-8.82-5.79c-4.81-4.81-4.77-5.78-11.85-8.32a44.68,44.68,0,0,1-5.26-2.44,20.61,20.61,0,0,0-6.57-2.33c-5.35-.75-10.87.61-16.25.09-5.22-.5-9.94-2.94-15-4.18-7.32-1.79-17.34-.83-23-6.31-2.18-2.09-2.66-4.77-5-6.57-1.59-1.22-4.29-1-6.14-2-2.3-1.18-4.12-3.35-6.78-3.8-2-.34-8.91-.8-10.56.31a8,8,0,0,0-.41,3.2c.4,1.4,1.38.77,2,2,.91,1.87.8,3.74.69,5.9,0,.11-.13.23-.29.36,2.41,2.16,4.64,5,7.2,6.74,4-.88,10.55,2.21,12.94,3.78,5.78,3.78,9.44,1.1,15.08-.41,5.4-1.45,11.6,1.74,16.44,3.57,5.77,2.18,7.88,9,13.77,10.95,2.8.92,5-.56,7.57,0,7.53,1.79,9.85,12.36,16.75,14.55,3.28,1,7.83-2.09,11.3-1.42,6.94,1.34,11.62,8.53,17.33,11.46,4.41,2.26,17.13,2.61,19.79-3.15S2378.21,243.15,2373.32,240.49Z"/><path class="cls-1" d="M2261.78,183.74c-1.64-4.84,8.86-9.41,12.07-12.58,5.65-5.58,9.33-11.41,17.08-14.36,5.25-2,11.31-1.4,14.82-6.49,4-5.74-.11-6.83.18-12.84.36-7.36,8.76-15.26,13-20.48-3.41-4.55-13.36-1-16.78,2.71-2.14,2.31-1.86,5.88-3.56,8.2-2,2.72-5.71,5.18-8.2,7.6-1.87,1.81-3.92,1.9-5.48,3.13-4.8,3.8-7,10.59-12,14.58-1.65,1.31-15.37,9-15.63,4.3-.42-7.54-1.31-16.5-7.54-6.37-2.45,4-1.78,5.61-3.06,9.87-.93,3.11-4.23,4.1-6.15,6.42s-2.4,5.45-5,7.64c-1.69,1.42-4.63,1.37-6.69,2s-6.35,1.29-7.37-1.4c-1.45-3.81,1.54-6.74,2.66-10.05,1.68-5,1.2-10.35,2.85-15.32,1.47-4.41,5.76-7.85,9.23-11,4.36-3.93,3.76-8,7.38-12.3,4.19-4.94,8.7-7.15,10.48-14a133.46,133.46,0,0,0,3-18.31c-8.92-.32-25,8.07-29.37,16.2-5.66,10.46,1.83,23.93-6.45,33.79-2.76,3.28-3.15,5-4.32,8.91-1.42,4.72-5.42,8.43-7.59,12.86-2.61,5.31-6.81,14.64-14.12,10.63-1.81-1-5-6.24-7.24-5.66-3.38.88-.47,5.93-3.19,6.94-3.35,1.24-6.53-6.59-8.51-8.25-5.15-4.33-15.2-4.72-21.73-8-7-3.51-16.44-7.75-20.93-14.41-7.21-10.67-23-4.81-33.87-4.25-6.6.35-12.16,3.33-18.39.72-4.26-1.78-13.36-9.11-18.45-3.44-4.56,5.09,8.8,8.76,12.77,10.83,5.39,2.82,10.34,6,16.4,7.27,5.27,1.07,10.77-.54,16,.62,10.61,2.37,20.44,8.64,30.48,12.67,4.74,1.91,8.48,3.52,13.19,4.32,3.63.62,12.3.06,11.94,5.78-.29,4.53-7.85,2.14-7,7.87,1.05,6.85,11.42,4.54,14.39,9.13,4.8,7.4-12.65,4.88-15.55,4.53-11.68-1.41-23.19.66-35-.63-8.06-.88-22.14-3.93-27.61,4.28-4.9,7.34,2.08,15.7,9.64,17.18,6.48,1.27,14.43-2.29,20.75-3.49a92.93,92.93,0,0,1,23.89-1.57c6.7.41,12.6,7.62,19.57,6.86,4.59-.5,8.59-5.13,12.74-8.3.48-1.23,1.07-2.47,1.35-3.48,1-3.47-.12-6.6-.27-10a5.85,5.85,0,0,1,.37-2.48c0-2.43,2.61-5.14,3.77-6.88,1.78-2.68,1.6-5.91,3.22-8.15,2.9-4,11.59-3.15,15.87-3.58a61.94,61.94,0,0,1,11.06-.36c2.38.19,5.54,1.32,7.9.85.83-.16,10.72-7,10.92-5.46.31,2.37-.82,4.6.14,6.74,3.07,6.87,8.42-.34,11.64-1.84C2250.21,181.36,2256,182.27,2261.78,183.74Z"/><path class="cls-1" d="M2196.74,197.44a11.88,11.88,0,0,1,6.57.75c1.29.43,2.63.38,4,.8,2.38.76,2.62,2.45,5.27,2.25,6.52-.5,13-5.7,4.88-10.1-5.31-2.88-12.62-2.56-18.16-.55-4.17,1.5-7.8,4.39-11.58,6.58-2.71,1.57-5.64,2.44-6.65,5a2.78,2.78,0,0,0,.11.81C2186.58,204,2191.6,198.38,2196.74,197.44Z"/><path class="cls-1" d="M2156.51,247h-.72c-3.4,1.38-6.77,2.63-10,3.75-6,2.1-11.86,5.55-17.77,7.12-4.51,1.21-12.36-.15-13.86,6.06-2.06,8.51,9.45,4.07,13.51,5.13,5.33,1.39,8.53,4.24,14.75,2.22,4.79-1.56,11.29-4.14,15.41-7.05.94-.68,4.93-5.51,7.31-8.92a19.81,19.81,0,0,0-.68-4.94C2163,245.14,2161.86,246.79,2156.51,247Z"/><path class="cls-1" d="M2181,223.17c3,.37,6-1.39,8.85-3.77,1.08-1.94,1-3.68-2.37-4.17-2.78-.4-5.35,1-7.87,2.92C2178.65,220.51,2178.11,222.81,2181,223.17Z"/><path class="cls-1" d="M2174.67,236.86c-2.38,2.26-2.28,7.14-.67,9.84,4.23,7.07,10-5.08,13.3-6.61,4-1.86,8.15.51,11.59-2.63,2.24-2.05,3.62-4.42,6.34-6.13a24.46,24.46,0,0,0,3.52-2.52c2.12-2,3-4.88,5-7.06,3.16-3.44,5.17-8.22,6.83-12.42,6.12-15.48-14.77-2.3-20,.71-3.21,1.86-6.92,6.17-10.8,9.36a26.35,26.35,0,0,1-3.58,4.45c-2.21,2.37-3.82,5.19-5.69,7.83a16.77,16.77,0,0,1-3.18,3.88c-.77.56-1.81.55-2.51,1.14Zm15.45-4.81-1.77.69A2.32,2.32,0,0,1,2190.12,232.05Z"/><path class="cls-2" d="M2175.16,237.39a9.71,9.71,0,0,0-5.67-4.79,27.12,27.12,0,0,0-14.51-1c-7.77,1.37-12.24,2.75-5,6.89-3.62,6.14,0,8.57,5.79,8.52a123.29,123.29,0,0,0,18.85-9.27Z"/><path class="cls-2" d="M2166.89,252c.4.1-.42,1.53-1.71,3.37.13,3.92-.37,7.88,1,11.69,2.35,6.69,9.26,8.28,16.38,7,6.17-1.14,11.87-7.88,12.24-14.52.4-7.28-7.09-5.88-12.61-8.77a9.89,9.89,0,0,1-2.3-1.64,11.79,11.79,0,0,1-.83.89C2175.17,253.55,2172.39,253.39,2166.89,252Z"/><path class="cls-1" d="M2229.67,223c.5,5.15-3.66,8.83-4,13.67-.3,4,1.17,7.7,1.36,11.83.37,8,.37,15.64,1.45,23.06,1.47,2.79,7.25,10,12.27,8.75,9.19-2.37-.48-12.19-1.69-16.92-.57-2.24-1.78-7.84-.64-10,1.55-2.88,7-2.76,8.62-5.59,2.92-5.14-2.66-10.73-5.51-14.7C2239.19,229.91,2233.77,219.11,2229.67,223Z"/><path class="cls-2" d="M2559.35,280.3l1.76-.46A3,3,0,0,0,2559.35,280.3Z"/><path class="cls-1" d="M2744.31,285.52c-2.56-.94-5.6-1.83-8.56-2.83a38.45,38.45,0,0,1-8.82-3.9c-4.81-3.24-4.77-3.89-11.85-5.6-1.91-.46-3.58-1.07-5.26-1.64a27.5,27.5,0,0,0-6.57-1.57c-5.35-.51-10.87.41-16.25.06-5.22-.34-9.94-2-15-2.82-7.32-1.2-17.33-.56-23-4.24-2.18-1.41-2.66-3.21-5-4.42-1.59-.83-4.29-.71-6.14-1.35-2.3-.79-4.12-2.26-6.78-2.56-2-.23-8.91-.54-10.56.21-.18.58-.66,1.55-.41,2.15.4.95,1.38.52,2,1.37.91,1.27.8,2.52.69,4,0,.07-.12.15-.29.24,2.42,1.45,4.64,3.35,7.2,4.54,4-.6,10.55,1.49,12.94,2.54,5.78,2.55,9.45.74,15.08-.28,5.41-1,11.6,1.17,16.45,2.41,5.77,1.47,7.87,6.07,13.76,7.37,2.8.62,5-.38,7.57,0,7.54,1.2,9.85,8.32,16.75,9.79,3.28.7,7.84-1.41,11.3-1,6.94.9,11.62,5.75,17.34,7.72,4.4,1.52,17.12,1.76,19.78-2.12S2749.2,287.31,2744.31,285.52Z"/><path class="cls-1" d="M2632.77,247.32c-1.64-3.26,8.86-6.33,12.07-8.47,5.65-3.75,9.34-7.68,17.08-9.66,5.25-1.35,11.31-.94,14.82-4.37,4-3.87-.11-4.6.18-8.65.36-4.95,8.76-10.27,13-13.78-3.41-3.06-13.36-.65-16.78,1.83-2.14,1.55-1.86,3.95-3.55,5.52-2,1.82-5.72,3.48-8.21,5.11-1.87,1.22-3.92,1.28-5.48,2.11-4.8,2.55-7,7.12-12,9.81-1.65.88-15.36,6.08-15.63,2.89-.42-5.07-1.3-11.1-7.54-4.29-2.45,2.69-1.78,3.78-3.06,6.65-.93,2.09-4.23,2.76-6.15,4.32s-2.4,3.67-5,5.14c-1.7,1-4.64.92-6.69,1.37s-6.36.87-7.38-.95c-1.44-2.57,1.54-4.53,2.66-6.76,1.68-3.35,1.2-7,2.85-10.32,1.47-3,5.76-5.28,9.23-7.39,4.37-2.64,3.76-5.41,7.38-8.27,4.19-3.33,8.71-4.82,10.48-9.41a62.46,62.46,0,0,0,3-12.32c-8.92-.21-25,5.43-29.36,10.91-5.67,7,1.82,16.1-6.46,22.74-2.76,2.21-3.15,3.37-4.32,6-1.42,3.17-5.42,5.68-7.59,8.65-2.6,3.58-6.81,9.86-14.12,7.16-1.81-.67-5-4.2-7.23-3.81-3.39.59-.48,4-3.2,4.67-3.35.84-6.53-4.43-8.51-5.55-5.15-2.91-15.2-3.18-21.73-5.39-6.95-2.36-16.44-5.22-20.93-9.7-7.21-7.19-23-3.24-33.87-2.86-6.6.23-12.16,2.24-18.39.48-4.26-1.2-13.36-6.13-18.45-2.31-4.56,3.42,8.8,5.89,12.77,7.29,5.4,1.9,10.34,4.06,16.4,4.89,5.27.72,10.78-.37,16,.42,10.61,1.59,20.44,5.81,30.48,8.53a83.86,83.86,0,0,0,13.19,2.9c3.63.42,12.3.05,11.94,3.89-.29,3-7.85,1.44-7,5.3,1,4.61,11.41,3.06,14.38,6.15,4.8,5-12.65,3.28-15.54,3-11.69-.95-23.19.44-35-.43-8.06-.59-22.13-2.64-27.61,2.89-4.9,4.94,2.08,10.56,9.64,11.56,6.48.85,14.43-1.54,20.75-2.35a136.31,136.31,0,0,1,23.89-1.05c6.7.27,12.6,5.12,19.57,4.61,4.59-.34,8.6-3.45,12.74-5.59a23.49,23.49,0,0,0,1.35-2.34c1-2.34-.12-4.44-.27-6.73a2.89,2.89,0,0,1,.37-1.67c0-1.63,2.61-3.45,3.77-4.62,1.78-1.81,1.6-4,3.22-5.49,2.9-2.7,11.59-2.12,15.87-2.41a90.67,90.67,0,0,1,11.06-.24c2.39.12,5.54.89,7.9.57.83-.11,10.73-4.73,10.93-3.68.3,1.6-.82,3.1.13,4.54,3.08,4.62,8.42-.23,11.64-1.24C2621.2,245.72,2627,246.33,2632.77,247.32Z"/><path class="cls-1" d="M2567.74,256.54a17.39,17.39,0,0,1,6.56.51c1.29.29,2.64.25,4,.54,2.38.51,2.62,1.64,5.27,1.51,6.52-.33,13-3.84,4.88-6.8-5.31-1.94-12.61-1.72-18.16-.37-4.17,1-7.8,2.95-11.58,4.43-2.71,1.06-5.64,1.64-6.65,3.38a1.32,1.32,0,0,0,.11.55C2557.57,260.93,2562.59,257.17,2567.74,256.54Z"/><path class="cls-1" d="M2527.5,289.91h-.72c-3.4.92-6.77,1.77-10,2.52-6,1.41-11.86,3.73-17.76,4.79-4.52.82-12.36-.1-13.87,4.08-2.06,5.73,9.45,2.74,13.51,3.45,5.33.94,8.53,2.86,14.75,1.5,4.79-1.05,11.29-2.79,15.41-4.75a56.79,56.79,0,0,0,7.31-6,9.25,9.25,0,0,0-.68-3.32C2534,288.65,2532.85,289.76,2527.5,289.91Z"/><path class="cls-1" d="M2552,273.86c3,.25,5.95-.93,8.86-2.54,1.08-1.3,1-2.47-2.38-2.8a14.12,14.12,0,0,0-7.87,2C2549.64,272.07,2549.1,273.62,2552,273.86Z"/><path class="cls-1" d="M2545.67,283.08c-2.39,1.52-2.29,4.81-.68,6.62,4.23,4.76,10-3.42,13.31-4.45,4-1.25,8.14.34,11.58-1.77,2.24-1.38,3.62-3,6.34-4.13a25.59,25.59,0,0,0,3.52-1.69c2.12-1.35,3-3.29,5-4.75,3.16-2.32,5.17-5.53,6.83-8.36,6.12-10.42-14.77-1.55-19.95.47-3.21,1.26-6.92,4.16-10.79,6.3a21.79,21.79,0,0,1-3.59,3,56.29,56.29,0,0,0-5.68,5.27,14.22,14.22,0,0,1-3.18,2.61c-.78.38-1.82.37-2.52.77Zm15.44-3.24-1.76.46A3,3,0,0,1,2561.11,279.84Z"/><path class="cls-2" d="M2546.15,283.44c-1-1.3-2.58-2.44-5.67-3.23a39.85,39.85,0,0,0-14.5-.67c-7.78.93-12.25,1.85-5,4.64-3.61,4.13,0,5.77,5.79,5.74a153.65,153.65,0,0,0,18.85-6.25Z"/><path class="cls-2" d="M2537.88,293.24c.4.07-.42,1-1.71,2.27.13,2.64-.37,5.3,1,7.87,2.36,4.5,9.26,5.57,16.38,4.69,6.17-.76,11.87-5.29,12.24-9.77.4-4.9-7.09-3.95-12.61-5.9a11,11,0,0,1-2.3-1.1,8.27,8.27,0,0,1-.83.59C2546.17,294.31,2543.39,294.2,2537.88,293.24Z"/><path class="cls-1" d="M2600.66,273.75c.5,3.46-3.66,5.94-4,9.2-.3,2.68,1.17,5.18,1.36,8,.37,5.4.37,10.53,1.45,15.52,1.47,1.88,7.25,6.76,12.28,5.89,9.18-1.59-.49-8.2-1.7-11.38-.57-1.51-1.78-5.28-.64-6.72,1.55-1.94,7-1.86,8.62-3.76,2.92-3.46-2.66-7.22-5.51-9.89C2610.18,278.4,2604.76,271.13,2600.66,273.75Z"/><path class="cls-2" d="M2938.35,351.44l1.76-.33A4.07,4.07,0,0,0,2938.35,351.44Z"/><path class="cls-1" d="M3123.31,355.18c-2.56-.67-5.6-1.32-8.56-2a46.91,46.91,0,0,1-8.82-2.79c-4.81-2.31-4.77-2.78-11.85-4-1.91-.33-3.58-.77-5.26-1.18a36.78,36.78,0,0,0-6.57-1.12c-5.35-.36-10.87.29-16.25,0-5.22-.24-9.94-1.42-15-2-7.32-.87-17.33-.4-23-3-2.18-1-2.66-2.3-5-3.16-1.59-.59-4.29-.51-6.14-1-2.3-.57-4.12-1.62-6.78-1.84-2-.16-8.91-.38-10.56.15-.18.42-.66,1.11-.41,1.54.4.68,1.38.38,2,1a3,3,0,0,1,.69,2.85c0,.05-.12.11-.29.17,2.42,1,4.64,2.4,7.2,3.25,4-.43,10.55,1.06,12.94,1.82,5.78,1.82,9.45.52,15.08-.2,5.41-.7,11.6.83,16.45,1.72,5.77,1.05,7.87,4.34,13.76,5.27,2.8.44,5-.27,7.57,0,7.54.86,9.85,5.95,16.75,7,3.28.5,7.84-1,11.3-.69,6.94.65,11.62,4.11,17.34,5.52,4.4,1.09,17.12,1.26,19.78-1.52S3128.2,356.46,3123.31,355.18Z"/><path class="cls-1" d="M3011.77,327.85c-1.64-2.33,8.86-4.53,12.07-6.06,5.65-2.69,9.34-5.49,17.08-6.91,5.25-1,11.31-.68,14.82-3.13,4-2.76-.11-3.29.18-6.18.36-3.55,8.76-7.35,13-9.87-3.41-2.19-13.36-.46-16.78,1.31-2.14,1.11-1.86,2.83-3.55,3.95-2,1.31-5.72,2.49-8.21,3.66-1.87.87-3.92.91-5.48,1.51-4.8,1.83-7,5.09-12,7-1.65.63-15.36,4.35-15.63,2.07-.42-3.63-1.3-8-7.54-3.07-2.45,1.92-1.78,2.7-3.06,4.75-.93,1.5-4.23,2-6.15,3.1s-2.4,2.62-5,3.67c-1.7.69-4.64.66-6.69,1s-6.36.62-7.38-.68c-1.44-1.83,1.54-3.24,2.66-4.84,1.68-2.39,1.2-5,2.85-7.38,1.47-2.12,5.76-3.78,9.23-5.28,4.37-1.89,3.76-3.87,7.38-5.92,4.19-2.38,8.71-3.45,10.48-6.73a34.76,34.76,0,0,0,3-8.82c-8.92-.15-25,3.89-29.36,7.81-5.67,5,1.82,11.52-6.46,16.27a9.41,9.41,0,0,0-4.32,4.29c-1.42,2.27-5.42,4.06-7.59,6.19-2.6,2.56-6.81,7.05-14.12,5.12-1.81-.48-5-3-7.23-2.72-3.39.42-.48,2.85-3.2,3.34-3.35.59-6.53-3.18-8.51-4-5.15-2.08-15.2-2.27-21.73-3.85-6.95-1.69-16.44-3.74-20.93-6.94-7.21-5.14-23-2.32-33.87-2-6.6.17-12.16,1.6-18.39.35-4.26-.86-13.36-4.39-18.45-1.66-4.56,2.45,8.8,4.22,12.77,5.22,5.4,1.36,10.34,2.9,16.4,3.5,5.27.51,10.78-.26,16,.3,10.61,1.14,20.44,4.16,30.48,6.1a114.64,114.64,0,0,0,13.19,2.08c3.63.3,12.3,0,11.94,2.78-.29,2.18-7.85,1-7,3.79,1,3.3,11.41,2.19,14.38,4.4,4.8,3.56-12.65,2.35-15.54,2.18-11.69-.68-23.19.32-35-.3-8.06-.43-22.13-1.9-27.61,2.06-4.9,3.53,2.08,7.55,9.64,8.27,6.48.61,14.43-1.1,20.75-1.68a189,189,0,0,1,23.89-.75c6.7.19,12.6,3.66,19.57,3.3,4.59-.25,8.6-2.47,12.74-4a16.54,16.54,0,0,0,1.35-1.68c1-1.67-.12-3.18-.27-4.81a1.6,1.6,0,0,1,.37-1.19c0-1.17,2.61-2.47,3.77-3.31,1.78-1.3,1.6-2.85,3.22-3.93,2.9-1.93,11.59-1.52,15.87-1.72,3.67-.18,7.37-.32,11.06-.18,2.39.09,5.54.64,7.9.42.83-.08,10.73-3.39,10.93-2.64.3,1.14-.82,2.22.13,3.25,3.08,3.31,8.42-.17,11.64-.88C3000.2,326.7,3006,327.14,3011.77,327.85Z"/><path class="cls-1" d="M2946.74,334.45a23.58,23.58,0,0,1,6.56.36c1.29.21,2.64.18,4,.38,2.38.37,2.62,1.18,5.27,1.09,6.52-.24,13-2.75,4.88-4.87-5.31-1.38-12.61-1.23-18.16-.26-4.17.72-7.8,2.11-11.58,3.16-2.71.76-5.64,1.18-6.65,2.43a.72.72,0,0,0,.11.39C2936.57,337.59,2941.59,334.9,2946.74,334.45Z"/><path class="cls-1" d="M2906.5,358.32h-.72c-3.4.66-6.77,1.27-10,1.81-6,1-11.86,2.67-17.76,3.43-4.52.58-12.36-.07-13.87,2.92-2.06,4.09,9.45,1.95,13.51,2.46,5.33.67,8.53,2.05,14.75,1.07a106.64,106.64,0,0,0,15.41-3.39,58.46,58.46,0,0,0,7.31-4.3,5,5,0,0,0-.68-2.37C2913,357.42,2911.85,358.21,2906.5,358.32Z"/><path class="cls-1" d="M2931,346.83a21,21,0,0,0,8.86-1.81c1.08-.93,1-1.77-2.38-2a18.77,18.77,0,0,0-7.87,1.41C2928.64,345.56,2928.1,346.66,2931,346.83Z"/><path class="cls-1" d="M2924.67,353.43a2.66,2.66,0,0,0-.68,4.74c4.23,3.4,10-2.45,13.31-3.19,4-.89,8.14.25,11.58-1.26,2.24-1,3.62-2.13,6.34-3a30.68,30.68,0,0,0,3.52-1.21c2.12-1,3-2.35,5-3.4a21.69,21.69,0,0,0,6.83-6c6.12-7.45-14.77-1.1-19.95.34-3.21.9-6.92,3-10.79,4.51a21.83,21.83,0,0,1-3.59,2.14,55.41,55.41,0,0,0-5.68,3.77,13.82,13.82,0,0,1-3.18,1.87c-.78.27-1.82.27-2.52.55Zm15.44-2.32-1.76.33A4.07,4.07,0,0,1,2940.11,351.11Z"/><path class="cls-2" d="M2925.15,353.69c-1-.93-2.58-1.75-5.67-2.31a55.22,55.22,0,0,0-14.5-.48c-7.78.66-12.25,1.33-5,3.32-3.61,2.95,0,4.13,5.79,4.1,6.61-1.28,13.3-2.79,18.85-4.46Z"/><path class="cls-2" d="M2916.88,360.7c.4.05-.42.74-1.71,1.62.13,1.89-.37,3.8,1,5.63,2.36,3.22,9.26,4,16.38,3.36,6.17-.54,11.87-3.79,12.24-7,.4-3.5-7.09-2.83-12.61-4.22a13.25,13.25,0,0,1-2.3-.79,9.23,9.23,0,0,1-.83.43C2925.17,361.47,2922.39,361.39,2916.88,360.7Z"/><path class="cls-1" d="M2979.66,346.76c.5,2.47-3.66,4.25-4,6.58-.3,1.92,1.17,3.7,1.36,5.69.37,3.87.37,7.53,1.45,11.11,1.47,1.34,7.25,4.83,12.28,4.21,9.18-1.14-.49-5.87-1.7-8.14-.57-1.08-1.78-3.78-.64-4.81,1.55-1.38,7-1.33,8.62-2.69,2.92-2.47-2.66-5.16-5.51-7.08C2989.18,350.08,2983.76,344.88,2979.66,346.76Z"/><path class="cls-2" d="M3338.35,357.61l1.76-.24A5.28,5.28,0,0,0,3338.35,357.61Z"/><path class="cls-1" d="M3523.31,360.34c-2.56-.49-5.6-1-8.56-1.48a60.51,60.51,0,0,1-8.82-2c-4.81-1.69-4.77-2-11.85-2.93-1.91-.24-3.58-.56-5.26-.86a49.45,49.45,0,0,0-6.57-.82c-5.35-.27-10.87.21-16.25,0-5.22-.18-9.94-1-15-1.47-7.32-.64-17.33-.3-23-2.22-2.18-.74-2.66-1.69-5-2.32-1.59-.43-4.29-.37-6.14-.7-2.3-.42-4.12-1.19-6.78-1.34-2-.12-8.91-.29-10.56.11-.18.3-.66.81-.41,1.12.4.5,1.38.28,2,.72a1.78,1.78,0,0,1,.69,2.08s-.12.08-.29.13c2.42.76,4.64,1.75,7.2,2.37,4-.31,10.55.78,12.94,1.33,5.78,1.33,9.45.39,15.08-.14,5.41-.51,11.6.61,16.45,1.26,5.77.76,7.87,3.17,13.76,3.85,2.8.33,5-.19,7.57,0,7.54.63,9.85,4.35,16.75,5.13,3.28.36,7.84-.74,11.3-.51,6.94.48,11.62,3,17.34,4,4.4.8,17.12.92,19.78-1.11S3528.2,361.28,3523.31,360.34Z"/><path class="cls-1" d="M3411.77,340.35c-1.64-1.71,8.86-3.32,12.07-4.43,5.65-2,9.34-4,17.08-5.06,5.25-.7,11.31-.49,14.82-2.29,4-2-.11-2.4.18-4.52.36-2.6,8.76-5.38,13-7.22-3.41-1.6-13.36-.34-16.78,1-2.14.81-1.86,2.07-3.55,2.89-2,.95-5.72,1.82-8.21,2.67-1.87.64-3.92.67-5.48,1.11-4.8,1.34-7,3.73-12,5.13-1.65.46-15.36,3.19-15.63,1.52-.42-2.66-1.3-5.82-7.54-2.25-2.45,1.41-1.78,2-3.06,3.48-.93,1.1-4.23,1.45-6.15,2.26s-2.4,1.92-5,2.69c-1.7.5-4.64.49-6.69.72s-6.36.45-7.38-.5c-1.44-1.34,1.54-2.37,2.66-3.54,1.68-1.75,1.2-3.65,2.85-5.4,1.47-1.55,5.76-2.76,9.23-3.86,4.37-1.39,3.76-2.84,7.38-4.34,4.19-1.74,8.71-2.51,10.48-4.92a21.2,21.2,0,0,0,3-6.45c-8.92-.11-25,2.85-29.36,5.71-5.67,3.69,1.82,8.43-6.46,11.9a8.54,8.54,0,0,0-4.32,3.15c-1.42,1.66-5.42,3-7.59,4.52-2.6,1.88-6.81,5.16-14.12,3.75-1.81-.35-5-2.2-7.23-2-3.39.31-.48,2.09-3.2,2.44-3.35.44-6.53-2.32-8.51-2.9-5.15-1.53-15.2-1.67-21.73-2.83-6.95-1.23-16.44-2.73-20.93-5.07-7.21-3.76-23-1.7-33.87-1.5-6.6.12-12.16,1.17-18.39.25-4.26-.62-13.36-3.21-18.45-1.21-4.56,1.79,8.8,3.09,12.77,3.82a142.37,142.37,0,0,0,16.4,2.56c5.27.38,10.78-.19,16,.22,10.61.83,20.44,3,30.48,4.46,4.74.67,8.48,1.24,13.19,1.52,3.63.22,12.3,0,11.94,2-.29,1.59-7.85.75-7,2.77,1,2.41,11.41,1.6,14.38,3.22,4.8,2.61-12.65,1.72-15.54,1.59-11.69-.49-23.19.24-35-.22-8.06-.31-22.13-1.38-27.61,1.51-4.9,2.59,2.08,5.53,9.64,6.05,6.48.45,14.43-.8,20.75-1.23,8.16-.54,15.45-.73,23.89-.55,6.7.14,12.6,2.68,19.57,2.42,4.59-.18,8.6-1.81,12.74-2.93a14.68,14.68,0,0,0,1.35-1.22c1-1.23-.12-2.33-.27-3.52a1,1,0,0,1,.37-.88c0-.85,2.61-1.81,3.77-2.42,1.78-.95,1.6-2.08,3.22-2.87,2.9-1.41,11.59-1.11,15.87-1.26,3.67-.13,7.37-.23,11.06-.13,2.39.07,5.54.46,7.9.3.83-.06,10.73-2.48,10.93-1.92.3.83-.82,1.62.13,2.37,3.08,2.42,8.42-.12,11.64-.65C3400.2,339.51,3406,339.83,3411.77,340.35Z"/><path class="cls-1" d="M3346.74,345.18a32,32,0,0,1,6.56.26c1.29.15,2.64.13,4,.28,2.38.27,2.62.86,5.27.79,6.52-.17,13-2,4.88-3.55a64.14,64.14,0,0,0-18.16-.2c-4.17.53-7.8,1.55-11.58,2.32-2.71.55-5.64.86-6.65,1.77a.42.42,0,0,0,.11.29C3336.57,347.47,3341.59,345.51,3346.74,345.18Z"/><path class="cls-1" d="M3306.5,362.64h-.72c-3.4.49-6.77.93-10,1.32-6,.74-11.86,2-17.76,2.51-4.52.43-12.36-.05-13.87,2.14-2.06,3,9.45,1.43,13.51,1.8,5.33.49,8.53,1.5,14.75.79a139.86,139.86,0,0,0,15.41-2.49,63.71,63.71,0,0,0,7.31-3.14,3,3,0,0,0-.68-1.74C3313,362,3311.85,362.56,3306.5,362.64Z"/><path class="cls-1" d="M3331,354.24a27.86,27.86,0,0,0,8.86-1.33c1.08-.68,1-1.29-2.38-1.47a25,25,0,0,0-7.87,1C3328.64,353.31,3328.1,354.11,3331,354.24Z"/><path class="cls-1" d="M3324.67,359.07c-2.39.79-2.29,2.51-.68,3.46,4.23,2.49,10-1.79,13.31-2.33,4-.65,8.14.18,11.58-.93a57.68,57.68,0,0,1,6.34-2.16c1.17-.25,2.58-.57,3.52-.88,2.12-.71,3-1.72,5-2.49a21.13,21.13,0,0,0,6.83-4.37c6.12-5.46-14.77-.81-19.95.25-3.21.65-6.92,2.17-10.79,3.29a24.27,24.27,0,0,1-3.59,1.57,57.9,57.9,0,0,0-5.68,2.76,15.27,15.27,0,0,1-3.18,1.36c-.78.2-1.82.2-2.52.41Zm15.44-1.7-1.76.24A5.28,5.28,0,0,1,3340.11,357.37Z"/><path class="cls-2" d="M3325.15,359.25c-1-.67-2.58-1.27-5.67-1.69a76,76,0,0,0-14.5-.35c-7.78.49-12.25,1-5,2.43-3.61,2.16,0,3,5.79,3,6.61-.94,13.3-2,18.85-3.26Z"/><path class="cls-2" d="M3316.88,364.38c.4,0-.42.54-1.71,1.19.13,1.38-.37,2.78,1,4.12,2.36,2.36,9.26,2.92,16.38,2.46,6.17-.4,11.87-2.78,12.24-5.12.4-2.56-7.09-2.07-12.61-3.09a16.39,16.39,0,0,1-2.3-.57c-.26.11-.54.21-.83.31C3325.17,364.94,3322.39,364.89,3316.88,364.38Z"/><path class="cls-1" d="M3379.66,354.18c.5,1.81-3.66,3.11-4,4.82-.3,1.4,1.17,2.71,1.36,4.17.37,2.82.37,5.5,1.45,8.12,1.47,1,7.25,3.54,12.28,3.08,9.18-.83-.49-4.29-1.7-6-.57-.79-1.78-2.76-.64-3.51,1.55-1,7-1,8.62-2,2.92-1.81-2.66-3.78-5.51-5.18C3389.18,356.62,3383.76,352.81,3379.66,354.18Z"/><path class="cls-2" d="M3733.35,365.69l1.76-.19A6.68,6.68,0,0,0,3733.35,365.69Z"/><path class="cls-1" d="M3918.31,367.93c-2.56-.41-5.6-.79-8.56-1.21a73.62,73.62,0,0,1-8.82-1.67c-4.81-1.38-4.77-1.66-11.85-2.39-1.91-.2-3.58-.46-5.26-.71a61.57,61.57,0,0,0-6.57-.67c-5.35-.21-10.87.18-16.25,0-5.22-.15-9.94-.85-15-1.2-7.32-.52-17.33-.24-23-1.82-2.18-.6-2.66-1.37-5-1.89-1.59-.35-4.29-.3-6.14-.57a59.33,59.33,0,0,0-6.78-1.1,87.91,87.91,0,0,0-10.56.09c-.18.25-.66.67-.41.92.4.41,1.38.22,2,.59a1.32,1.32,0,0,1,.69,1.7s-.12.06-.29.1c2.42.62,4.64,1.43,7.2,1.94a66.27,66.27,0,0,1,12.94,1.09c5.78,1.08,9.45.31,15.08-.12,5.41-.42,11.6.5,16.45,1,5.77.63,7.87,2.6,13.76,3.16,2.8.26,5-.16,7.57,0,7.54.51,9.85,3.55,16.75,4.18,3.28.3,7.84-.6,11.3-.41,6.94.39,11.62,2.46,17.34,3.3,4.4.65,17.12.75,19.78-.9S3923.2,368.69,3918.31,367.93Z"/><path class="cls-1" d="M3806.77,351.6c-1.64-1.39,8.86-2.71,12.07-3.62,5.65-1.61,9.34-3.28,17.08-4.13,5.25-.57,11.31-.4,14.82-1.87,4-1.65-.11-2,.18-3.69.36-2.12,8.76-4.39,13-5.89-3.41-1.31-13.36-.28-16.78.78-2.14.66-1.86,1.69-3.55,2.36-2,.78-5.72,1.48-8.21,2.18-1.87.52-3.92.55-5.48.9-4.8,1.09-7,3.05-12,4.2-1.65.37-15.36,2.6-15.63,1.23-.42-2.17-1.3-4.74-7.54-1.83-2.45,1.15-1.78,1.61-3.06,2.84-.93.89-4.23,1.18-6.15,1.85s-2.4,1.56-5,2.19a60.13,60.13,0,0,1-6.69.59c-2.06.19-6.36.37-7.38-.41-1.44-1.09,1.54-1.94,2.66-2.89,1.68-1.43,1.2-3,2.85-4.41,1.47-1.26,5.76-2.25,9.23-3.15,4.37-1.13,3.76-2.32,7.38-3.54,4.19-1.42,8.71-2.06,10.48-4a16.09,16.09,0,0,0,3-5.27c-8.92-.09-25,2.32-29.36,4.67-5.67,3,1.82,6.88-6.46,9.71a8.58,8.58,0,0,0-4.32,2.57c-1.42,1.36-5.42,2.43-7.59,3.7-2.6,1.53-6.81,4.21-14.12,3.06-1.81-.29-5-1.8-7.23-1.63-3.39.25-.48,1.7-3.2,2-3.35.36-6.53-1.89-8.51-2.37-5.15-1.24-15.2-1.36-21.73-2.3-6.95-1-16.44-2.23-20.93-4.15-7.21-3.07-23-1.38-33.87-1.22-6.6.1-12.16,1-18.39.21-4.26-.52-13.36-2.63-18.45-1-4.56,1.46,8.8,2.52,12.77,3.11,5.4.81,10.34,1.74,16.4,2.09,5.27.31,10.78-.15,16,.18,10.61.68,20.44,2.49,30.48,3.65,4.74.55,8.48,1,13.19,1.24,3.63.18,12.3,0,11.94,1.66-.29,1.31-7.85.62-7,2.27,1,2,11.41,1.3,14.38,2.62,4.8,2.13-12.65,1.41-15.54,1.31-11.69-.41-23.19.19-35-.18-8.06-.26-22.13-1.14-27.61,1.23-4.9,2.11,2.08,4.51,9.64,4.94,6.48.36,14.43-.66,20.75-1,8.16-.45,15.45-.6,23.89-.46,6.7.12,12.6,2.2,19.57,2,4.59-.15,8.6-1.48,12.74-2.39a13.19,13.19,0,0,0,1.35-1c1-1-.12-1.9-.27-2.88a.74.74,0,0,1,.37-.71c0-.7,2.61-1.48,3.77-2,1.78-.77,1.6-1.7,3.22-2.34,2.9-1.16,11.59-.91,15.87-1,3.67-.11,7.37-.19,11.06-.11,2.39.06,5.54.38,7.9.25.83-.05,10.73-2,10.93-1.57.3.68-.82,1.32.13,1.93,3.08,2,8.42-.09,11.64-.52C3795.2,350.91,3801,351.18,3806.77,351.6Z"/><path class="cls-1" d="M3741.74,355.54a40.13,40.13,0,0,1,6.56.22c1.29.12,2.64.11,4,.23,2.38.22,2.62.7,5.27.64,6.52-.14,13-1.64,4.88-2.9a78.11,78.11,0,0,0-18.16-.16c-4.17.43-7.8,1.26-11.58,1.89-2.71.45-5.64.7-6.65,1.45a.3.3,0,0,0,.11.23C3731.57,357.42,3736.59,355.81,3741.74,355.54Z"/><path class="cls-1" d="M3701.5,369.8h-.72c-3.4.39-6.77.75-10,1.07-6,.61-11.86,1.6-17.76,2.05-4.52.35-12.36,0-13.87,1.75-2.06,2.44,9.45,1.17,13.51,1.47,5.33.4,8.53,1.22,14.75.64,4.79-.45,11.29-1.19,15.41-2a75,75,0,0,0,7.31-2.56,2.24,2.24,0,0,0-.68-1.43C3708,369.26,3706.85,369.74,3701.5,369.8Z"/><path class="cls-1" d="M3726,362.94a33.75,33.75,0,0,0,8.86-1.08c1.08-.56,1-1.06-2.38-1.2a29.79,29.79,0,0,0-7.87.84C3723.64,362.18,3723.1,362.84,3726,362.94Z"/><path class="cls-1" d="M3719.67,366.88c-2.39.65-2.29,2.06-.68,2.83,4.23,2,10-1.46,13.31-1.9,4-.54,8.14.15,11.58-.76,2.24-.58,3.62-1.27,6.34-1.76,1.17-.21,2.58-.47,3.52-.72,2.12-.58,3-1.41,5-2a21.89,21.89,0,0,0,6.83-3.57c6.12-4.45-14.77-.66-19.95.21-3.21.53-6.92,1.77-10.79,2.69a27.87,27.87,0,0,1-3.59,1.28c-2.21.68-3.81,1.49-5.68,2.25a17.67,17.67,0,0,1-3.18,1.12c-.78.16-1.82.16-2.52.32Zm15.44-1.38-1.76.19A6.68,6.68,0,0,1,3735.11,365.5Z"/><path class="cls-2" d="M3720.15,367c-1-.55-2.58-1-5.67-1.37a91.92,91.92,0,0,0-14.5-.29c-7.78.4-12.25.79-5,2-3.61,1.77,0,2.47,5.79,2.46,6.61-.77,13.3-1.67,18.85-2.67Z"/><path class="cls-2" d="M3711.88,371.22c.4,0-.42.44-1.71,1,.13,1.12-.37,2.26,1,3.36,2.36,1.92,9.26,2.38,16.38,2,6.17-.33,11.87-2.27,12.24-4.18.4-2.09-7.09-1.69-12.61-2.52a17.81,17.81,0,0,1-2.3-.48c-.26.09-.54.18-.83.26C3720.17,371.68,3717.39,371.64,3711.88,371.22Z"/><path class="cls-1" d="M3774.66,362.89c.5,1.49-3.66,2.54-4,3.94-.3,1.14,1.17,2.21,1.36,3.4.37,2.31.37,4.5,1.45,6.63a27.31,27.31,0,0,0,12.28,2.52c9.18-.68-.49-3.5-1.7-4.87-.57-.64-1.78-2.25-.64-2.87,1.55-.82,7-.79,8.62-1.6,2.92-1.48-2.66-3.09-5.51-4.23C3784.18,364.88,3778.76,361.77,3774.66,362.89Z"/></svg>
