<?xml version="1.0" encoding="utf-8"?>
<!-- Generator: Adobe Illustrator 22.1.0, SVG Export Plug-In . SVG Version: 6.00 Build 0)  -->
<svg version="1.1" xmlns="http://www.w3.org/2000/svg" xmlns:xlink="http://www.w3.org/1999/xlink" x="0px" y="0px"
	 viewBox="0 0 300 250" style="enable-background:new 0 0 300 250;" xml:space="preserve">
<style type="text/css">
	.st0{fill:#FFFFFF;}
</style>
<g id="Layer_1">
</g>
<g id="Layer_2">
	<path d="M111.2,17c-8.7,3.8-16.7,1.3-25.7,2.6c-4.4,0.6-8.2,2.9-12.7,2.6c-3.9-0.3-8.1-1.8-12.1-0.8c-4.3,1-10.7,1.2-14.6,4.4
		c-3.6,3.1-5.3,9.5-8.7,12.2c-6.5,4.9-8.3-0.2-10.7,11.6c-1.2,6.2-2.9,12.3-5,17.8c-1.9,4.9-4.4,8.6-6.1,13.4
		c-1.9,5.4-1.9,11.4-2.3,17.3c-0.8,12-2.9,24.9-3.2,36.9c-0.2,6.4,1,12,0,18.4c-1,7-2.9,11.5,0.1,18.4c1.1,2.5,2.9,3.7,4.1,6
		c2.2,4.4,1.4,2,2.4,8.2c1.3,8.1,2.2,13.5,5.6,19.5c4.4,7.9,6,4.5,11.7,7.3c4.3,2,7.6,7,12.5,8.6c5.4,1.7,10.7,1.5,16,1
		c5.9-0.5,11.1,2.4,16.7,3.3c5.4,0.9,11-0.7,16.4,0.1c5.7,0.9,12,2.9,18.2,3.3c6,0.3,11.9-0.6,17.8-0.9c6.6-0.3,10.4,2.6,16.6,4.4
		c7,2.1,16.3,1.5,23.4,1.6c7,0.1,14.2,0.9,20.8-1.9c7.7-3.2,15.8-0.3,24.1,0.2c5,0.3,11,2.8,15.9,1c3.8-1.4,6.8-6,10.7-7
		c11.5-3,37.6,13.2,40.9-13.5c0.8-6.3,0.6-11.4,2.2-17.4c1.7-6.2,3.7-9.9,3.8-16.9c0.2-9.8-0.8-18.4-0.1-28.4
		c0.6-9.3,0.5-17.1-0.9-25.9c-1.2-7.6-3.2-14.6-3.5-22.8c-0.2-6.3,0.3-12.7,0.1-18.9c0-1.7,0.7-3.5,0.5-5.5
		c-0.5-5.2-3.5-6.4-4.3-9.6c-1.7-6.2,1-13.4-1.8-18.5c-2-3.6-7.5-6.3-9.8-9.8c-0.1-0.2-1.7-3.5-1.8-3.8c-0.7-1.5-2.2-0.8-2.9-2.5
		c-1.1-2.8-0.1-7.1-1.2-9.8c-2.6-6.4-10.7-6.2-15.8-8.3c-5.7-2.3-12.4-1.7-18.3-1.2c-8.5,0.7-14.8-3.5-23-5.7
		c-7.9-2.2-19.4-0.6-27.2,3.3c-6.2,3.1-11.3,2.4-17.8,3.4c-4.4,0.7-8.1,2.3-12.6,1.4c-5.2-1.1-9.8-4.7-15.2-5
		C128.7,10.7,113.6,7.9,111.2,17z"/>
	<path class="st0" d="M69.4,106.5c-1.1-9.3-14.6-12.8-22.5-11.7c-10.3,1.3-12.9,13.9-16,22.5c-2.6,7.5-5.8,21.9-0.8,28.7
		c5.3,7.2,16.5,10.3,24.4,6.7c5.9-2.7,13-7.1,14.5-14c0.4-2.1,1.7-8.4-1.4-9.1c-2.9-0.7-6,5.4-7.2,7.2c-3.8,5.5-10.6,8.9-16.5,3.7
		c-5.5-4.8-4.7-12.1-4.7-19c0-7.1,3.4-20.8,12.3-14c3.8,2.9,5.8,6,11.5,5.4C66.5,112.5,70.3,110.7,69.4,106.5z"/>
	<path class="st0" d="M109.3,134.9c-3.7-4.7-16.4,6-22.4,2.2c0.6-3.3,7-4.5,9.8-6.6c3.5-2.5,7.4-5.7,9.1-9.6
		c3.4-7.5-5.5-13.3-13.2-13.5c-6.3,0.5-15.9,9.4-17.2,15.3c-1.4,6.4,0.2,15.7,3.6,20.8c3.3,5,13.7,6.4,19.9,5
		C102.6,147.7,113.6,140.4,109.3,134.9z M83.6,127.3c0.7-2.4,9.2-18.9,12.6-10.2c1.5,3.9-9.4,12.1-12.6,12V127.3z"/>
	<path class="st0" d="M118.4,111.1c-1.5,6.3-0.8,13.9-1.1,20.3c-0.2,4.2-1.1,10-0.2,14.2c1,4.8,5.1,5.7,6.9,0.8
		c1.7-4.6,0-11.4,0.3-16.4c0.2-4.1,2.1-13,7.6-11.7c3.3,4.6,3,14,2.4,19.8c-0.4,3.9-3.4,17.3,4.9,10.1c7.8-6.8,8.2-25.5,3.7-33.9
		c-2.6-4.8-10.4-11-13.2-2.6C127.5,109,122.4,104.3,118.4,111.1z"/>
	<path class="st0" d="M178.2,112c-4.8-3.8-10.1-10.9-17-7.1c-4,2.2-7.3,8.5-7,13.1c0.6,7.8,6.7,8.7,11.8,12.8
		c3.7,2.9,12.1,12.7,4.4,14.5c-9.5,2.3-9.1-11.3-15.7-10.8c-2.7,4.3-5.7,9.2-2.8,13.7c3,4.6,8.4,5.9,13.9,5.6
		c11.8-0.6,18.3-13.7,11-22.6c-3.1-3.8-11.4-6.8-10.9-12.5C171.6,116.3,178.7,122.2,178.2,112z"/>
	<path class="st0" d="M186.6,111.2c0,9.4,0.5,18.6,0.5,28c0,8.1,1.5,11.9,9.7,14c15.2,4.1,21.9-13.6,21.9-25.8
		c0-5.8-0.1-11-2.8-16.1c-2.9-5.6-9.4-8.4-10.3-0.6c-0.7,6,1.2,12.9-0.4,18.5c-1.4,4.8-7.5,13-10,4c-1.8-6.4,1.7-13.9,0.5-20.3
		C194.6,107.4,185.7,102.3,186.6,111.2z"/>
	<path class="st0" d="M227.7,109.3c0,8.6-0.5,17.1-0.5,25.7c0,5.2-2.1,11.8-1.4,16.7c0.9,5.9,7.5,6,10,1.4
		c2.3-4.3,0.7-10.9,0.9-15.8c0.2-4.2-0.6-11,2.2-14.5c1.1-1.4,3.1-2.4,4.8-2.7c3.5-0.6,2.7,0.2,5.1,2.5c3.1,3.1,13.4,12.3,18.3,8.6
		c3.5-2.7,1.6-10.1-0.5-13.1c-2.9-4-9.2-8.2-14.1-8.8c-6.2-0.8-8.9,2.9-13.9,5.3c0.1-2.8,1-7.3-1.5-8.9
		C234.4,104,230,106,227.7,109.3z"/>
</g>
</svg>
