<?xml version="1.0" encoding="utf-8"?>
<!-- Generator: Adobe Illustrator 22.1.0, SVG Export Plug-In . SVG Version: 6.00 Build 0)  -->
<svg version="1.1" id="Layer_1" xmlns="http://www.w3.org/2000/svg" xmlns:xlink="http://www.w3.org/1999/xlink" x="0px" y="0px"
	 viewBox="0 0 125 115" style="enable-background:new 0 0 125 115;" xml:space="preserve">
<path d="M118.6,54.6c-0.6-4.7-1.8-13-4.3-17.7l-0.2-0.1c-4.3-4.2-4.7-9.9-7.4-14.9c-3.1-5.5-7.6-6.7-13.9-8.1
	c-6.6-1.4-10.3-2.1-15.8-6.2c-4-3-9-4.1-14-4.4c-10.8-0.5-18.3,8-28.6,9.1c-5.7,0.6-11-0.4-13.3,6.4c-2,5.9,3,13,0.9,18.7
	c-2.1,5.7-9.3,4.6-12.7,8.9C6.4,50.1,4.1,58.4,5,63.2c2,11.2,12.7,19.5,18,28.9c2.9,5.1,4.8,8.2,10.2,10.7
	c6.3,2.9,10.5,3.2,17.1,4.1c10.1,1.4,33.9,9.6,41-1.2c2-3.1,1.1-6.9,3-9.9c1.8-2.7,6.8-4.8,9.5-6.4c8.9-5,11.1-5.3,13.3-15.7
	C118.6,67.5,119.5,61.2,118.6,54.6z M99.2,55.3c-0.4,3.3-0.9,6-2.3,8.9c-1.3,2.6-3,4.9-4.4,7.5c-2.7,4.9-5.8,8.8-10.9,11.5
	c-4.5,2.4-9,5.1-13.8,7c-2.2,0.9-5.8,2.2-8.2,2c-2.9-0.3-6.1-2.8-8.5-4.3c-4.4-2.7-4.5-7.5-6.9-11.5c3.3-2.3,7-4.1,10.9-4.9
	c3,8.9,9.2,6.7,13.5,5.3c8.1-2.5,11.9-9.2,15.4-16.4c1.8-3.6,2.1-9.7-1-12.7c-3.8-3.8-8.9-6.6-14.4-6c-3.5,0.4-6.7,1.8-9.9,3.4
	c-1.8,1-4.8,2.3-5.8,4.2c4.4,2.7,9.2,5.6,13.5,8.6c-2.6,0.3-5.2,0.2-7.8,0.8c-1.9,0.4-3.8,1.2-5.8,1.4c-1.6,0.2-3.2,0-4.8,0.2
	C39.7,61.4,31.4,64.7,23,64c2-3.9,5.1-7.2,7.3-10.9c2-3.5,3.9-7.6,5-11.5c0.6-2.1,1-4.2,1.5-6.3c0.2-0.8,0.5-1.7,0.7-2.5
	c0.1-0.8-0.2-1.5,0-2.3c0.6,0.6,1,1.3,1.6,2c0.3,0.4,0.7,0.8,0.9,1.3c0.8,1.4,1.2,3,2,4.5c0.2,0.4,2.7,5.1,2.7,5.1
	c1.6-1.3,2.7-3.4,4.1-4.8c2.2-2.1,4.7-3.9,7.2-5.6c3.2-2.2,6.6-3.6,10.4-4.6c2.3-0.6,5-1.5,7.3-1.8c1.7-0.2,3.2,0.4,4.9,0.8
	c4.3,1.1,8.5,3.2,11.9,6C96.5,38.2,100.1,47.6,99.2,55.3z"/>
</svg>
