<svg id="gulerod_1" xmlns="http://www.w3.org/2000/svg" width="75" height="210" viewBox="0 0 75 210"><defs><style>.cls-1{fill:#08a300;}.cls-2{fill:#ff6700;}.cls-3{fill:#492c0d;}</style></defs><title>gulerod_1</title><path class="cls-1" d="M40.91,85.56a8.92,8.92,0,0,1-5.83,1.18c-1.09-4-1.39-8.4-3.39-12.17-2.41-4.52-6.77-7.53-8.9-12.09C18,52.22,12.92,39.19,4.9,30.81c1.94,3.26,6.14,5.82,8.83,9.09,2.42,3,3.23,6.85,7.67,6.66,3.71-12.17-8.9-27.62-6.2-39.88,6.71,10.41,11.69,23.11,14.69,35.38,2.32-5,1.73-10.83,2.42-16.25a24.07,24.07,0,0,1,1.32,7.92A34.17,34.17,0,0,1,32,21.24c3.33,11.18,3.37,25.06,10,35,.8-1.23,2.63-2.49,3.28-3.93-.37,6.06-1.18,11.88.31,17.9.68-1.53,1.88-2.52,2.51-4.08-.25.61.88,3.45,1,4.29a13.81,13.81,0,0,1-.26,4.11c-.61,3-2.34,5-4,7.5A11.56,11.56,0,0,1,40.91,85.56Z"/><path class="cls-2" d="M57.42,96.06l-2.93,18.06c-1.61,9.89-3.28,20-8.11,28.78-1.13,2.06-2.47,4.15-2.62,6.5s.88,4.54,1.47,6.8c1.06,4.09.69,8.41.2,12.61a254.36,254.36,0,0,1-5.88,32.28c-11-18.28-14.46-40-17.65-61.16Q19,120.61,16.07,101.29a30.35,30.35,0,0,1-.45-9.06c1-6.69,6.56-12,12.84-14.53C44.15,71.43,60.47,77.26,57.42,96.06Z"/><path class="cls-3" d="M57.25,97.1C48.77,89.76,39.31,87.31,31,88.83l0,.14c8.85.45,20.46,4.63,25.93,11.44Z"/><path class="cls-3" d="M17.51,111.56c-.4-1.19,2.16-2.08,2.63-2.48a5.26,5.26,0,0,1,1.83-.94,17.91,17.91,0,0,1,4.8-.63,30.33,30.33,0,0,1,10,1.42l.06-.13a31.48,31.48,0,0,0-9.93-3.08c-.87-.12-1.76-.21-2.65-.25a12.85,12.85,0,0,0-2.82.11,8.34,8.34,0,0,0-3,1c-1,.56-1.25-.08-1.7,1.17Z"/><path class="cls-3" d="M51.65,128.11a24,24,0,0,0-12.77-5.46v.14c4.14,1.52,9.48,6,12.08,9.3Z"/><path class="cls-3" d="M23,147.61c.26-.91,2.86-2.89,4.06-3.46a6.22,6.22,0,0,1,4.3-.4l.09-.13c-1-1.32-2.59-1.16-4.49-1.6s-2.45.86-4.59,1.92Z"/><polygon class="cls-3" points="44.98 171.98 36.09 171.49 36.03 171.63 44.62 175.26 44.98 171.98"/></svg>
