<svg id="gulerod_2" xmlns="http://www.w3.org/2000/svg" width="75" height="210" viewBox="0 0 75 210"><defs><style>.cls-1{fill:#08a300;}.cls-2{fill:#ff6700;}.cls-3{fill:#492c0d;}</style></defs><title>gulerod_2</title><path class="cls-1" d="M53.42,58.16c-1.93,1.51-10.11,4.57-12,6.08C41.11,56.89,47.1,48,46.84,40.66a4,4,0,0,1-3.54,3L47.48,9c.22-1.89-.35-4.62-2.17-4.21a55.83,55.83,0,0,0-6.16,19,89.52,89.52,0,0,0,.4-14.17A35.67,35.67,0,0,0,36.3,22.3,36.48,36.48,0,0,1,33.64,9.43a51,51,0,0,0-4.2,19,23.82,23.82,0,0,1-1-11.78,55.86,55.86,0,0,0-2,15.61c.82.1.31-1.59-.47-1.26s-.93,1.4-.94,2.26c-.06,7.05,5.27,17.41,5.2,24.46-1.46-.53-8.32-4.37-9.78-4.9-1.06,1-.5,2.78.39,3.85s7.59,5.61,7.65,7-7.71-.87-8.19-2.2c-1.87,6,5.14,11.2,8.73,16,1.18,1.59-3.33,4.48-1.91,5.84l5.63,5.39c2.07,2-3.24-.39-.34-.5C41.62,87.94,47.67,62.65,53.42,58.16Z"/><path class="cls-2" d="M55.06,97.06l-2.93,18.06c-1.61,9.89-3.28,20-8.1,28.78-1.14,2.06-2.48,4.15-2.63,6.5s.88,4.54,1.47,6.8c1.07,4.09.69,8.41.2,12.61a256.11,256.11,0,0,1-5.87,32.28c-11.06-18.28-14.47-40-17.66-61.16q-2.91-19.32-5.83-38.64a30,30,0,0,1-.44-9.06c1-6.69,6.55-12,12.83-14.53C41.79,72.43,58.11,78.26,55.06,97.06Z"/><path class="cls-3" d="M54.89,98.1C46.41,90.76,37,88.31,28.67,89.83l0,.14c8.85.45,20.46,4.63,25.93,11.44Z"/><path class="cls-3" d="M15.15,112.56c-.4-1.19,2.16-2.08,2.63-2.48a5.26,5.26,0,0,1,1.83-.94,17.94,17.94,0,0,1,4.81-.63,30.3,30.3,0,0,1,10,1.42l.06-.13a31.4,31.4,0,0,0-9.93-3.08c-.87-.12-1.76-.21-2.65-.25a12.85,12.85,0,0,0-2.82.11,8.34,8.34,0,0,0-2.95,1c-1,.56-1.25-.08-1.7,1.17Z"/><path class="cls-3" d="M49.29,129.11a23.93,23.93,0,0,0-12.77-5.46v.14c4.14,1.52,9.48,6,12.08,9.3Z"/><path class="cls-3" d="M20.63,148.61c.26-.91,2.86-2.89,4.06-3.46a6.22,6.22,0,0,1,4.3-.4l.09-.13c-1-1.32-2.59-1.16-4.49-1.6s-2.45.86-4.59,1.92Z"/><polygon class="cls-3" points="42.62 172.98 33.74 172.49 33.68 172.63 42.26 176.26 42.62 172.98"/></svg>
