<svg id="gulerod_4" xmlns="http://www.w3.org/2000/svg" width="75" height="210" viewBox="0 0 75 210"><defs><style>.cls-1{fill:#08a300;}.cls-2{fill:#ff6700;}.cls-3{fill:#492c0d;}</style></defs><title>gulerod_4</title><path class="cls-1" d="M32.45,88c-1.35-9.36-2.7-17.46-6.4-25.93S24.7,42.33,24,33c.4.55.76,1.11,1.1,1.69,4.24-10.09.66-20.74,4.19-30.77,4.62,18.9,3,38.23,6.61,57,3.27-3.59,6.09-7.48,7-11.79.14,2.7-.48,5.64,0,8.36,1.1-1.34,2.65-2.4,3.59-3.88C45.2,58.92,43.2,63.84,43.33,69c.08,3.08,2.4,6.67,1.66,9.73C44.16,82.17,38.08,90.79,32.45,88Z"/><path class="cls-2" d="M57.08,97.06l-2.93,18.06c-1.61,9.89-3.29,20-8.11,28.78-1.13,2.06-2.47,4.15-2.62,6.5s.87,4.54,1.46,6.8c1.07,4.09.7,8.41.21,12.61a256.14,256.14,0,0,1-5.88,32.28c-11-18.28-14.46-40-17.65-61.16q-2.91-19.32-5.83-38.64a30.35,30.35,0,0,1-.45-9.06c1-6.69,6.56-12,12.84-14.53C43.81,72.43,60.13,78.26,57.08,97.06Z"/><path class="cls-3" d="M56.91,98.1C48.43,90.76,39,88.31,30.69,89.83l0,.14c8.85.45,20.46,4.63,25.93,11.44Z"/><path class="cls-3" d="M17.16,112.56c-.39-1.19,2.17-2.08,2.63-2.48a5.4,5.4,0,0,1,1.84-.94,17.86,17.86,0,0,1,4.8-.63,30.33,30.33,0,0,1,10,1.42l.05-.13a31.34,31.34,0,0,0-9.92-3.08c-.88-.12-1.76-.21-2.65-.25a12.85,12.85,0,0,0-2.82.11,8.34,8.34,0,0,0-3,1c-1,.56-1.26-.08-1.7,1.17Z"/><path class="cls-3" d="M51.31,129.11a24,24,0,0,0-12.77-5.46v.14c4.14,1.52,9.48,6,12.08,9.3Z"/><path class="cls-3" d="M22.65,148.61c.26-.91,2.86-2.89,4.06-3.46a6.21,6.21,0,0,1,4.3-.4l.08-.13c-1-1.32-2.58-1.16-4.48-1.6s-2.45.86-4.59,1.92Z"/><polygon class="cls-3" points="44.63 172.98 35.75 172.49 35.69 172.63 44.27 176.26 44.63 172.98"/></svg>
