<svg id="gulerod_3" xmlns="http://www.w3.org/2000/svg" width="75" height="210" viewBox="0 0 75 210"><defs><style>.cls-1{fill:#08a300;}.cls-2{fill:#ff6700;}.cls-3{fill:#492c0d;}</style></defs><title>gulerod_3</title><path class="cls-1" d="M21.78,86.32c3.61-14.24,7.12-28.23,14.35-41,4.21,1,6.78-1.14,7.49-4.17,3.91,5.84,10-5.92,11.8-8.57C60.84,24.59,65,14.47,71.76,7.38a137.1,137.1,0,0,1-5.68,23.2C62.62,40.77,53,49.09,49.69,58.75c7.57-4.18,13.23-10.46,19.65-15.29C66,52.84,57.38,60.3,50.08,67.7,47.57,70.24,38.21,78.41,49,79.56,41.62,82.62,37.89,83.47,34,89.38a36.5,36.5,0,0,1-11.53-2.44C23.86,85.72,25.32,85.84,21.78,86.32Z"/><path class="cls-2" d="M46.37,100.06l-2.93,18.06c-1.61,9.89-3.29,20-8.11,28.78-1.13,2.06-2.47,4.15-2.62,6.5s.87,4.54,1.46,6.8c1.07,4.09.7,8.41.21,12.61a256.14,256.14,0,0,1-5.88,32.28c-11-18.28-14.46-40-17.65-61.16Q7.94,124.61,5,105.29a30.35,30.35,0,0,1-.45-9.06c1-6.69,6.56-12,12.84-14.53C33.1,75.43,49.42,81.26,46.37,100.06Z"/><path class="cls-3" d="M46.2,101.1C37.72,93.76,28.26,91.31,20,92.83L20,93c8.85.45,20.46,4.63,25.93,11.44Z"/><path class="cls-3" d="M6.45,115.56c-.39-1.19,2.17-2.08,2.63-2.48a5.4,5.4,0,0,1,1.84-.94,17.86,17.86,0,0,1,4.8-.63,30.33,30.33,0,0,1,10,1.42l.05-.13a31.34,31.34,0,0,0-9.92-3.08c-.88-.12-1.76-.21-2.65-.25a12.85,12.85,0,0,0-2.82.11,8.34,8.34,0,0,0-2.95,1c-1,.56-1.26-.08-1.7,1.17Z"/><path class="cls-3" d="M40.6,132.11a24,24,0,0,0-12.77-5.46v.14c4.14,1.52,9.48,6,12.08,9.3Z"/><path class="cls-3" d="M11.94,151.61c.26-.91,2.86-2.89,4.06-3.46a6.21,6.21,0,0,1,4.3-.4l.08-.13c-1-1.32-2.58-1.16-4.48-1.6s-2.45.86-4.59,1.92Z"/><polygon class="cls-3" points="33.92 175.98 25.04 175.49 24.98 175.63 33.56 179.26 33.92 175.98"/></svg>
