<svg id="gulerod_5" xmlns="http://www.w3.org/2000/svg" width="75" height="210" viewBox="0 0 75 210"><defs><style>.cls-1{fill:#08a300;}.cls-2{fill:#ff6700;}.cls-3{fill:#492c0d;}</style></defs><title>gulerod_5</title><path class="cls-1" d="M52.75,42.67a27.92,27.92,0,0,1-2.63,6.75c-.66-6.14,1.21-13.6-1.15-19.07-1,2.63-1.85,5.37-5,6.65C42,26.37,41,15.46,39.76,4.7c-1.51,15.7-2.93,31.51-5.32,47.05-1.83,11.85,1.66,22.48-.55,33.71,6.59,8.09,17.37-12.73,16.47-15.58-1.09,0-1.87-.21-2.9-.25C46.67,62.9,50,55.35,53.34,47.86,53.06,46.15,52.89,44.41,52.75,42.67Z"/><path class="cls-1" d="M58.73,32.73c-.84,4.82-3.1,10-5.39,15.13.09.58.2,1.15.31,1.71C56.37,44.5,59.24,38.07,58.73,32.73Z"/><path class="cls-2" d="M57.83,99,54.9,117c-1.61,9.89-3.28,20-8.1,28.77-1.14,2.07-2.48,4.15-2.63,6.51s.88,4.54,1.47,6.79c1.07,4.1.69,8.42.2,12.62A256.11,256.11,0,0,1,40,204c-11.06-18.28-14.47-40-17.65-61.16q-2.92-19.32-5.84-38.64A30.39,30.39,0,0,1,16,95.13c1-6.68,6.55-12,12.83-14.52C44.57,74.34,60.88,80.17,57.83,99Z"/><path class="cls-3" d="M57.66,100c-8.48-7.33-17.94-9.78-26.22-8.26l0,.14c8.85.45,20.46,4.62,25.93,11.44Z"/><path class="cls-3" d="M17.92,114.46c-.4-1.18,2.16-2.08,2.63-2.48a5.62,5.62,0,0,1,1.83-.94,18.78,18.78,0,0,1,4.81-.63,30.58,30.58,0,0,1,10,1.43l.06-.13a31.42,31.42,0,0,0-9.93-3.09c-.87-.12-1.76-.2-2.65-.24a12.74,12.74,0,0,0-2.81.11,8.13,8.13,0,0,0-3,1c-1,.55-1.25-.08-1.7,1.16Z"/><path class="cls-3" d="M52.06,131a23.93,23.93,0,0,0-12.77-5.46v.13c4.14,1.53,9.48,6,12.08,9.31Z"/><path class="cls-3" d="M23.4,150.52c.26-.91,2.87-2.89,4.06-3.47a6.16,6.16,0,0,1,4.3-.39l.09-.13c-1-1.33-2.59-1.16-4.49-1.6s-2.45.85-4.59,1.92Z"/><polygon class="cls-3" points="45.39 174.88 36.51 174.39 36.45 174.54 45.03 178.17 45.39 174.88"/></svg>
