<svg id="gulerod_7" xmlns="http://www.w3.org/2000/svg" width="75" height="210" viewBox="0 0 75 210"><defs><style>.cls-1{fill:#08a300;}.cls-2{fill:#ff6700;}.cls-3{fill:#492c0d;}</style></defs><title>gulerod_7</title><path class="cls-1" d="M30,83.94c4.23-.7,7.91,2.2,12.24,1.15-.7-13,11-27.55,9.58-43.07-2.06,3.29-4.75,3.49-6.21,7.43,0-8.89-.5-17.83-.82-26.72-.07.91-.1,2.07-.15,2.84-.49-1.62-1.76-3.28-2.3-5.07A15.44,15.44,0,0,0,40.52,30c-.23-6.73-.44-13.46-.67-20.2a79.91,79.91,0,0,0-4,19.77C35.34,27.86,34,26,33.16,24.22c.39,9.34,2.63,19,2,27.88A21.58,21.58,0,0,0,29.41,46c1.4,5,4.29,8.68,4.24,14-1.39-1.2-3.48-1.69-4.76-4C27.05,63.91,31.89,74.44,30,83.94Z"/><path class="cls-2" d="M56.72,93,53.79,111c-1.6,9.89-3.28,20-8.1,28.77-1.14,2.07-2.48,4.15-2.63,6.51s.88,4.54,1.47,6.79c1.07,4.1.69,8.42.2,12.62A256.11,256.11,0,0,1,38.86,198c-11.06-18.28-14.47-40-17.65-61.16q-2.92-19.32-5.84-38.64a30.39,30.39,0,0,1-.44-9.07c1-6.68,6.55-12,12.83-14.52C43.46,68.34,59.77,74.17,56.72,93Z"/><path class="cls-3" d="M56.55,94c-8.48-7.33-17.94-9.78-26.22-8.26l0,.14c8.85.45,20.46,4.62,25.93,11.44Z"/><path class="cls-3" d="M16.81,108.46c-.4-1.18,2.16-2.08,2.63-2.48a5.62,5.62,0,0,1,1.83-.94,18.78,18.78,0,0,1,4.81-.63,30.54,30.54,0,0,1,10,1.43l.06-.13a31.42,31.42,0,0,0-9.93-3.09c-.87-.12-1.76-.2-2.65-.24a12.74,12.74,0,0,0-2.81.11,8.13,8.13,0,0,0-3,1c-1,.55-1.25-.08-1.7,1.16Z"/><path class="cls-3" d="M51,125a23.93,23.93,0,0,0-12.77-5.46v.13c4.14,1.53,9.48,6,12.08,9.31Z"/><path class="cls-3" d="M22.29,144.52c.26-.91,2.87-2.89,4.06-3.47a6.16,6.16,0,0,1,4.3-.39l.09-.13c-1-1.33-2.59-1.16-4.49-1.6s-2.45.85-4.59,1.92Z"/><polygon class="cls-3" points="44.28 168.88 35.4 168.39 35.34 168.54 43.92 172.17 44.28 168.88"/></svg>
