<svg id="gulerod_6" xmlns="http://www.w3.org/2000/svg" width="75" height="210" viewBox="0 0 75 210"><defs><style>.cls-1{fill:#08a300;}.cls-2{fill:#ff6700;}.cls-3{fill:#492c0d;}</style></defs><title>gulerod_6</title><path class="cls-1" d="M45,70.39C50.81,59.32,63.83,48,65,35.83c-2.7,2.9-5.89,6.58-10.21,8.32,5-12,2.48-26.85,2.75-39.55-4.23,8.68-4.54,19.76-8.3,28.22-3.23,7.26-5,13.9-9.82,20.44a52,52,0,0,0-4.61-16.2c-6.27,4-5.36,21.79-7,28.53-.34,1.41-.64,2.84-.93,4.29a13.67,13.67,0,0,0-.5,1.44,21.47,21.47,0,0,0-.65,4.93c-.76,4.48-1.47,9-2.49,13.23a19.42,19.42,0,0,0,2.76.28.06.06,0,0,0,0,0l0,0c14.76.35,20.57-19,27.28-27.68C49.45,64.06,47.05,67.15,45,70.39Z"/><path class="cls-2" d="M50.83,101,47.9,119c-1.61,9.89-3.28,20-8.1,28.77-1.14,2.07-2.48,4.15-2.63,6.51s.88,4.54,1.47,6.79c1.07,4.1.69,8.42.2,12.62A256.11,256.11,0,0,1,33,206c-11.06-18.28-14.47-40-17.66-61.16Q12.4,125.52,9.48,106.2A30.39,30.39,0,0,1,9,97.13c1-6.68,6.55-12,12.83-14.52C37.56,76.34,53.88,82.17,50.83,101Z"/><path class="cls-3" d="M50.66,102c-8.48-7.33-17.94-9.78-26.22-8.26l0,.14c8.85.45,20.46,4.62,25.93,11.44Z"/><path class="cls-3" d="M10.92,116.46c-.4-1.18,2.16-2.08,2.63-2.48a5.62,5.62,0,0,1,1.83-.94,18.78,18.78,0,0,1,4.81-.63,30.58,30.58,0,0,1,10,1.43l.06-.13a31.42,31.42,0,0,0-9.93-3.09c-.87-.12-1.76-.2-2.65-.24a12.85,12.85,0,0,0-2.82.11,8.14,8.14,0,0,0-2.95,1c-1,.55-1.25-.08-1.7,1.16Z"/><path class="cls-3" d="M45.06,133a23.93,23.93,0,0,0-12.77-5.46v.13c4.14,1.53,9.48,6,12.08,9.31Z"/><path class="cls-3" d="M16.4,152.52c.26-.91,2.86-2.89,4.06-3.47a6.16,6.16,0,0,1,4.3-.39l.09-.13c-1-1.33-2.59-1.16-4.49-1.6s-2.45.85-4.59,1.92Z"/><polygon class="cls-3" points="38.39 176.88 29.51 176.39 29.45 176.54 38.03 180.17 38.39 176.88"/></svg>
