<?xml version="1.0" encoding="utf-8"?>
<!-- Generator: Adobe Illustrator 22.1.0, SVG Export Plug-In . SVG Version: 6.00 Build 0)  -->
<svg version="1.1" id="Layer_1" xmlns="http://www.w3.org/2000/svg" xmlns:xlink="http://www.w3.org/1999/xlink" x="0px" y="0px"
	 viewBox="0 0 300 75" style="enable-background:new 0 0 300 75;" xml:space="preserve">
<style type="text/css">
	.st0{fill:#633922;}
</style>
<g>
	<path class="st0" d="M49.8,4.4v17L40.4,34h0.7c6.1,0,9.2,5.5,9.2,16.4c0,8.2-0.9,13.9-2.8,17.1c-1.8,3.2-5.1,4.7-9.9,4.7
		c-8.6,0-12.9-6.1-12.9-18.4c0-3.2,0.2-6.4,0.5-9.6h8.3v1c0,5.4,1.1,8.2,3.4,8.2c2.2,0,3.3-2.3,3.3-7c0-4.9-1.1-7.3-3.2-7.2
		c-0.8,0.1-1.6,0.7-2.2,1.8l-4.3-3.5l12.2-16h-9.1v6.3H26V4.4H49.8z"/>
</g>
<g>
	<path class="st0" d="M124.8,45.7v25.3H99.7v-7.1c0-11.8,3.1-20.7,9.4-26.6c4.4-4.1,6.6-7.7,6.6-10.6c0-3.4-1-5.1-3-5.1
		c-2.1,0-3.2,1.8-3.2,5.5c0,1.1,0.1,2.5,0.4,4.3h-8.3c-0.3-4.3-0.5-7.8-0.5-10.5c0-11.7,4-17.5,12.1-17.5c8.1,0,12.1,6.3,12.1,18.8
		c0,8.9-2.8,15.3-8.3,19.4c-5,3.6-7.7,7.8-8.2,12.4h7.6v-8.2H124.8z"/>
</g>
<g>
	<path class="st0" d="M192.7,4.4v48.8h3.8v17.8h-16.6V53.3h3.5V24.6h-3.5v-15c4.1,0,6.8-1.7,8.1-5.1H192.7z"/>
</g>
<g>
	<path class="st0" d="M275.2,21.8v30.9c0,13-4.1,19.5-12.3,19.5c-5.2,0-8.7-1.3-10.5-3.9c-1.7-2.6-2.6-7.8-2.6-15.6V24.1
		c0-13.8,4.3-20.8,13-20.8C271.1,3.3,275.2,9.5,275.2,21.8z M259.2,29v16.7v2.1l0.1,2.3c0.3,2.1,1.3,3.1,3.1,3.1
		c2.3,0,3.5-2.7,3.5-8.1V29l0-2.7c0-3.5-1.1-5.3-3.3-5.3C260.3,21,259.2,23.7,259.2,29z"/>
</g>
</svg>
