<svg id="Layer_1" data-name="Layer 1" xmlns="http://www.w3.org/2000/svg" width="75" height="25" viewBox="0 0 75 25"><defs><style>.cls-1{fill:#aa5b26;}</style></defs><title>jord</title><path class="cls-1" d="M75,11.4c-1.12-.84-2.32-1.6-3.39-2.44-2.2-1.72-3.6-1.85-6.29-2.49-1.47-.35-1.85-.56-3.23.13-.83.41-1.63,1.48-2.35,1.81-1.23.56-2.53-.08-4-.53-.92-.29-2.56-1.21-2.62.51-1.34.52-2.09,1.38-3.52.95S48,7.53,47.08,6.43,41.9,3,41.57,5.83c-1.62,0-2.69.34-4.06-.24a22.69,22.69,0,0,0-3.35-1.44,10.86,10.86,0,0,1-3.49-1.36c-.75-.49-1.8-1.55-2.67-1.72-1.93-.38-3.15.94-4.6,1.7-1.09.58-2.19.52-3.28,1.39-1.64,1.31-2.44,1.22-4.8,1-.81-.06-2.89-1.06-3.62-.65-1.09.62-.53,1.87-2,2.35-1.78.57-1.51-.07-2.45,1.7-1.27,2.38-4,2.36-6,3.56a5.69,5.69,0,0,0-1.19,1V25H75Z"/></svg>
