<?xml version="1.0" encoding="utf-8"?>
<!-- Generator: Adobe Illustrator 22.1.0, SVG Export Plug-In . SVG Version: 6.00 Build 0)  -->
<svg version="1.1" id="Layer_1" xmlns="http://www.w3.org/2000/svg" xmlns:xlink="http://www.w3.org/1999/xlink" x="0px" y="0px"
	 width="620px" height="177px" viewBox="0 0 620 177" style="enable-background:new 0 0 620 177;" xml:space="preserve">
<style type="text/css">
	.st0{opacity:0.4;fill:#ADADAD;}
</style>
<path class="st0" d="M621.5-1H436.91c-17.33,9.42-30.53,22.54-47.44,33.24c-24.61,15.57-58.03,2.01-80.66,19.5
	c-15.18,11.74-13.47,29.28-36.13,33.64c-25.02,4.81-45.88-1.51-70.14,10.26c-24.33,11.8-39.73,30.11-67.48,31.27
	c-23.75,0.99-47.69-2.6-71.88-2.31c-16.87,0.2-29.65,5.5-43.68,14.52c-7.18,4.62-21.36,18.62-16.27,29.64
	c3.72,8.04,14.66,5.74,22.28,6.91c9.14-10.27,12.46-27.6,25.77-32.47c18.13-6.63,38.42,5.63,55.88,9.54
	c18.93,4.24,47.12,3.37,63.38-7.75c23.27-15.91,34.13-31.45,65.52-35.48c26.17-3.36,51.96,6.61,78.55,6.96
	c25.62,0.33,34.03-13.28,51.73-28.53c16.68-14.37,42.92-25.14,65.38-21.67c25.43,3.93,47.56,19.34,75.27,12.86
	c23.63-5.53,43.25-17.22,68.55-17.22c9.11,0,21.02-2.09,29.58,0.97c6.17,2.2,11.33,6.44,16.36,10.87V-1z"/>
</svg>
