<?xml version="1.0" encoding="utf-8"?>
<!-- Generator: Adobe Illustrator 22.1.0, SVG Export Plug-In . SVG Version: 6.00 Build 0)  -->
<svg version="1.1" xmlns="http://www.w3.org/2000/svg" xmlns:xlink="http://www.w3.org/1999/xlink" x="0px" y="0px" width="620px"
	 height="177px" viewBox="0 0 620 177" style="enable-background:new 0 0 620 177;" xml:space="preserve">
<style type="text/css">
	.st0{opacity:0.4;fill:#ADADAD;}
</style>
<g id="Layer_1">
</g>
<g id="Layer_2">
	<path class="st0" d="M24,173c-2.54,6.6-18.41,2.98-21.2-1.45c-3.77-5.98,2.75-23.03,5.37-29.07c4.45-10.26,12.26-21.85,21.54-28.72
		c4.61-3.41,10.21-6.28,15.3-8.77c5.95-2.91,11.33-2.8,17.89-3.84c13.4-2.11,28.34-1.5,40.29,5.32c8.73,4.98,20.09,15.07,30.78,11.2
		c12.74-4.62,15.5-19.49,21.39-29.96c4.98-8.85,13.27-13.86,21.55-19.6c14.74-10.23,31.71-8.99,48.99-3.78
		c16.7,5.04,28.93,16.37,43.16,25.9c12.03,8.06,23.95,17.48,39.23,16.12c14.02-1.24,22.02-13.94,30.21-24.04
		c12.1-14.93,20.38-32.05,35.24-44.62c20.48-17.32,44.3-27.16,70.32-15.61c19.27,8.56,43.13,24.68,64.32,10.29
		c14.65-9.94,20.82-27.36,31.37-40.68c6.26-7.91,13.98-12.74,22.56-17.6c7.68-4.34,13.98-10.43,21.86-14.39
		c7.3-3.67,15.24-3.94,22.44-0.5c24.88,11.88,37.66,38.18,51.7,59.97c3.93,6.09,16.97,19.74,17.76,26.15
		c0.93,7.52-8.19,24.32-12.96,30.93c-10.48,14.5-26.97,26.94-42.34,35.79c-20.88,12.03-45.7,25.36-69.96,29.56
		c-19.28,3.33-47.12-0.84-62.94-13.36c-11.84-9.38-19.16-24.03-30.36-34.23c-13.72-12.5-36.29-24.66-54.59-12.92
		c-23.27,14.94-29,47.21-53.95,61.11c-23.15,12.89-51.16,8.82-74.69-0.35c-9.29-3.62-17.91-8.99-23.24-17.53
		c-6.03-9.67-10.13-19.53-19.19-26.93c-16.78-13.71-39.42-11.99-51.83,6.24c-9.22,13.56-7.1,30.78-17.22,44.7
		c-10.12,13.93-28.5,19.82-43.31,7.38c-13.09-11-20.23-31.65-39.2-34.71c-13.99-2.26-34.75,9.89-41.98,21.35
		C30.16,155.31,31,151,26,167C25.17,169.65,24.88,170.72,24,173z"/>
</g>
</svg>
