<svg id="Layer_1" data-name="Layer 1" xmlns="http://www.w3.org/2000/svg" width="330.63" height="108.01" viewBox="0 0 330.63 108.01"><title>start_knap</title><path d="M123.37,69.34c-.59-5.25-1.28-11.06-3.61-15.78-.75-1.52-1.71-2.93-2.59-4.38-2.89-4.72-4-11-7.54-15.1-3.08-3.53-7.72-4.59-12.11-5.54-6.62-1.44-10.3-2.13-15.82-6.16-4-2.95-9-4.15-14-4.37-10.79-.49-18.32,8-28.6,9.06-5.7.59-11-.4-13.32,6.42-2,5.88,3,13,.88,18.72s-9.24,4.51-12.64,8.87C11.13,64.85,8.9,73.17,9.77,78c2,11.16,12.65,19.46,18,28.86,2.88,5,4.78,8.2,10.18,10.71,6.25,2.9,10.48,3.24,17.14,4.14,10.06,1.35,33.92,9.58,41-1.18,2-3.11,1.11-6.9,3-9.87,1.76-2.72,6.8-4.85,9.53-6.39,8.93-5,11.12-5.33,13.32-15.66,1.3-6.08,2.18-12.26,1.48-18.47ZM77.5,83.45c-5,1.12-10.47,1.87-15.12,4.09-4.3,2.06-7.84,5.7-12.5,7.7-2.76-3.14-.37-11.71-.67-15.91-.72-10.18-.83-20.2-.63-30.31C56,53.63,67.05,57.41,76.4,61.83,86,66.39,94.89,72.05,104.65,75.94,95.69,78.68,86.82,81.34,77.5,83.45Z" transform="translate(-9.58 -17.99)"/><path d="M183.44,84.39A18.74,18.74,0,0,1,172.11,102a31,31,0,0,1-13.19,2.6q-9.13,0-15.08-3.56A20.34,20.34,0,0,1,137,94.18a15.8,15.8,0,0,1-2.63-8.32,5.63,5.63,0,0,1,1.57-4,5.3,5.3,0,0,1,4-1.67,4.68,4.68,0,0,1,3.35,1.3,10.22,10.22,0,0,1,2.33,3.86,26.35,26.35,0,0,0,2.55,5.08,10.39,10.39,0,0,0,3.86,3.37,13.88,13.88,0,0,0,6.52,1.32,14.43,14.43,0,0,0,9-2.67,8.1,8.1,0,0,0,3.48-6.66,7.18,7.18,0,0,0-1.88-5.15,12,12,0,0,0-4.84-3q-3-1-7.94-2.21a56.38,56.38,0,0,1-11.14-3.76,18.1,18.1,0,0,1-7.12-5.86,15.53,15.53,0,0,1-2.64-9.23,16.2,16.2,0,0,1,2.78-9.33,17.59,17.59,0,0,1,8.05-6.28,32.1,32.1,0,0,1,12.38-2.19,29.83,29.83,0,0,1,9.84,1.45,20.69,20.69,0,0,1,6.89,3.87,16.12,16.12,0,0,1,4,5.06,12,12,0,0,1,1.26,5.16,6.23,6.23,0,0,1-1.58,4.15,5,5,0,0,1-3.94,1.85A4.42,4.42,0,0,1,172,59.18a14.81,14.81,0,0,1-2.42-3.63,16.46,16.46,0,0,0-4-5.62q-2.36-2-7.58-2a12.84,12.84,0,0,0-7.81,2.19,6.43,6.43,0,0,0-3,5.28,5.43,5.43,0,0,0,1,3.3,8.54,8.54,0,0,0,2.78,2.39,18.34,18.34,0,0,0,3.58,1.56q1.81.57,6,1.65a93.45,93.45,0,0,1,9.46,2.78,28.24,28.24,0,0,1,7.2,3.69,15.05,15.05,0,0,1,4.63,5.5A18,18,0,0,1,183.44,84.39Z" transform="translate(-9.58 -17.99)"/><path d="M193.88,57.42h1.27V50.3c0-1.91,0-3.41.14-4.5a7,7,0,0,1,.82-2.8,5.24,5.24,0,0,1,1.94-2,5.35,5.35,0,0,1,2.82-.76,5.59,5.59,0,0,1,4,1.69,5,5,0,0,1,1.5,2.76,25.75,25.75,0,0,1,.32,4.62v8.08h4.21a5.32,5.32,0,0,1,3.73,1.19,4,4,0,0,1,1.28,3.07A3.45,3.45,0,0,1,214,65a11.54,11.54,0,0,1-5.25,1h-2.14v21.8a38.28,38.28,0,0,0,.18,4.27,4.42,4.42,0,0,0,1,2.43,3.34,3.34,0,0,0,2.67.94,14.43,14.43,0,0,0,2.74-.37,13.52,13.52,0,0,1,2.69-.37,3.4,3.4,0,0,1,2.51,1.15,4,4,0,0,1,1.12,2.84q0,2.88-3,4.39c-2,1-4.92,1.52-8.72,1.52q-5.38,0-8.17-1.87A8.61,8.61,0,0,1,196,97.55a35.93,35.93,0,0,1-.86-8.82V66h-1.52a5.36,5.36,0,0,1-3.79-1.22,4,4,0,0,1-1.31-3.08,3.9,3.9,0,0,1,1.37-3.07A5.91,5.91,0,0,1,193.88,57.42Z" transform="translate(-9.58 -17.99)"/><path d="M252.85,97.89a35.38,35.38,0,0,1-8.06,5,22.07,22.07,0,0,1-8.74,1.67,16.22,16.22,0,0,1-7.78-1.8,13,13,0,0,1-7-11.57,12.21,12.21,0,0,1,3-8.3,14.85,14.85,0,0,1,8.22-4.6q1.1-.27,5.43-1.17t7.44-1.68c2.06-.5,4.3-1.12,6.71-1.84q-.21-4.7-1.83-6.88t-6.72-2.2A13.64,13.64,0,0,0,237,65.8a10.86,10.86,0,0,0-3.79,3.78,39.66,39.66,0,0,1-2.23,3.32c-.44.54-1.37.8-2.8.8a4.79,4.79,0,0,1-3.35-1.28,4.21,4.21,0,0,1-1.41-3.27,10.14,10.14,0,0,1,2.15-6.08,15.41,15.41,0,0,1,6.69-4.87,29.46,29.46,0,0,1,11.33-1.91q7.59,0,11.92,1.85A11.16,11.16,0,0,1,261.59,64a26.09,26.09,0,0,1,1.79,10.59c0,2.78,0,5.14,0,7.08s0,4.1-.06,6.47a24.68,24.68,0,0,0,1.07,7,22.59,22.59,0,0,1,1.08,4.67,4.41,4.41,0,0,1-1.67,3.32,5.47,5.47,0,0,1-3.77,1.5,5,5,0,0,1-3.49-1.71A25.28,25.28,0,0,1,252.85,97.89Zm-.76-17.15a55.68,55.68,0,0,1-7.35,2c-3.21.71-5.44,1.23-6.67,1.56a9.06,9.06,0,0,0-3.54,2,5.09,5.09,0,0,0-1.69,4.06,6.1,6.1,0,0,0,2,4.58A7.2,7.2,0,0,0,240,96.81a13.22,13.22,0,0,0,6.29-1.54,10.12,10.12,0,0,0,4.24-4q1.54-2.69,1.55-8.86Z" transform="translate(-9.58 -17.99)"/><path d="M286.47,87.47v9.9a7.77,7.77,0,0,1-1.65,5.41,5.38,5.38,0,0,1-4.17,1.8,5.2,5.2,0,0,1-4.08-1.82,7.94,7.94,0,0,1-1.6-5.39v-33q0-8,5.6-8a4.62,4.62,0,0,1,4.13,1.87,10.59,10.59,0,0,1,1.39,5.51,20.37,20.37,0,0,1,4.23-5.51,8.56,8.56,0,0,1,5.79-1.87,14.38,14.38,0,0,1,7,1.87q3.42,1.86,3.42,5a4.79,4.79,0,0,1-1.46,3.58A4.44,4.44,0,0,1,302,68.19a14.33,14.33,0,0,1-3.06-.8,13.69,13.69,0,0,0-4.27-.81A6.14,6.14,0,0,0,290.51,68,8.81,8.81,0,0,0,288,72a29.47,29.47,0,0,0-1.22,6.41Q286.47,82.13,286.47,87.47Z" transform="translate(-9.58 -17.99)"/><path d="M314.52,57.42h1.26V50.3q0-2.86.15-4.5a6.82,6.82,0,0,1,.82-2.8,5.24,5.24,0,0,1,1.94-2,5.32,5.32,0,0,1,2.82-.76,5.59,5.59,0,0,1,4,1.69A5,5,0,0,1,327,44.72a24.85,24.85,0,0,1,.32,4.62v8.08h4.21a5.32,5.32,0,0,1,3.73,1.19,4,4,0,0,1,1.29,3.07A3.45,3.45,0,0,1,334.67,65a11.52,11.52,0,0,1-5.24,1h-2.15v21.8a35.56,35.56,0,0,0,.19,4.27,4.41,4.41,0,0,0,1,2.43,3.38,3.38,0,0,0,2.68.94,14.35,14.35,0,0,0,2.73-.37,13.51,13.51,0,0,1,2.7-.37,3.42,3.42,0,0,1,2.51,1.15,4,4,0,0,1,1.11,2.84,4.75,4.75,0,0,1-3,4.39q-3,1.51-8.72,1.52c-3.59,0-6.32-.62-8.17-1.87a8.61,8.61,0,0,1-3.64-5.16,35.86,35.86,0,0,1-.87-8.82V66h-1.51a5.39,5.39,0,0,1-3.8-1.22,4,4,0,0,1-1.3-3.08,3.87,3.87,0,0,1,1.37-3.07A5.91,5.91,0,0,1,314.52,57.42Z" transform="translate(-9.58 -17.99)"/></svg>
