<?xml version="1.0" encoding="utf-8"?>
<!-- Generator: Adobe Illustrator 22.1.0, SVG Export Plug-In . SVG Version: 6.00 Build 0)  -->
<svg version="1.1" id="Layer_1" xmlns="http://www.w3.org/2000/svg" xmlns:xlink="http://www.w3.org/1999/xlink" x="0px" y="0px"
	 viewBox="0 0 330.6 108" style="enable-background:new 0 0 330.6 108;" xml:space="preserve">
<style type="text/css">
	.st0{fill:#FFFFFF;}
</style>
<title>start_knap</title>
<path class="st0" d="M113.8,51.3c-0.6-5.3-1.3-11.1-3.6-15.8c-0.8-1.5-1.7-2.9-2.6-4.4c-2.9-4.7-4-11-7.5-15.1
	c-3.1-3.5-7.7-4.6-12.1-5.5c-6.6-1.4-10.3-2.1-15.8-6.2c-4-3-9-4.1-14-4.4C47.3-0.5,39.8,8,29.5,9.1c-5.7,0.6-11-0.4-13.3,6.4
	c-2,5.9,3,13,0.9,18.7s-9.2,4.5-12.6,8.9C1.6,46.9-0.7,55.2,0.2,60c2,11.2,12.6,19.5,18,28.9c2.9,5,4.8,8.2,10.2,10.7
	c6.3,2.9,10.5,3.2,17.1,4.1c10.1,1.3,33.9,9.6,41-1.2c2-3.1,1.1-6.9,3-9.9c1.8-2.7,6.8-4.8,9.5-6.4c8.9-5,11.1-5.3,13.3-15.7
	c1.3-6.1,2.2-12.3,1.5-18.5L113.8,51.3z M67.9,65.5c-5,1.1-10.5,1.9-15.1,4.1c-4.3,2.1-7.8,5.7-12.5,7.7c-2.8-3.1-0.4-11.7-0.7-15.9
	C38.9,51.2,38.8,41.1,39,31c7.4,4.6,18.5,8.4,27.8,12.8c9.6,4.6,18.5,10.2,28.3,14.1C86.1,60.7,77.2,63.3,67.9,65.5z"/>
<path class="st0" d="M173.9,66.4C174,74,169.5,81,162.5,84c-4.2,1.8-8.7,2.7-13.2,2.6c-6.1,0-11.1-1.2-15.1-3.6
	c-2.8-1.7-5.1-4.1-6.8-6.9c-1.6-2.5-2.6-5.4-2.6-8.3c0-1.5,0.5-2.9,1.6-4c1-1.1,2.5-1.7,4-1.7c1.2,0,2.5,0.4,3.4,1.3
	c1.1,1.1,1.9,2.4,2.3,3.9c0.7,1.8,1.5,3.5,2.6,5.1c1,1.4,2.3,2.6,3.9,3.4c2,1,4.3,1.4,6.5,1.3c3.2,0.1,6.4-0.8,9-2.7
	c2.2-1.5,3.5-4,3.5-6.7c0.1-1.9-0.6-3.7-1.9-5.2c-1.3-1.4-3-2.4-4.8-3c-2-0.7-4.6-1.4-7.9-2.2c-3.8-0.9-7.6-2.1-11.1-3.8
	c-2.8-1.3-5.3-3.3-7.1-5.9c-1.8-2.7-2.8-6-2.6-9.2c-0.1-3.3,0.9-6.6,2.8-9.3c2-2.8,4.8-5,8.1-6.3c3.9-1.5,8.1-2.3,12.4-2.2
	c3.3-0.1,6.7,0.4,9.8,1.5c2.5,0.8,4.9,2.1,6.9,3.9c1.7,1.4,3,3.1,4,5.1c0.8,1.6,1.2,3.4,1.3,5.2c0,1.5-0.6,3-1.6,4.2
	c-1,1.2-2.4,1.9-3.9,1.8c-1.2,0-2.3-0.4-3.2-1.1c-1-1.1-1.8-2.3-2.4-3.6c-0.9-2.1-2.3-4.1-4-5.6c-1.6-1.3-4.1-2-7.6-2
	c-2.8-0.1-5.5,0.6-7.8,2.2c-1.8,1.1-2.9,3.1-3,5.3c0,1.2,0.3,2.3,1,3.3c0.7,1,1.7,1.8,2.8,2.4c1.1,0.6,2.3,1.2,3.6,1.6
	c1.2,0.4,3.2,0.9,6,1.7c3.2,0.8,6.4,1.7,9.5,2.8c2.6,0.9,5,2.1,7.2,3.7c2,1.4,3.6,3.3,4.6,5.5C173.4,60.8,174,63.6,173.9,66.4z"/>
<path class="st0" d="M184.3,39.4h1.3v-7.1c0-1.9,0-3.4,0.1-4.5c0.1-1,0.4-1.9,0.8-2.8c0.5-0.8,1.1-1.5,1.9-2
	c0.9-0.5,1.8-0.8,2.8-0.8c1.5,0,2.9,0.6,4,1.7c0.8,0.7,1.3,1.7,1.5,2.8c0.2,1.5,0.4,3.1,0.3,4.6v8.1h4.2c1.3-0.1,2.7,0.3,3.7,1.2
	c0.9,0.8,1.3,1.9,1.3,3.1c0.1,1.4-0.7,2.7-1.9,3.4c-1.6,0.7-3.4,1.1-5.3,1H197v21.8c0,1.4,0,2.9,0.2,4.3c0.1,0.9,0.4,1.7,1,2.4
	c0.7,0.7,1.7,1,2.7,0.9c0.9,0,1.8-0.2,2.7-0.4c0.9-0.2,1.8-0.3,2.7-0.4c1,0,1.9,0.4,2.5,1.2c0.7,0.8,1.1,1.8,1.1,2.8
	c0,1.9-1,3.4-3,4.4c-2,1-4.9,1.5-8.7,1.5c-3.6,0-6.3-0.6-8.2-1.9c-1.8-1.2-3.1-3.1-3.6-5.2c-0.6-2.9-0.9-5.9-0.9-8.8V48H184
	c-1.4,0.1-2.7-0.3-3.8-1.2c-0.9-0.8-1.3-1.9-1.3-3.1c0-1.2,0.5-2.3,1.4-3.1C181.4,39.8,182.9,39.3,184.3,39.4z"/>
<path class="st0" d="M243.3,79.9c-2.5,2-5.2,3.7-8.1,5c-2.8,1.1-5.7,1.7-8.7,1.7c-2.7,0.1-5.4-0.6-7.8-1.8c-4.3-2.2-7-6.7-7-11.6
	c-0.1-3,1-6,3-8.3c2.2-2.4,5.1-4,8.2-4.6c0.7-0.2,2.5-0.6,5.4-1.2s5.4-1.2,7.4-1.7c2.1-0.5,4.3-1.1,6.7-1.8
	c-0.1-3.1-0.8-5.4-1.8-6.9c-1.1-1.5-3.3-2.2-6.7-2.2c-2.2-0.1-4.5,0.3-6.5,1.3c-1.6,0.9-2.9,2.2-3.8,3.8c-0.7,1.1-1.4,2.3-2.2,3.3
	c-0.4,0.5-1.4,0.8-2.8,0.8c-1.2,0-2.4-0.4-3.4-1.3c-0.9-0.8-1.4-2-1.4-3.3c0-2.2,0.8-4.3,2.1-6.1c1.7-2.2,4.1-3.9,6.7-4.9
	c3.6-1.4,7.5-2,11.3-1.9c5.1,0,9,0.6,11.9,1.8c2.7,1.1,4.9,3.2,6.1,5.9c1.3,3.4,1.9,7,1.8,10.6c0,2.8,0,5.1,0,7.1s0,4.1-0.1,6.5
	c0,2.4,0.4,4.7,1.1,7c0.5,1.5,0.9,3.1,1.1,4.7c0,1.3-0.7,2.5-1.7,3.3c-1,1-2.4,1.5-3.8,1.5c-1.3-0.1-2.6-0.7-3.5-1.7
	C245.5,83.4,244.3,81.7,243.3,79.9z M242.5,62.8c-2.4,0.8-4.9,1.5-7.4,2c-3.2,0.7-5.4,1.2-6.7,1.6c-1.3,0.4-2.5,1.1-3.5,2
	c-1.1,1-1.8,2.5-1.7,4.1c0,1.7,0.7,3.4,2,4.6c1.4,1.3,3.3,2,5.2,1.9c2.2,0,4.4-0.5,6.3-1.5c1.8-0.9,3.2-2.3,4.2-4
	c1-1.8,1.5-4.7,1.6-8.9L242.5,62.8z"/>
<path class="st0" d="M276.9,69.5v9.9c0.1,1.9-0.4,3.9-1.6,5.4c-1.1,1.2-2.6,1.8-4.2,1.8c-1.6,0-3.1-0.6-4.1-1.8
	c-1.2-1.5-1.7-3.5-1.6-5.4v-33c0-5.3,1.9-8,5.6-8c1.6-0.1,3.2,0.6,4.1,1.9c1,1.7,1.4,3.6,1.4,5.5c1.1-2.1,2.5-3.9,4.2-5.5
	c1.6-1.3,3.7-2,5.8-1.9c2.5,0,4.9,0.7,7,1.9c2.3,1.2,3.4,2.9,3.4,5c0,1.3-0.5,2.6-1.5,3.6c-0.8,0.8-1.9,1.3-3.1,1.4
	c-1-0.2-2.1-0.4-3.1-0.8c-1.4-0.5-2.8-0.8-4.3-0.8c-1.5-0.1-3,0.4-4.2,1.4c-1.2,1.1-2.1,2.5-2.5,4c-0.6,2.1-1.1,4.2-1.2,6.4
	C277,62.9,276.9,65.9,276.9,69.5z"/>
<path class="st0" d="M304.9,39.4h1.3v-7.1c0-1.9,0-3.4,0.1-4.5c0.1-1,0.3-1.9,0.8-2.8c0.5-0.8,1.1-1.5,1.9-2
	c0.9-0.5,1.8-0.8,2.8-0.8c1.5,0,2.9,0.6,4,1.7c0.8,0.7,1.3,1.7,1.5,2.8c0.3,1.5,0.4,3.1,0.3,4.6v8.1h4.2c1.3-0.1,2.7,0.3,3.7,1.2
	c0.9,0.8,1.3,1.9,1.3,3.1c0.1,1.4-0.6,2.7-1.9,3.3c-1.6,0.7-3.4,1.1-5.2,1h-2.1v21.8c0,1.4,0,2.9,0.2,4.3c0.1,0.9,0.4,1.7,1,2.4
	c0.7,0.7,1.7,1,2.7,0.9c0.9,0,1.8-0.2,2.7-0.4c0.9-0.2,1.8-0.3,2.7-0.4c1,0,1.9,0.4,2.5,1.2c0.7,0.8,1.1,1.8,1.1,2.8
	c0,1.9-1.2,3.7-3,4.4c-2,1-4.9,1.5-8.7,1.5c-3.6,0-6.3-0.6-8.2-1.9c-1.8-1.2-3.1-3-3.6-5.2c-0.7-2.9-0.9-5.9-0.9-8.8V48h-1.5
	c-1.4,0.1-2.7-0.3-3.8-1.2c-0.9-0.8-1.3-1.9-1.3-3.1c0-1.2,0.5-2.3,1.4-3.1C302.1,39.8,303.5,39.3,304.9,39.4z"/>
</svg>
