<svg id="Layer_1" data-name="Layer 1" xmlns="http://www.w3.org/2000/svg" width="1110" height="750" viewBox="0 0 1110 750"><defs><style>.cls-1{fill:#c6a279;}.cls-2{fill:#42210b;}.cls-3{fill:#b3b3b3;}.cls-4{fill:gray;}.cls-5{fill:none;stroke:gray;stroke-miterlimit:10;}.cls-6{fill:#174c27;}.cls-7{fill:#798439;}.cls-8{fill:#999;}.cls-9{fill:#16a319;}.cls-10{fill:#ff6700;}.cls-11{fill:#492c0d;}</style></defs><title>start_skilt</title><path class="cls-1" d="M4.8,52.6q164.66,3.6,329.28,6.84,218.84,4.32,437.65,7.82c56.86.85,113.72,1.66,170.55,2,18.43.12,63.74-2.24,82.18-.63,12.87,1.12,36.28-3.49,44.83,8.44,6.71,9.36,7.84,23.25,10.36,34.18,4,17.41-33.06,19.28-46.56,21.27,8.84,2.36,40.76,3.26,47.15,9.92,4.12,4.28,4.72,15.68,4.51,21.84-.16,4.5-2.19,7.37-1.3,12s7,7.78,5.33,13.12c-2.76,8.83-23.64,7.31-30.78,7.84,7.87.83,21.36,2.31,27.8,6-1.66,7.42,1.61,20.18-3,25.73,15.8,8.38-7.49,15.91-14.8,17.1-24.91,4.05-84.91,5.88-110.39,5.9,24.86-.21,51.81-.48,76.38,3.18,9.07,1.35,26,3.26,33.66,7,.21,5,10.12,8.5,13.08,12.41,2.42,3.2,9.61,4.08,10.06,8.9.6,6.46-23,15.35-28.29,12.71,6.89,3.42,14.43,4.77,21.93,7.08,11.08,3.42,12.34,3.81,9,14.6-4.06,13.2-.22,20.56-.47,33.93-11.56,4.9-45.51,7.43-53.61,14,8.55.52,28.08.4,36.31,1.21s17.34,5.53,25.39,4.83c-4.64,14.44-2.43,24.52-3.55,38.13-.35,4.33-3.75,7.8-4.76,13-.71,3.7-.86,5.52,3,7.44-2.28,4.54-7.34,8.42-7.81,13.61-.09,1.09,3,6.29,3.24,8.91.19,2.18-3.25,4-2.94,5.75s2.49,4.55,2.59,5.27c1,7.74,1.55,6.07-7.64,8.71-6.76,1.94-33.63,3.81-40.37,5.8-15,4.45-30,9.08-45.2,13.07-25.21,6.64-57.1,16-82.89,7.1,29.36,10,61.16,10,91.81,9.68,15.57-.17,42-.63,57.53-.23,8.38.22,32.64.51,24.81,16.92,8.75,1.57,4.28,6.93,2.72,12.12-2.8,9.3-3.82,7,2,16.23.93,1.48.45,4.91,1.24,5.87.94,1.15,6.72,3.24,6.91,4,1,3.75-3.12,12.66-5.67,16-9.3,12.07-27.75,8.25-37.77,16.83,12,3.17,25.23.68,37.44,3.9,0,1.19.36,2.68.26,3.88a18.93,18.93,0,0,1,10,6.23c-3,3.12-1.84,6.65-4.15,9.45-2.7,3.28-7,5.34-9.91,8.36,3.62,5.47,4.57,52.28,6,52.48-9.43-1.32-14.09,7.4-23.65,6.18,13.07,5,20-3.18,25.32,11.11,12.84,34.38-17.85,23.84-40.08,25-37.2,1.9-85.28,2-122.51,1.33-74.31-1.37-148.56-5.73-222.91-5-107.27,1-214.54,3.1-321.36,8.41-80.18,4-159.49,18.66-240,19.19-13.31.09-45.42.25-58.56-2.26-6.37-1.22-13.1-2-16.59-7.6-2.35-3.77-.61-8.23-2.24-11.87-1.73-3.87-8.64-7.65-9.31-9.55-4.83-13.76,2.7-25-1.41-40,5.34-3.7,10.91-5.32,16.42-7.73C68.14,662.32,70.21,663,67.62,651.2c-3.9-17.77-.84-34.35-3.08-52.33,8.08-4,15.76-3.28,25-3.87l.24,0c7.81-.55,8-12,.27-12.94-13.93-1.69-30.42-1.42-37.44-2.94,1.94-2.69,1.29-3.07,4.95-4.19.79-5.13-.86-9.9-.63-15,.08-1.79,2-4.12,1.83-5.91-.33-4.12-3.8-7.08-4.07-10.47C54,535.38,59,529,57.58,519.84c-2.27-14.21,4.22-21.58,7.25-35.73,12.14,2,36.27,6,45.62-2.94C96.26,476.75,83.27,470,69.23,465.29c-13.78-4.58-18-3.57-18.52-17.93-.55-16,13.78-31.87,10.09-47.37-1.89-7.95-7.6-15.29-7.62-23.14,9.78.49,22.24,1.54,31.86-.75-6.66-3.17-13.59-4.87-20.21-8.07,8.73-11.79,32.13-8,43.78-16.78C98.52,343,82,341.73,69.72,338.3c-6.27-1.76-24.56-5.71-26.81-11.33s2.36-19.86,2.59-26c.28-7.35.14-15.5.7-22.82,12.62-1.35,25.24-1.37,37.37-5.9-7-2.84-16.92-2.23-22.47-8.21-5.35-5.76-8-20-9-27.28,24.63,1,53.52,2.31,77.9-1-15.63-4.42-30.19-8.8-46.27-11.65-17-3-28-3.52-35.37-20.44C35.47,174.29,43.67,113,43.67,113c0,6.19,38.66-4,60.06-1.5,25.53,3,52,1.52,77.62-.67-10.32-7.21-41.43-7.64-53.27-9.09C104.52,98.86,80.81,96.66,57.71,91c-10.05-2.48-23.38-3.92-32.3-9C14.2,75.64,8.25,62.32,4.11,50.7"/><path class="cls-2" d="M730.25,372.46v45.11h10.21v78.18L714,372.46h-39v45.11h8.79v84.12h-8.79v47.17h35.67V501.69H700.53V409.55l29.72,139.31h27V417.57h8.66V372.46Zm-138,0v45.11h8.53v84.12h-8.53v47.17h72.62V476h-22.1v25.72H625.45V467.32H647v-18.1H625.45V417.57h17.31V443h20.42V372.46Zm-62.82,45.11c1.57-.09,2.7-.14,3.4-.14q16.26,0,16.25,17.45,0,15.25-16.77,15.25h-2.88Zm49.4,65.51v2.84q0,17.44-5.37,17.45c-2.54,0-3.93-2.46-4.19-7.36l-.53-9.7-.66-12.14q-.92-12.93-18.74-15.9c1.31-.26,2.32-.47,3-.65q20.83-4.9,20.83-38.63,0-27.8-7.46-37.16t-29.62-9.37H495.47v45.11h8.91v84.12h-8.91v47.17h43.38V501.69h-9.43V467.57c1.22-.08,2-.12,2.35-.12q15.47,0,15.47,15.89l-.13,11.76L547,506.73q0,43.42,19.26,43.42,20.18,0,20.18-41.74,0-10.47-1.44-25.33ZM411.6,372.46v45.11h8.65v84.12H411.6v47.17h73.65V476H462.84v25.72H445.28V467.32h21.89v-18.1H445.28V417.57h17.56V443h20.71V372.46Zm-38.78,0v9.05q-3.94-11.88-18.09-11.89-15.74,0-21.36,14.48t-5.64,55V489q0,37.86,5.51,50.27t22.41,12.4q15.19,0,21.75-15.64c.17-.43.44-1.07.79-1.93l5,14.73h12.05V477.14h9.7V451.55H363.38v25.59h8.25V483q0,17.58-8,17.58-10,0-10-36.83,0-45.61,10.49-45.62,7.84,0,7.86,10.34l-.4,14.6h23.59V372.46ZM240.72,459.3,253,410.84V459.3Zm5.5-86.84L211.1,501.69h-8.52v47.17h36.17V501.69h-8.12l6.68-24.3H253v24.3H242.68v47.17h73.91V474.94h-22.4v26.75H275.44V467.32h22.28V449.87H275.44v-32.3h18.75v25.32h22.4V372.46Zm-85.08,0v45.11h9.43v66l-.13,9q0,9.17-6.46,9.17t-6.59-14.6a147,147,0,0,1,1.17-17.45H136.07a236.56,236.56,0,0,0-2.46,35.93q0,46,32.57,46,28.95,0,28.94-34.63l.27-13.05-.14-18V417.57h8.66V372.46Z"/><path class="cls-2" d="M205.54,182.6v45.1h8.14L193,260.26V227.7h6.08V182.6H159.8v45.1h8.52v84.12H159.8V359h39.28V311.82H193V289.08l6.08-12.41,13.31,35.15h-6.85V359h38.25V311.82h-7.11l-21.45-56.34,16.54-27.78h9.43V182.6Zm81.28,33,7.11,54.28H279.46Zm-12.4-33L256.84,311.82H248.7V359h35.67V311.82h-9.95l2.84-23.9h19.13l2.71,23.9h-9.18V359H332.7V311.82h-7.63L307,182.6Zm120.69,0v45.1h10.21v78.18L378.83,182.6h-39v45.1h8.78v84.12h-8.78V359h35.66V311.82H365.39V219.69L395.11,359h27V227.7h8.65V182.6Zm44.46,0v45.1h8.79v84.12h-8.79V359h42.77V311.82H473V227.7h9.3V182.6Zm108.29,0v45.1h10.21v78.18L531.58,182.6h-39v45.1h8.79v84.12h-8.79V359h35.67V311.82H518.13V219.69L547.86,359h27V227.7h8.66V182.6Zm44.45,0v45.1h8.53v84.12h-8.53V359h72.63V286.11h-22.1v25.71H625.52V277.45H647.1V259.36H625.52V227.7h17.32v25.45h20.42V182.6Zm138,0v45.1h10.21v78.18L714.05,182.6H675v45.1h8.79v84.12H675V359h35.66V311.82H700.61V219.69L730.33,359h27V227.7H766V182.6Z"/><path d="M821.62,239.05q0-19.41,16.34-19.42,17.26,0,17.27,20.05,0,20.34-22.82,37.31-10.8-25.9-10.79-37.94m-2.77,239.29q-41,0-41-70.61,0-37.94,26.83-62.6l44.1,119.64q-12,13.58-29.91,13.57M905.18,266.5v67.22h13.57q-9.24,50.26-30.22,83.57l-40.7-106.08Q908,267.13,908,209.76q0-74.31-67.22-74.31-71.85,0-71.85,88.5,0,25,9.87,52.42L788,301.65a38.42,38.42,0,0,0-3.7,2.78l-6.17,3.7q-57,34.53-57,129.82,0,132,85.41,132,35.15,0,65.06-42.87l13.26,36.08h89.74V536.62q-37.94-9.24-65.07-73.08l4.63-8.94a411.16,411.16,0,0,0,41.62-120.88h18.82V266.5Z"/><path class="cls-3" d="M942.42,52c5.38-4,12.69-2.78,16.21,1.18,1.21,7.73,9.44,27-6.43,27-8,0-10.48-24.78-6.68-28.79"/><rect class="cls-4" x="787.07" y="221.43" width="372.49" height="24.27" transform="translate(1008.85 -766.76) rotate(78.54)"/><path class="cls-2" d="M982.3,397.37s-35.52-157.53-33.68-166.16,10.11-10.3,10.11-10.3L994,395Z"/><path class="cls-2" d="M1017.72,576.46c-23.21,4.7-44.53,4.2-66.69,3,.93-11.68,3.91-24,5.83-35.69,2.35-14.38,2.71-29,5.71-43.28,6.41-30.65,7.91-61.84,14.43-92,.82-3.8.75-13.42,4.37-16.81,4.55-4.26,9.89-.4,13.47,1.42,11.95,6.07,17.72,15.27,19.91,26.24,5.4,27.13,6.14,55.1,10.11,82.49,2.63,18.09,4.5,37.07,5.79,55.34.32,4.45,1.38,8.31-2.93,12.27C1024.93,572,1020.44,574.6,1017.72,576.46Z"/><path class="cls-4" d="M979.67,395l-7.47-36.88,3.44-.7,12.41-2.52,7.48,36.89Z"/><rect class="cls-4" x="942.28" y="258.84" width="37.64" height="18.29" transform="translate(1032.78 -727.2) rotate(78.54)"/><path class="cls-4" d="M957.84,380.26a18.83,18.83,0,0,1,14.7-22.18l.88,4.34a14.39,14.39,0,1,0,5.72,28.2L980,395A18.83,18.83,0,0,1,957.84,380.26Z"/><path class="cls-5" d="M974.83,384.76a23,23,0,0,1-10-2.05l.8-1.64c6.29,3.07,14.18,1.43,14.26,1.41l.38,1.78A28.45,28.45,0,0,1,974.83,384.76Z"/><path class="cls-4" d="M979.93,373.48a24.77,24.77,0,0,1-10.74-2.22l.43-.9c7.09,3.45,15.94,1.61,16,1.6l.21,1A29.73,29.73,0,0,1,979.93,373.48Z"/><path class="cls-6" d="M978.21,540.68c11.72,1.26,21.32-.07,28.82,9.77,8.62,11.31,9.65,26.44,9.69,40.44,0,14.39-1.86,41.47-16.6,45.75-15,4.34-28.82,3.41-44.42,3.41-13.63,0-28.61,4.55-38.22-7.25-6.48-8-3.93-25.85-4.39-35.72-.59-12.67-1.94-27.88,0-40.46,2.9-19.14,17.4-9.8,30.35-16.65,5.59-3,7.31-13.89,3.13-20.67-1.94,0-5.42.7-6.65-.81s-.32-11.46,0-12.74c1.71-6.88,10.1-5,15.88-5,7.46,0,26.66-3.43,29.86,5.17,2.23,6-.68,15.3-7.07,15.09C978.68,522.56,978,535.86,978.21,540.68Z"/><rect class="cls-7" x="929.78" y="562.77" width="64.11" height="56.21" transform="translate(1923.66 1181.74) rotate(180)"/><path d="M970.24,571.89v9.54H968.6l-4.3,7.72,4.72,8.2h1.68v10h-9v-10h2l-3-5-3.18,5h2.09v10h-7.85v-10h1.64l4.57-8.2-4.57-7.72h-1.64v-9.54h8.94v9.54h-2.1l3.14,4.71,2.55-4.71h-1.92v-9.54Z"/><path d="M985.89,582.08v4.06h-.69l-1.83,3.29,2,3.49h.72v4.27h-3.81v-4.27h.85l-1.29-2.14-1.36,2.14h.89v4.27H978v-4.27h.7l1.95-3.49-1.95-3.29H978v-4.06h3.81v4.06h-.9l1.34,2,1.09-2h-.82v-4.06Z"/><path d="M944.14,582.08v4.06h-.7l-1.83,3.29,2,3.49h.71v4.27h-3.8v-4.27h.84l-1.29-2.14-1.35,2.14h.89v4.27h-3.35v-4.27h.7l1.95-3.49L937,586.14h-.7v-4.06h3.81v4.06h-.89l1.34,2,1.08-2h-.82v-4.06Z"/><rect x="981.82" y="593.17" width="1.46" height="15.71" rx="0.5" ry="0.5" transform="translate(1583.58 -381.53) rotate(90)"/><rect x="939.62" y="593.17" width="1.46" height="15.71" rx="0.5" ry="0.5" transform="translate(1541.38 -339.32) rotate(90)"/><path d="M245.41,583.59c-10.19-2.6-13.81,13.16-8.44,19.69,6.8,8.28,27.39,11.72,37.45,12,5.61.13,12.92,1,18.33-.09,1.62-.33,3.53-2.29,5-2.59,4.88-1,22.14,1.24,25.07-1.95,5.42-5.92-3.69-18.44-8.45-21.91C297.08,576.06,266.61,579.46,245.41,583.59Z"/><path class="cls-8" d="M242.86,580c1-11.88,13.28-31,20.16-41,12.4-18,18.66-3.68,28.88,10.43,3.8,5.24,9.19,11.67,12.08,17.51,1.84,3.73.75,8.09,2.83,11.58,2.53,4.27,13.36,11.37,12.75,16.88-1.5,13.56-37.19,13.9-46.08,12.26C258.56,604.9,228.28,595.27,242.86,580Z"/><path class="cls-4" d="M297.12,583.21c-6.31-1.94-12.49-5.43-13.68-12.38-1.11-6.53,2.55-13.25-.74-19.62-2.38-4.6-8.28-7.93-10.53-12.71a17.37,17.37,0,0,1-1.58-7.1c-2.29,1.14-4.77,3.54-7.57,7.6-6.88,10-19.17,29.13-20.16,41-14.58,15.26,15.7,24.89,30.62,27.65,6.21,1.15,25.47,1.32,37-3.29C302.26,600.6,300.38,592.94,297.12,583.21Z"/><path class="cls-9" d="M339.78,146.31c3.46-3.15,11.85-17.58,15.31-20.73-13.75-2.86-32.41,5.55-46.16,2.69a7.61,7.61,0,0,0,6.8-5.69l-66.67-3.3c-3.63-.18-8.57-2.14-7.23-5.42a106.6,106.6,0,0,1,37.78-5.49,171.78,171.78,0,0,1-26.8-3.81,68.12,68.12,0,0,1,24.95-2,69.85,69.85,0,0,0-23.37-9.14,97.54,97.54,0,0,1,37.18-1.79,45.52,45.52,0,0,0-21.86-5.66,107.35,107.35,0,0,1,30,1.29c-.07,1.59-3.1.09-2.22-1.28s2.94-1.3,4.56-1c13.3,2.15,31.1,15.52,44.39,17.66-.53-2.92-5.56-17.06-6.09-20,2.2-1.68,5.4,0,7.14,2s8.11,16.1,10.8,16.68.84-14.79-1.51-16.12c11.86-1.6,19.44,13.27,27.33,21.57,2.6,2.74,9.49-4.81,11.59-1.7l8.35,12.32c3.07,4.54.31-6.23-.82-.8C399.64,133.66,350.09,136.93,339.78,146.31Z"/><path class="cls-10" d="M410.65,160.94l34.86.29c19.08.16,38.59.25,56.62-6,4.25-1.47,8.59-3.31,13.06-2.84s8.24,3.1,12.29,4.93c7.34,3.32,15.57,4,23.61,4.43a486.38,486.38,0,0,0,62.5-.68c-30.78-26.61-70.52-40-109.17-52.75L433.75,85c-5.5-1.81-11.09-3.65-16.88-3.75C404,81,392.2,89.69,385.48,100.68,368.67,128.14,374.38,160.64,410.65,160.94Z"/><path class="cls-11" d="M412.66,161c-11.05-18.27-12.62-36.83-7.11-51.88l.25.12c-2,16.76,2.13,39.89,13.16,52.36Z"/><path class="cls-11" d="M452.56,91c-2.11-1.13-4.61,3.39-5.5,4.14a10.63,10.63,0,0,0-2.36,3.14,34.75,34.75,0,0,0-2.72,8.82,58.31,58.31,0,0,0-.54,19.25l-.25.06a59.41,59.41,0,0,1-2.61-19.63c.05-1.68.18-3.37.38-5.05a25.48,25.48,0,0,1,1.11-5.26,16.06,16.06,0,0,1,2.79-5.23c1.36-1.67.26-2.38,2.74-2.81Z"/><path class="cls-11" d="M472.68,160.4c-4.83-8.67-6.87-17.91-6.15-25.73l.25.05c1.54,8.27,8.2,19.73,13.59,25.67Z"/><path class="cls-11" d="M518.49,112.84c-1.79.2-6.35,4.45-7.81,6.52a11.76,11.76,0,0,0-2.12,7.93l-.27.13c-2.16-2.31-1.35-5.23-1.56-8.94s2.38-4.32,5.08-8Z"/><polygon class="cls-11" points="557.18 161.93 559.11 145.1 559.4 145.04 563.47 162.31 557.18 161.93"/></svg>
