<svg id="Layer_1" data-name="Layer 1" xmlns="http://www.w3.org/2000/svg" width="58.8" height="55.59" viewBox="0 0 58.8 55.59"><defs><style>.cls-1{fill:#707a5c;}.cls-2{fill:#999;}.cls-3{fill:#5b5b5b;}</style></defs><title>sten</title><path class="cls-1" d="M19.67,44.33c-6.66-1.69-9,8.6-5.52,12.87C18.59,62.6,32,64.85,38.61,65c3.66.08,8.44.67,12-.06,1.06-.21,2.31-1.49,3.29-1.69,3.19-.64,14.46.81,16.37-1.28,3.55-3.86-2.4-12-5.51-14.3C53.41,39.42,33.51,41.64,19.67,44.33Z" transform="translate(-12.54 -9.71)"/><path class="cls-2" d="M18,42c.64-7.76,8.67-20.25,13.17-26.78C39.26,3.47,43.35,12.82,50,22c2.48,3.42,6,7.62,7.88,11.43,1.21,2.44.5,5.28,1.85,7.57,1.66,2.79,8.73,7.42,8.33,11-1,8.86-24.28,9.08-30.09,8C28.25,58.25,8.48,52,18,42Z" transform="translate(-12.54 -9.71)"/><path class="cls-3" d="M53.44,44.09c-4.13-1.27-8.16-3.55-8.94-8.09-.72-4.26,1.67-8.65-.48-12.81-1.55-3-5.41-5.18-6.88-8.3a11.48,11.48,0,0,1-1-4.64c-1.49.75-3.12,2.32-4.94,5C26.67,21.75,18.64,34.24,18,42,8.48,52,28.25,58.25,38,60.06c4,.75,16.63.86,24.19-2.15C56.79,55.44,55.57,50.44,53.44,44.09Z" transform="translate(-12.54 -9.71)"/></svg>
