<?xml version="1.0" encoding="utf-8"?>
<!-- Generator: Adobe Illustrator 22.1.0, SVG Export Plug-In . SVG Version: 6.00 Build 0)  -->
<svg version="1.1" id="Layer_1" xmlns="http://www.w3.org/2000/svg" xmlns:xlink="http://www.w3.org/1999/xlink" x="0px" y="0px"
	 viewBox="0 0 125 115" style="enable-background:new 0 0 125 115;" xml:space="preserve">
<style type="text/css">
	.st0{fill:#FFFFFF;}
</style>
<title>taktikvalg_knap_a</title>
<path class="st0" d="M118.6,54.6c-0.6-4.7-1.8-13-4.3-17.7l-0.2-0.1c-4.3-4.2-4.7-9.9-7.4-14.9c-3.1-5.5-7.6-6.7-13.9-8.1
	c-6.6-1.4-10.3-2.1-15.8-6.2c-4-3-9-4.1-14-4.4c-10.8-0.5-18.3,8-28.6,9.1c-5.7,0.6-11-0.4-13.3,6.4c-2,5.9,3,13,0.9,18.7
	S12.7,42,9.3,46.3C6.4,50.1,4.1,58.4,5,63.2c2,11.2,12.7,19.5,18,28.9c2.9,5.1,4.8,8.2,10.2,10.7c6.3,2.9,10.5,3.2,17.1,4.1
	c10.1,1.4,33.9,9.6,41-1.2c2-3.1,1.1-6.9,3-9.9c1.8-2.7,6.8-4.8,9.5-6.4c8.9-5,11.1-5.3,13.3-15.7C118.6,67.5,119.5,61.2,118.6,54.6
	z M88.6,78c-0.2,2.7-3,7.1-5.6,8c-8.2,2.7-10.2-11.8-13.5-16.5c-5.4,0.5-16.7,3.3-20.4,6.9c-2.1,2.1-2.9,6.5-5,8.9
	c-1.8,2.1-6.5,5.1-9.3,2.1C31.3,83.8,37.6,73.8,39,70c2.4-6.4,5.1-14,7.5-20.9c1.3-3.8,2.8-7.2,4.1-11.1c1.6-4.9,2.2-11.9,5.4-16
	c-0.6-1.3,4.7-6.9,9.5-4.4c3.1,1.6,4.1,4.5,5.6,7.4c6.9,13,4.7,29.3,11.2,42.5C84.4,71.5,89,73,88.6,78z"/>
<path class="st0" d="M52,62c5.4,0.7,12.6-3.5,16.6-6.5c-4.3-5.5-4.6-14-4.7-20.9c-4.5-0.5-6,11.7-6.7,14.8
	C56.3,52.5,51.2,60.4,52,62z"/>
</svg>
