<?xml version="1.0" encoding="utf-8"?>
<!-- Generator: Adobe Illustrator 22.1.0, SVG Export Plug-In . SVG Version: 6.00 Build 0)  -->
<svg version="1.1" id="Layer_2_1_" xmlns="http://www.w3.org/2000/svg" xmlns:xlink="http://www.w3.org/1999/xlink" x="0px" y="0px"
	 viewBox="0 0 125 115" style="enable-background:new 0 0 125 115;" xml:space="preserve">
<title>taktikvalg_knap_b</title>
<g>
	<path d="M58.6,50.5c2.2-0.1,3.6-2.2,5.3-3.3c1.5-0.9,3.2-1.5,4.9-1.8c3.1-0.6,7.3-0.5,8.9-3.8c5.2-10.4-9.2-12.8-14.7-12.3
		c-3.1,0.3-11-0.8-12.5,2c3.1,3.4,4.1,7.8,4.8,12.2C55.9,46.1,54.6,50.7,58.6,50.5z"/>
	<path d="M75.4,68.8c-2.6-2.4-5.4-4.6-8.4-6.6c-2.8-1.7-9.9-5-9.2,1.4c0.1,2.5,0,5.1-0.3,7.6c-0.5,2.5-2.3,4.6-2.7,7.2
		c-0.8,5.4,8.6,2.4,11.2,2c3.8-0.6,8.4-0.1,11.1-3.2C80.4,73.3,78.8,71.6,75.4,68.8z"/>
	<path d="M118.6,54.6c-0.6-4.7-1.8-12.9-4.3-17.7l-0.2-0.1c-4.3-4.2-4.7-9.9-7.4-14.9c-3.1-5.5-7.6-6.7-13.9-8.1
		c-6.6-1.4-10.3-2.1-15.8-6.2c-4-2.9-9-4.1-14-4.4c-10.8-0.5-18.3,8-28.6,9.1c-5.7,0.6-11-0.4-13.3,6.4c-2,5.9,3,13,0.9,18.7
		s-9.2,4.5-12.6,8.9c-3,3.8-5.3,12.1-4.4,16.9c2,11.2,12.7,19.5,18,28.9c2.9,5,4.8,8.2,10.2,10.7c6.3,2.9,10.5,3.2,17.1,4.1
		c10.1,1.4,33.9,9.6,41-1.2c2-3.1,1.1-6.9,3-9.9c1.8-2.7,6.8-4.9,9.5-6.4c8.9-5,11.1-5.3,13.3-15.7
		C118.6,67.4,119.5,61.2,118.6,54.6z M90.7,75.7c-4,9.2-12.6,12.6-21.8,14.2c-5.4,0.9-25.2,4.3-27.6-3.5c-0.8-2.5,4-7.8,4.8-10.7
		c1-3.7,0.7-8,0.7-12c0-7.4-0.7-14.8-3-21.8c-1-3.2-2.4-6.3-4.1-9.3c-0.7-1.1-1.3-2-1.8-2.9c-1.2-2.1-1.1-3.4,2.7-5
		c4.5-2,9.2-3.4,14.1-4.1c9.4-1.3,20-0.5,28,5c7.3,5,8.1,9.6,5.6,18c-2.5,8.1-5.6,10.5-14,10.8C79.5,64.1,97.4,60.1,90.7,75.7z"/>
</g>
</svg>
