<svg id="Layer_2" data-name="Layer 2" xmlns="http://www.w3.org/2000/svg" width="114.15" height="108.02" viewBox="0 0 114.15 108.02"><defs><style>.cls-1{fill:#fff;}</style></defs><title>taktikvalg_knap_b_hover</title><path class="cls-1" d="M58.64,50.48c2.22-.09,3.63-2.21,5.33-3.32A12.74,12.74,0,0,1,68.9,45.4c3.12-.58,7.28-.54,8.94-3.83,5.24-10.39-9.23-12.83-14.65-12.25-3.14.34-11-.84-12.52,2,3.11,3.36,4.09,7.82,4.81,12.2C55.91,46.1,54.63,50.67,58.64,50.48Z" transform="translate(-4.81 -3.21)"/><path class="cls-1" d="M75.4,68.8a79.37,79.37,0,0,0-8.35-6.6c-2.84-1.74-9.94-5-9.22,1.41a38.18,38.18,0,0,1-.32,7.63c-.54,2.5-2.34,4.59-2.72,7.16-.81,5.41,8.63,2.44,11.16,2,3.85-.6,8.44-.13,11.08-3.19C80.4,73.3,78.77,71.64,75.4,68.8Z" transform="translate(-4.81 -3.21)"/><path class="cls-1" d="M118.6,54.56c-.65-4.72-1.77-12.94-4.35-17.71l-.19-.09c-4.27-4.18-4.66-9.89-7.43-14.9-3.07-5.53-7.59-6.73-13.87-8.1-6.62-1.43-10.3-2.12-15.82-6.16-4-2.95-9-4.15-13.95-4.37-10.79-.49-18.32,8-28.6,9.07-5.7.58-11-.41-13.32,6.42-2,5.87,3,13,.88,18.71s-9.24,4.51-12.64,8.88C6.37,50.08,4.14,58.4,5,63.23,7,74.39,17.66,82.69,23,92.09c2.88,5,4.78,8.21,10.18,10.72,6.25,2.89,10.48,3.24,17.14,4.13,10.06,1.36,33.92,9.59,41-1.18,2-3.11,1.11-6.89,3-9.87,1.76-2.72,6.8-4.85,9.53-6.39,8.92-5,11.12-5.33,13.32-15.66C118.58,67.44,119.51,61.23,118.6,54.56ZM90.69,75.67c-4,9.15-12.6,12.61-21.81,14.15-5.41.91-25.15,4.27-27.58-3.5-.79-2.51,4-7.8,4.75-10.65,1-3.69.66-8,.66-12,0-7.37-.65-14.76-3-21.76a45.19,45.19,0,0,0-4.12-9.27c-.68-1.12-1.32-2-1.78-2.85-1.16-2.09-1.1-3.38,2.65-5a56.63,56.63,0,0,1,14.07-4.15c9.35-1.33,20-.46,28,5,7.33,5,8.11,9.56,5.55,18-2.46,8.13-5.56,10.51-14,10.84C79.54,64.07,97.4,60.12,90.69,75.67Z" transform="translate(-4.81 -3.21)"/></svg>
