<svg id="Layer_1" data-name="Layer 1" xmlns="http://www.w3.org/2000/svg" width="1110" height="750" viewBox="0 0 1110 750"><defs><style>.cls-1{fill:#c6a279;}</style></defs><title>taktikvalg_skilt</title><path class="cls-1" d="M4.8,52.6q164.66,3.6,329.28,6.84,218.84,4.32,437.65,7.82c56.86.85,113.72,1.66,170.55,2,18.43.12,63.74-2.24,82.18-.63,12.87,1.12,36.28-3.49,44.83,8.44,6.71,9.36,7.84,23.25,10.36,34.18,4,17.41-33.06,19.28-46.56,21.27,8.84,2.36,40.76,3.26,47.15,9.92,4.12,4.28,4.72,15.68,4.51,21.84-.16,4.5-2.19,7.37-1.3,12s7,7.78,5.33,13.12c-2.76,8.83-23.64,7.31-30.78,7.84,7.87.83,21.36,2.31,27.8,6-1.66,7.42,1.61,20.18-3,25.73,15.8,8.38-7.49,15.91-14.8,17.1-24.91,4.05-84.91,5.88-110.39,5.9,24.86-.21,51.81-.48,76.38,3.18,9.07,1.35,26,3.26,33.66,7,.21,5,10.12,8.5,13.08,12.41,2.42,3.2,9.61,4.08,10.06,8.9.6,6.46-23,15.35-28.29,12.71,6.89,3.42,14.43,4.77,21.93,7.08,11.08,3.42,12.34,3.81,9,14.6-4.06,13.2-.22,20.56-.47,33.93-11.56,4.9-45.51,7.43-53.61,14,8.55.52,28.08.4,36.31,1.21s17.34,5.53,25.39,4.83c-4.64,14.44-2.43,24.52-3.55,38.13-.35,4.33-3.75,7.8-4.76,13-.71,3.7-.86,5.52,3,7.44-2.28,4.54-7.34,8.42-7.81,13.61-.09,1.09,3,6.29,3.24,8.91.19,2.18-3.25,4-2.94,5.75s2.49,4.55,2.59,5.27c1,7.74,1.55,6.07-7.64,8.71-6.76,1.94-33.63,3.81-40.37,5.8-15,4.45-30,9.08-45.2,13.07-25.21,6.64-57.1,16-82.89,7.1,29.36,10,61.16,10,91.81,9.68,15.57-.17,42-.63,57.53-.23,8.38.22,32.64.51,24.81,16.92,8.75,1.57,4.28,6.93,2.72,12.12-2.8,9.3-3.82,7,2,16.23.93,1.48.45,4.91,1.24,5.87.94,1.15,6.72,3.24,6.91,4,1,3.75-3.12,12.66-5.67,16-9.3,12.07-27.75,8.25-37.77,16.83,12,3.17,25.23.68,37.44,3.9,0,1.19.36,2.68.26,3.88a18.93,18.93,0,0,1,10,6.23c-3,3.12-1.84,6.65-4.15,9.45-2.7,3.28-7,5.34-9.91,8.36,3.62,5.47,4.57,52.28,6,52.48-9.43-1.32-14.09,7.4-23.65,6.18,13.07,5,20-3.18,25.32,11.11,12.84,34.38-17.85,23.84-40.08,25-37.2,1.9-85.28,2-122.51,1.33-74.31-1.37-148.56-5.73-222.91-5-107.27,1-214.54,3.1-321.36,8.41-80.18,4-159.49,18.66-240,19.19-13.31.09-45.42.25-58.56-2.26-6.37-1.22-13.1-2-16.59-7.6-2.35-3.77-.61-8.23-2.24-11.87-1.73-3.87-8.64-7.65-9.31-9.55-4.83-13.76,2.7-25-1.41-40,5.34-3.7,10.91-5.32,16.42-7.73C68.14,662.32,70.21,663,67.62,651.2c-3.9-17.77-.84-34.35-3.08-52.33,8.08-4,15.76-3.28,25-3.87l.24,0c7.81-.55,8-12,.27-12.94-13.93-1.69-30.42-1.42-37.44-2.94,1.94-2.69,1.29-3.07,4.95-4.19.79-5.13-.86-9.9-.63-15,.08-1.79,2-4.12,1.83-5.91-.33-4.12-3.8-7.08-4.07-10.47C54,535.38,59,529,57.58,519.84c-2.27-14.21,4.22-21.58,7.25-35.73,12.14,2,36.27,6,45.62-2.94C96.26,476.75,83.27,470,69.23,465.29c-13.78-4.58-18-3.57-18.52-17.93-.55-16,13.78-31.87,10.09-47.37-1.89-7.95-7.6-15.29-7.62-23.14,9.78.49,22.24,1.54,31.86-.75-6.66-3.17-13.59-4.87-20.21-8.07,8.73-11.79,32.13-8,43.78-16.78C98.52,343,82,341.73,69.72,338.3c-6.27-1.76-24.56-5.71-26.81-11.33s2.36-19.86,2.59-26c.28-7.35.14-15.5.7-22.82,12.62-1.35,25.24-1.37,37.37-5.9-7-2.84-16.92-2.23-22.47-8.21-5.35-5.76-8-20-9-27.28,24.63,1,53.52,2.31,77.9-1-15.63-4.42-30.19-8.8-46.27-11.65-17-3-28-3.52-35.37-20.44C35.47,174.29,43.67,113,43.67,113c0,6.19,38.66-4,60.06-1.5,25.53,3,52,1.52,77.62-.67-10.32-7.21-41.43-7.64-53.27-9.09C104.52,98.86,80.81,96.66,57.71,91c-10.05-2.48-23.38-3.92-32.3-9C14.2,75.64,8.25,62.32,4.11,50.7"/></svg>
