<svg xmlns="http://www.w3.org/2000/svg" width="512" height="512" viewBox="0 0 512 512">
  <metadata><?xpacket begin="﻿" id="W5M0MpCehiHzreSzNTczkc9d"?>
<x:xmpmeta xmlns:x="adobe:ns:meta/" x:xmptk="Adobe XMP Core 5.6-c142 79.160924, 2017/07/13-01:06:39        ">
   <rdf:RDF xmlns:rdf="http://www.w3.org/1999/02/22-rdf-syntax-ns#">
      <rdf:Description rdf:about=""/>
   </rdf:RDF>
</x:xmpmeta>





















<?xpacket end="w"?></metadata>
<defs>
    <style>
      .cls-1 {
        fill: #3b759f;
      }

      .cls-2 {
        fill: #adcfd9;
        fill-rule: evenodd;
      }
    </style>
  </defs>
  <g id="ikon_512.png">
    <rect class="cls-1" width="512" height="512"/>
    <path id="tøj" class="cls-2" d="M824.116,1150.78l-71.7-44.31L857.8,1041.69c50.38,7.87,108.891,7.8,158.357-1.7,49.21-9.46,79.54-26.26,86.92-44.759l107.72,0.451,0.19,77.428Z" transform="translate(-699 -746)"/>
    <path id="næse" class="cls-2" d="M1092.7,954.941a72.751,72.751,0,0,1-14.9,1.031c32.15,29.067,6.27,60.968-64.89,74.568-72.351,13.84-168.159,4.11-222.646-22.54-2.784,2.15-7.214,3.93-13.236,5.04-17.523,3.22-41.545-.35-53.6-8s-7.51-16.457,10.137-19.633a91.771,91.771,0,0,1,29.314.073l-6.622-19.24,228.19-40.674,52.886,9.044c2.2-2.815,6.99-5.131,14.11-6.413,16.34-2.94,38.74.663,50.08,8.03S1108.92,951.956,1092.7,954.941Zm-250.914,15.8c5.284-.954,14.111,1.185,19.719,4.774s5.882,7.273.616,8.234-14.109-1.17-19.731-4.764S836.5,971.7,841.786,970.742Zm120.923-21.83c5.137-.927,13.757,1.2,19.255,4.742s5.8,7.171.679,8.105-13.754-1.182-19.265-4.732S957.565,949.841,962.709,948.912ZM936.6,980c12.439-2.284,29.217.192,37.5,5.52s4.977,11.5-7.4,13.81c-12.413,2.315-29.259-.135-37.6-5.483S924.123,982.286,936.6,980Z" transform="translate(-699 -746)"/>
    <path id="hår" class="cls-2" d="M1041.68,920.568c-6.13,1.1-10.54,2.955-13.06,5.239l-48.679-7.969L741.622,960.069l5.1,16.825a88.218,88.218,0,0,0-23.557.631,40.032,40.032,0,0,0-10.264,3.1L698.987,978.2l-0.3-56.825,25.352,5.752s58.9-1.07,41.929-26.26l50.839,14.745,5.315-40.909,54.318,30.556s1.288-16.748,28.554-34.126l31.478,22.956s27.332-14.414,41.575-25.026l36.593,31.478,22.67-13.608,9.59,32.955C1045.11,920.053,1043.36,920.268,1041.68,920.568Z" transform="translate(-699 -746)"/>
    <path id="pil_bund" data-name="pil bund" class="cls-2" d="M1010.02,1213.99H901l54.512-53Z" transform="translate(-699 -746)"/>
    <path id="pil_top" data-name="pil top" class="cls-2" d="M901.007,786.008H1010l-54.5,53Z" transform="translate(-699 -746)"/>
  </g>
</svg>
