<?xml version="1.0" encoding="utf-8"?>
<!-- Generator: Adobe Illustrator 22.1.0, SVG Export Plug-In . SVG Version: 6.00 Build 0)  -->
<svg version="1.1" id="Layer_1" xmlns="http://www.w3.org/2000/svg" xmlns:xlink="http://www.w3.org/1999/xlink" x="0px" y="0px"
	 width="325px" height="340px" viewBox="0 0 325 340" style="enable-background:new 0 0 325 340;" xml:space="preserve">
<style type="text/css">
	.st0{fill:#DBAF7B;}
	.st1{fill:#F4C78C;}
	.st2{fill:#333333;}
	.st3{fill:#44250C;}
	.st4{fill:#603813;}
	.st5{fill:#42210B;}
	.st6{fill:#7C0303;}
	.st7{fill:#FFFFFF;}
	.st8{fill:#754C24;}
	.st9{fill:#FF0000;}
	.st10{fill:#006837;}
	.st11{fill:#00A351;}
	.st12{fill:#B3B3B3;}
	.st13{fill:#808080;}
	.st14{fill:none;stroke:#808080;stroke-miterlimit:10;}
</style>
<ellipse class="st0" cx="255.16" cy="43.36" rx="14.44" ry="12.92"/>
<ellipse class="st0" cx="185.64" cy="41.84" rx="14.44" ry="12.92"/>
<path class="st1" d="M260.74,130.94c13.21-0.58,30.88,17.48,37.63,26.84c3.43,4.75,2.11,7.02,8.35,7.92
	c5.47,0.79,8.94,0.13,10.89-5.13c7.3-19.71-19.24-36.41-34.1-42.48c-3.48-1.42-7.11-2.79-10.83-3.67c-7.16-1.69-7.06-1.88-9.64,3.43
	C260.92,122.21,258.01,128.01,260.74,130.94z"/>
<path class="st1" d="M174.76,127.52c-13.21-0.58-30.88,17.48-37.63,26.84c-3.43,4.75-2.11,7.02-8.35,7.92
	c-5.47,0.79-8.94,0.13-10.89-5.13c-7.3-19.71,19.24-36.41,34.1-42.48c3.48-1.42,7.11-2.79,10.83-3.67c7.16-1.69,7.06-1.88,9.64,3.43
	C174.58,118.79,177.48,124.59,174.76,127.52z"/>
<ellipse transform="matrix(0.0404 -0.9992 0.9992 0.0404 -11.7152 431.9497)" class="st2" cx="219.02" cy="222.07" rx="30.07" ry="47.68"/>
<path class="st2" d="M117.69,232.15c1.61-5.41,3.78-8.96-0.74-12.74c-2.83-2.37-8.66-4.85-12.55-5.44c-4.1-0.62-2.91-1.05-6.12,1.31
	c-3.07,2.26-5.88,6.58-8.26,9.36c-7.35,8.59-13.96,17.89-21.17,26.49c-3.35,0.89-8.54,8.82-11.08,11.45
	c-3.02,3.13-12.77,10.07-12.89,14.29c-0.09,3.12,5.17,8.88,7.35,10.88c12.69,11.67,37.18-24.99,43.47-32.16
	c5.43-6.19,9.88-10.7,16.22-15.59C114.33,238.13,117.58,236.9,117.69,232.15z"/>
<path class="st2" d="M149.03,247.53c1.61-5.41,3.78-8.96-0.74-12.74c-2.83-2.37-8.66-4.85-12.55-5.44c-4.1-0.62-2.91-1.05-6.12,1.31
	c-3.07,2.26-5.88,6.58-8.26,9.36c-7.35,8.59-13.96,17.89-21.17,26.49c-3.35,0.89-8.54,8.82-11.08,11.45
	c-3.02,3.13-12.77,10.07-12.89,14.29c-0.09,3.12,5.17,8.88,7.35,10.88c12.69,11.67,37.18-24.99,43.47-32.16
	c5.43-6.19,9.88-10.7,16.22-15.59C145.67,253.51,148.92,252.29,149.03,247.53z"/>
<path class="st2" d="M237.53,248.8c7.48-2.41,13.1-3.25,14.75-8.72c1.04-3.43,0.31-8.95-1.45-11.94c-1.86-3.16-0.59-2.64-5.44-3.27
	c-4.65-0.6-11.59,0.29-16.42,0.49c-14.92,0.61-30.22,2.17-45.06,2.88c-3.19-1.67-15.94-0.04-20.7-0.05
	c-5.65-0.01-20.13-2.08-25.24,0.56c-3.78,1.95-7.33,9.2-8.34,11.95c-5.89,16.05,53.4,8.84,65.96,8.44
	c10.84-0.35,19.04-0.27,28.91,0.83C228.26,250.4,231.79,251.79,237.53,248.8z"/>
<g>
	<path class="st3" d="M66.92,273.87c-2.97-4.25-6.32-8.46-8.69-13.04c-6.31,3.13-11.99,7.87-18.51,10.61
		c-3.34-4.34-6.11-9.28-9.02-13.93c-2.49-3.98-4.57-10.23-8.76-13.02c-8.52-5.67-18.84,1.73-19.91,10.53
		c-1.26,10.42,5.73,21.35,13.35,27.38c2.91,2.3,5.92,4.55,8.95,6.77c-1.64,1.31-3.28,2.78-4.02,4.29c3.11,0.84,2.46,3.61,4.23,5.43
		c1.77,1.83,6.91,5.77,9.37,6.49c0.56,0.68,5.35,4.2,6.52,4.06c1.44-0.18,4.85-4.42,6.06-5.57c2.6-2.48,4.55-5.6,7.17-7.98
		c0.08-0.07,0.16-0.13,0.25-0.2l-0.01-0.02c0.1-0.09,0.19-0.18,0.3-0.27c2.88-2.41,6.37-4.23,9.46-6.35
		c2.27-1.56,7.33-5.5,10.18-5.39C71.98,280.01,69.04,276.9,66.92,273.87z"/>
	<path class="st4" d="M98.15,260.86c-6.12-5.79-12.61-11.59-18.85-17.25c-4.72-4.28-10.2-7.11-14.6-11.5
		c-2.51,9.22-9.47,17.26-13.74,25.7c-0.9,1.77-1.18,1.31-1.1,2.94c0.24,5.16,7.72,13.61,10.67,17.72
		c3.39,4.71,7.04,8.79,10.62,13.48c0.11-4.12,6.78-7.66,9.72-9.73c4.57-3.21,7.33-7.1,10.16-11.6
		C92.86,267.7,96.43,263.43,98.15,260.86z"/>
</g>
<path class="st2" d="M206.19,233.41c7.48-2.41,13.1-3.25,14.75-8.72c1.04-3.43,0.31-8.95-1.45-11.94c-1.86-3.16-0.59-2.64-5.44-3.27
	c-4.65-0.6-11.59,0.29-16.42,0.49c-14.92,0.61-30.22,2.17-45.06,2.88c-3.19-1.67-15.94-0.04-20.7-0.05
	c-5.65-0.01-20.13-2.08-25.24,0.56c-3.78,1.95-7.33,9.2-8.34,11.95c-5.89,16.05,53.4,8.84,65.96,8.44
	c10.84-0.35,19.04-0.27,28.91,0.83C196.92,235.02,200.45,236.41,206.19,233.41z"/>
<path class="st5" d="M177.54,193.62c-2.11,9.88-1.45,14.57,8.11,18.09c8.09,2.98,15.99,2.22,24.57,3.43
	c9.29,1.31,18.7,1.27,28.21,1.27c6.28,0,11.7-1.39,17.34-2.31c9.16-1.5,7.96-0.36,8.39-9.09c0.2-4.02,1.92-8.23-2.54-10.56
	c-3.24-1.7-10.86-0.26-14.56-0.26c-14.95,0-29.52-0.56-44.53,0.01c-6.19,0.24-11.78-0.09-17.6-1.15c-2.39-0.44-4.02-1.52-6.72-1.05
	C178.1,192.96,177.88,194.36,177.54,193.62z"/>
<g>
	<path class="st3" d="M93.04,299.13c-3.63-3.7-7.64-7.29-10.74-11.41c-5.71,4.13-10.51,9.76-16.49,13.54
		c-4.01-3.72-7.57-8.13-11.21-12.23c-3.12-3.51-6.21-9.33-10.8-11.38c-9.34-4.17-18.29,4.84-17.88,13.7
		c0.49,10.48,9.2,20.1,17.72,24.78c3.25,1.79,6.6,3.5,9.95,5.18c-1.4,1.56-2.77,3.29-3.25,4.9c3.21,0.31,3.03,3.15,5.07,4.66
		c2.05,1.51,7.78,4.54,10.32,4.84c0.67,0.58,5.97,3.26,7.11,2.92c1.39-0.42,4.04-5.16,5.04-6.5c2.15-2.88,3.56-6.28,5.74-9.06
		c0.07-0.08,0.14-0.16,0.21-0.24l-0.01-0.02c0.08-0.1,0.16-0.21,0.25-0.32c2.44-2.85,5.58-5.23,8.27-7.83
		c1.98-1.91,6.31-6.65,9.14-7.01C99.04,304.33,95.62,301.76,93.04,299.13z"/>
	<path class="st4" d="M124.74,283.27c-6.99-4.69-17.44-11.5-24.54-16.04c-5.36-3.43-3.82-3.52-8.89-7.13
		c-0.94,9.51-13.88,16.8-16.69,25.85c-0.59,1.9-0.95,1.49-0.6,3.09c1.1,5.05,9.88,12.14,13.47,15.7c4.13,4.08,8.4,7.49,12.71,11.52
		c-0.58-4.08,5.41-8.68,7.96-11.21c3.97-3.93,7.31-5.84,9.35-10.75C118.85,291.1,123.48,286.09,124.74,283.27z"/>
</g>
<path class="st6" d="M256.02,142.53c-0.89-0.54-1.64-1.13-2.31-1.76c3.96,0.06,7.92-0.12,11.84-0.6
	c1.04-8.49,7.87-23.64,12.21-30.29c-6.31-6.65-19.01-7.38-29.11-7.43c-2.14-5.22-5.62-11.03-9.43-13.27
	c-12.25-7.19-32.35-8.38-44.95-10.81c-0.41,2.64-1.09,5.37-2.12,9.27c-10.69,2.01-13.46,7.81-13.31,15.1
	c-10.34-1.15-22.81,3.38-30.28,8.03c3.29,5.77,7.13,23.05,12.8,26.85c3.75,2.51,12.67,2.39,20.27,1.93
	c-2.44,4.24-6.87,3.84-10.16,8.69c-2.65,3.91-4.99,10.38-5.97,15.16c-2.64,12.88-1.42,25.48,9.14,33.02
	c6.16,4.4,13.28,8.07,20.23,10.01c7.84,2.18,16.41,1,24.58,1.84c15.28,1.58,34.51,2.2,48-4.97c6.2-3.29,8.19-4.48,9.23-12.54
	c0.78-6.01,0.54-12.39,0.51-18.51C277.16,156.85,267.45,149.48,256.02,142.53z"/>
<ellipse class="st7" cx="206.04" cy="60.28" rx="19.37" ry="26.21"/>
<ellipse class="st7" cx="234.15" cy="57.24" rx="19.37" ry="26.21"/>
<ellipse cx="203.99" cy="57.43" rx="4.32" ry="4.27"/>
<ellipse cx="234.19" cy="56.01" rx="4.32" ry="4.27"/>
<path class="st1" d="M219.6,75.45c-3.73-0.32-7.09,1.97-10.65,2.54c-4.48,0.72-14.7-2.19-16.89,2.31
	c-3.66,7.52,9.82,9.58,13.74,9.56c3.1-0.01,9.24,1.41,11.35-0.84c1.21-1.29,0.79-3.73,1.96-5.12c3.59-4.23,9.35,0.01,13.67,1.47
	c7.81,2.65,14.29,5.31,17.48-3.76c0.59-1.67,3.42-10.54,2.79-11.72c-2.24-4.23-9.83,3.41-12.2,4.26
	C234.69,76.36,226.87,75.02,219.6,75.45z"/>
<path class="st1" d="M215.7,72.03c3.73-0.32,7.09,1.97,10.65,2.54c4.48,0.72,14.7-2.19,16.89,2.31c3.66,7.52-9.82,9.58-13.74,9.56
	c-3.1-0.01-9.24,1.41-11.35-0.84c-1.21-1.29-0.79-3.73-1.96-5.12c-3.59-4.23-9.35,0.01-13.67,1.47c-7.81,2.65-14.29,5.31-17.48-3.76
	c-0.59-1.67-3.42-10.54-2.79-11.72c2.24-4.23,9.83,3.41,12.2,4.26C200.6,72.95,208.42,71.6,215.7,72.03z"/>
<g>
	<path d="M177.17,136.01c0.14,1.85,0.66,3.8,0.82,5.65C177.82,139.76,177.51,137.88,177.17,136.01z"/>
	<path d="M197.83,293.67c3.43-4.85,8.19-8.47,10.24-15.1c1.9-6.17,3.81-11.57,7.04-14.01c2.92-2.21,7.44-6.42,8.54-13.61
		c0.56-3.66-0.98-6.93-0.77-10.73c0.26-4.6,1.78-6.54,3.13-9.95c2.34-5.9,7.76-14.02,7.29-20.49c-0.69-9.41-3.89-8.41-0.17-17.82
		c-0.97-2.83-0.2-3.48-0.57-6.07c-0.7-4.9-2.87-9.78-4.25-14.24c3.2-3.4,5.53-3.73,7.62-9.24c1.18-3.11,2.45-7.41,3.61-10.84
		c1.39-4.11,2.61-7.45,3.34-11.01c0.52,0.48,0.95,1.08,1.18,1.98c0.85,3.35-0.03,6.54,1.05,10.17c1.92,6.43,2.66,7.46,3.03,14.03
		c0.13,2.25,0.62,3.18,0.55,5.87c-0.12,4.59-1.9,7.77-3.3,11.47c-0.45,1.2-0.82,2.54-1.15,3.93l-0.35,0.22
		c-0.85,2.47-2.07,6.07-2.34,8.68c0.07-0.22,0.15-0.43,0.23-0.64c-0.1,0.36-0.19,0.72-0.28,1.08c0.01-0.14,0.03-0.29,0.05-0.44
		c-0.94,2.88-1.1,6.49-1.93,11.09c0.31-0.72,0.75-1.51,1.16-2.33c0.71-0.6,1.44-2.26,1.93-3.3c0.25-0.41,0.49-0.8,0.71-1.1
		c1.19-1.63,2.73-2.94,3.37-5.43c0.23-0.88,0.54-2.52,0.75-3.82c0.07-0.1,0.14-0.21,0.22-0.31c0.64-0.77,0.56-0.91,0.95-1.75
		c0.17-0.37,0.32-0.74,0.47-1.12c1.57-1.26,3.09-2.66,4.3-4.42c-0.55-4.1,2.04-4.85,3.08-7.92c1-2.95,0.96-7.29,1.86-10.45
		c1.1-3.83,1.73-4.96,1.36-9.18c-0.16-1.78-0.88-3.68-0.72-5.54c0.38-4.58,5.01-9.33,6.29-13.69c-1.68-4.36-3.72-12.51-6.14-15.76
		c-0.96-1.29-2.52-1.15-3.23-2.77c-0.21-0.49,0.08-1.98-0.11-2.65c-0.45-1.63-0.62-4.93-1.39-6.09c-1.2-1.8-4.17-1.81-5.71-2.79
		c0.13-5.57-3.2-6.35-5.06-9.29c-1.47-2.32-2.91-5.08-4.33-7.43c-1.39-2.29-2.64-6.02-4.43-7.36c-1.7-1.28-3.62-0.58-5.59-0.41
		c-3.86,0.34-8.87,0.78-12.4,3.71c-1.37-1.5-3.89-0.86-5.64-1.82c-3.56-1.96-6.46-2.18-10.55-2.31c-4.19-0.13-8.71,2.59-12.92,3.25
		c-2.09,6.97-9.69,5.4-13.04,9.92c-1.87,2.53-0.7,4.81-1.81,8.13c-0.61,1.84-3.62,6.9-4.75,7.93c0.01,1.14,0.29,2.86,0.14,3.96
		c-0.5,3.7-2.15,6.76-2.61,10.47c-0.34,2.75-0.01,5.88,0.12,8.76c0.17,3.87,0.18,7.82,0.83,11.35c0.99,5.34,2.5,5.79,4.72,8.69
		c3.78,4.92,4.02,14.67,4.59,22.82c0.3,4.24,0.71,8.44,1.08,12.64c-0.02-0.44-0.05-0.89-0.05-1.32c-0.05-6,1.36-11.32,0.94-17.51
		c-0.16-2.38-0.95-5.34-0.91-7.61c0.04-2.13,0.94-3.92,1.16-5.98c0.22-2.01-0.27-4.44-0.04-6.43c0.36-3.09,1.26-5.42,1.31-8.67
		c0.08-5.15,0.82-7.32,1.89-11.74c1.31-5.41,1.46-8.56,4.56-12.54c0.61-0.78,1.26-1.52,1.91-2.25c1.02,2.12,1.67,2.41,2.11,7.69
		c0.38,4.58,1.09,8.63,2.14,12.11c-1.43,3.48-2.73,7,0.82,7.93c-0.3,1.83-1.49,4.77-1.51,6.75c-0.06,7.26,4.65,11.36,7.24,15.76
		c2.21,3.74,2.83,3.02,2.11,8.36c-0.85,6.28-5.56,10.18-6.03,17.86c3.18,0.76,14.77,2.8,13.33,12.45c3.24,2.09,6.84,3.43,9.85,6.92
		c-1.88,1.58-1.98,4.03-3.21,7.12c-1.64,4.12-4.13,11.02-4.76,15.92c-0.31,2.4,0.93,2.37,0.74,4.36c-0.29,3.1-0.98,4.48-1.49,7.27
		c-1.06,5.72-2.28,7.72-4.67,12.77c4.05,5.22-1.98,19.65-3.42,24.92L197.83,293.67z M240.35,205.07c-0.03,0.01-0.05,0.02-0.08,0.02
		c0.01-0.45,0.06-0.89,0.12-1.33C240.36,204.21,240.35,204.65,240.35,205.07z"/>
</g>
<path class="st8" d="M218.19,53.82c-7.03-8.3-18.85-11.95-29.23-13.75c0.57-1.72,1.84-1.77,3-3.07c1.74-1.95,1.33-1.64,1.9-4.08
	c0.3-1.28,0.19-2.9,0.78-4.17c0.92-1.97,1.75-1.72,2.95-3.11c2.33-2.72,2.73-4.9,6.37-6.79c3.62-1.89,8.55-4.5,12.59-4.93
	c5.81-0.62,10.12,1,15.51,2.6c3.95,1.17,3.1,0.54,4.63,4.05c0.71,1.63,0.86,2.7,2.11,4.05c2.4,2.59,3.93,2.71,5.59,5.57
	c0.34,0.59,0.19,1.69,0.61,2.35c0.95,1.47,3.13,1.95,3.97,3.44c2.4,4.26-2.31,5.33-5.36,6.35c-6.01,2-11.36,2.58-16.62,6.56
	C225.15,50.29,220.9,55.39,218.19,53.82z"/>
<g>
	<g>
		<path class="st9" d="M187.41,52.63c0.56-0.13,1.21-0.09,1.72,0.27c0.5,0.35,0.83,0.9,1.05,1.44c0.45,1.11,0.58,2.29,0.66,3.45v0
			l-0.44-0.34c0.39-0.07,0.71-0.4,0.93-0.84c0.23-0.43,0.39-0.93,0.54-1.43c0.15-0.51,0.29-1.02,0.46-1.54
			c0.17-0.51,0.38-1.05,0.81-1.48c0.1-0.11,0.25-0.18,0.37-0.27c0.14-0.07,0.29-0.1,0.44-0.14c0.35-0.03,0.64,0.14,0.86,0.33
			c0.42,0.4,0.68,0.88,0.92,1.36c0.46,0.97,0.8,1.99,1.05,3.03l-0.1,0.02c-0.29-1.02-0.68-2.01-1.17-2.94
			c-0.25-0.45-0.54-0.91-0.91-1.23c-0.19-0.14-0.4-0.24-0.59-0.21c-0.1,0.04-0.21,0.07-0.31,0.12c-0.08,0.08-0.19,0.12-0.26,0.21
			c-0.61,0.74-0.74,1.86-1.01,2.88c-0.13,0.52-0.27,1.05-0.51,1.57c-0.23,0.51-0.66,1.08-1.34,1.25l-0.42,0.1l-0.02-0.44v0
			c0.03-1.12,0-2.26-0.33-3.31c-0.16-0.52-0.41-1.03-0.82-1.38c-0.41-0.35-0.99-0.45-1.55-0.38L187.41,52.63z"/>
	</g>
	<g>
		<path class="st9" d="M194.02,70.52c0.09-0.25,0.3-0.44,0.52-0.56c0.22-0.13,0.45-0.22,0.62-0.39l0,0l0,0.08
			c-0.74-0.56-1.35-1.24-2.1-1.77c-0.19-0.15-0.37-0.33-0.49-0.57c-0.12-0.24-0.15-0.5-0.16-0.74c-0.01-0.48-0.03-0.89-0.19-1.28
			l0,0l-0.08-0.23l0.23-0.08c0.27-0.09,0.54-0.2,0.86-0.27c0.32-0.07,0.68-0.04,0.99,0.07c0.4,0.14,0.58,0.44,0.76,0.6
			c0.19,0.17,0.32,0.19,0.42,0.12c0.14-0.09,0.29-0.33,0.45-0.57c0.08-0.12,0.17-0.26,0.31-0.4c0.25-0.21,0.43-0.18,0.54-0.23
			c0.32-0.05,0.56-0.59,0.72-1.11l0-0.01l0.22-0.66l0.42,0.53c0.21,0.26,0.28,0.55,0.33,0.77c0.05,0.22,0.11,0.35,0.24,0.54
			c0.23,0.35,0.57,0.64,0.93,0.94c0.36,0.29,0.74,0.59,1.06,0.96c0.34,0.37,0.47,0.86,0.61,1.29l0.01,0.02l-0.07-0.03
			c0.36-0.18,0.6-0.55,0.78-0.92c0.17-0.38,0.29-0.78,0.38-1.19c0.17-0.82,0.26-1.67,0.19-2.5l-0.01-0.08l0.07,0.03
			c0.33,0.12,0.63,0.29,0.9,0.51l-0.06,0.08c-0.26-0.21-0.56-0.38-0.88-0.49l0.07-0.05c0.07,0.85-0.02,1.7-0.19,2.53
			c-0.09,0.41-0.21,0.83-0.39,1.21c-0.18,0.38-0.42,0.77-0.83,0.97l-0.04,0.02l-0.02-0.05l-0.01-0.02c-0.2-0.43-0.36-0.86-0.71-1.15
			c-0.33-0.31-0.72-0.54-1.12-0.8c-0.39-0.26-0.81-0.53-1.15-0.92c-0.16-0.18-0.34-0.46-0.41-0.69c-0.09-0.23-0.16-0.39-0.27-0.49
			l0.64-0.13l0,0.01c-0.1,0.28-0.21,0.57-0.39,0.86c-0.09,0.14-0.2,0.28-0.34,0.41c-0.11,0.12-0.4,0.25-0.53,0.26
			c-0.4-0.09-0.5,0.63-1.15,1.06c-0.18,0.11-0.45,0.15-0.65,0.08c-0.21-0.06-0.37-0.19-0.48-0.3c-0.23-0.23-0.39-0.45-0.55-0.5
			c-0.47-0.21-0.94-0.04-1.52,0.14l0.15-0.31l0,0c0.16,0.48,0.15,1,0.12,1.43c-0.03,0.44,0.11,0.8,0.46,1.09
			c0.72,0.58,1.29,1.32,1.98,1.91l0.05,0.04l-0.04,0.04l0,0c-0.19,0.17-0.43,0.28-0.64,0.4c-0.21,0.12-0.39,0.29-0.47,0.51
			L194.02,70.52z"/>
	</g>
	<g>
		<path class="st9" d="M215.25,51.02c-1.07,0.07-2.08-0.46-3.05-0.46l0,0l0.24-0.26c0.06,0.48,0.32,0.94,0.57,1.41
			c0.13,0.24,0.25,0.49,0.34,0.76l0.22,0.78c0.29,1.03,0.75,2,1.43,2.83l0,0l0.03,0.03l-0.03,0.04c-0.47,0.61-1.3,0.82-2,0.96
			l-0.01,0l0.32-0.34c0,0.43,0.32,0.95,0.65,1.43c0.33,0.47,0.71,1.06,0.85,1.67c0.19,0.64,0.1,1.3-0.07,1.91
			c-0.1,0.3-0.22,0.62-0.51,0.88c-0.15,0.13-0.38,0.2-0.59,0.16c-0.2-0.04-0.36-0.14-0.49-0.25c-1.05-0.89-0.87-2.38-1.69-3.14
			c-0.42-0.37-1.05-0.35-1.64-0.35c-0.59,0.01-1.21,0.05-1.8-0.1l-0.02-0.01l-0.08-0.02l0.06-0.06c0.12-0.13,0.3-0.08,0.41-0.09
			l0,0.1c-0.14,0.01-0.27-0.03-0.34,0.06l-0.02-0.08l0.02,0c0.58,0.13,1.17,0.06,1.77,0.03c0.58-0.03,1.26-0.09,1.8,0.33
			c0.53,0.42,0.69,1.06,0.9,1.6c0.2,0.55,0.46,1.08,0.88,1.42c0.21,0.17,0.4,0.21,0.55,0.07c0.16-0.15,0.27-0.41,0.34-0.67
			c0.13-0.55,0.18-1.12,0-1.63c-0.16-0.55-0.47-0.98-0.84-1.47c-0.34-0.49-0.78-0.99-0.83-1.78l-0.03-0.37l0.35,0.02l0.01,0
			c0.69,0.05,1.4,0.08,1.97-0.35l0,0.07l0,0c-0.74-0.8-1.27-1.78-1.62-2.81c-0.18-0.53-0.32-1-0.62-1.45
			c-0.27-0.45-0.6-0.93-0.71-1.53l-0.06-0.31l0.3,0.04l0,0c1.12,0.15,1.98,0.77,3.02,0.82L215.25,51.02z"/>
	</g>
	<g>
		<path class="st9" d="M224.78,50.75c0.29,0.29,0.64,0.52,0.95,0.81c0.32,0.27,0.56,0.68,0.55,1.12c-0.01,0.44-0.2,0.83-0.39,1.2
			c-0.21,0.36-0.43,0.74-0.82,0.96l-0.01,0l0.03-0.07c0.22,0.43,0.64,0.71,1.04,1c0.4,0.29,0.83,0.59,1.12,1.08l0,0.01l0.12,0.19
			l-0.23,0.07c-1.32,0.4-2.59,1.01-3.92,1.42l-0.01,0l0.02-0.08c0.36,0.4,0.76,0.76,1.14,1.16c0.37,0.4,0.74,0.81,0.98,1.36
			c0.26,0.58,0.05,1.26-0.16,1.73c-0.21,0.5-0.34,0.96-0.27,1.42l0,0.01l-0.42-0.3c0.64-0.12,1.19-0.53,1.82-0.93
			c0.3-0.2,0.69-0.38,0.98-0.5c0.09-0.03,0.17-0.16,0.26-0.32c0.09-0.14,0.14-0.28,0.19-0.45c0.08-0.34,0.18-0.72,0.32-1.06
			c0.14-0.35,0.37-0.69,0.69-0.91c0.33-0.24,0.7-0.29,1.03-0.42c0.33-0.11,0.63-0.33,0.69-0.68l0.1,0.02
			c-0.04,0.4-0.39,0.69-0.73,0.82c-0.33,0.15-0.7,0.24-0.95,0.45c-0.53,0.43-0.66,1.17-0.78,1.87c-0.03,0.18-0.1,0.4-0.19,0.56
			c-0.08,0.15-0.17,0.37-0.4,0.52c-0.36,0.19-0.62,0.33-0.92,0.55c-0.56,0.41-1.16,0.93-1.95,1.15l-0.42,0.11l0-0.41l0-0.01
			c-0.04-0.63,0.21-1.23,0.46-1.7c0.25-0.48,0.43-0.92,0.28-1.39c-0.15-0.46-0.47-0.91-0.8-1.33c-0.33-0.42-0.7-0.82-1.03-1.25
			l-0.04-0.05l0.06-0.03l0.01,0c1.3-0.5,2.51-1.19,3.84-1.68l-0.11,0.26l0-0.01c-0.18-0.4-0.56-0.73-0.93-1.06
			c-0.36-0.33-0.79-0.66-0.98-1.15l-0.02-0.04l0.04-0.02l0,0c0.34-0.18,0.58-0.56,0.78-0.91c0.19-0.36,0.37-0.75,0.38-1.15
			c0.01-0.41-0.21-0.78-0.52-1.05c-0.3-0.28-0.66-0.51-0.95-0.81L224.78,50.75z"/>
	</g>
	<g>
		<path class="st9" d="M251.05,44.37l-4.93,0.29l0.22-0.21l0,0c-0.07,0.61-0.35,1.19-0.76,1.62c-0.41,0.44-0.91,0.75-1.44,0.99
			c-1.06,0.46-2.21,0.64-3.34,0.65l0.05-0.05l0,0c0.1,0.4,0.3,0.81,0.46,1.22c0.17,0.41,0.33,0.82,0.47,1.24
			c0.14,0.42,0.27,0.85,0.29,1.3c0,0.21-0.01,0.49-0.23,0.64c-0.22,0.14-0.47,0.07-0.68,0.01l0.03-0.09
			c0.2,0.06,0.43,0.11,0.59,0.01c0.16-0.11,0.19-0.35,0.18-0.55c-0.02-0.43-0.15-0.86-0.29-1.27c-0.14-0.42-0.3-0.82-0.47-1.23
			c-0.16-0.41-0.36-0.8-0.47-1.25l0,0l-0.01-0.05l0.06,0c1.12-0.07,2.23-0.3,3.22-0.8c0.49-0.25,0.94-0.57,1.28-0.98
			c0.34-0.41,0.55-0.9,0.58-1.42l0,0l0.05-0.21l0.17,0l4.95,0.07L251.05,44.37z"/>
	</g>
	<g>
		<path class="st9" d="M253.33,55.01c-0.91,0.23-1.83-0.03-2.62,0.05l0.26-0.26c-0.01,0.27,0.06,0.63,0.05,1
			c-0.01,0.18,0,0.41-0.16,0.64c-0.13,0.19-0.3,0.32-0.46,0.42c-0.32,0.2-0.64,0.33-0.88,0.5c-0.22,0.15-0.41,0.42-0.5,0.68
			c-0.1,0.27-0.1,0.6-0.16,0.97c-0.06,0.37-0.19,0.72-0.4,1.05c-0.1,0.17-0.27,0.32-0.47,0.43c-0.22,0.1-0.47,0.09-0.67,0.03
			c-0.39-0.13-0.68-0.36-0.95-0.57c-0.27-0.2-0.54-0.45-0.79-0.55c-0.28-0.11-0.62-0.17-0.96-0.23c-0.34-0.08-0.68-0.11-1.04-0.33
			c-0.2-0.12-0.3-0.42-0.26-0.62c0.04-0.21,0.13-0.38,0.23-0.53c0.42-0.6,0.99-0.99,1.42-1.51c0.21-0.25,0.45-0.52,0.53-0.81
			c0.05-0.15-0.05-0.22-0.22-0.23c-0.16-0.01-0.33,0.03-0.49,0.05l-0.02-0.1c0.17-0.04,0.34-0.09,0.52-0.08
			c0.09,0,0.2,0.01,0.28,0.09c0.1,0.07,0.11,0.21,0.09,0.3c-0.09,0.38-0.32,0.64-0.52,0.92c-0.41,0.56-0.97,1-1.31,1.55
			c-0.17,0.27-0.24,0.59-0.05,0.68c0.23,0.13,0.59,0.19,0.91,0.24c0.34,0.06,0.68,0.1,1.04,0.22c0.39,0.15,0.63,0.39,0.91,0.58
			c0.27,0.2,0.55,0.38,0.81,0.46c0.26,0.07,0.43-0.02,0.6-0.27c0.16-0.25,0.27-0.54,0.31-0.85c0.05-0.31,0.05-0.67,0.17-1.05
			c0.13-0.38,0.35-0.7,0.69-0.95c0.32-0.22,0.64-0.35,0.9-0.52c0.13-0.08,0.23-0.17,0.29-0.27c0.05-0.06,0.06-0.19,0.06-0.34
			c0-0.32-0.07-0.63-0.06-1.04l0.01-0.24l0.25-0.02c0.98-0.06,1.79,0.29,2.66,0.41L253.33,55.01z"/>
	</g>
	<g>
		<path class="st9" d="M244.36,71.98c-0.22-0.53-0.49-1.05-0.92-1.41c-0.42-0.36-0.96-0.55-1.52-0.65l0,0l-0.14-0.03l0.01-0.12
			c0.03-0.32,0.18-0.42,0.29-0.57c0.12-0.14,0.25-0.27,0.37-0.39c0.26-0.25,0.52-0.48,0.79-0.71c0.53-0.46,1.09-0.91,1.53-1.41
			c0.1-0.13,0.17-0.27,0.13-0.39c-0.05-0.11-0.18-0.23-0.33-0.29c-0.3-0.14-0.65-0.21-0.99-0.26c-0.69-0.09-1.39-0.1-2.09-0.11l0,0
			l-0.06,0l0.01-0.06c0.1-0.65,0.51-1.17,0.57-1.79c0.05-0.3,0.05-0.63-0.2-0.82c-0.23-0.2-0.5-0.37-0.75-0.56l0.06-0.08
			c0.24,0.2,0.51,0.36,0.76,0.57c0.28,0.21,0.29,0.61,0.24,0.91c-0.08,0.65-0.49,1.18-0.57,1.78l-0.05-0.06l0,0
			c0.7-0.02,1.41-0.03,2.11,0.05c0.35,0.04,0.71,0.09,1.05,0.24c0.17,0.07,0.34,0.19,0.44,0.39c0.08,0.23-0.04,0.44-0.14,0.59
			c-0.47,0.57-1,1.01-1.52,1.49c-0.26,0.24-0.51,0.48-0.75,0.72c-0.12,0.12-0.24,0.25-0.34,0.38c-0.1,0.11-0.2,0.3-0.2,0.34
			l-0.13-0.15l0,0c0.57,0.15,1.16,0.39,1.59,0.82c0.44,0.43,0.68,0.99,0.87,1.54L244.36,71.98z"/>
	</g>
	<g>
		<path class="st9" d="M230.41,69.26c0.09-0.25,0.27-0.38,0.39-0.59c0.13-0.2,0.26-0.41,0.41-0.62c0.15-0.2,0.34-0.41,0.59-0.52
			c0.25-0.1,0.45-0.15,0.57-0.34c0.16-0.16,0.05-0.36,0.03-0.63c-0.02-0.33,0.22-0.52,0.37-0.7c0.14-0.16,0.28-0.41,0.45-0.57
			c0.17-0.16,0.12-0.39,0.01-0.61l-0.01-0.01l0.02,0.02c-0.04-0.02-0.09-0.03-0.1-0.02c-0.02,0.01-0.06,0.08-0.13,0.1l-0.03-0.09
			c0.04-0.01,0.05-0.04,0.11-0.09c0.08-0.04,0.15-0.01,0.2,0.01l0.01,0.01l0.01,0.02l0.01,0.01c0.06,0.11,0.12,0.23,0.14,0.36
			c0.02,0.14-0.04,0.29-0.13,0.39c-0.18,0.18-0.25,0.38-0.43,0.6c-0.16,0.18-0.34,0.37-0.3,0.56l0.06,0.36
			c0.03,0.13-0.04,0.32-0.12,0.41c-0.15,0.25-0.46,0.34-0.65,0.42c-0.2,0.09-0.35,0.26-0.49,0.45c-0.14,0.19-0.26,0.4-0.39,0.61
			c-0.14,0.19-0.26,0.47-0.55,0.52L230.41,69.26z"/>
	</g>
	<g>
		<path class="st9" d="M209.6,47.08c-0.01,0.68-0.18,1.36-0.05,2.01c0.09,0.32,0.34,0.54,0.59,0.78c0.28,0.27,0.22,0.69,0.13,1.01
			l0,0l-0.04-0.06c0.35-0.02,0.59-0.26,0.88-0.48c0.15-0.11,0.29-0.23,0.5-0.32c0.1-0.04,0.23-0.1,0.38-0.06
			c0.15,0.03,0.25,0.17,0.25,0.31l-0.07,0.07c-0.27,0.04-0.21,0.08-0.38,0.1c-0.13,0.05-0.29,0.15-0.44,0.25
			c-0.16,0.09-0.34,0.18-0.53,0.25c-0.19,0.06-0.42,0.08-0.61-0.02l-0.05-0.02l0.01-0.04l0,0c0.08-0.32,0.14-0.68-0.11-0.91
			c-0.24-0.22-0.52-0.47-0.61-0.82c-0.14-0.69,0.04-1.37,0.04-2.04H209.6z"/>
	</g>
</g>
<g>
	<path d="M218.04,54.51c-0.52-3.3,2.16-5.76-1.15-8.5c-0.25-0.96-0.54-1.87-0.65-2.96c-0.18,1.28-0.5,1.76-1.02,1.83
		c-1.68-0.98-3.74-1.84-5.55-2.68c-0.15-0.34-0.22-0.78-0.24-1.37c-0.02,0.22-0.04,0.43-0.05,0.62c-1.51,0.11-2.99-1.48-4.22-2.15
		c0,0.14-0.11,0.45-0.15,0.72c-0.1-0.04-0.2-0.08-0.3-0.13c-0.47-0.61-0.95-1.19-1.6-1.64c-0.92-0.65-2.23-0.8-2.91-1.67
		c-0.13,0.16-0.28,0.29-0.42,0.5c-1.02-0.08-1.94-1.2-2.74-1.64c-1.53-0.83-3.42-1.15-4.66-2.22c-0.09,0.2-0.29,0.35-0.56,0.47
		c-1.05-0.25-2.19-0.22-3.53,0.23c-2.3-0.16-4.84-0.62-5.56-0.73c1.61,0.27,1.08,1.29,1.3,2.27c0.17,0.74,0.45,0.87,0.41,1.13
		c-0.26,0.32-0.49,0.64-0.71,0.99c-0.01,0.02-0.02,0.03-0.04,0.04c-0.97,1.1-1.17,1.83-1.28,2.97c-0.53,1.76-0.76,3.61-0.87,5.24
		c2.01-2.73,4.3-3.47,6.66-3.2c0,0.09,0.01,0.18,0,0.27c0.17-0.08,0.35-0.14,0.53-0.19c0.77,0.13,1.54,0.37,2.32,0.66
		c0.08,0.49,0.11,1,0.11,1.46c0.25-0.01,0.53,0.01,0.73,0c-0.01,1.01,0.36,2.22,1.12,3.02c0.66-0.83,0.86-1.9,1.74-2.69
		c0.09,0.05,0.18,0.1,0.27,0.15c0.63,0.74,1.23,1.52,1.91,2.23c0.16-0.27,0.44-0.37,0.57-0.75c0.07,0,0.15,0.01,0.22,0.02
		c0.71,0.38,1.4,0.73,2.06,1.01c0.46,0.19,0.95,0.39,1.47,0.58c-0.05,1.16,0.02,2.5,1.1,2.93c0.86-2,2.48-1.57,4.88-0.69
		c1.98,0.73,3.62,1.65,5.35,2.52c0.65,0.43,1.23,0.89,1.7,1.39c2.11,2.25,2.54,7.2,2.81,9.9C219.81,61.4,217.33,56.27,218.04,54.51z
		"/>
	<path d="M209.41,39.98c0,0.32,0.01,0.61,0.02,0.86C209.45,40.55,209.47,40.25,209.41,39.98z"/>
</g>
<path d="M256.14,33.75c-1.1-0.74-2.41-1.16-3.97-1.17c-3.29-0.02-5.96,1.87-8.65,3.51c-0.45-0.2-0.96-0.37-1.3-0.61
	c-0.95,0.59-2.03,1.14-2.83,1.91c-0.3-0.07-0.62-0.06-0.87-0.1c-0.67,1.65-2.28,3.28-3.55,1.03c0.09,0.73,0.06,1.37-0.25,2.05
	c-0.98-0.24-1.92-0.83-2.22-1.6c-0.16,0.48-0.19,1.8-0.61,2.12c-0.17,0.13-1.81,0.15-2.28,0.34c0.02,0.5-0.03,0.86-0.13,1.12
	c-0.49,0.18-0.98,0.36-1.46,0.54c-1.47-0.37-3.37-1.73-3.08,0.76c-0.5,0.14-0.95,0.38-1.34,0.7c-1.31,0.49-2.52,1.11-3.15,1.97
	c-1.87,2.83-1.75,11.83-0.04,14.89c2.51-1.81,2.85-5.36,4.4-7.94c2-0.52,3.6-1.22,3.82-2.96c1.3-0.32,2.73-0.32,4.62-1.01
	c0.49-0.18,0.97-0.38,1.46-0.6c0.55-0.09,1.1-0.2,1.61-0.39c-0.04-0.11-0.03-0.25-0.02-0.39c0.47-0.25,0.95-0.5,1.43-0.77
	c0.62,0.09,1.14,0.23,2.19-0.15c2.05-0.75,2.37-1.47,2.53-2.5c0.23-0.12,0.46-0.24,0.68-0.36c0.83,0.45,2.49,0.28,3.45,0.2
	c-0.2-0.62,0.05-1.32,0.44-2c0.28-0.49,1.68-0.94,2.16-1.41c0.66-0.65,0.86-1.88,1.45-2.42c1.12-1.01,4.92-0.56,6.38-0.33
	c0.49,1.63,2.77,2.27,3.16,3.71c0.27,0.99,0.18-1.77-0.64-3.7C258.71,36.31,257.62,34.75,256.14,33.75z"/>
<path class="st1" d="M220.97,69.19c2.67,8.21,1.33,15.77-14.06,24.31c-15.11,8.4-35.51,5.36-38.18-2.85
	c-2.67-8.21,8.99-21.48,25.43-26.83S218.3,60.99,220.97,69.19z"/>
<path class="st10" d="M181.83,33.39c3.49-1.17,5.64-5.34,7.98-8.07c2.85-3.32,4.07-6.55,6.1-10.24c1.87-3.4,3.87-8.31,6.15-11.35
	c2.38-3.17,6.42-2.24,10.2-2.25c6.37-0.01,12.55,0.93,18.87,1.82c5.03,0.71,6.46,2.96,8.5,7.57c2.96,6.7,7.7,11.41,7.78,19.01
	c0.03,2.59,0.67,4.68-1.38,5.81c-1.44,0.79-6.99,0.07-8.46-0.02c-10.99-0.68-21.75-0.76-32.79-0.77
	C198.77,34.91,185.43,37.6,181.83,33.39z"/>
<path class="st11" d="M247.35,34.26c-1.38,2.91-6.61,2.24-9.53,2.37c-5.3,0.24-10.34,1.42-15.66,2.02
	c-9.26,1.04-19.86,1.26-29.13,0.26c-6.9-0.75-15.65-4.37-22.09-7.12c-5.26-2.25-26.66-14.86-19.97-22.52
	c1.46-1.67,3.03-1.85,5.15-1.99c5.93-0.39,12.35-0.11,17.94,2.02c2.89,1.1,6.25,2.86,8.99,4.42c2.08,1.19,1.67,1.37,2.96,2.91
	c2.03,2.41,4.64,4.77,6.93,6.72c9.35,7.96,20.13,11.42,32.37,11.48c4.23,0.02,8.43,0.66,12.65,0.66
	C240.42,35.49,245.41,36.94,247.35,34.26z"/>
<g>
	<path class="st12" d="M70.48,81.61c0.03-3.6,2.89-6.39,5.74-6.64c3.74,1.97,14.74,4.63,9.6,11.49c-2.6,3.47-14.11-3.46-14.62-6.4"
		/>

		<rect x="58.51" y="120.3" transform="matrix(0.9045 0.4265 -0.4265 0.9045 69.2948 -55.7303)" class="st13" width="201.15" height="13.11"/>
	<path class="st5" d="M232.9,175.84c0,0-79.67-35.46-82.81-39.05c-3.14-3.58-1.2-7.7-1.2-7.7L235.65,170L232.9,175.84z"/>
	<path class="st5" d="M321.87,218.31c-5.45,11.57-12.55,20.63-20.2,29.85c-4.76-4.17-9.12-9.43-13.58-14.04
		c-5.47-5.66-11.66-10.52-16.89-16.44c-11.2-12.67-24.22-23.39-35.2-35.96c-1.38-1.58-5.57-4.66-5.87-7.32
		c-0.38-3.35,3.02-4.41,4.96-5.38c6.49-3.22,12.33-2.74,17.79-0.15c13.49,6.42,25.84,15.12,38.98,22.24
		c8.68,4.7,17.5,10.02,25.83,15.35c2.03,1.3,4.05,2.09,4.37,5.23C322.26,213.74,321.94,216.53,321.87,218.31z"/>
	<path class="st13" d="M231.04,176.22l-18.38-8.67c0.02-0.03,0.79-1.68,0.81-1.72c0.21-0.45,2.71-5.74,2.92-6.19
		c6.13,2.89,12.26,5.78,18.38,8.67L231.04,176.22z"/>

		<rect x="159.88" y="138.32" transform="matrix(0.9045 0.4265 -0.4265 0.9045 77.3359 -58.8367)" class="st13" width="20.32" height="9.88"/>
	<g>
		<path class="st13" d="M217.6,180.91c-5.07-2.39-7.25-8.46-4.86-13.53l2.16,1.02c-1.83,3.88-0.16,8.52,3.71,10.34
			c3.88,1.83,8.52,0.16,10.34-3.71l2.16,1.02C228.73,181.12,222.66,183.3,217.6,180.91z"/>
	</g>
	<path class="st14" d="M226.14,172.26c0,0-1.89,4.12-5.43,5.95"/>
</g>
<path class="st1" d="M303.03,148.37c-3.58,12.73-26.27,23.86-37.26,27.35c-5.58,1.77-7.32-0.19-10.14,5.46
	c-2.46,4.95-2.92,8.45,1.47,11.94c16.43,13.1,40.6-6.88,51.02-19.1c2.44-2.86,4.88-5.88,6.88-9.14c3.85-6.28,4-6.12-0.24-10.23
	C311.27,151.27,306.66,146.7,303.03,148.37z"/>
<path class="st1" d="M84.72,117.16c4.35,12.49,27.67,22.21,38.86,25.02c5.68,1.43,7.3-0.63,10.45,4.83
	c2.76,4.79,3.43,8.26-0.73,12.01c-15.6,14.08-40.95-4.39-52.09-15.95c-2.61-2.7-5.23-5.57-7.42-8.71
	c-4.22-6.03-4.36-5.86-0.38-10.22C76.67,120.56,80.99,115.72,84.72,117.16z"/>
<path class="st1" d="M86.96,133.03c-7.62,6.46-18.96,2.47-20.82-6.87c-1.02-5.11,0.8-11.95,2.81-16.66
	c3.83-8.95,30.2-18.64,28.39-2.77c-0.49,4.26-4.64,8.83-5.16,13.37C91.68,124.51,95.33,135.7,86.96,133.03z"/>
<path class="st1" d="M244.46,170.81c-10.33,0.63-15.95,11.75-10.65,20.06c2.9,4.55,9.17,8.37,14.05,10.45
	c9.28,3.95,35.95-7.71,23.22-18.28c-3.42-2.84-9.8-3.28-13.44-6.3C254.1,173.81,248.81,162.82,244.46,170.81z"/>
<path class="st7" d="M204.64,106.04c0-1.57-4-5.53-3.52-6.28c0.62-0.96,10.44-0.28,11.6-0.39c-1.67,1.73,1.34,4.6-1.24,6.19
	C209.42,106.84,207.42,105.46,204.64,106.04z"/>
<path class="st7" d="M220.6,106.61c0-1.61,0.32-3.63-0.2-5.09c2.6-0.9,3.35-0.72,3.43-3.24c2.14-0.09,4.57,0.1,6.78,0.19
	c0.36,1.5-0.64,4.45-1.11,5.86C228.41,107.64,224,106.42,220.6,106.61z"/>
<path class="st1" d="M205.11,105.01c4.54,0.66,10.11,0.58,14.98,0.57c4.35-0.01,12.68-2.05,13.88,0.14
	c3.12,5.71-19.39,4.28-24.06,3.68c-3.1-0.4-10.29-0.87-9.38-3.25C201.22,104.35,203.73,104.62,205.11,105.01z"/>
</svg>
