<svg xmlns="http://www.w3.org/2000/svg" width="3000" height="550" viewBox="0 0 3000 550"><defs><style>.cls-1{opacity:0.1;}.cls-2{fill:#9e9e9e;}.cls-3{fill:#fff;}.cls-4{fill:#898989;}.cls-5{fill:#e0e0e0;}.cls-6{fill:#f46262;}.cls-7,.cls-8{fill:#010101;}.cls-8{stroke:#000;stroke-miterlimit:10;}.cls-9{fill:#b7b7b7;}</style></defs><title>kanin-til-frames</title><g id="Layer_5" data-name="Layer 5"><path class="cls-1" d="M1188.88,509c-1.05,3.05-6.82,2.79-9.23,3.95-3.66,1.77-6.26,3.53-10.57,3.77-5.26.3-10.9-.52-16,.72-5.38,1.3-11,.56-16.45,1.66-4.45.89-8.22,3.8-12.92,3.61-4-.15-7-2.66-11-3-9-.76-20.19,1.73-28.32-1.35-4-1.52-6.16-4.47-10.07-5.31-2.87-.62-6.26-.24-7.84-3.35-2.5-4.92,8.89-4.87,11.91-6.32,1.59-.76,2-1.39,3.89-1.67,2-.32,4.21.22,6.26-.06a28.52,28.52,0,0,0,8.28-2.52c1.44-.77,2.3-2.21,3.75-2.84,1.92-.84,4.16-.59,6.27-.58,13.32,0,27.13-3.62,40.14.39a66.25,66.25,0,0,0,20.1,2.61c5.9,0,9.64,1.22,14.65,4,2.2,1.22,7.83,2.34,7.34,5.75A4.27,4.27,0,0,1,1188.88,509Z"/><path class="cls-1" d="M1438.88,509c-1.05,3.05-6.82,2.79-9.23,3.95-3.66,1.77-6.26,3.53-10.57,3.77-5.26.3-10.9-.52-16,.72-5.38,1.3-11,.56-16.45,1.66-4.45.89-8.22,3.8-12.92,3.61-4-.15-7-2.66-11-3-9-.76-20.19,1.73-28.32-1.35-4-1.52-6.16-4.47-10.07-5.31-2.87-.62-6.26-.24-7.84-3.35-2.5-4.92,8.89-4.87,11.91-6.32,1.59-.76,2-1.39,3.89-1.67,2-.32,4.21.22,6.26-.06a28.52,28.52,0,0,0,8.28-2.52c1.44-.77,2.3-2.21,3.75-2.84,1.92-.84,4.16-.59,6.27-.58,13.32,0,27.13-3.62,40.14.39a66.25,66.25,0,0,0,20.1,2.61c5.9,0,9.64,1.22,14.65,4,2.2,1.22,7.83,2.34,7.34,5.75A3,3,0,0,1,1438.88,509Z"/><path class="cls-1" d="M1688.88,509c-1.05,3.05-6.82,2.79-9.23,3.95-3.66,1.77-6.26,3.53-10.57,3.77-5.26.3-10.9-.52-16,.72-5.38,1.3-11,.56-16.45,1.66-4.45.89-8.22,3.8-12.92,3.61-4-.15-7-2.66-11-3-9-.76-20.19,1.73-28.32-1.35-4-1.52-6.16-4.47-10.07-5.31-2.87-.62-6.26-.24-7.84-3.35-2.5-4.92,8.89-4.87,11.91-6.32,1.59-.76,2-1.39,3.89-1.67,2-.32,4.21.22,6.26-.06a28.52,28.52,0,0,0,8.28-2.52c1.44-.77,2.3-2.21,3.75-2.84,1.92-.84,4.16-.59,6.27-.58,13.32,0,27.13-3.62,40.14.39a66.25,66.25,0,0,0,20.1,2.61c5.9,0,9.64,1.22,14.65,4,2.2,1.22,7.83,2.34,7.34,5.75A3,3,0,0,1,1688.88,509Z"/><path class="cls-1" d="M1938.88,509c-1.05,3.05-6.82,2.79-9.23,3.95-3.66,1.77-6.26,3.53-10.57,3.77-5.26.3-10.9-.52-16,.72-5.38,1.3-11,.56-16.45,1.66-4.45.89-8.22,3.8-12.92,3.61-4-.15-7-2.66-11-3-9-.76-20.19,1.73-28.32-1.35-4-1.52-6.16-4.47-10.07-5.31-2.87-.62-6.26-.24-7.84-3.35-2.5-4.92,8.89-4.87,11.91-6.32,1.59-.76,2-1.39,3.89-1.67,2-.32,4.21.22,6.26-.06a28.52,28.52,0,0,0,8.28-2.52c1.44-.77,2.3-2.21,3.75-2.84,1.92-.84,4.16-.59,6.27-.58,13.32,0,27.13-3.62,40.14.39a66.25,66.25,0,0,0,20.1,2.61c5.9,0,9.64,1.22,14.65,4,2.2,1.22,7.83,2.34,7.34,5.75A3,3,0,0,1,1938.88,509Z"/><path class="cls-1" d="M2188.88,509c-1.05,3.05-6.82,2.79-9.23,3.95-3.66,1.77-6.26,3.53-10.57,3.77-5.26.3-10.9-.52-16,.72-5.38,1.3-11,.56-16.45,1.66-4.45.89-8.22,3.8-12.92,3.61-4-.15-7-2.66-11-3-9-.76-20.19,1.73-28.32-1.35-4-1.52-6.16-4.47-10.07-5.31-2.87-.62-6.26-.24-7.84-3.35-2.5-4.92,8.89-4.87,11.91-6.32,1.59-.76,2-1.39,3.89-1.67,2-.32,4.21.22,6.26-.06a28.52,28.52,0,0,0,8.28-2.52c1.44-.77,2.3-2.21,3.75-2.84,1.92-.84,4.16-.59,6.27-.58,13.32,0,27.13-3.62,40.14.39a66.25,66.25,0,0,0,20.1,2.61c5.9,0,9.64,1.22,14.65,4,2.2,1.22,7.83,2.34,7.34,5.75A3,3,0,0,1,2188.88,509Z"/></g><g id="Layer_3" data-name="Layer 3"><path class="cls-2" d="M135.64,377.78s37,6.15,45.49-52.07-22.36-73.34-40.64-75.92c-30.69-4.33-54.44,11.27-62.24,34.82C68.42,314.31,78.81,374,135.64,377.78Z"/><path class="cls-2" d="M164.48,264.15S187.89,231,185,181.06,172.82,107,167,114.71,149,152,146.36,199.38s-.64,58.52-.64,58.52Z"/><path class="cls-2" d="M114.91,256.73s16.81-46.83,3.3-86.91S89.58,90.41,80.29,105.88s-4.77,63.11-3,79.8,18.21,83,18.21,83Z"/><path class="cls-3" d="M161.89,259.23s12-22.52,10.91-56.23-5.68-49.91-8.67-44.68-9.34,25.3-10.95,57.3S152,251.81,152,251.81Z"/><path class="cls-3" d="M110.55,251.82s8.59-30.81,2-57.77-13.93-53.43-18.72-42.93S91.05,193.76,91.82,205s8.4,54.33,8.4,54.33Z"/><path class="cls-4" d="M160.89,478s46.16,13.62,33.25,20.25-16.1,7.3-20.84,7.12c0,0,2.25,3.25-4.13,4.59s-33.06-4.42-34.61-5.27-26.56-8.92-22.31-16.67,24.24-13.32,25.82-13.26S160.89,478,160.89,478Z"/><path class="cls-4" d="M126.76,489.14s13.65,19,8.13,20.25c0,0,1.7,6.43-11.14,7.23s-51.33,2.44-46.14-12.27S85.08,487.41,90.69,487s9.89-1,9.89-1Z"/><path class="cls-5" d="M87.31,483.55s1.28,8-8.26,9.18S55.38,491,51.18,476.64,45.55,458.23,53,449.81s16.54-10.36,25.56-2.15S87.31,483.55,87.31,483.55Z"/><path class="cls-2" d="M146.47,378.28l17.38,27.47c2.16,11.6,2.93,24.69,6.82,35.78,4,11.45,17.41,17.72,14.36,31.49-3.82,17.26-14.6,30.3-38.36,31s-53.76-1.25-62.09-11.06-19.31-33.17-12.45-47.15,28.11-52.74,35.67-64.32S117,369.16,117,369.16Z"/><path class="cls-3" d="M157.64,444.29s12.46,5.22,14.41,16.37,1,37.22-27.57,38.51-43.43-2.44-49.21-16.9-4.66-29.43,5.33-36.19C112.78,437.84,122.53,431.09,157.64,444.29Z"/><path class="cls-3" d="M160.93,297.42s-.52-28.5-22-29.42c-10.38-.45-16.52,5.62-11.3,27.2s7,33.61,21.9,33.37C162.87,328.36,160.93,297.42,160.93,297.42Z"/><path class="cls-3" d="M109.69,269.19c-7.11-.27-15.28,6.54-11.38,33.69,4.42,30.69,18.29,34.51,26.28,33.47s15.36-11,7.39-39.13C124.64,271.34,116.8,269.46,109.69,269.19Z"/><path class="cls-6" d="M145.06,331.79s4.1-1.15,2.9,2.69-2.82,11.63-2.82,11.63-1.28,4.64-3.39,2l-9.15-11.3s-2.19-1.82,1.12-3.06S145.06,331.79,145.06,331.79Z"/><path class="cls-3" d="M156.62,357.94c-.85-1.19-4.17-2.43-7.15-2.58a15.48,15.48,0,0,0-5,.65c-.15,2.76-1.39,25.28-2.19,29.71a4.66,4.66,0,0,1-1.43,2.8c1,.22,2.47.52,4.12.8,3.21.56,3.71-3.44,3.71-3.44S158.29,360.25,156.62,357.94Z"/><path class="cls-3" d="M134.35,354.83c-3.19,0-6.16.89-6.9,2.21-1.61,2.86,3.67,29.35,3.67,29.35s.65,3.18,2.11,3.21c1.05,0,3.58.49,5.25-1a4.66,4.66,0,0,0,1.43-2.8c.8-4.43,2-26.95,2.19-29.71v-.28A36.75,36.75,0,0,0,134.35,354.83Z"/><path class="cls-7" d="M140.71,309.52c.51,4.23,2,7.65,3.35,7.55s1.92-3.92,1.36-8.15-2-8.65-3.47-8.52S140.18,305.31,140.71,309.52Z"/><path class="cls-8" d="M140.71,309.52c.51,4.23,2,7.65,3.35,7.55s1.92-3.92,1.36-8.15-2-8.65-3.47-8.52S140.18,305.31,140.71,309.52Z"/><path class="cls-8" d="M122.16,313.07c1,4.21,2.81,8,4.09,7.57s1.47-3.75.66-8.71c-.78-5.13-2.93-8.66-4.23-7.29S121.16,309,122.16,313.07Z"/><path class="cls-8" d="M122.16,313.07c1,4.21,2.81,8,4.09,7.57s1.47-3.75.66-8.71c-.78-5.13-2.93-8.66-4.23-7.29S121.16,309,122.16,313.07Z"/><path class="cls-9" d="M106.1,393.24l-.65-.25a15.28,15.28,0,0,0-3.84-1c-1.28-.17-2.55-.16-3.83-.22a10.76,10.76,0,0,0-2.63.37,25.12,25.12,0,0,0-4.89,1.57c-2.8,1.26-5.38,3.24-6.53,6.06-1.39,3.4-.35,7.16,1.29,10.31,2.47,4.77,5.46,6.57,9.83,8.83,3.62,1.86,8.42,3.21,11.84,5.51s3.06,4.57,3.51,8.93c.71,6.71.11,12.76,8.57,13.57,4.69.45,8.79-1.27,10.81-5.68,3.49-7.63,3.41-23.2-1.58-29.54-1.22-1.55-2.48-3.06-3.78-4.55q-2.52-2.88-5.28-5.57c-.91-.88-1.84-1.75-2.8-2.6a17,17,0,0,0-2.71-2.22c-.45-.25-.94-.43-1.4-.67-.86-.46-1.73-.93-2.55-1.43A18.74,18.74,0,0,0,106.1,393.24Z"/><path class="cls-9" d="M160.72,396.17c-6.7,1.3-14.52,5.37-16.92,13C142,415,140.44,428.48,145,432.83c2.53,2.43,5.9,3,8.73.87,3.28-2.43,2.8-7.4,4.85-11,3.77-6.66,11.86-6.6,13.48-15.93C173.37,399.16,165.48,390.33,160.72,396.17Z"/><path class="cls-2" d="M385.6,381.75c33.11,2.22,37.76-27.05,46.29-52.64s-11.4-69.93-35.28-72.73c-40.11-4.71-53,1.35-66.71,34.56C312.61,332.8,340,378.69,385.6,381.75Z"/><path class="cls-2" d="M414.68,267.88c14.22-14.47,23.86-54,24.79-69.42s17.47-73.15-2.17-64.8S403.21,183,399.82,203.91,393.5,242.67,395.6,263C402.06,264.36,407.93,268.26,414.68,267.88Z"/><path class="cls-2" d="M364.27,260.27c14-18.42,5.76-64.32.12-79.86s-38.91-66.72-48.71-48.29,5.06,43.16,8.74,65.58,15.86,51.76,20.84,75.41C352.05,269.5,358.93,266.69,364.27,260.27Z"/><path class="cls-3" d="M412,263.67c6.26-11.57,11.75-37.87,12.59-47.9s9.11-48.44-1.48-43.38-16.77,36.52-18.85,49-3.14,23.43-2.62,35.55C405.12,259.08,408.22,262.32,412,263.67Z"/><path class="cls-3" d="M360.37,256c6.7-13.84,1.51-43.25-.54-54.17S345,155.52,337.68,165.93s.19,31.06,2.16,45.92,8.4,36.22,10.29,52.27C353.78,261.7,357.37,259.72,360.37,256Z"/><path class="cls-4" d="M410.89,478s46.16,13.62,33.25,20.25-16.1,7.3-20.84,7.12c0,0,2.25,3.25-4.13,4.59s-33.06-4.42-34.61-5.27-26.56-8.92-22.31-16.67,24.24-13.32,25.82-13.26S410.89,478,410.89,478Z"/><path class="cls-4" d="M376.76,489.14s13.65,19,8.13,20.25c0,0,1.7,6.43-11.14,7.23s-51.33,2.44-46.14-12.27,7.47-16.94,13.08-17.39,9.89-1,9.89-1Z"/><path class="cls-5" d="M337.31,485.55s1.28,8-8.26,9.18-23.67-1.69-27.87-16.09-5.63-18.41,1.81-26.83,16.54-10.36,25.56-2.15S337.31,485.55,337.31,485.55Z"/><path class="cls-2" d="M396.47,378.28l17.38,27.47c2.16,11.6,2.93,24.69,6.82,35.78,4,11.45,17.41,17.72,14.36,31.49-3.82,17.26-14.6,30.3-38.36,31s-53.76-1.25-62.09-11.06-19.31-33.17-12.45-47.15,28.11-52.74,35.67-64.32S367,369.16,367,369.16Z"/><path class="cls-3" d="M407.64,444.29s12.46,5.22,14.41,16.37,1,37.22-27.57,38.51-43.43-2.44-49.21-16.9-4.66-29.43,5.33-36.19C362.78,437.84,372.53,431.09,407.64,444.29Z"/><path class="cls-3" d="M410.93,302.42s-.52-28.5-22-29.42c-10.38-.45-16.52,5.62-11.3,27.2s7,33.61,21.9,33.37C412.87,333.36,410.93,302.42,410.93,302.42Z"/><path class="cls-3" d="M359.69,274.19c-7.11-.27-15.28,6.54-11.38,33.69,4.42,30.69,18.29,34.51,26.28,33.47s15.36-11,7.39-39.13C374.64,276.34,366.8,274.46,359.69,274.19Z"/><path class="cls-6" d="M395.06,336.79s4.1-1.15,2.9,2.69-2.82,11.63-2.82,11.63-1.28,4.64-3.39,2l-9.15-11.3s-2.19-1.82,1.12-3.06S395.06,336.79,395.06,336.79Z"/><path class="cls-3" d="M406.62,362.94c-.85-1.19-4.17-2.43-7.15-2.58a15.48,15.48,0,0,0-5,.65c-.15,2.76-1.39,25.28-2.19,29.71a4.66,4.66,0,0,1-1.43,2.8c1,.22,2.47.52,4.12.8,3.21.56,3.71-3.44,3.71-3.44S408.29,365.25,406.62,362.94Z"/><path class="cls-3" d="M384.35,359.83c-3.19,0-6.16.89-6.9,2.21-1.61,2.86,3.67,29.35,3.67,29.35s.65,3.18,2.11,3.21c1,0,3.58.49,5.25-1a4.66,4.66,0,0,0,1.43-2.8c.8-4.43,2-26.95,2.19-29.71v-.28A36.75,36.75,0,0,0,384.35,359.83Z"/><path class="cls-7" d="M390.71,312.52c.51,4.23,2,7.65,3.35,7.55s1.92-3.92,1.36-8.15-2-8.65-3.47-8.52S390.18,308.31,390.71,312.52Z"/><path class="cls-8" d="M390.71,312.52c.51,4.23,2,7.65,3.35,7.55s1.92-3.92,1.36-8.15-2-8.65-3.47-8.52S390.18,308.31,390.71,312.52Z"/><path class="cls-8" d="M372.16,316.07c1,4.21,2.81,8,4.09,7.57s1.47-3.75.66-8.71c-.78-5.13-2.93-8.66-4.23-7.29S371.16,312,372.16,316.07Z"/><path class="cls-8" d="M372.16,316.07c1,4.21,2.81,8,4.09,7.57s1.47-3.75.66-8.71c-.78-5.13-2.93-8.66-4.23-7.29S371.16,312,372.16,316.07Z"/><path class="cls-9" d="M356.1,393.24l-.65-.25a15.28,15.28,0,0,0-3.84-1c-1.28-.17-2.55-.16-3.83-.22a10.76,10.76,0,0,0-2.63.37,25.12,25.12,0,0,0-4.89,1.57c-2.8,1.26-5.38,3.24-6.53,6.06-1.39,3.4-.35,7.16,1.29,10.31,2.47,4.77,5.46,6.57,9.83,8.83,3.62,1.86,8.42,3.21,11.84,5.51s3.06,4.57,3.51,8.93c.71,6.71.11,12.76,8.57,13.57,4.69.45,8.79-1.27,10.81-5.68,3.49-7.63,3.41-23.2-1.58-29.54-1.22-1.55-2.48-3.06-3.78-4.55q-2.52-2.88-5.28-5.57c-.91-.88-1.84-1.75-2.8-2.6a17,17,0,0,0-2.71-2.22c-.45-.25-.94-.43-1.4-.67-.86-.46-1.73-.93-2.55-1.43A18.74,18.74,0,0,0,356.1,393.24Z"/><path class="cls-9" d="M410.72,396.17c-6.7,1.3-14.52,5.37-16.92,13C392,415,390.44,428.48,395,432.83c2.53,2.43,5.9,3,8.73.87,3.28-2.43,2.8-7.4,4.85-11,3.77-6.66,11.86-6.6,13.48-15.93C423.37,399.16,415.48,390.33,410.72,396.17Z"/><path class="cls-2" d="M635.51,386c32.43,1.6,37.79-25.3,46.22-53.12s-12.91-71.42-36.9-73.47c-40.28-3.45-53.07,5.11-65.5,36.09C563.66,334.51,590.88,383.3,635.51,386Z"/><path class="cls-2" d="M664.62,272.52c11.11-12.18,28.58-51.14,30.51-62.25s9.69-57.85-5.34-50S661.22,192.82,655.17,211s-12.26,36.49-9.52,55.55C652,268.42,657.92,272,664.62,272.52Z"/><path class="cls-2" d="M614.5,264.87c13.42-22.08-.41-62.65-9.27-77.82s-52.5-49.92-55.65-31.56,13.8,36.86,19.71,56.83,21.18,41.47,26.15,65.25C602.09,273.67,609,270.17,614.5,264.87Z"/><path class="cls-3" d="M662,268c5.58-10.27,15.2-36.85,17.2-44.79s9.36-39.15.17-35.56-18,28.68-21.55,39.47-6.5,22.29-6,33.61C655.21,263.17,658.34,266.22,662,268Z"/><path class="cls-3" d="M610.44,260.47c7.59-14.62-2.43-41.24-6.22-51s-23.17-41.68-26.74-29.7,4.36,29.86,8.63,43.36,12.49,30,14.11,45.33C603.74,265.82,607.29,263.64,610.44,260.47Z"/><path class="cls-4" d="M660.89,478s46.16,13.62,33.25,20.25-16.1,7.3-20.84,7.12c0,0,2.25,3.25-4.13,4.59s-33.06-4.42-34.61-5.27-26.56-8.92-22.31-16.67,24.24-13.32,25.82-13.26S660.89,478,660.89,478Z"/><path class="cls-4" d="M626.76,489.14s13.65,19,8.13,20.25c0,0,1.7,6.43-11.14,7.23s-51.33,2.44-46.14-12.27,7.47-16.94,13.08-17.39,9.89-1,9.89-1Z"/><path class="cls-5" d="M587.31,487.55s1.28,8-8.26,9.18-23.67-1.69-27.87-16.09-5.63-18.41,1.81-26.83,16.54-10.36,25.56-2.15S587.31,487.55,587.31,487.55Z"/><path class="cls-2" d="M646.47,378.28l17.38,27.47c2.16,11.6,2.93,24.69,6.82,35.78,4,11.45,17.41,17.72,14.36,31.49-3.82,17.26-14.6,30.3-38.36,31s-53.76-1.25-62.09-11.06-19.31-33.17-12.45-47.15,28.11-52.74,35.67-64.32S617,369.16,617,369.16Z"/><path class="cls-3" d="M657.64,444.29s12.46,5.22,14.41,16.37,1,37.22-27.57,38.51-43.43-2.44-49.21-16.9-4.66-29.43,5.33-36.19C612.78,437.84,622.53,431.09,657.64,444.29Z"/><path class="cls-3" d="M660.93,306.42s-.52-28.5-22-29.42c-10.38-.45-16.52,5.62-11.3,27.2s7,33.61,21.9,33.37C662.87,337.36,660.93,306.42,660.93,306.42Z"/><path class="cls-3" d="M609.69,278.19c-7.11-.27-15.28,6.54-11.38,33.69,4.42,30.69,18.29,34.51,26.28,33.47s15.36-11,7.39-39.13C624.64,280.34,616.8,278.46,609.69,278.19Z"/><path class="cls-6" d="M645.06,340.79s4.1-1.15,2.9,2.69-2.82,11.63-2.82,11.63-1.28,4.64-3.39,2l-9.15-11.3s-2.19-1.82,1.12-3.06S645.06,340.79,645.06,340.79Z"/><path class="cls-3" d="M656.62,366.94c-.85-1.19-4.17-2.43-7.15-2.58a15.48,15.48,0,0,0-5,.65c-.15,2.76-1.39,25.28-2.19,29.71a4.66,4.66,0,0,1-1.43,2.8c1,.22,2.47.52,4.12.8,3.21.56,3.71-3.44,3.71-3.44S658.29,369.25,656.62,366.94Z"/><path class="cls-3" d="M634.35,363.83c-3.19,0-6.16.89-6.9,2.21-1.61,2.86,3.67,29.35,3.67,29.35s.65,3.18,2.11,3.21c1,0,3.58.49,5.25-1a4.66,4.66,0,0,0,1.43-2.8c.8-4.43,2-26.95,2.19-29.71v-.28A36.75,36.75,0,0,0,634.35,363.83Z"/><path class="cls-7" d="M640.71,314.52c.51,4.23,2,7.65,3.35,7.55s1.92-3.92,1.36-8.15-2-8.65-3.47-8.52S640.18,310.31,640.71,314.52Z"/><path class="cls-8" d="M640.71,314.52c.51,4.23,2,7.65,3.35,7.55s1.92-3.92,1.36-8.15-2-8.65-3.47-8.52S640.18,310.31,640.71,314.52Z"/><path class="cls-8" d="M622.16,318.07c1,4.21,2.81,8,4.09,7.57s1.47-3.75.66-8.71c-.78-5.13-2.93-8.66-4.23-7.29S621.16,314,622.16,318.07Z"/><path class="cls-8" d="M622.16,318.07c1,4.21,2.81,8,4.09,7.57s1.47-3.75.66-8.71c-.78-5.13-2.93-8.66-4.23-7.29S621.16,314,622.16,318.07Z"/><path class="cls-9" d="M606.1,396.24l-.65-.25a15.28,15.28,0,0,0-3.84-1c-1.28-.17-2.55-.16-3.83-.22a10.76,10.76,0,0,0-2.63.37,25.12,25.12,0,0,0-4.89,1.57c-2.8,1.26-5.38,3.24-6.53,6.06-1.39,3.4-.35,7.16,1.29,10.31,2.47,4.77,5.46,6.57,9.83,8.83,3.62,1.86,8.42,3.21,11.84,5.51s3.06,4.57,3.51,8.93c.71,6.71.11,12.76,8.57,13.57,4.69.45,8.79-1.27,10.81-5.68,3.49-7.63,3.41-23.2-1.58-29.54-1.22-1.55-2.48-3.06-3.78-4.55q-2.52-2.88-5.28-5.57c-.91-.88-1.84-1.75-2.8-2.6a17,17,0,0,0-2.71-2.22c-.45-.25-.94-.43-1.4-.67-.86-.46-1.73-.93-2.55-1.43A18.74,18.74,0,0,0,606.1,396.24Z"/><path class="cls-9" d="M660.72,399.17c-6.7,1.3-14.52,5.37-16.92,13C642,418,640.44,431.48,645,435.83c2.53,2.43,5.9,3,8.73.87,3.28-2.43,2.8-7.4,4.85-11,3.77-6.66,11.86-6.6,13.48-15.93C673.37,402.16,665.48,393.33,660.72,399.17Z"/><path class="cls-2" d="M884.73,368.3c32.54,2,38.12-25.69,46.68-53s-12.56-72.72-36.63-74.08c-40.42-2.28-52.95,4.47-65.76,35.67C812.87,316.23,840,365.31,884.73,368.3Z"/><path class="cls-2" d="M914.61,254.51c11.84-13.91,26.5-60.08,27.66-73.42s16.74-72.16-.86-62.69-34.91,47-39.45,68.94-9.43,40-6.33,61.42C902,250.4,907.9,253.92,914.61,254.51Z"/><path class="cls-2" d="M864.6,246.84c11.78-20.3,7.28-66,1.85-81.54s-33.83-65.28-43.3-47.52-.13,41.43,2.57,63.48,14.27,54.48,19.62,78C852,255.56,858.76,252.4,864.6,246.84Z"/><path class="cls-3" d="M911.94,249.91c6-12.1,13.43-41.95,14.75-51.78s9.2-48.71,0-42.74-18.4,36.54-21.05,49.55-4.73,24.79-3.92,37.59C905.12,244.92,908.32,248.11,911.94,249.91Z"/><path class="cls-3" d="M860.45,242.33c6.14-14.24,2.42-45.45.41-55.91s-13.28-46-19.71-35.38-2.23,30.37-.8,45.39,7.51,37.52,9.82,53.78C853.71,247.75,857.21,245.64,860.45,242.33Z"/><path class="cls-4" d="M910.91,473.61s46.25,15.76,33.37,23.24-16.07,8.23-20.81,8c0,0,2.27,3.72-4.11,5.21s-33.09-5.21-34.64-6.19-26.62-10.3-22.41-19.1,24.18-15,25.76-15S910.91,473.61,910.91,473.61Z"/><path class="cls-4" d="M876.83,486.07s13.75,21.72,8.24,23.11c0,0,1.73,7.33-11.1,8.18s-51.33,2.5-46.22-14.22,7.39-19.26,13-19.74,9.89-1.07,9.89-1.07Z"/><path class="cls-5" d="M837.31,478.55s1.28,8-8.26,9.18-23.67-1.69-27.87-16.09-5.63-18.41,1.81-26.83,16.54-10.36,25.56-2.15S837.31,478.55,837.31,478.55Z"/><path class="cls-2" d="M896.47,373.28l17.38,27.47c2.16,11.6,2.93,24.69,6.82,35.78,4,11.45,17.41,17.72,14.36,31.49-3.82,17.26-14.6,30.3-38.36,31s-53.76-1.25-62.09-11.06-19.31-33.17-12.45-47.15,28.11-52.74,35.67-64.32S867,364.16,867,364.16Z"/><path class="cls-3" d="M907.64,439.29s12.46,5.22,14.41,16.37,1,37.22-27.57,38.51-43.43-2.44-49.21-16.9-4.66-29.43,5.33-36.19C862.78,432.84,872.53,426.09,907.64,439.29Z"/><path class="cls-3" d="M910.93,288.42s-.52-28.5-22-29.42c-10.38-.45-16.52,5.62-11.3,27.2s7,33.61,21.9,33.37C912.87,319.36,910.93,288.42,910.93,288.42Z"/><path class="cls-3" d="M859.69,260.19c-7.11-.27-15.28,6.54-11.38,33.69,4.42,30.69,18.29,34.51,26.28,33.47s15.36-11,7.39-39.13C874.64,262.34,866.8,260.46,859.69,260.19Z"/><path class="cls-6" d="M895.06,322.79s4.1-1.15,2.9,2.69-2.82,11.63-2.82,11.63-1.28,4.64-3.39,2l-9.15-11.3s-2.19-1.82,1.12-3.06S895.06,322.79,895.06,322.79Z"/><path class="cls-3" d="M906.62,348.94c-.85-1.19-4.17-2.43-7.15-2.58a15.48,15.48,0,0,0-5,.65c-.15,2.76-1.39,25.28-2.19,29.71a4.66,4.66,0,0,1-1.43,2.8c1,.22,2.47.52,4.12.8,3.21.56,3.71-3.44,3.71-3.44S908.29,351.25,906.62,348.94Z"/><path class="cls-3" d="M884.35,345.83c-3.19,0-6.16.89-6.9,2.21-1.61,2.86,3.67,29.35,3.67,29.35s.65,3.18,2.11,3.21c1,0,3.58.49,5.25-1a4.66,4.66,0,0,0,1.43-2.8c.8-4.43,2-26.95,2.19-29.71v-.28A36.75,36.75,0,0,0,884.35,345.83Z"/><path class="cls-7" d="M890.71,294.52c.51,4.23,2,7.65,3.35,7.55s1.92-3.92,1.36-8.15-2-8.65-3.47-8.52S890.18,290.31,890.71,294.52Z"/><path class="cls-8" d="M890.71,294.52c.51,4.23,2,7.65,3.35,7.55s1.92-3.92,1.36-8.15-2-8.65-3.47-8.52S890.18,290.31,890.71,294.52Z"/><path class="cls-8" d="M872.16,298.07c1,4.21,2.81,8,4.09,7.57s1.47-3.75.66-8.71c-.78-5.13-2.93-8.66-4.23-7.29S871.16,294,872.16,298.07Z"/><path class="cls-8" d="M872.16,298.07c1,4.21,2.81,8,4.09,7.57s1.47-3.75.66-8.71c-.78-5.13-2.93-8.66-4.23-7.29S871.16,294,872.16,298.07Z"/><path class="cls-9" d="M856.1,385.24l-.65-.25a15.28,15.28,0,0,0-3.84-1c-1.28-.17-2.55-.16-3.83-.22a10.76,10.76,0,0,0-2.63.37,25.12,25.12,0,0,0-4.89,1.57c-2.8,1.26-5.38,3.24-6.53,6.06-1.39,3.4-.35,7.16,1.29,10.31,2.47,4.77,5.46,6.57,9.83,8.83,3.62,1.86,8.42,3.21,11.84,5.51s3.06,4.57,3.51,8.93c.71,6.71.11,12.76,8.57,13.57,4.69.45,8.79-1.27,10.81-5.68,3.49-7.63,3.41-23.2-1.58-29.54-1.22-1.55-2.48-3.06-3.78-4.55q-2.52-2.88-5.28-5.57c-.91-.88-1.84-1.75-2.8-2.6a17,17,0,0,0-2.71-2.22c-.45-.25-.94-.43-1.4-.67-.86-.46-1.73-.93-2.55-1.43A18.74,18.74,0,0,0,856.1,385.24Z"/><path class="cls-9" d="M910.72,388.17c-6.7,1.3-14.52,5.37-16.92,13C892,407,890.44,420.48,895,424.83c2.53,2.43,5.9,3,8.73.87,3.28-2.43,2.8-7.4,4.85-11,3.77-6.66,11.86-6.6,13.48-15.93C923.37,391.16,915.48,382.33,910.72,388.17Z"/><path class="cls-2" d="M1135.59,341c33.11,2.33,37.86-27.38,46.36-52.71s-11.48-71.14-35.37-73.18c-40.13-3.42-52.86,1.07-66.79,34.59C1062.23,292,1089.83,337.8,1135.59,341Z"/><path class="cls-2" d="M1164.47,226.62c17-16.68,19.35-65.33,18.13-82s-2.24-82.75-18.42-69.33-19.2,61.51-19.84,83.08-1.15,42.58,1.34,63.62C1152,223.31,1158,227.39,1164.47,226.62Z"/><path class="cls-2" d="M1114.58,219.23c12.79-18.19,12.17-62.37,8.41-78.65s-20.15-78.1-35.65-61.82-8.3,47.74-6.76,71.79,8.7,56.72,14.73,81.46C1102.1,228.39,1108.94,225.61,1114.58,219.23Z"/><path class="cls-3" d="M1161.87,222.38c8.24-13.25,9.11-45.25,8.81-56.55s-.2-53.32-9.35-45.3-9.16,40.84-9.66,54.68-.52,26.9.12,40.32C1155.18,217.69,1158.26,221.17,1161.87,222.38Z"/><path class="cls-3" d="M1110.52,215.12c6-13.52,5.72-42.72,4.94-53.79s-7.16-50.24-16.36-41-5,32.78-4.94,48.24,3.65,38.07,6,54.47C1103.78,220.67,1107.35,218.64,1110.52,215.12Z"/><path class="cls-4" d="M1158.21,439.48s43.94,22.46,31.9,32.55-15,11.07-19.53,10.68c0,0,2.2,5.15-3.79,7.1s-31.35-7.72-32.83-9.09-25.31-14.62-21.48-26.67,22.59-20.32,24.08-20.19S1158.21,439.48,1158.21,439.48Z"/><path class="cls-4" d="M1126.82,449.68s13.92,26.24,8.42,27.87c0,0,1.79,8.83-11,9.76s-51.32,2.61-46.33-17.47,7.23-23.12,12.83-23.66,9.89-1.21,9.89-1.21Z"/><path class="cls-5" d="M1088.31,446.55s1.28,8-8.26,9.18-23.67-1.69-27.87-16.09-5.63-18.41,1.81-26.83,16.54-10.36,25.56-2.15S1088.31,446.55,1088.31,446.55Z"/><path class="cls-2" d="M1146.47,343.28l17.38,27.47c2.16,11.6,2.93,24.69,6.82,35.78,4,11.45,17.41,17.72,14.36,31.49-3.82,17.26-14.6,30.3-38.36,31s-53.76-1.25-62.09-11.06-19.31-33.17-12.45-47.15,28.11-52.74,35.67-64.32,9.17-12.31,9.17-12.31Z"/><path class="cls-3" d="M1157.64,409.29s12.46,5.22,14.41,16.37,1,37.22-27.57,38.51-43.43-2.44-49.21-16.9-4.66-29.43,5.33-36.19C1112.78,402.84,1122.53,396.09,1157.64,409.29Z"/><path class="cls-6" d="M1145.06,295.79s4.1-1.15,2.9,2.69-2.82,11.63-2.82,11.63-1.28,4.64-3.39,2l-9.15-11.3s-2.19-1.82,1.12-3.06S1145.06,295.79,1145.06,295.79Z"/><path class="cls-3" d="M1156.62,321.94c-.85-1.19-4.17-2.43-7.15-2.58a15.48,15.48,0,0,0-5,.65c-.15,2.76-1.39,25.28-2.19,29.71a4.66,4.66,0,0,1-1.43,2.8c1,.22,2.47.52,4.12.8,3.21.56,3.71-3.44,3.71-3.44S1158.29,324.25,1156.62,321.94Z"/><path class="cls-3" d="M1134.35,318.83c-3.19,0-6.16.89-6.9,2.21-1.61,2.86,3.67,29.35,3.67,29.35s.65,3.18,2.11,3.21c1,0,3.58.49,5.25-1a4.66,4.66,0,0,0,1.43-2.8c.8-4.43,2-26.95,2.19-29.71v-.28A36.75,36.75,0,0,0,1134.35,318.83Z"/><path class="cls-3" d="M1161.88,261.28s-.53-29.36-22.69-30.31c-10.69-.46-17,5.79-11.64,28s7.21,34.62,22.56,34.37C1163.88,293.14,1161.88,261.28,1161.88,261.28Z"/><path class="cls-3" d="M1109.11,232.2c-7.33-.28-15.74,6.74-11.72,34.7,4.54,31.61,18.83,35.55,27.06,34.47s15.82-11.31,7.61-40.3C1124.51,234.42,1116.43,232.48,1109.11,232.2Z"/><path class="cls-7" d="M1141.06,265.5c.53,4.35,2.1,7.87,3.45,7.77s2-4,1.4-8.38-2.07-8.92-3.58-8.78S1140.51,261.16,1141.06,265.5Z"/><path class="cls-8" d="M1141.06,265.5c.53,4.35,2.1,7.87,3.45,7.77s2-4,1.4-8.38-2.07-8.92-3.58-8.78S1140.51,261.16,1141.06,265.5Z"/><path class="cls-8" d="M1122,269.16c1.07,4.33,2.89,8.23,4.21,7.79s1.51-3.86.68-9c-.8-5.28-3-8.91-4.35-7.51S1120.92,265,1122,269.16Z"/><path class="cls-8" d="M1122,269.16c1.07,4.33,2.89,8.23,4.21,7.79s1.51-3.86.68-9c-.8-5.28-3-8.91-4.35-7.51S1120.92,265,1122,269.16Z"/><path class="cls-9" d="M1106.1,358.24l-.65-.25a15.28,15.28,0,0,0-3.84-1c-1.28-.17-2.55-.16-3.83-.22a10.76,10.76,0,0,0-2.63.37,25.12,25.12,0,0,0-4.89,1.57c-2.8,1.26-5.38,3.24-6.53,6.06-1.39,3.4-.35,7.16,1.29,10.31,2.47,4.77,5.46,6.57,9.83,8.83,3.62,1.86,8.42,3.21,11.84,5.51s3.06,4.57,3.51,8.93c.71,6.71.11,12.76,8.57,13.57,4.69.45,8.79-1.27,10.81-5.68,3.49-7.63,3.41-23.2-1.58-29.54-1.22-1.55-2.48-3.06-3.78-4.55q-2.52-2.88-5.28-5.57c-.91-.88-1.84-1.75-2.8-2.6a17,17,0,0,0-2.71-2.22c-.45-.25-.94-.43-1.4-.67-.86-.46-1.73-.93-2.55-1.43A18.74,18.74,0,0,0,1106.1,358.24Z"/><path class="cls-9" d="M1160.72,361.17c-6.7,1.3-14.52,5.37-16.92,13-1.83,5.81-3.36,19.32,1.18,23.67,2.53,2.43,5.9,3,8.73.87,3.28-2.43,2.8-7.4,4.85-11,3.77-6.66,11.86-6.6,13.48-15.93C1173.37,364.16,1165.48,355.33,1160.72,361.17Z"/><path class="cls-2" d="M1384.29,293.42c36-.22,37.56-26.24,47.1-52.4s-9.3-68.72-33.45-72.65c-40.54-6.6-52.6-1.2-67.68,33.51C1311.25,245.64,1339.75,286.88,1384.29,293.42Z"/><path class="cls-2" d="M1414.77,179.38c14.47-18.84,20.13-65.79,18.38-83s-4.45-90.86-20.59-71.46-17.5,63.37-17,87.42-1.87,39.79.31,62.05C1402.34,175,1408.34,180.45,1414.77,179.38Z"/><path class="cls-2" d="M1364.74,170.65c11.16-18.09,11-58.55,8.46-75.07s-5.56-82.18-25.73-68.8S1329.8,77,1330,101.88s8.14,56.9,15.33,81.81C1352.45,180.27,1359.09,177.32,1364.74,170.65Z"/><path class="cls-3" d="M1411.93,174.43c8.35-12.25,10.4-41.09,10.43-52.12s-.24-56.07-10.72-47.63-7.37,41.44-8.14,55.18-1.36,25.14-1.38,38.19C1405.51,169.91,1408.36,173.32,1411.93,174.43Z"/><path class="cls-3" d="M1360.36,166.86c4.51-13.31,4.11-39.89,3.8-51s-.67-50.74-12.38-43.34-9.24,33.41-9.27,48.88,4.57,37.37,7.63,53.54C1353.83,172.65,1357.33,170.55,1360.36,166.86Z"/><path class="cls-4" d="M1407,386.63s42.86,22.89,31.14,33.12-14.64,11.23-19,10.82c0,0,2.16,5.24-3.68,7.21s-30.56-7.89-32-9.29-24.69-14.89-21-27.13,22-20.61,23.44-20.48S1407,386.63,1407,386.63Z"/><path class="cls-4" d="M1376.85,397.59s14.09,30.51,8.59,32.37c0,0,1.85,10.25-11,11.24s-51.32,2.72-46.46-20.54,7.1-26.75,12.7-27.34,9.88-1.35,9.88-1.35Z"/><path class="cls-5" d="M1337.31,399.55s1.28,8-8.26,9.18-23.67-1.69-27.87-16.09-5.63-18.41,1.81-26.83,16.54-10.36,25.56-2.15S1337.31,399.55,1337.31,399.55Z"/><path class="cls-2" d="M1396.47,294.28l17.38,27.47c2.16,11.6,2.93,24.69,6.82,35.78,4,11.45,17.41,17.72,14.36,31.49-3.82,17.26-14.6,30.3-38.36,31s-53.76-1.25-62.09-11.06-19.31-33.17-12.45-47.15,28.11-52.74,35.67-64.32,9.17-12.31,9.17-12.31Z"/><path class="cls-3" d="M1407.64,360.29s12.46,5.22,14.41,16.37,1,37.22-27.57,38.51-43.43-2.44-49.21-16.9-4.66-29.43,5.33-36.19C1362.78,353.84,1372.53,347.09,1407.64,360.29Z"/><path class="cls-6" d="M1395.06,247.79s4.1-1.15,2.9,2.69-2.82,11.63-2.82,11.63-1.28,4.64-3.39,2l-9.15-11.3s-2.19-1.82,1.12-3.06S1395.06,247.79,1395.06,247.79Z"/><path class="cls-3" d="M1406.62,273.94c-.85-1.19-4.17-2.43-7.15-2.58a15.48,15.48,0,0,0-5,.65c-.15,2.76-1.39,25.28-2.19,29.71a4.66,4.66,0,0,1-1.43,2.8c1,.22,2.47.52,4.12.8,3.21.56,3.71-3.44,3.71-3.44S1408.29,276.25,1406.62,273.94Z"/><path class="cls-3" d="M1384.35,270.83c-3.19,0-6.16.89-6.9,2.21-1.61,2.86,3.67,29.35,3.67,29.35s.65,3.18,2.11,3.21c1,0,3.58.49,5.25-1a4.66,4.66,0,0,0,1.43-2.8c.8-4.43,2-26.95,2.19-29.71v-.28A36.75,36.75,0,0,0,1384.35,270.83Z"/><path class="cls-3" d="M1412.52,213.18s-.55-29.93-23.14-30.9c-10.89-.46-17.34,5.9-11.86,28.57s7.35,35.29,23,35C1414.56,245.66,1412.52,213.18,1412.52,213.18Z"/><path class="cls-3" d="M1358.72,183.54c-7.47-.28-16,6.87-12,35.38,4.63,32.22,19.2,36.23,27.59,35.13s16.13-11.52,7.76-41.08C1374.42,185.8,1366.18,183.82,1358.72,183.54Z"/><path class="cls-7" d="M1391.29,215.38c.54,4.44,2.14,8,3.51,7.93s2-4.12,1.43-8.55-2.11-9.09-3.64-8.95S1390.73,211,1391.29,215.38Z"/><path class="cls-8" d="M1391.29,215.38c.54,4.44,2.14,8,3.51,7.93s2-4.12,1.43-8.55-2.11-9.09-3.64-8.95S1390.73,211,1391.29,215.38Z"/><path class="cls-8" d="M1371.81,219.11c1.1,4.42,3,8.39,4.29,7.95s1.54-3.94.7-9.15c-.82-5.38-3.08-9.08-4.44-7.65S1370.76,214.86,1371.81,219.11Z"/><path class="cls-8" d="M1371.81,219.11c1.1,4.42,3,8.39,4.29,7.95s1.54-3.94.7-9.15c-.82-5.38-3.08-9.08-4.44-7.65S1370.76,214.86,1371.81,219.11Z"/><path class="cls-9" d="M1356.1,309.24l-.65-.25a15.28,15.28,0,0,0-3.84-1c-1.28-.17-2.55-.16-3.83-.22a10.76,10.76,0,0,0-2.63.37,25.12,25.12,0,0,0-4.89,1.57c-2.8,1.26-5.38,3.24-6.53,6.06-1.39,3.4-.35,7.16,1.29,10.31,2.47,4.77,5.46,6.57,9.83,8.83,3.62,1.86,8.42,3.21,11.84,5.51s3.06,4.57,3.51,8.93c.71,6.71.11,12.76,8.57,13.57,4.69.45,8.79-1.27,10.81-5.68,3.49-7.63,3.41-23.2-1.58-29.54-1.22-1.55-2.48-3.06-3.78-4.55q-2.52-2.88-5.28-5.57c-.91-.88-1.84-1.75-2.8-2.6a17,17,0,0,0-2.71-2.22c-.45-.25-.94-.43-1.4-.67-.86-.46-1.73-.93-2.55-1.43A18.74,18.74,0,0,0,1356.1,309.24Z"/><path class="cls-9" d="M1410.72,312.17c-6.7,1.3-14.52,5.37-16.92,13-1.83,5.81-3.36,19.32,1.18,23.67,2.53,2.43,5.9,3,8.73.87,3.28-2.43,2.8-7.4,4.85-11,3.77-6.66,11.86-6.6,13.48-15.93C1423.37,315.16,1415.48,306.33,1410.72,312.17Z"/><path class="cls-2" d="M1634.85,295.56c35.15.55,37.86-27.11,46.83-53s-11-70.33-35-73c-40.26-4.53-52.76.71-67,34.42C1561.77,246.4,1590.94,290.81,1634.85,295.56Z"/><path class="cls-2" d="M1664.44,180.66c17.81-15.48,21-61.07,20-77.76s-6.63-87.54-21.93-73.58-15.19,65.89-16.22,87-2.2,39.46-.5,59.68C1652,177.33,1658,181.48,1664.44,180.66Z"/><path class="cls-2" d="M1614.5,173.19c12.48-17.82,9.78-62,5.85-77.69s-20.87-75.65-35.92-59.91-8,47.63-6.21,71.14,11.16,55.09,17.07,79.32C1602.07,182.44,1608.89,179.61,1614.5,173.19Z"/><path class="cls-3" d="M1661.92,176.56c8.75-12,10.66-41.6,10.67-52.32S1671.1,68.37,1662.41,77s-8,42.34-9,55.9-1.43,24.28-1.41,37.06C1655.38,172,1658.38,175.3,1661.92,176.56Z"/><path class="cls-3" d="M1610.42,169.14c5.76-13.36,4-42.1,2.86-52.93s-8-49.12-17-39.9-4.64,32.46-4.06,47.69,5.46,37,7.91,53.12C1603.73,174.72,1607.3,172.7,1610.42,169.14Z"/><path class="cls-4" d="M1660.9,399.42s46.22,15.06,33.33,22.26-16.07,7.93-20.82,7.72c0,0,2.27,3.56-4.11,5s-33.08-4.95-34.64-5.88-26.59-9.85-22.37-18.31,24.2-14.48,25.78-14.41S1660.9,399.42,1660.9,399.42Z"/><path class="cls-4" d="M1626.81,411.44s13.72,20.83,8.2,22.17c0,0,1.72,7-11.11,7.87s-51.33,2.48-46.19-13.58,7.41-18.5,13-19,9.89-1,9.89-1Z"/><path class="cls-5" d="M1587.31,404.55s1.28,8-8.26,9.18-23.67-1.69-27.87-16.09-5.63-18.41,1.81-26.83,16.54-10.36,25.56-2.15S1587.31,404.55,1587.31,404.55Z"/><path class="cls-2" d="M1646.47,299.28l17.38,27.47c2.16,11.6,2.93,24.69,6.82,35.78,4,11.45,17.41,17.72,14.36,31.49-3.82,17.26-14.6,30.3-38.36,31s-53.76-1.25-62.09-11.06-19.31-33.17-12.45-47.15,28.11-52.74,35.67-64.32,9.17-12.31,9.17-12.31Z"/><path class="cls-3" d="M1657.64,365.29s12.46,5.22,14.41,16.37,1,37.22-27.57,38.51-43.43-2.44-49.21-16.9-4.66-29.43,5.33-36.19C1612.78,358.84,1622.53,352.09,1657.64,365.29Z"/><path class="cls-6" d="M1645.06,249.79s4.1-1.15,2.9,2.69-2.82,11.63-2.82,11.63-1.28,4.64-3.39,2l-9.15-11.3s-2.19-1.82,1.12-3.06S1645.06,249.79,1645.06,249.79Z"/><path class="cls-3" d="M1656.62,275.94c-.85-1.19-4.17-2.43-7.15-2.58a15.48,15.48,0,0,0-5,.65c-.15,2.76-1.39,25.28-2.19,29.71a4.66,4.66,0,0,1-1.43,2.8c1,.22,2.47.52,4.12.8,3.21.56,3.71-3.44,3.71-3.44S1658.29,278.25,1656.62,275.94Z"/><path class="cls-3" d="M1634.35,272.83c-3.19,0-6.16.89-6.9,2.21-1.61,2.86,3.67,29.35,3.67,29.35s.65,3.18,2.11,3.21c1,0,3.58.49,5.25-1a4.66,4.66,0,0,0,1.43-2.8c.8-4.43,2-26.95,2.19-29.71v-.28A36.75,36.75,0,0,0,1634.35,272.83Z"/><path class="cls-3" d="M1661.88,215.28s-.53-29.36-22.69-30.31c-10.69-.46-17,5.79-11.64,28s7.21,34.62,22.56,34.37C1663.88,247.14,1661.88,215.28,1661.88,215.28Z"/><path class="cls-3" d="M1609.11,186.2c-7.33-.28-15.74,6.74-11.72,34.7,4.54,31.61,18.83,35.55,27.06,34.47s15.82-11.31,7.61-40.3C1624.51,188.42,1616.43,186.48,1609.11,186.2Z"/><path class="cls-7" d="M1641.06,219.5c.53,4.35,2.1,7.87,3.45,7.77s2-4,1.4-8.38-2.07-8.92-3.58-8.78S1640.51,215.16,1641.06,219.5Z"/><path class="cls-8" d="M1641.06,219.5c.53,4.35,2.1,7.87,3.45,7.77s2-4,1.4-8.38-2.07-8.92-3.58-8.78S1640.51,215.16,1641.06,219.5Z"/><path class="cls-8" d="M1622,223.16c1.07,4.33,2.89,8.23,4.21,7.79s1.51-3.86.68-9c-.8-5.28-3-8.91-4.35-7.51S1620.92,219,1622,223.16Z"/><path class="cls-8" d="M1622,223.16c1.07,4.33,2.89,8.23,4.21,7.79s1.51-3.86.68-9c-.8-5.28-3-8.91-4.35-7.51S1620.92,219,1622,223.16Z"/><path class="cls-9" d="M1606.1,313.24l-.65-.25a15.28,15.28,0,0,0-3.84-1c-1.28-.17-2.55-.16-3.83-.22a10.76,10.76,0,0,0-2.63.37,25.12,25.12,0,0,0-4.89,1.57c-2.8,1.26-5.38,3.24-6.53,6.06-1.39,3.4-.35,7.16,1.29,10.31,2.47,4.77,5.46,6.57,9.83,8.83,3.62,1.86,8.42,3.21,11.84,5.51s3.06,4.57,3.51,8.93c.71,6.71.11,12.76,8.57,13.57,4.69.45,8.79-1.27,10.81-5.68,3.49-7.63,3.41-23.2-1.58-29.54-1.22-1.55-2.48-3.06-3.78-4.55q-2.52-2.88-5.28-5.57c-.91-.88-1.84-1.75-2.8-2.6a17,17,0,0,0-2.71-2.22c-.45-.25-.94-.43-1.4-.67-.86-.46-1.73-.93-2.55-1.43A18.74,18.74,0,0,0,1606.1,313.24Z"/><path class="cls-9" d="M1660.72,316.17c-6.7,1.3-14.52,5.37-16.92,13-1.83,5.81-3.36,19.32,1.18,23.67,2.53,2.43,5.9,3,8.73.87,3.28-2.43,2.8-7.4,4.85-11,3.77-6.66,11.86-6.6,13.48-15.93C1673.37,319.16,1665.48,310.33,1660.72,316.17Z"/><path class="cls-2" d="M1885.06,339.74c32.71,1.63,38-25.64,46.62-53.53s-12.55-71.83-36.73-73.51c-40.59-2.82-53.15,4-66,35.23C1812.87,287.36,1840.1,336.86,1885.06,339.74Z"/><path class="cls-2" d="M1914.53,225.73c16.23-21.07,21.75-59.51,20.48-82.76s-3.62-87.92-17.48-72.45-20.09,68-21.06,89.69-3.36,39.41-.75,59.8C1902,221.66,1908.15,224.65,1914.53,225.73Z"/><path class="cls-2" d="M1864.65,217.87c11.63-20.39,9.21-66.05,4.79-82.08s-24.9-80.68-37.38-63.73-6.33,53.43-4.26,77.05,11.77,56.61,17.55,81.23C1851.93,226.51,1858.67,223.53,1864.65,217.87Z"/><path class="cls-3" d="M1911.91,220.93c8.37-13.35,11-42.48,10.79-54.6s-1-57.77-8.35-47.85-10.22,44.4-11.11,58.51-1.8,23.92-1.3,36.93C1905.3,216,1908.55,219.17,1911.91,220.93Z"/><path class="cls-3" d="M1860.48,213.46c5.79-13.92,4.13-44.64,2.53-55.18s-11-53.58-18.07-42.33-3.69,35.55-2.88,51.51,5.58,37.19,8.11,53.78C1853.67,218.73,1857.15,216.7,1860.48,213.46Z"/><path class="cls-4" d="M1910.89,440s46.16,13.62,33.25,20.25-16.1,7.3-20.84,7.12c0,0,2.25,3.25-4.13,4.59s-33.06-4.42-34.61-5.27-26.56-8.92-22.31-16.67,24.24-13.32,25.82-13.26S1910.89,440,1910.89,440Z"/><path class="cls-4" d="M1876.76,451.14s13.65,19,8.13,20.25c0,0,1.7,6.43-11.14,7.23s-51.33,2.44-46.14-12.27,7.47-16.94,13.08-17.39,9.89-1,9.89-1Z"/><path class="cls-5" d="M1837.31,445.55s1.28,8-8.26,9.18-23.67-1.69-27.87-16.09-5.63-18.41,1.81-26.83,16.54-10.36,25.56-2.15S1837.31,445.55,1837.31,445.55Z"/><path class="cls-2" d="M1896.47,340.28l17.38,27.47c2.16,11.6,2.93,24.69,6.82,35.78,4,11.45,17.41,17.72,14.36,31.49-3.82,17.26-14.6,30.3-38.36,31s-53.76-1.25-62.09-11.06-19.31-33.17-12.45-47.15,28.11-52.74,35.67-64.32,9.17-12.31,9.17-12.31Z"/><path class="cls-3" d="M1907.64,406.29s12.46,5.22,14.41,16.37,1,37.22-27.57,38.51-43.43-2.44-49.21-16.9-4.66-29.43,5.33-36.19C1862.78,399.84,1872.53,393.09,1907.64,406.29Z"/><path class="cls-3" d="M1910.93,259.42s-.52-28.5-22-29.42c-10.38-.45-16.52,5.62-11.3,27.2s7,33.61,21.9,33.37C1912.87,290.36,1910.93,259.42,1910.93,259.42Z"/><path class="cls-3" d="M1859.69,231.19c-7.11-.27-15.28,6.54-11.38,33.69,4.42,30.69,18.29,34.51,26.28,33.47s15.36-11,7.39-39.13C1874.64,233.34,1866.8,231.46,1859.69,231.19Z"/><path class="cls-6" d="M1895.06,293.79s4.1-1.15,2.9,2.69-2.82,11.63-2.82,11.63-1.28,4.64-3.39,2l-9.15-11.3s-2.19-1.82,1.12-3.06S1895.06,293.79,1895.06,293.79Z"/><path class="cls-3" d="M1906.62,319.94c-.85-1.19-4.17-2.43-7.15-2.58a15.48,15.48,0,0,0-5,.65c-.15,2.76-1.39,25.28-2.19,29.71a4.66,4.66,0,0,1-1.43,2.8c1,.22,2.47.52,4.12.8,3.21.56,3.71-3.44,3.71-3.44S1908.29,322.25,1906.62,319.94Z"/><path class="cls-3" d="M1884.35,316.83c-3.19,0-6.16.89-6.9,2.21-1.61,2.86,3.67,29.35,3.67,29.35s.65,3.18,2.11,3.21c1,0,3.58.49,5.25-1a4.66,4.66,0,0,0,1.43-2.8c.8-4.43,2-26.95,2.19-29.71v-.28A36.75,36.75,0,0,0,1884.35,316.83Z"/><path class="cls-7" d="M1890.71,265.52c.51,4.23,2,7.65,3.35,7.55s1.92-3.92,1.36-8.15-2-8.65-3.47-8.52S1890.18,261.31,1890.71,265.52Z"/><path class="cls-8" d="M1890.71,265.52c.51,4.23,2,7.65,3.35,7.55s1.92-3.92,1.36-8.15-2-8.65-3.47-8.52S1890.18,261.31,1890.71,265.52Z"/><path class="cls-8" d="M1872.16,269.07c1,4.21,2.81,8,4.09,7.57s1.47-3.75.66-8.71c-.78-5.13-2.93-8.66-4.23-7.29S1871.16,265,1872.16,269.07Z"/><path class="cls-8" d="M1872.16,269.07c1,4.21,2.81,8,4.09,7.57s1.47-3.75.66-8.71c-.78-5.13-2.93-8.66-4.23-7.29S1871.16,265,1872.16,269.07Z"/><path class="cls-9" d="M1856.1,354.24l-.65-.25a15.28,15.28,0,0,0-3.84-1c-1.28-.17-2.55-.16-3.83-.22a10.76,10.76,0,0,0-2.63.37,25.12,25.12,0,0,0-4.89,1.57c-2.8,1.26-5.38,3.24-6.53,6.06-1.39,3.4-.35,7.16,1.29,10.31,2.47,4.77,5.46,6.57,9.83,8.83,3.62,1.86,8.42,3.21,11.84,5.51s3.06,4.57,3.51,8.93c.71,6.71.11,12.76,8.57,13.57,4.69.45,8.79-1.27,10.81-5.68,3.49-7.63,3.41-23.2-1.58-29.54-1.22-1.55-2.48-3.06-3.78-4.55q-2.52-2.88-5.28-5.57c-.91-.88-1.84-1.75-2.8-2.6a17,17,0,0,0-2.71-2.22c-.45-.25-.94-.43-1.4-.67-.86-.46-1.73-.93-2.55-1.43A18.74,18.74,0,0,0,1856.1,354.24Z"/><path class="cls-9" d="M1910.72,357.17c-6.7,1.3-14.52,5.37-16.92,13-1.83,5.81-3.36,19.32,1.18,23.67,2.53,2.43,5.9,3,8.73.87,3.28-2.43,2.8-7.4,4.85-11,3.77-6.66,11.86-6.6,13.48-15.93C1923.37,360.16,1915.48,351.33,1910.72,357.17Z"/><path class="cls-2" d="M2134.89,362.47c32.67,1.82,38.1-25.83,46.68-53.3s-12.73-72.61-36.84-73.77c-40.49-2-52.88,4.06-65.7,35.33C2062.86,310.14,2090,359.57,2134.89,362.47Z"/><path class="cls-2" d="M2164.59,248.55c11.93-15,23.87-62.36,25-77.45s17.91-78.5-.3-67.35-36.26,53.26-40.16,76.52-6.72,40.61-3.59,62.69C2151.93,244.53,2157.92,247.79,2164.59,248.55Z"/><path class="cls-2" d="M2114.52,240.93c14.09-21.69,8.23-65.94,1.68-82.51s-42.69-67.83-50.12-49.36,6.71,45.86,10.53,67.61,13.8,53.13,18.69,76.6C2101.94,249.46,2108.85,246.48,2114.52,240.93Z"/><path class="cls-3" d="M2161.91,243.86c6-12.71,11.37-43.12,12.27-53.61s9-52.35-.27-45.39-18.41,39.55-20.36,53.34-3.12,25.23-2,38.41C2155,238.91,2158.29,242.09,2161.91,243.86Z"/><path class="cls-3" d="M2110.59,236.41c7.52-14.48,4-44.77,1.56-55.56s-17.79-48.71-23.07-36.9,1.19,32.53,3.07,47.76,6.32,36.22,8,52.48C2103.74,241.68,2107.31,239.65,2110.59,236.41Z"/><path class="cls-4" d="M2160.89,463s46.16,13.62,33.25,20.25-16.1,7.3-20.84,7.12c0,0,2.25,3.25-4.13,4.59s-33.06-4.42-34.61-5.27-26.56-8.92-22.31-16.67,24.24-13.32,25.82-13.26S2160.89,463,2160.89,463Z"/><path class="cls-4" d="M2126.76,474.14s13.65,19,8.13,20.25c0,0,1.7,6.43-11.14,7.23s-51.33,2.44-46.14-12.27,7.47-16.94,13.08-17.39,9.89-1,9.89-1Z"/><path class="cls-5" d="M2087.31,468.55s1.28,8-8.26,9.18-23.67-1.69-27.87-16.09-5.63-18.41,1.81-26.83,16.54-10.36,25.56-2.15S2087.31,468.55,2087.31,468.55Z"/><path class="cls-2" d="M2146.47,363.28l17.38,27.47c2.16,11.6,2.93,24.69,6.82,35.78,4,11.45,17.41,17.72,14.36,31.49-3.82,17.26-14.6,30.3-38.36,31s-53.76-1.25-62.09-11.06-19.31-33.17-12.45-47.15,28.11-52.74,35.67-64.32,9.17-12.31,9.17-12.31Z"/><path class="cls-3" d="M2157.64,429.29s12.46,5.22,14.41,16.37,1,37.22-27.57,38.51-43.43-2.44-49.21-16.9-4.66-29.43,5.33-36.19C2112.78,422.84,2122.53,416.09,2157.64,429.29Z"/><path class="cls-3" d="M2160.93,282.42s-.52-28.5-22-29.42c-10.38-.45-16.52,5.62-11.3,27.2s7,33.61,21.9,33.37C2162.87,313.36,2160.93,282.42,2160.93,282.42Z"/><path class="cls-3" d="M2109.69,254.19c-7.11-.27-15.28,6.54-11.38,33.69,4.42,30.69,18.29,34.51,26.28,33.47s15.36-11,7.39-39.13C2124.64,256.34,2116.8,254.46,2109.69,254.19Z"/><path class="cls-6" d="M2145.06,316.79s4.1-1.15,2.9,2.69-2.82,11.63-2.82,11.63-1.28,4.64-3.39,2l-9.15-11.3s-2.19-1.82,1.12-3.06S2145.06,316.79,2145.06,316.79Z"/><path class="cls-3" d="M2156.62,342.94c-.85-1.19-4.17-2.43-7.15-2.58a15.48,15.48,0,0,0-5,.65c-.15,2.76-1.39,25.28-2.19,29.71a4.66,4.66,0,0,1-1.43,2.8c1,.22,2.47.52,4.12.8,3.21.56,3.71-3.44,3.71-3.44S2158.29,345.25,2156.62,342.94Z"/><path class="cls-3" d="M2134.35,339.83c-3.19,0-6.16.89-6.9,2.21-1.61,2.86,3.67,29.35,3.67,29.35s.65,3.18,2.11,3.21c1.05,0,3.58.49,5.25-1a4.66,4.66,0,0,0,1.43-2.8c.8-4.43,2-26.95,2.19-29.71v-.28A36.75,36.75,0,0,0,2134.35,339.83Z"/><path class="cls-7" d="M2140.71,290.52c.51,4.23,2,7.65,3.35,7.55s1.92-3.92,1.36-8.15-2-8.65-3.47-8.52S2140.18,286.31,2140.71,290.52Z"/><path class="cls-8" d="M2140.71,290.52c.51,4.23,2,7.65,3.35,7.55s1.92-3.92,1.36-8.15-2-8.65-3.47-8.52S2140.18,286.31,2140.71,290.52Z"/><path class="cls-8" d="M2122.16,294.07c1,4.21,2.81,8,4.09,7.57s1.47-3.75.66-8.71c-.78-5.13-2.93-8.66-4.23-7.29S2121.16,290,2122.16,294.07Z"/><path class="cls-8" d="M2122.16,294.07c1,4.21,2.81,8,4.09,7.57s1.47-3.75.66-8.71c-.78-5.13-2.93-8.66-4.23-7.29S2121.16,290,2122.16,294.07Z"/><path class="cls-9" d="M2106.1,380.24l-.65-.25a15.28,15.28,0,0,0-3.84-1c-1.28-.17-2.55-.16-3.83-.22a10.76,10.76,0,0,0-2.63.37,25.12,25.12,0,0,0-4.89,1.57c-2.8,1.26-5.38,3.24-6.53,6.06-1.39,3.4-.35,7.16,1.29,10.31,2.47,4.77,5.46,6.57,9.83,8.83,3.62,1.86,8.42,3.21,11.84,5.51s3.06,4.57,3.51,8.93c.71,6.71.11,12.76,8.57,13.57,4.69.45,8.79-1.27,10.81-5.68,3.49-7.63,3.41-23.2-1.58-29.54-1.22-1.55-2.48-3.06-3.78-4.55q-2.52-2.88-5.28-5.57c-.91-.88-1.84-1.75-2.8-2.6a17,17,0,0,0-2.71-2.22c-.45-.25-.94-.43-1.4-.67-.86-.46-1.73-.93-2.55-1.43A18.74,18.74,0,0,0,2106.1,380.24Z"/><path class="cls-9" d="M2160.72,383.17c-6.7,1.3-14.52,5.37-16.92,13-1.83,5.81-3.36,19.32,1.18,23.67,2.53,2.43,5.9,3,8.73.87,3.28-2.43,2.8-7.4,4.85-11,3.77-6.66,11.86-6.6,13.48-15.93C2173.37,386.16,2165.48,377.33,2160.72,383.17Z"/><path class="cls-2" d="M2384.82,392c32.31,2.3,38.42-26.37,46.57-52.63s-12.64-74.51-37-74.93c-40.82-.69-52.37,3.78-65.32,35.87C2312.78,340.81,2340.14,388.54,2384.82,392Z"/><path class="cls-2" d="M2414.69,278.5c9.25-12.16,27-64.54,26.84-76.32s26.7-55.74,6.88-51.7-42,29.07-46.45,54.52-10.57,43.21-6.34,67.67C2401.92,274.21,2407.8,277.72,2414.69,278.5Z"/><path class="cls-2" d="M2364.41,270.94c16.22-25.12,6.87-71.14-3.9-89.16s-62.45-51-62.69-30.66,20,31.38,26.9,55,15.54,51.22,20.54,77.14C2352,279.52,2359,276.38,2364.41,270.94Z"/><path class="cls-3" d="M2412,273.75c5-13.35,13.45-46.56,14.42-56.76s10.59-42.35,1-38.9-20.14,32.54-22.24,45.72-5.19,28.37-3.59,42C2404.94,268.52,2408.19,271.88,2412,273.75Z"/><path class="cls-3" d="M2360.66,266c9.32-16.5,3-49.55-.87-61.21s-26-44.3-28.4-31.39,6.42,28.95,9.77,44.6,8,38.55,9,56.11C2353.83,271.6,2357.53,269.51,2360.66,266Z"/><path class="cls-4" d="M2410.89,478s46.16,13.62,33.25,20.25-16.1,7.3-20.84,7.12c0,0,2.25,3.25-4.13,4.59s-33.06-4.42-34.61-5.27-26.56-8.92-22.31-16.67,24.24-13.32,25.82-13.26S2410.89,478,2410.89,478Z"/><path class="cls-4" d="M2376.76,489.14s13.65,19,8.13,20.25c0,0,1.7,6.43-11.14,7.23s-51.33,2.44-46.14-12.27,7.47-16.94,13.08-17.39,9.89-1,9.89-1Z"/><path class="cls-5" d="M2337.31,487.55s1.28,8-8.26,9.18-23.67-1.69-27.87-16.09-5.63-18.41,1.81-26.83,16.54-10.36,25.56-2.15S2337.31,487.55,2337.31,487.55Z"/><path class="cls-2" d="M2396.47,382.28l17.38,27.47c2.16,11.6,2.93,24.69,6.82,35.78,4,11.45,17.41,17.72,14.36,31.49-3.82,17.26-14.6,30.3-38.36,31s-53.76-1.25-62.09-11.06-19.31-33.17-12.45-47.15,28.11-52.74,35.67-64.32,9.17-12.31,9.17-12.31Z"/><path class="cls-3" d="M2407.64,448.29s12.46,5.22,14.41,16.37,1,37.22-27.57,38.51-43.43-2.44-49.21-16.9-4.66-29.43,5.33-36.19C2362.78,441.84,2372.53,435.09,2407.64,448.29Z"/><path class="cls-3" d="M2410.93,312.42s-.52-28.5-22-29.42c-10.38-.45-16.52,5.62-11.3,27.2s7,33.61,21.9,33.37C2412.87,343.36,2410.93,312.42,2410.93,312.42Z"/><path class="cls-3" d="M2359.69,284.19c-7.11-.27-15.28,6.54-11.38,33.69,4.42,30.69,18.29,34.51,26.28,33.47s15.36-11,7.39-39.13C2374.64,286.34,2366.8,284.46,2359.69,284.19Z"/><path class="cls-6" d="M2395.06,346.79s4.1-1.15,2.9,2.69-2.82,11.63-2.82,11.63-1.28,4.64-3.39,2l-9.15-11.3s-2.19-1.82,1.12-3.06S2395.06,346.79,2395.06,346.79Z"/><path class="cls-3" d="M2406.62,372.94c-.85-1.19-4.17-2.43-7.15-2.58a15.48,15.48,0,0,0-5,.65c-.15,2.76-1.39,25.28-2.19,29.71a4.66,4.66,0,0,1-1.43,2.8c1,.22,2.47.52,4.12.8,3.21.56,3.71-3.44,3.71-3.44S2408.29,375.25,2406.62,372.94Z"/><path class="cls-3" d="M2384.35,369.83c-3.19,0-6.16.89-6.9,2.21-1.61,2.86,3.67,29.35,3.67,29.35s.65,3.18,2.11,3.21c1.05,0,3.58.49,5.25-1a4.66,4.66,0,0,0,1.43-2.8c.8-4.43,2-26.95,2.19-29.71v-.28A36.75,36.75,0,0,0,2384.35,369.83Z"/><path class="cls-7" d="M2390.71,323.52c.51,4.23,2,7.65,3.35,7.55s1.92-3.92,1.36-8.15-2-8.65-3.47-8.52S2390.18,319.31,2390.71,323.52Z"/><path class="cls-8" d="M2390.71,323.52c.51,4.23,2,7.65,3.35,7.55s1.92-3.92,1.36-8.15-2-8.65-3.47-8.52S2390.18,319.31,2390.71,323.52Z"/><path class="cls-8" d="M2372.16,327.07c1,4.21,2.81,8,4.09,7.57s1.47-3.75.66-8.71c-.78-5.13-2.93-8.66-4.23-7.29S2371.16,323,2372.16,327.07Z"/><path class="cls-8" d="M2372.16,327.07c1,4.21,2.81,8,4.09,7.57s1.47-3.75.66-8.71c-.78-5.13-2.93-8.66-4.23-7.29S2371.16,323,2372.16,327.07Z"/><path class="cls-9" d="M2356.1,402.24l-.65-.25a15.28,15.28,0,0,0-3.84-1c-1.28-.17-2.55-.16-3.83-.22a10.76,10.76,0,0,0-2.63.37,25.12,25.12,0,0,0-4.89,1.57c-2.8,1.26-5.38,3.24-6.53,6.06-1.39,3.4-.35,7.16,1.29,10.31,2.47,4.77,5.46,6.57,9.83,8.83,3.62,1.86,8.42,3.21,11.84,5.51s3.06,4.57,3.51,8.93c.71,6.71.11,12.76,8.57,13.57,4.69.45,8.79-1.27,10.81-5.68,3.49-7.63,3.41-23.2-1.58-29.54-1.22-1.55-2.48-3.06-3.78-4.55q-2.52-2.88-5.28-5.57c-.91-.88-1.84-1.75-2.8-2.6a17,17,0,0,0-2.71-2.22c-.45-.25-.94-.43-1.4-.67-.86-.46-1.73-.93-2.55-1.43A18.74,18.74,0,0,0,2356.1,402.24Z"/><path class="cls-9" d="M2410.72,410.17c-6.7,1.3-14.52,5.37-16.92,13-1.83,5.81-3.36,19.32,1.18,23.67,2.53,2.43,5.9,3,8.73.87,3.28-2.43,2.8-7.4,4.85-11,3.77-6.66,11.86-6.6,13.48-15.93C2423.37,413.16,2415.48,404.33,2410.72,410.17Z"/><path class="cls-2" d="M2635.49,380.37c32.72,1.52,37.94-25.93,46.45-53.62s-13.27-72.24-37.43-73.3c-40.56-1.77-52.63,4-65.32,35.34C2563.2,328.3,2590.5,377.76,2635.49,380.37Z"/><path class="cls-2" d="M2664.64,266.52c9.35-12.65,23.29-62.35,24.62-74.9s27.95-71.74,8.15-63.63-44.09,46-49,70.13-6.7,40.08-3,62.93C2651.86,262.61,2657.81,265.7,2664.64,266.52Z"/><path class="cls-2" d="M2614.47,259c15.06-22.6,7.85-66.28.11-83.28s-49.77-63.69-55-44.48,11.84,43.06,16.61,64.9,14.39,51.44,19.2,75.17C2602,267.48,2608.92,264.48,2614.47,259Z"/><path class="cls-3" d="M2661.88,261.82c4.52-12.65,10-42.4,11-52.46s12.88-49.8,3-44.22-21.88,37.33-23.84,51.14-2.7,25.17-.88,38.35C2654.75,256.93,2658.11,260.05,2661.88,261.82Z"/><path class="cls-3" d="M2610.63,254.4c8.22-14.85,4-45,1.09-55.92s-20.87-47.72-25.23-35.48,3.31,31.95,5.69,47.11,6.58,35.77,8,52.09C2603.78,259.66,2607.37,257.63,2610.63,254.4Z"/><path class="cls-4" d="M2660.89,473s46.16,13.62,33.25,20.25-16.1,7.3-20.84,7.12c0,0,2.25,3.25-4.13,4.59s-33.06-4.42-34.61-5.27-26.56-8.92-22.31-16.67,24.24-13.32,25.82-13.26S2660.89,473,2660.89,473Z"/><path class="cls-4" d="M2626.76,484.14s13.65,19,8.13,20.25c0,0,1.7,6.43-11.14,7.23s-51.33,2.44-46.14-12.27,7.47-16.94,13.08-17.39,9.89-1,9.89-1Z"/><path class="cls-5" d="M2587.31,478.55s1.28,8-8.26,9.18-23.67-1.69-27.87-16.09-5.63-18.41,1.81-26.83,16.54-10.36,25.56-2.15S2587.31,478.55,2587.31,478.55Z"/><path class="cls-2" d="M2646.47,373.28l17.38,27.47c2.16,11.6,2.93,24.69,6.82,35.78,4,11.45,17.41,17.72,14.36,31.49-3.82,17.26-14.6,30.3-38.36,31s-53.76-1.25-62.09-11.06-19.31-33.17-12.45-47.15,28.11-52.74,35.67-64.32,9.17-12.31,9.17-12.31Z"/><path class="cls-3" d="M2657.64,439.29s12.46,5.22,14.41,16.37,1,37.22-27.57,38.51-43.43-2.44-49.21-16.9-4.66-29.43,5.33-36.19C2612.78,432.84,2622.53,426.09,2657.64,439.29Z"/><path class="cls-3" d="M2660.93,300.42s-.52-28.5-22-29.42c-10.38-.45-16.52,5.62-11.3,27.2s7,33.61,21.9,33.37C2662.87,331.36,2660.93,300.42,2660.93,300.42Z"/><path class="cls-3" d="M2609.69,272.19c-7.11-.27-15.28,6.54-11.38,33.69,4.42,30.69,18.29,34.51,26.28,33.47s15.36-11,7.39-39.13C2624.64,274.34,2616.8,272.46,2609.69,272.19Z"/><path class="cls-6" d="M2645.06,334.79s4.1-1.15,2.9,2.69-2.82,11.63-2.82,11.63-1.28,4.64-3.39,2l-9.15-11.3s-2.19-1.82,1.12-3.06S2645.06,334.79,2645.06,334.79Z"/><path class="cls-3" d="M2656.62,360.94c-.85-1.19-4.17-2.43-7.15-2.58a15.48,15.48,0,0,0-5,.65c-.15,2.76-1.39,25.28-2.19,29.71a4.66,4.66,0,0,1-1.43,2.8c1,.22,2.47.52,4.12.8,3.21.56,3.71-3.44,3.71-3.44S2658.29,363.25,2656.62,360.94Z"/><path class="cls-3" d="M2634.35,357.83c-3.19,0-6.16.89-6.9,2.21-1.61,2.86,3.67,29.35,3.67,29.35s.65,3.18,2.11,3.21c1.05,0,3.58.49,5.25-1a4.66,4.66,0,0,0,1.43-2.8c.8-4.43,2-26.95,2.19-29.71v-.28A36.75,36.75,0,0,0,2634.35,357.83Z"/><path class="cls-7" d="M2640.71,312.52c.51,4.23,2,7.65,3.35,7.55s1.92-3.92,1.36-8.15-2-8.65-3.47-8.52S2640.18,308.31,2640.71,312.52Z"/><path class="cls-8" d="M2640.71,312.52c.51,4.23,2,7.65,3.35,7.55s1.92-3.92,1.36-8.15-2-8.65-3.47-8.52S2640.18,308.31,2640.71,312.52Z"/><path class="cls-8" d="M2622.16,316.07c1,4.21,2.81,8,4.09,7.57s1.47-3.75.66-8.71c-.78-5.13-2.93-8.66-4.23-7.29S2621.16,312,2622.16,316.07Z"/><path class="cls-8" d="M2622.16,316.07c1,4.21,2.81,8,4.09,7.57s1.47-3.75.66-8.71c-.78-5.13-2.93-8.66-4.23-7.29S2621.16,312,2622.16,316.07Z"/><path class="cls-9" d="M2606.1,395.24l-.65-.25a15.28,15.28,0,0,0-3.84-1c-1.28-.17-2.55-.16-3.83-.22a10.76,10.76,0,0,0-2.63.37,25.12,25.12,0,0,0-4.89,1.57c-2.8,1.26-5.38,3.24-6.53,6.06-1.39,3.4-.35,7.16,1.29,10.31,2.47,4.77,5.46,6.57,9.83,8.83,3.62,1.86,8.42,3.21,11.84,5.51s3.06,4.57,3.51,8.93c.71,6.71.11,12.76,8.57,13.57,4.69.45,8.79-1.27,10.81-5.68,3.49-7.63,3.41-23.2-1.58-29.54-1.22-1.55-2.48-3.06-3.78-4.55q-2.52-2.88-5.28-5.57c-.91-.88-1.84-1.75-2.8-2.6a17,17,0,0,0-2.71-2.22c-.45-.25-.94-.43-1.4-.67-.86-.46-1.73-.93-2.55-1.43A18.74,18.74,0,0,0,2606.1,395.24Z"/><path class="cls-9" d="M2660.72,398.17c-6.7,1.3-14.52,5.37-16.92,13-1.83,5.81-3.36,19.32,1.18,23.67,2.53,2.43,5.9,3,8.73.87,3.28-2.43,2.8-7.4,4.85-11,3.77-6.66,11.86-6.6,13.48-15.93C2673.37,401.16,2665.48,392.33,2660.72,398.17Z"/><path class="cls-2" d="M2885.23,377.62c32.73,1.58,38-25.78,46.55-53.6s-12.87-72-37-73.42c-40.6-2.34-52.91,4-65.65,35.26C2813,325.32,2840.24,374.85,2885.23,377.62Z"/><path class="cls-2" d="M2914.58,263.55c12.64-15.83,22.31-62.21,22.92-78.36s13.29-81.32-4.29-68.92-32.87,57.11-35.77,80.27-5,39.84-1.86,61.51C2901.93,259.57,2908,262.8,2914.58,263.55Z"/><path class="cls-2" d="M2864.53,255.9c14-21.88,7.78-67.16,1.42-83.78s-39.56-76.79-48.64-58,4.55,52.77,8.75,75.57,14.05,54.39,19.29,78.67C2851.94,264.45,2858.85,261.59,2864.53,255.9Z"/><path class="cls-3" d="M2911.9,258.88c6.41-12.71,10.44-42.77,11-53.45s6.5-53.83-2.36-46.12-16.42,41-17.88,54.86-2.2,24.61-1.07,37.62C2905,254,2908.33,257.13,2911.9,258.88Z"/><path class="cls-3" d="M2860.57,251.43c7.37-14.61,4-45.13,1.4-56s-17.91-52.68-23.3-40.42,1.29,35.53,3.31,51.3,6.31,36.36,8.22,53C2853.73,256.68,2857.28,254.68,2860.57,251.43Z"/><path class="cls-4" d="M2910.89,478s46.16,13.62,33.25,20.25-16.1,7.3-20.84,7.12c0,0,2.25,3.25-4.13,4.59s-33.06-4.42-34.61-5.27-26.56-8.92-22.31-16.67,24.24-13.32,25.82-13.26S2910.89,478,2910.89,478Z"/><path class="cls-4" d="M2876.76,489.14s13.65,19,8.13,20.25c0,0,1.7,6.43-11.14,7.23s-51.33,2.44-46.14-12.27,7.47-16.94,13.08-17.39,9.89-1,9.89-1Z"/><path class="cls-5" d="M2837.31,483.55s1.28,8-8.26,9.18-23.67-1.69-27.87-16.09-5.63-18.41,1.81-26.83,16.54-10.36,25.56-2.15S2837.31,483.55,2837.31,483.55Z"/><path class="cls-2" d="M2896.47,378.28l17.38,27.47c2.16,11.6,2.93,24.69,6.82,35.78,4,11.45,17.41,17.72,14.36,31.49-3.82,17.26-14.6,30.3-38.36,31s-53.76-1.25-62.09-11.06-19.31-33.17-12.45-47.15,28.11-52.74,35.67-64.32,9.17-12.31,9.17-12.31Z"/><path class="cls-3" d="M2907.64,444.29s12.46,5.22,14.41,16.37,1,37.22-27.57,38.51-43.43-2.44-49.21-16.9-4.66-29.43,5.33-36.19C2862.78,437.84,2872.53,431.09,2907.64,444.29Z"/><path class="cls-3" d="M2910.93,297.42s-.52-28.5-22-29.42c-10.38-.45-16.52,5.62-11.3,27.2s7,33.61,21.9,33.37C2912.87,328.36,2910.93,297.42,2910.93,297.42Z"/><path class="cls-3" d="M2859.69,269.19c-7.11-.27-15.28,6.54-11.38,33.69,4.42,30.69,18.29,34.51,26.28,33.47s15.36-11,7.39-39.13C2874.64,271.34,2866.8,269.46,2859.69,269.19Z"/><path class="cls-6" d="M2895.06,331.79s4.1-1.15,2.9,2.69-2.82,11.63-2.82,11.63-1.28,4.64-3.39,2l-9.15-11.3s-2.19-1.82,1.12-3.06S2895.06,331.79,2895.06,331.79Z"/><path class="cls-3" d="M2906.62,357.94c-.85-1.19-4.17-2.43-7.15-2.58a15.48,15.48,0,0,0-5,.65c-.15,2.76-1.39,25.28-2.19,29.71a4.66,4.66,0,0,1-1.43,2.8c1,.22,2.47.52,4.12.8,3.21.56,3.71-3.44,3.71-3.44S2908.29,360.25,2906.62,357.94Z"/><path class="cls-3" d="M2884.35,354.83c-3.19,0-6.16.89-6.9,2.21-1.61,2.86,3.67,29.35,3.67,29.35s.65,3.18,2.11,3.21c1.05,0,3.58.49,5.25-1a4.66,4.66,0,0,0,1.43-2.8c.8-4.43,2-26.95,2.19-29.71v-.28A36.75,36.75,0,0,0,2884.35,354.83Z"/><path class="cls-7" d="M2890.71,309.52c.51,4.23,2,7.65,3.35,7.55s1.92-3.92,1.36-8.15-2-8.65-3.47-8.52S2890.18,305.31,2890.71,309.52Z"/><path class="cls-8" d="M2890.71,309.52c.51,4.23,2,7.65,3.35,7.55s1.92-3.92,1.36-8.15-2-8.65-3.47-8.52S2890.18,305.31,2890.71,309.52Z"/><path class="cls-8" d="M2872.16,313.07c1,4.21,2.81,8,4.09,7.57s1.47-3.75.66-8.71c-.78-5.13-2.93-8.66-4.23-7.29S2871.16,309,2872.16,313.07Z"/><path class="cls-8" d="M2872.16,313.07c1,4.21,2.81,8,4.09,7.57s1.47-3.75.66-8.71c-.78-5.13-2.93-8.66-4.23-7.29S2871.16,309,2872.16,313.07Z"/><path class="cls-9" d="M2856.1,397.24l-.65-.25a15.28,15.28,0,0,0-3.84-1c-1.28-.17-2.55-.16-3.83-.22a10.76,10.76,0,0,0-2.63.37,25.12,25.12,0,0,0-4.89,1.57c-2.8,1.26-5.38,3.24-6.53,6.06-1.39,3.4-.35,7.16,1.29,10.31,2.47,4.77,5.46,6.57,9.83,8.83,3.62,1.86,8.42,3.21,11.84,5.51s3.06,4.57,3.51,8.93c.71,6.71.11,12.76,8.57,13.57,4.69.45,8.79-1.27,10.81-5.68,3.49-7.63,3.41-23.2-1.58-29.54-1.22-1.55-2.48-3.06-3.78-4.55q-2.52-2.88-5.28-5.57c-.91-.88-1.84-1.75-2.8-2.6a17,17,0,0,0-2.71-2.22c-.45-.25-.94-.43-1.4-.67-.86-.46-1.73-.93-2.55-1.43A18.74,18.74,0,0,0,2856.1,397.24Z"/><path class="cls-9" d="M2910.72,400.17c-6.7,1.3-14.52,5.37-16.92,13-1.83,5.81-3.36,19.32,1.18,23.67,2.53,2.43,5.9,3,8.73.87,3.28-2.43,2.8-7.4,4.85-11,3.77-6.66,11.86-6.6,13.48-15.93C2923.37,403.16,2915.48,394.33,2910.72,400.17Z"/></g></svg>
