<?xml version="1.0" encoding="utf-8"?>
<!-- Generator: Adobe Illustrator 22.1.0, SVG Export Plug-In . SVG Version: 6.00 Build 0)  -->
<svg version="1.1" id="Layer_1" xmlns="http://www.w3.org/2000/svg" xmlns:xlink="http://www.w3.org/1999/xlink" x="0px" y="0px"
	 width="165px" height="430px" viewBox="0 0 165 430" style="enable-background:new 0 0 165 430;" xml:space="preserve">
<style type="text/css">
	.st0{fill:#9E9E9E;}
	.st1{fill:#E0E0E0;}
	.st2{fill:#FFFFFF;}
	.st3{fill:#BFBFBF;}
	.st4{fill:#F98585;}
	.st5{fill:none;stroke:#000000;stroke-miterlimit:10;}
</style>
<g>
	<path class="st0" d="M36.95,389.04c0,0-46.16,13.62-33.25,20.25c12.91,6.63,16.1,7.3,20.84,7.12c0,0-2.25,3.25,4.13,4.59
		s33.06-4.42,34.61-5.27c1.55-0.85,26.56-8.92,22.31-16.67c-4.25-7.75-24.24-13.32-25.82-13.26
		C58.2,385.86,36.95,389.04,36.95,389.04z"/>
	<path class="st0" d="M72.17,399.57c0,0-17.48,18.86-10.31,20.17c0,0-2.13,6.41,14.52,7.36c16.65,0.95,66.58,3.01,59.69-11.76
		c-6.89-14.77-9.88-17.03-17.15-17.55c-7.27-0.52-12.83-1.1-12.83-1.1L72.17,399.57z"/>
	<path class="st1" d="M124.53,382.55c0,0-1.28,7.96,8.26,9.18c9.54,1.22,23.67-1.69,27.87-16.09s5.63-18.41-1.81-26.83
		c-7.44-8.42-16.54-10.36-25.56-2.15C124.27,354.87,124.53,382.55,124.53,382.55z"/>
	<path class="st0" d="M76.21,276.78c0,0-36.95,6.15-45.49-52.07s22.36-73.34,40.63-75.92c30.69-4.33,54.45,11.27,62.24,34.82
		C143.42,213.31,133.03,273.04,76.21,276.78z"/>
	<path class="st0" d="M47.37,163.15c0,0-23.41-33.13-20.56-83.09S39.03,6.02,44.86,13.71S62.89,51,65.48,98.38
		c2.59,47.37,0.64,58.52,0.64,58.52L47.37,163.15z"/>
	<path class="st0" d="M96.93,155.73c0,0-16.81-46.83-3.3-86.91s28.63-79.42,37.92-63.94s4.77,63.12,3.03,79.8
		c-1.74,16.68-18.21,82.98-18.21,82.98L96.93,155.73z"/>
	<path class="st0" d="M65.37,277.28L48,304.75l-7.89,42.23c0,0-17.11,7.77-13.29,25.03s14.6,30.3,38.36,30.98
		s53.75-1.25,62.09-11.06s19.31-33.17,12.45-47.15s-28.11-52.73-35.67-64.32c-7.56-11.58-9.17-12.31-9.17-12.31L65.37,277.28z"/>
	<path class="st2" d="M54.21,343.29c0,0-12.46,5.22-14.41,16.37s-0.96,37.22,27.57,38.51s43.42-2.44,49.2-16.9
		c5.78-14.46,4.67-29.43-5.33-36.19C99.06,336.84,89.31,330.09,54.21,343.29z"/>
	<path class="st3" d="M55.6,296.55c0,0-1.09-7.87-10.27,0.39s-13.07,9.99-10.22,22.54c2.85,12.55,2.42,22.06,6.28,19.54
		c3.86-2.52,9.94-9.08,13.44-21.08C58.33,305.94,55.6,296.55,55.6,296.55z"/>
	<path class="st2" d="M48.63,196.33c0,0,0.49-28.5,23.41-29.37c11.06-0.42,17.62,5.66,12.11,27.23
		c-5.51,21.57-7.37,33.6-23.26,33.32C46.64,227.27,48.63,196.33,48.63,196.33z"/>
	<path class="st2" d="M102.15,168.19c7.11-0.27,15.28,6.54,11.38,33.69c-4.41,30.69-18.28,34.51-26.28,33.46
		c-7.99-1.05-15.36-10.98-7.39-39.12C87.2,170.34,95.04,168.46,102.15,168.19z"/>
	<path class="st4" d="M66.78,230.79c0,0-4.1-1.16-2.9,2.69c1.2,3.85,2.82,11.63,2.82,11.63s1.28,4.63,3.39,2.03
		c2.49-3.07,9.14-11.3,9.14-11.3s2.19-1.82-1.12-3.06C74.81,231.54,66.78,230.79,66.78,230.79z"/>
	<g>
		<path class="st2" d="M88.83,254.94c-0.86-1.19-4.17-2.43-7.16-2.58c-2.2-0.11-4.21,0.41-5,0.65c-0.15,2.77-1.39,25.29-2.19,29.72
			c-0.24,1.34-0.77,2.22-1.43,2.8c1.02,0.22,2.46,0.51,4.12,0.8c3.21,0.56,3.71-3.44,3.71-3.44S90.5,257.25,88.83,254.94z"/>
		<path class="st2" d="M66.56,251.83c-3.19,0.01-6.16,0.89-6.9,2.21c-1.61,2.86,3.67,29.35,3.67,29.35s0.65,3.18,2.12,3.22
			c1.05,0.03,3.58,0.48,5.25-0.99c0.66-0.58,1.19-1.46,1.43-2.8c0.8-4.43,2.04-26.95,2.19-29.72c0.01-0.18,0.02-0.28,0.02-0.28
			S70.32,251.82,66.56,251.83z"/>
	</g>
	<path class="st3" d="M70.17,297.53c0,0-9.45,2.28-9.66,19.59c-0.21,17.31-3.56,20.32,0.95,24.95c4.51,4.63,12.52,10.1,17.16-4.5
		c4.65-14.59,4.43-20.35,12.32-17.77s18.14-1.65,24.08-4.76c5.95-3.11,22.82-15.28,7.67-26.24c-15.15-10.96-17.95,6.45-25.6,10.58
		c-7.64,4.13-11.07,5.23-14.56,4.4S77.85,294.36,70.17,297.53z"/>
	<g>
		<path d="M71.21,208.24c0.01,4.26-1.09,7.84-2.4,7.9c-1.31-0.07-2.38-3.66-2.34-7.92c0.02-4.24,0.94-8.84,2.41-8.88
			C70.34,199.39,71.23,203.99,71.21,208.24z"/>
		<path class="st5" d="M71.21,208.24c0.01,4.26-1.09,7.84-2.4,7.9c-1.31-0.07-2.38-3.66-2.34-7.92c0.02-4.24,0.94-8.84,2.41-8.88
			C70.34,199.39,71.23,203.99,71.21,208.24z"/>
	</g>
	<g>
		<path d="M88.68,210.07c-1.04,4.21-2.8,7.99-4.09,7.56c-1.29-0.37-1.47-3.75-0.66-8.71c0.78-5.12,2.93-8.65,4.23-7.29
			C89.4,202.96,89.68,206.02,88.68,210.07z"/>
		<path class="st5" d="M88.68,210.07c-1.04,4.21-2.8,7.99-4.09,7.56c-1.29-0.37-1.47-3.75-0.66-8.71c0.78-5.12,2.93-8.65,4.23-7.29
			C89.4,202.96,89.68,206.02,88.68,210.07z"/>
	</g>
	<path class="st2" d="M49.95,158.23c0,0-12.03-22.52-10.91-56.23s5.69-49.91,8.68-44.68c2.99,5.23,9.34,25.29,10.95,57.29
		s1.21,36.19,1.21,36.19L49.95,158.23z"/>
	<path class="st2" d="M101.3,150.82c0,0-8.6-30.8-2.04-57.77c6.56-26.97,13.93-53.43,18.72-42.92c4.79,10.51,2.82,42.64,2.05,53.89
		s-8.39,54.32-8.39,54.32L101.3,150.82z"/>
</g>
</svg>
