<svg xmlns="http://www.w3.org/2000/svg" width="1988" height="1130" viewBox="0 0 1988 1130"><defs><style>.cls-1{opacity:0.85;}.cls-2{fill:#fff;}.cls-3{fill:#c6a279;}.cls-4{fill:#42210b;}.cls-5{fill:#b3b3b3;}.cls-6{fill:gray;}.cls-7{fill:none;stroke:gray;stroke-miterlimit:10;}.cls-8{fill:#174c27;}.cls-9{fill:#798439;}.cls-10{fill:#999;}.cls-11{fill:#16a319;}.cls-12{fill:#ff6700;}.cls-13{fill:#492c0d;}</style></defs><title>start_spil</title><g id="nedtoning"><g class="cls-1"><rect class="cls-2" width="1988" height="1130"/></g></g><g id="Introbillede"><path class="cls-3" d="M394.8,177.6q164.65,3.6,329.28,6.84,218.83,4.32,437.65,7.82c56.86.85,113.72,1.66,170.55,2,18.43.12,63.74-2.24,82.18-.63,12.87,1.12,36.28-3.49,44.83,8.44,6.71,9.36,7.84,23.25,10.36,34.18,4,17.41-33.06,19.28-46.56,21.27,8.84,2.36,40.76,3.26,47.15,9.92,4.12,4.28,4.72,15.68,4.51,21.84-.16,4.5-2.19,7.37-1.3,12s7,7.78,5.33,13.12c-2.76,8.83-23.64,7.31-30.78,7.84,7.87.83,21.36,2.31,27.8,6-1.66,7.42,1.61,20.18-3,25.73,15.8,8.38-7.49,15.91-14.8,17.1-24.91,4-84.91,5.88-110.39,5.9,24.86-.21,51.81-.48,76.38,3.18,9.07,1.35,26,3.26,33.66,7,.21,5,10.12,8.5,13.08,12.41,2.42,3.2,9.61,4.08,10.06,8.9.6,6.46-23,15.35-28.29,12.71,6.89,3.42,14.43,4.77,21.93,7.08,11.08,3.42,12.34,3.81,9,14.6-4.06,13.2-.22,20.56-.47,33.93-11.56,4.9-45.51,7.43-53.61,14,8.55.52,28.08.4,36.31,1.21s17.34,5.53,25.39,4.83c-4.64,14.44-2.43,24.52-3.55,38.13-.35,4.33-3.75,7.8-4.76,13-.71,3.7-.86,5.52,3,7.44-2.28,4.54-7.34,8.42-7.81,13.61-.09,1.09,3,6.29,3.24,8.91.19,2.18-3.25,4-2.94,5.75s2.49,4.55,2.59,5.27c1,7.74,1.55,6.07-7.64,8.71-6.76,1.94-33.63,3.81-40.37,5.8-15,4.45-30,9.08-45.2,13.07-25.21,6.64-57.1,16-82.89,7.1,29.36,10,61.16,10,91.81,9.68,15.57-.17,42-.63,57.53-.23,8.38.22,32.64.51,24.81,16.92,8.75,1.57,4.28,6.93,2.72,12.12-2.8,9.3-3.82,7,2,16.23.93,1.48.45,4.91,1.24,5.87.94,1.15,6.72,3.24,6.91,4,1,3.75-3.12,12.66-5.67,16-9.3,12.07-27.75,8.25-37.77,16.83,12,3.17,25.23.68,37.44,3.9,0,1.19.36,2.68.26,3.88a18.93,18.93,0,0,1,10,6.23c-3,3.12-1.84,6.65-4.15,9.45-2.7,3.28-7,5.34-9.91,8.36,3.62,5.47,4.57,52.28,6,52.48-9.43-1.32-14.09,7.4-23.65,6.18,13.07,5,20-3.18,25.32,11.11,12.84,34.38-17.85,23.84-40.08,25-37.2,1.9-85.28,2-122.51,1.33-74.31-1.37-148.56-5.73-222.91-5-107.27,1-214.54,3.1-321.36,8.41-80.18,4-159.49,18.66-240,19.19-13.31.09-45.42.25-58.56-2.26-6.37-1.22-13.1-2-16.59-7.6-2.35-3.77-.61-8.23-2.24-11.87-1.73-3.87-8.64-7.65-9.31-9.55-4.83-13.76,2.7-25-1.41-40,5.34-3.7,10.91-5.32,16.42-7.73-12.93-5.17-10.86-4.46-13.45-16.29-3.9-17.77-.84-34.35-3.08-52.33,8.08-4,15.76-3.28,25-3.87l.24,0c7.81-.55,8-12,.27-12.94-13.93-1.69-30.42-1.42-37.44-2.94,1.94-2.69,1.29-3.07,5-4.19.79-5.13-.86-9.9-.63-15,.08-1.79,2-4.12,1.83-5.91-.33-4.12-3.8-7.08-4.07-10.47-.65-8.19,4.37-14.54,2.91-23.73-2.27-14.21,4.22-21.58,7.25-35.73,12.14,2,36.27,6,45.62-2.94-14.19-4.42-27.18-11.22-41.22-15.88-13.78-4.58-18-3.57-18.52-17.93-.55-16,13.78-31.87,10.09-47.37-1.89-8-7.6-15.29-7.62-23.14,9.78.49,22.24,1.54,31.86-.75-6.66-3.17-13.59-4.87-20.21-8.07,8.73-11.79,32.13-8,43.78-16.78C488.52,468,472,466.73,459.72,463.3c-6.27-1.76-24.56-5.71-26.81-11.33s2.36-19.86,2.59-26c.28-7.35.14-15.5.7-22.82,12.62-1.35,25.24-1.37,37.37-5.9-7-2.84-16.92-2.23-22.47-8.21-5.35-5.76-8-20-9-27.28,24.63,1,53.52,2.31,77.9-1-15.63-4.42-30.19-8.8-46.27-11.65-17-3-28-3.52-35.37-20.44-12.87-29.44-4.67-90.73-4.67-90.73,0,6.19,38.66-4,60.06-1.5,25.53,3,52,1.52,77.62-.67-10.32-7.21-41.43-7.64-53.27-9.09-23.56-2.88-47.27-5.08-70.37-10.76-10-2.48-23.38-3.92-32.3-9-11.21-6.36-17.16-19.68-21.3-31.3" transform="translate(15 13)"/><path class="cls-4" d="M1120.25,497.46v45.11h10.21v78.18L1104,497.46h-39v45.11h8.79v84.12h-8.79v47.17h35.67V626.69h-10.08V534.55l29.72,139.31h27V542.57h8.66V497.46Zm-138,0v45.11h8.53v84.12h-8.53v47.17h72.62V601h-22.1v25.72h-17.31V592.32H1037v-18.1h-21.58V542.57h17.31V568h20.42V497.46Zm-62.82,45.11c1.57-.09,2.7-.14,3.4-.14q16.26,0,16.25,17.45,0,15.25-16.77,15.25h-2.88Zm49.4,65.51v2.84q0,17.45-5.37,17.45c-2.54,0-3.93-2.46-4.19-7.36l-.53-9.7-.66-12.14q-.92-12.93-18.74-15.9c1.31-.26,2.32-.47,3-.65q20.83-4.9,20.83-38.63,0-27.79-7.46-37.16t-29.62-9.37H885.47v45.11h8.91v84.12h-8.91v47.17h43.38V626.69h-9.43V592.57c1.22-.08,2-.12,2.35-.12q15.47,0,15.47,15.89l-.13,11.76L937,631.73q0,43.42,19.26,43.42,20.18,0,20.18-41.74,0-10.47-1.44-25.33ZM801.6,497.46v45.11h8.65v84.12H801.6v47.17h73.65V601H852.84v25.72H835.28V592.32h21.89v-18.1H835.28V542.57h17.56V568h20.71V497.46Zm-38.78,0v9.05q-3.95-11.88-18.09-11.89-15.74,0-21.36,14.48t-5.64,55V614q0,37.86,5.51,50.27t22.41,12.4q15.2,0,21.75-15.64c.17-.43.44-1.07.79-1.93l5,14.73h12.05V602.14h9.7V576.55H753.38v25.59h8.25V608q0,17.58-8,17.58-10,0-10-36.83,0-45.62,10.49-45.62,7.85,0,7.86,10.34l-.4,14.6h23.59V497.46ZM630.72,584.3,643,535.84V584.3Zm5.5-86.84L601.1,626.69h-8.52v47.17h36.17V626.69h-8.12l6.68-24.3H643v24.3H632.68v47.17h73.91V599.94h-22.4v26.75H665.44V592.32h22.28V574.87H665.44v-32.3h18.75v25.32h22.4V497.46Zm-85.08,0v45.11h9.43v66l-.13,9q0,9.17-6.46,9.17t-6.59-14.6a147,147,0,0,1,1.17-17.45H526.07a236.56,236.56,0,0,0-2.46,35.93q0,46,32.57,46,29,0,28.94-34.63l.27-13.05-.14-18V542.57h8.66V497.46Z" transform="translate(15 13)"/><path class="cls-4" d="M595.54,307.6v45.1h8.14L583,385.26V352.7h6.08V307.6H549.8v45.1h8.52v84.12H549.8V484h39.28V436.82H583V414.08l6.08-12.41,13.31,35.15h-6.85V484h38.25V436.82h-7.11l-21.45-56.34,16.54-27.78h9.43V307.6Zm81.28,32.95,7.11,54.28H669.46Zm-12.4-32.95L646.84,436.82H638.7V484h35.67V436.82h-10l2.84-23.9h19.13l2.71,23.9h-9.18V484H722.7V436.82h-7.63L697,307.6Zm120.69,0v45.1h10.21v78.18L768.83,307.6h-39v45.1h8.78v84.12h-8.78V484h35.66V436.82H755.39V344.69L785.11,484h27V352.7h8.65V307.6Zm44.46,0v45.1h8.79v84.12h-8.79V484h42.77V436.82H863V352.7h9.3V307.6Zm108.29,0v45.1h10.21v78.18L921.58,307.6h-39v45.1h8.79v84.12h-8.79V484h35.67V436.82H908.13V344.69L937.86,484h27V352.7h8.66V307.6Zm44.45,0v45.1h8.53v84.12h-8.53V484h72.63V411.11h-22.1v25.71h-17.32V402.45h21.58V384.36h-21.58V352.7h17.32v25.45h20.42V307.6Zm138,0v45.1h10.21v78.18L1104.05,307.6h-39v45.1h8.79v84.12H1065V484h35.66V436.82h-10.07V344.69L1120.33,484h27V352.7H1156V307.6Z" transform="translate(15 13)"/><path d="M1211.62,364.05q0-19.41,16.34-19.42,17.26,0,17.27,20.05,0,20.34-22.82,37.31-10.8-25.9-10.79-37.94m-2.77,239.29q-41,0-41-70.61,0-37.94,26.83-62.6l44.1,119.64q-12,13.58-29.91,13.57m86.33-211.84v67.22h13.57q-9.24,50.26-30.22,83.57l-40.7-106.08Q1298,392.13,1298,334.76q0-74.31-67.22-74.31-71.85,0-71.85,88.5,0,25,9.87,52.42l9.25,25.28a38.42,38.42,0,0,0-3.7,2.78l-6.17,3.7q-57,34.53-57,129.82,0,132,85.41,132,35.15,0,65.06-42.87l13.26,36.08h89.74V661.62q-37.93-9.24-65.07-73.08l4.63-8.94a411.16,411.16,0,0,0,41.62-120.88h18.82V391.5Z" transform="translate(15 13)"/><path class="cls-3" d="M603.06,369" transform="translate(15 13)"/><path class="cls-5" d="M1334.24,132.48c5.92-4.35,14-3.06,17.85,1.3,1.33,8.51,10.4,29.74-7.08,29.71-8.84,0-11.54-27.29-7.35-31.7" transform="translate(15 13)"/><rect class="cls-6" x="1163.18" y="319.11" width="410.18" height="26.73" transform="translate(1437.27 -1061.57) rotate(78.54)"/><path class="cls-4" d="M1378.16,512.86s-39.12-173.47-37.09-183,11.13-11.35,11.13-11.35l38.86,191.7Z" transform="translate(15 13)"/><path class="cls-4" d="M1417.16,710.07c-25.56,5.18-49,4.63-73.43,3.35,1-12.86,4.3-26.39,6.41-39.31,2.59-15.83,3-31.88,6.29-47.65,7.06-33.75,8.71-68.1,15.89-101.37.9-4.18.83-14.78,4.81-18.51,5-4.69,10.89-.44,14.83,1.56,13.16,6.69,19.52,16.82,21.93,28.9,5.95,29.88,6.76,60.68,11.14,90.84,2.89,19.92,5,40.82,6.37,60.94.35,4.9,1.52,9.16-3.22,13.51C1425.1,705.15,1420.16,708,1417.16,710.07Z" transform="translate(15 13)"/><path class="cls-6" d="M1375.26,510.28,1367,469.67l3.79-.77,13.67-2.77,8.24,40.61Z" transform="translate(15 13)"/><rect class="cls-6" x="1334.08" y="360.31" width="41.44" height="20.14" transform="translate(1463.63 -1018.01) rotate(78.54)"/><path class="cls-6" d="M1351.22,494a20.75,20.75,0,0,1,16.19-24.43l1,4.78a15.85,15.85,0,0,0,6.29,31.06l1,4.78A20.75,20.75,0,0,1,1351.22,494Z" transform="translate(15 13)"/><path class="cls-7" d="M1369.93,499a25.28,25.28,0,0,1-11-2.27l.87-1.8c6.94,3.38,15.62,1.58,15.71,1.56l.42,1.95A31.37,31.37,0,0,1,1369.93,499Z" transform="translate(15 13)"/><path class="cls-6" d="M1369.93,498.48a24.77,24.77,0,0,1-10.74-2.22l.43-.9c7.09,3.45,15.94,1.61,16,1.6l.21,1A29.73,29.73,0,0,1,1369.93,498.48Z" transform="translate(15 13)"/><path class="cls-8" d="M1368.21,665.68c11.72,1.26,21.32-.07,28.82,9.77,8.62,11.31,9.65,26.44,9.69,40.44,0,14.39-1.86,41.47-16.6,45.75-14.95,4.34-28.82,3.41-44.42,3.41-13.63,0-28.61,4.55-38.22-7.25-6.48-8-3.93-25.85-4.39-35.72-.59-12.67-1.94-27.88,0-40.46,2.9-19.14,17.4-9.8,30.35-16.65,5.59-3,7.31-13.89,3.13-20.67-1.94,0-5.42.7-6.65-.81s-.32-11.46,0-12.74c1.71-6.88,10.1-5,15.88-5,7.46,0,26.66-3.43,29.86,5.17,2.23,6-.68,15.3-7.07,15.09C1368.68,647.56,1368,660.86,1368.21,665.68Z" transform="translate(15 13)"/><rect class="cls-9" x="1319.78" y="687.77" width="64.11" height="56.21" transform="translate(2718.66 1444.74) rotate(180)"/><path d="M1360.24,696.89v9.54h-1.64l-4.3,7.72,4.72,8.2h1.68v10h-9v-10h2l-3-5-3.18,5h2.09v10h-7.85v-10h1.64l4.57-8.2-4.57-7.72h-1.64v-9.54h8.94v9.54h-2.1l3.14,4.71,2.55-4.71h-1.92v-9.54Z" transform="translate(15 13)"/><path d="M1375.89,707.08v4.06h-.69l-1.83,3.29,2,3.49h.72v4.27h-3.81v-4.27h.85l-1.29-2.14-1.36,2.14h.89v4.27H1368v-4.27h.7l2-3.49-2-3.29h-.7v-4.06h3.81v4.06h-.9l1.34,2,1.09-2h-.82v-4.06Z" transform="translate(15 13)"/><path d="M1334.14,707.08v4.06h-.7l-1.83,3.29,2,3.49h.71v4.27h-3.8v-4.27h.84l-1.29-2.14-1.35,2.14h.89v4.27h-3.35v-4.27h.7l2-3.49-2-3.29h-.7v-4.06h3.81v4.06h-.89l1.34,2,1.08-2h-.82v-4.06Z" transform="translate(15 13)"/><rect x="1371.82" y="718.17" width="1.46" height="15.71" rx="0.5" ry="0.5" transform="translate(2113.58 -633.53) rotate(90)"/><rect x="1329.62" y="718.17" width="1.46" height="15.71" rx="0.5" ry="0.5" transform="translate(2071.38 -591.32) rotate(90)"/><path d="M635.41,708.59c-10.19-2.6-13.81,13.16-8.44,19.69,6.8,8.28,27.39,11.72,37.45,12,5.61.13,12.92,1,18.33-.09,1.62-.33,3.53-2.29,5-2.59,4.88-1,22.14,1.24,25.07-1.95,5.42-5.92-3.69-18.44-8.45-21.91C687.08,701.06,656.61,704.46,635.41,708.59Z" transform="translate(15 13)"/><path class="cls-10" d="M632.86,705c1-11.88,13.28-31,20.16-41,12.4-18,18.66-3.68,28.88,10.43,3.8,5.24,9.19,11.67,12.08,17.51,1.84,3.73.75,8.09,2.83,11.58,2.53,4.27,13.36,11.37,12.75,16.88-1.5,13.56-37.19,13.9-46.08,12.26C648.56,729.9,618.28,720.27,632.86,705Z" transform="translate(15 13)"/><path class="cls-6" d="M687.12,708.21c-6.31-1.94-12.49-5.43-13.68-12.38-1.11-6.53,2.55-13.25-.74-19.62-2.38-4.6-8.28-7.93-10.53-12.71a17.37,17.37,0,0,1-1.58-7.1c-2.29,1.14-4.77,3.54-7.57,7.6-6.88,10-19.17,29.13-20.16,41-14.58,15.26,15.7,24.89,30.62,27.65,6.21,1.15,25.47,1.32,37-3.29C692.26,725.6,690.38,717.94,687.12,708.21Z" transform="translate(15 13)"/><path class="cls-11" d="M729.78,271.31c3.46-3.15,11.85-17.58,15.31-20.73-13.75-2.86-32.41,5.55-46.16,2.69a7.61,7.61,0,0,0,6.8-5.69l-66.67-3.3c-3.63-.18-8.57-2.14-7.23-5.42a106.6,106.6,0,0,1,37.78-5.49,171.78,171.78,0,0,1-26.8-3.81,68.12,68.12,0,0,1,25-2,69.85,69.85,0,0,0-23.37-9.14,97.54,97.54,0,0,1,37.18-1.79,45.52,45.52,0,0,0-21.86-5.66,107.35,107.35,0,0,1,30,1.29c-.07,1.59-3.1.09-2.22-1.28s2.94-1.3,4.56-1c13.3,2.15,31.1,15.52,44.39,17.66-.53-2.92-5.56-17.06-6.09-20,2.2-1.68,5.4,0,7.14,2s8.11,16.1,10.8,16.68.84-14.79-1.51-16.12c11.86-1.6,19.44,13.27,27.33,21.57,2.6,2.74,9.49-4.81,11.59-1.7l8.35,12.32c3.07,4.54.31-6.23-.82-.8C789.64,258.66,740.09,261.93,729.78,271.31Z" transform="translate(15 13)"/><path class="cls-12" d="M800.65,285.94l34.86.29c19.08.16,38.59.25,56.62-6,4.25-1.47,8.59-3.31,13.06-2.84s8.24,3.1,12.29,4.93c7.34,3.32,15.57,4,23.61,4.43a486.38,486.38,0,0,0,62.5-.68c-30.78-26.61-70.52-40-109.17-52.75L823.75,210c-5.5-1.81-11.09-3.65-16.88-3.75-12.88-.21-24.67,8.45-31.39,19.44C758.67,253.14,764.38,285.64,800.65,285.94Z" transform="translate(15 13)"/><path class="cls-13" d="M802.66,286c-11-18.27-12.62-36.83-7.11-51.88l.25.12c-2,16.76,2.13,39.89,13.16,52.36Z" transform="translate(15 13)"/><path class="cls-13" d="M842.56,216c-2.11-1.13-4.61,3.39-5.5,4.14a10.63,10.63,0,0,0-2.36,3.14,34.75,34.75,0,0,0-2.72,8.82,58.31,58.31,0,0,0-.54,19.25l-.25.06a59.41,59.41,0,0,1-2.61-19.63c0-1.68.18-3.37.38-5a25.48,25.48,0,0,1,1.11-5.26,16.06,16.06,0,0,1,2.79-5.23c1.36-1.67.26-2.38,2.74-2.81Z" transform="translate(15 13)"/><path class="cls-13" d="M862.68,285.4c-4.83-8.67-6.87-17.91-6.15-25.73l.25.05c1.54,8.27,8.2,19.73,13.59,25.67Z" transform="translate(15 13)"/><path class="cls-13" d="M908.49,237.84c-1.79.2-6.35,4.45-7.81,6.52a11.76,11.76,0,0,0-2.12,7.93l-.27.13c-2.16-2.31-1.35-5.23-1.56-8.94s2.38-4.32,5.08-8Z" transform="translate(15 13)"/><polygon class="cls-13" points="962.18 299.93 964.11 283.1 964.4 283.04 968.47 300.31 962.18 299.93"/><path d="M891.72,734.68a10.74,10.74,0,0,1,1.3,1.94C894.94,737.47,893.55,735.86,891.72,734.68Z" transform="translate(15 13)"/><path d="M897.36,754.34c-.65-4.73-1.77-13-4.34-17.72l-.2-.09c-4.27-4.18-4.66-9.88-7.43-14.9-3.07-5.53-7.59-6.73-13.87-8.09-6.62-1.44-10.3-2.13-15.82-6.16-4-3-9-4.15-14-4.37-10.79-.49-18.32,8-28.6,9.06-5.7.59-11-.4-13.32,6.42-2,5.88,3,13,.88,18.72s-9.24,4.51-12.64,8.87c-2.94,3.77-5.17,12.09-4.3,16.93,2,11.16,12.65,19.46,18,28.86,2.88,5,4.78,8.2,10.18,10.71,6.25,2.9,10.48,3.24,17.14,4.14,10.06,1.35,33.92,9.58,41-1.18,2-3.11,1.11-6.9,3-9.87,1.76-2.72,6.8-4.85,9.53-6.39,8.93-5,11.12-5.33,13.32-15.66C897.35,767.21,898.27,761,897.36,754.34ZM851.5,768.45c-5,1.12-10.47,1.87-15.12,4.09-4.3,2.06-7.84,5.7-12.5,7.7-2.76-3.14-.37-11.71-.67-15.91-.72-10.18-.83-20.2-.63-30.31,7.39,4.61,18.47,8.39,27.82,12.81,9.64,4.56,18.49,10.22,28.25,14.11C869.69,763.68,860.82,766.34,851.5,768.45Z" transform="translate(15 13)"/><path d="M957.44,769.39A18.74,18.74,0,0,1,946.11,787a31,31,0,0,1-13.19,2.6q-9.13,0-15.08-3.56a20.34,20.34,0,0,1-6.84-6.84,15.8,15.8,0,0,1-2.63-8.32,5.63,5.63,0,0,1,1.57-4,5.3,5.3,0,0,1,4-1.67,4.68,4.68,0,0,1,3.35,1.3,10.22,10.22,0,0,1,2.33,3.86,26.35,26.35,0,0,0,2.55,5.08,10.39,10.39,0,0,0,3.86,3.37,13.88,13.88,0,0,0,6.52,1.32,14.43,14.43,0,0,0,9-2.67,8.1,8.1,0,0,0,3.48-6.66,7.18,7.18,0,0,0-1.88-5.15,12,12,0,0,0-4.84-3q-3-1-7.94-2.21a56.38,56.38,0,0,1-11.14-3.76,18.1,18.1,0,0,1-7.12-5.86,15.53,15.53,0,0,1-2.64-9.23,16.2,16.2,0,0,1,2.78-9.33,17.59,17.59,0,0,1,8-6.28,32.1,32.1,0,0,1,12.38-2.19,29.83,29.83,0,0,1,9.84,1.45,20.69,20.69,0,0,1,6.89,3.87,16.12,16.12,0,0,1,4,5.06,12,12,0,0,1,1.26,5.16,6.23,6.23,0,0,1-1.58,4.15,5,5,0,0,1-3.94,1.85,4.42,4.42,0,0,1-3.26-1.11,14.81,14.81,0,0,1-2.42-3.63,16.46,16.46,0,0,0-4-5.62q-2.36-2-7.58-2a12.84,12.84,0,0,0-7.81,2.19,6.43,6.43,0,0,0-3,5.28,5.43,5.43,0,0,0,1,3.3,8.54,8.54,0,0,0,2.78,2.39,18.34,18.34,0,0,0,3.58,1.56q1.82.57,6,1.65a93.45,93.45,0,0,1,9.46,2.78,28.24,28.24,0,0,1,7.2,3.69,15.05,15.05,0,0,1,4.63,5.5A18,18,0,0,1,957.44,769.39Z" transform="translate(15 13)"/><path d="M967.88,742.42h1.27V735.3c0-1.91,0-3.41.14-4.5a7,7,0,0,1,.82-2.8,5.24,5.24,0,0,1,1.94-2,5.35,5.35,0,0,1,2.82-.76,5.59,5.59,0,0,1,4,1.69,5,5,0,0,1,1.5,2.76,25.75,25.75,0,0,1,.32,4.62v8.08h4.21a5.32,5.32,0,0,1,3.73,1.19,4,4,0,0,1,1.28,3.07A3.45,3.45,0,0,1,988,750a11.54,11.54,0,0,1-5.25,1h-2.14v21.8a38.28,38.28,0,0,0,.18,4.27,4.42,4.42,0,0,0,1,2.43,3.34,3.34,0,0,0,2.67.94,14.43,14.43,0,0,0,2.74-.37,13.52,13.52,0,0,1,2.69-.37,3.4,3.4,0,0,1,2.51,1.15,4,4,0,0,1,1.12,2.84q0,2.88-3,4.39c-2,1-4.92,1.52-8.72,1.52q-5.39,0-8.17-1.87a8.61,8.61,0,0,1-3.64-5.16,35.93,35.93,0,0,1-.86-8.82V751h-1.52a5.36,5.36,0,0,1-3.79-1.22,4,4,0,0,1-1.31-3.08,3.9,3.9,0,0,1,1.37-3.07A5.91,5.91,0,0,1,967.88,742.42Z" transform="translate(15 13)"/><path d="M1026.85,782.89a35.38,35.38,0,0,1-8.06,5,22.07,22.07,0,0,1-8.74,1.67,16.22,16.22,0,0,1-7.78-1.8,13,13,0,0,1-7-11.57,12.21,12.21,0,0,1,3-8.3,14.85,14.85,0,0,1,8.22-4.6q1.1-.27,5.43-1.17t7.44-1.68c2.06-.5,4.3-1.12,6.71-1.84q-.21-4.7-1.83-6.88t-6.72-2.2a13.64,13.64,0,0,0-6.59,1.26,10.86,10.86,0,0,0-3.79,3.78,39.66,39.66,0,0,1-2.23,3.32c-.44.54-1.37.8-2.8.8a4.79,4.79,0,0,1-3.35-1.28,4.21,4.21,0,0,1-1.41-3.27,10.14,10.14,0,0,1,2.15-6.08,15.41,15.41,0,0,1,6.69-4.87,29.46,29.46,0,0,1,11.33-1.91q7.59,0,11.92,1.85a11.16,11.16,0,0,1,6.13,5.84,26.09,26.09,0,0,1,1.79,10.59c0,2.78,0,5.14,0,7.08s0,4.1-.06,6.47a24.68,24.68,0,0,0,1.07,7,22.59,22.59,0,0,1,1.08,4.67,4.41,4.41,0,0,1-1.67,3.32,5.47,5.47,0,0,1-3.77,1.5,5,5,0,0,1-3.49-1.71A25.28,25.28,0,0,1,1026.85,782.89Zm-.76-17.15a55.68,55.68,0,0,1-7.35,2c-3.21.71-5.44,1.23-6.67,1.56a9.06,9.06,0,0,0-3.54,2,5.09,5.09,0,0,0-1.69,4.06,6.1,6.1,0,0,0,2,4.58,7.2,7.2,0,0,0,5.19,1.89,13.22,13.22,0,0,0,6.29-1.54,10.12,10.12,0,0,0,4.24-4q1.55-2.68,1.55-8.86Z" transform="translate(15 13)"/><path d="M1060.47,772.47v9.9a7.77,7.77,0,0,1-1.65,5.41,5.38,5.38,0,0,1-4.17,1.8,5.2,5.2,0,0,1-4.08-1.82,7.94,7.94,0,0,1-1.6-5.39v-33q0-8,5.6-8a4.62,4.62,0,0,1,4.13,1.87,10.59,10.59,0,0,1,1.39,5.51,20.37,20.37,0,0,1,4.23-5.51,8.56,8.56,0,0,1,5.79-1.87,14.38,14.38,0,0,1,7,1.87q3.42,1.86,3.42,5a4.79,4.79,0,0,1-1.46,3.58,4.44,4.44,0,0,1-3.13,1.41,14.33,14.33,0,0,1-3.06-.8,13.69,13.69,0,0,0-4.27-.81,6.14,6.14,0,0,0-4.13,1.37A8.81,8.81,0,0,0,1062,757a29.47,29.47,0,0,0-1.22,6.41Q1060.47,767.13,1060.47,772.47Z" transform="translate(15 13)"/><path d="M1088.52,742.42h1.26V735.3q0-2.87.15-4.5a6.82,6.82,0,0,1,.82-2.8,5.24,5.24,0,0,1,1.94-2,5.32,5.32,0,0,1,2.82-.76,5.59,5.59,0,0,1,4,1.69,5,5,0,0,1,1.49,2.76,24.85,24.85,0,0,1,.32,4.62v8.08h4.21a5.32,5.32,0,0,1,3.73,1.19,4,4,0,0,1,1.29,3.07,3.45,3.45,0,0,1-1.84,3.34,11.52,11.52,0,0,1-5.24,1h-2.15v21.8a35.56,35.56,0,0,0,.19,4.27,4.41,4.41,0,0,0,1,2.43,3.38,3.38,0,0,0,2.68.94,14.35,14.35,0,0,0,2.73-.37,13.51,13.51,0,0,1,2.7-.37,3.42,3.42,0,0,1,2.51,1.15,4,4,0,0,1,1.11,2.84,4.75,4.75,0,0,1-3,4.39q-3,1.52-8.72,1.52c-3.59,0-6.32-.62-8.17-1.87a8.61,8.61,0,0,1-3.64-5.16,35.86,35.86,0,0,1-.87-8.82V751h-1.51a5.39,5.39,0,0,1-3.8-1.22,4,4,0,0,1-1.3-3.08,3.87,3.87,0,0,1,1.37-3.07A5.91,5.91,0,0,1,1088.52,742.42Z" transform="translate(15 13)"/></g></svg>
