<?xml version="1.0" encoding="utf-8"?>
<!-- Generator: Adobe Illustrator 22.1.0, SVG Export Plug-In . SVG Version: 6.00 Build 0)  -->
<svg version="1.1" id="Layer_1" xmlns="http://www.w3.org/2000/svg" xmlns:xlink="http://www.w3.org/1999/xlink" x="0px" y="0px"
	 viewBox="0 0 200 200" style="enable-background:new 0 0 200 200;" xml:space="preserve">
<style type="text/css">
	.st0{fill:#A2C037;}
</style>
<g>
	<g>
		<path class="st0" d="M98.8,87.9c-20.5,0-37.1-16.5-37.1-36.7s16.7-36.7,37.1-36.7s37.1,16.5,37.1,36.7S119.3,87.9,98.8,87.9z
			 M98.8,22.7c-16,0-28.9,12.8-28.9,28.5s13,28.5,28.9,28.5s28.9-12.8,28.9-28.5S114.6,22.7,98.8,22.7z"/>
	</g>
	<g>
		<path class="st0" d="M171,189h-8.2c0-38.5-28.7-69.9-64-69.9s-64,31.4-64,69.9h-8.2c0-43,32.3-78.1,72.2-78.1
			C138.5,111,171,146,171,189z"/>
	</g>
</g>
</svg>
